<svg width="108" height="24" viewBox="0 0 108 24" fill="none" xmlns="http://www.w3.org/2000/svg">
<path d="M34.1484 15.8406L33.3405 14.0256H28.0825L27.2745 15.8406H25.0371L29.0148 7.13832H32.4828L36.4604 15.8406H34.1484ZM28.8407 12.3224H32.5946L30.7177 8.09557L28.8407 12.3224Z" fill="white"/>
<path d="M38.9547 12.857C39.021 13.2714 39.2903 13.6236 39.7627 13.9137C40.235 14.1955 40.9187 14.3363 41.8137 14.3363C42.4849 14.3363 43.0691 14.2659 43.5663 14.125C44.0635 13.9841 44.3121 13.7686 44.3121 13.4786C44.3121 13.1222 43.8936 12.8528 43.0567 12.6705L39.8497 11.937C38.1178 11.5392 37.2518 10.7518 37.2518 9.57496C37.2518 8.71302 37.6578 8.06656 38.4699 7.63559C39.282 7.20462 40.3013 6.98914 41.5278 6.98914C42.8371 6.98914 43.9144 7.23777 44.7596 7.73505C45.6131 8.22403 46.0896 8.92021 46.1891 9.82359L44.0511 9.91062C43.9765 9.56252 43.7155 9.26416 43.268 9.01552C42.8288 8.76689 42.2197 8.64257 41.4408 8.64257C40.8772 8.64257 40.4132 8.71302 40.0486 8.85391C39.6922 8.9948 39.5141 9.18957 39.5141 9.43821C39.5141 9.7863 39.916 10.0515 40.7198 10.2338L43.6906 10.8803C44.6602 11.0958 45.3811 11.3859 45.8535 11.7505C46.3341 12.1152 46.5744 12.629 46.5744 13.2921C46.5744 14.1955 46.1476 14.8709 45.2941 15.3185C44.4489 15.766 43.2887 15.9898 41.8137 15.9898C38.6564 15.9898 36.9908 14.9662 36.8167 12.9191L38.9547 12.857Z" fill="white"/>
<path d="M46.9391 8.99066V7.13832H56.647V8.99066H52.9304V15.8406H50.6681V8.99066H46.9391Z" fill="white"/>
<path d="M58.052 15.8406V7.13832H66.691V8.90364H60.3143V10.5819H65.3237V12.2478H60.3143V14.0753H66.9396V15.8406H58.052Z" fill="white"/>
<path d="M75.8226 15.8406L72.8021 12.6456H70.863V15.8406H68.6007V7.13832H70.863H74.6914C75.7107 7.13832 76.5477 7.37452 77.2023 7.84693C77.857 8.31934 78.1843 9.02381 78.1843 9.96034C78.1843 10.7891 77.9357 11.419 77.4385 11.85C76.9413 12.2727 76.2576 12.5254 75.3875 12.6083L78.694 15.8406H75.8226ZM70.863 8.94093V10.9425H74.5796C74.9939 10.9425 75.3212 10.8596 75.5616 10.6938C75.8019 10.5198 75.922 10.2753 75.922 9.96034C75.922 9.63712 75.7977 9.38848 75.5491 9.21443C75.3088 9.0321 74.9856 8.94093 74.5796 8.94093H70.863Z" fill="white"/>
<path d="M79.9747 15.8406V7.13832H82.237V15.8406H79.9747Z" fill="white"/>
<path d="M86.8414 13.9883H93.2554V15.8406H83.5847V14.2742L89.8122 8.99066H84.0074V7.13832H93.0814V8.70473L86.8414 13.9883Z" fill="white"/>
<path d="M104.048 7.13832H108.001L107.988 15.8406H105.826V8.31934L102.855 15.8406H99.7845L96.8137 8.31934V15.8406H94.6385V7.13832H98.6037L101.351 14.5726L104.048 7.13832Z" fill="white"/>
<path fill-rule="evenodd" clip-rule="evenodd" d="M18.1347 1.13578C16.1846 2.25573 12.5735 4.34775 11.6491 4.8931C10.7198 5.44142 10.2646 6.09964 10.1661 7.03767C10.1452 7.23748 10.1277 8.11336 10.1273 8.98401C10.1266 10.545 10.1254 10.5696 10.0376 10.7479C9.98869 10.8473 9.89069 10.9872 9.81982 11.0588C9.6597 11.2204 9.32012 11.3285 9.08383 11.293C8.97136 11.276 8.48348 11.0202 7.55521 10.4916C6.00936 9.61119 5.67282 9.43499 5.42063 9.37403C4.9326 9.25613 4.3971 9.2772 3.9146 9.43336C3.71189 9.499 2.55793 10.1446 0.898417 11.1209C0.083846 11.6002 0.00321117 11.6774 0.00297389 11.9792C0.00261798 12.368 -0.276657 12.1848 4.6689 15.0403C8.15564 17.0536 9.22726 17.6547 9.42132 17.7064C9.5799 17.7486 9.83347 17.7742 10.1123 17.7759C10.8278 17.7803 10.9302 17.7386 12.7289 16.7115C14.1675 15.89 14.2957 15.825 14.5149 15.805C14.7206 15.7863 14.7796 15.7981 14.9745 15.897C15.2017 16.0124 15.3402 16.1557 15.4315 16.3699C15.4691 16.4582 15.4882 16.9739 15.5055 18.3738C15.5281 20.2001 15.5316 20.2675 15.6196 20.5367C15.7585 20.9615 15.9577 21.3106 16.2282 21.603C16.454 21.8471 16.5994 21.9419 18.0358 22.7809C20.0504 23.9576 20.1893 24.0294 20.3811 23.9933C20.5735 23.9571 20.792 23.762 20.8454 23.5788C20.8747 23.4781 20.8839 21.8416 20.8755 18.2349L20.8634 13.0362L20.7517 12.7187C20.588 12.2533 20.4304 12.0007 20.095 11.6665C19.7805 11.3533 19.6922 11.297 17.7205 10.1549C17.2489 9.88176 16.7994 9.59186 16.7097 9.50297C16.4253 9.22117 16.3749 8.76193 16.5884 8.3964C16.7085 8.19079 16.7058 8.19265 17.7195 7.6004C19.5295 6.54284 19.8594 6.3364 20.0665 6.13182C20.3435 5.85823 20.6294 5.39281 20.7559 5.00961L20.8573 4.70241L20.8603 2.57928C20.862 1.41155 20.8497 0.406849 20.8329 0.346647C20.7849 0.174574 20.5131 -0.000277463 20.2939 3.30571e-07C20.1282 0.000198755 19.9358 0.101395 18.1347 1.13578ZM15.5219 8.91182C15.5759 8.96607 15.584 9.14977 15.584 10.3233C15.584 11.6955 15.5709 11.8268 15.4343 11.8249C15.397 11.8244 14.8326 11.5139 14.1801 11.1349C13.083 10.4977 12.9937 10.4376 12.9937 10.3377C12.9937 10.2377 13.083 10.1776 14.1801 9.54043C14.8326 9.1614 15.3874 8.85091 15.4131 8.85039C15.4387 8.84987 15.4877 8.87753 15.5219 8.91182ZM12.8078 10.5242C12.8759 10.5924 12.8759 13.2974 12.8078 13.3656C12.7817 13.3918 12.7239 13.4128 12.6793 13.4123C12.5757 13.4111 10.3275 12.1069 10.2695 12.0143C10.2386 11.9651 10.2381 11.9255 10.2678 11.8782C10.3247 11.7876 12.5775 10.4794 12.6793 10.4778C12.7239 10.4771 12.7817 10.498 12.8078 10.5242ZM15.5365 12.1116C15.5716 12.1468 15.584 12.5184 15.584 13.5374C15.584 14.7374 15.576 14.9236 15.5219 14.978C15.4877 15.0123 15.4461 15.0403 15.4294 15.0403C15.4128 15.0403 15.0715 14.8509 14.671 14.6193C14.2705 14.3877 13.7336 14.0797 13.478 13.9347C13.0127 13.6709 12.8987 13.5522 13.0067 13.4438C13.1005 13.3497 15.3323 12.0702 15.408 12.0672C15.4526 12.0654 15.5104 12.0854 15.5365 12.1116Z" fill="white"/>
</svg>
