<svg width="66" height="16" viewBox="0 0 66 16" fill="none" xmlns="http://www.w3.org/2000/svg">
<g clip-path="url(#clip0_4241_6579)">
<g filter="url(#filter0_d_4241_6579)">
<path d="M20.0816 6.73673L24.8642 1.85274L23.0499 0L19.1746 3.95751L15.2992 0L13.4849 1.85274L18.2674 6.73673C18.5179 6.9925 18.8462 7.12044 19.1745 7.12044C19.5028 7.12044 19.8311 6.99261 20.0816 6.73673ZM27.0049 11.9542L23.1297 7.99671L27.0049 4.03909L25.1906 2.18634L20.4082 7.07033C19.9073 7.58198 19.9073 8.41143 20.4082 8.92308L25.1906 13.8071L27.0049 11.9542ZM19.1678 12.0425L23.0431 16L24.8573 14.1473L20.075 9.26327C19.5738 8.75162 18.7618 8.75162 18.2606 9.26327L13.4782 14.1473L15.2926 16L19.1678 12.0425ZM17.9341 8.92978C18.1748 8.68401 18.3099 8.35087 18.3099 8.00341C18.3099 7.65595 18.1748 7.32269 17.9341 7.07704L13.1517 2.19305L11.3374 4.04579L15.2127 8.00329L11.3374 11.9609L13.1517 13.8137L17.9342 8.92967L17.9341 8.92978ZM11.2727 15.3575H7.25076L6.96119 13.4897H4.33913L4.02167 15.3575H0L3.46201 0.642654H8.22127L11.2729 15.3575H11.2727ZM6.50421 10.3351L6.25215 8.6197C6.24529 8.61345 6.23345 8.52755 6.21464 8.36189C6.20236 8.22282 6.13696 7.66981 6.01879 6.70435C6.00618 6.59618 5.99091 6.44859 5.9721 6.26111C5.9534 6.07363 5.9285 5.83661 5.89752 5.55062L5.77547 4.15975C5.76363 4.29338 5.74637 4.44256 5.72457 4.60777C5.70278 4.77298 5.67943 4.95387 5.65453 5.15112C5.61094 5.54482 5.57995 5.8182 5.56125 5.97057C5.54211 6.12249 5.53027 6.21509 5.52419 6.24713L5.25343 8.02852L4.86139 10.3352H6.50399L6.50421 10.3351ZM35.3101 15.3573V11.8221H31.9695V9.57255H34.9646V6.24713H31.9695V4.10294H35.3101V0.642882H28.078V15.3573H35.3101ZM42.9638 11.8221H40.0431V0.642882H36.1516V15.3573H42.9638V11.8221ZM54.9132 15.3575H50.8917L50.6018 13.4897H47.9797L47.6623 15.3575H43.6404L47.1026 0.642654H51.862L54.9136 15.3575H54.9132ZM50.1452 10.3351L49.8927 8.6197C49.8863 8.61345 49.874 8.52755 49.8552 8.36189C49.8435 8.22282 49.7777 7.66981 49.6594 6.70435C49.6468 6.59618 49.6319 6.44847 49.6128 6.26099C49.594 6.07351 49.5691 5.8365 49.5385 5.55051L49.4165 4.15964C49.4043 4.29326 49.3871 4.44245 49.3652 4.60766C49.3434 4.77287 49.32 4.95364 49.2952 5.15089C49.2517 5.5446 49.2206 5.81798 49.2018 5.97034C49.1831 6.12226 49.171 6.21486 49.1652 6.2469L48.894 8.02829L48.502 10.335H50.145L50.1452 10.3351ZM65.9998 15.3575H61.7912L59.8695 10.116C59.8508 10.0269 59.8175 9.90944 59.7709 9.76332C59.7242 9.6172 59.6667 9.44268 59.5983 9.23918L59.6261 10.2113V15.3575H55.7534V0.642654H59.7382C61.4925 0.642654 62.8051 0.995682 63.6766 1.70106C64.7834 2.60323 65.3373 3.88672 65.3373 5.55051C65.3373 7.32996 64.5939 8.55948 63.1068 9.23906L65.9998 15.3575ZM61.4739 5.59823C61.4739 4.4996 60.9109 3.95001 59.7849 3.95001H59.645V7.45654H59.9062C60.3541 7.45654 60.7273 7.28235 61.026 6.93239C61.3246 6.58357 61.4739 6.13873 61.4739 5.59823Z" fill="white"/>
</g>
</g>
<defs>
<filter id="filter0_d_4241_6579" x="-2.646" y="-2.646" width="71.292" height="21.292" filterUnits="userSpaceOnUse" color-interpolation-filters="sRGB">
<feFlood flood-opacity="0" result="BackgroundImageFix"/>
<feColorMatrix in="SourceAlpha" type="matrix" values="0 0 0 0 0 0 0 0 0 0 0 0 0 0 0 0 0 0 127 0" result="hardAlpha"/>
<feOffset/>
<feGaussianBlur stdDeviation="1.323"/>
<feColorMatrix type="matrix" values="0 0 0 0 0 0 0 0 0 0 0 0 0 0 0 0 0 0 0.13 0"/>
<feBlend mode="normal" in2="BackgroundImageFix" result="effect1_dropShadow_4241_6579"/>
<feBlend mode="normal" in="SourceGraphic" in2="effect1_dropShadow_4241_6579" result="shape"/>
</filter>
<clipPath id="clip0_4241_6579">
<rect width="66" height="16" fill="white"/>
</clipPath>
</defs>
</svg>
