<svg width="80" height="22" viewBox="0 0 80 22" fill="none" xmlns="http://www.w3.org/2000/svg">
<path d="M29.9069 16.4055L26.4906 12.3298V16.4055H24.6836V4.13867H26.4906V11.7098L29.6431 7.84511H31.9778L28.4164 11.9209L32.2416 16.4055H29.9069ZM36.3701 12.5804C35.9216 12.5804 34.4443 12.6727 34.4443 13.8994C34.4443 14.1368 34.5499 14.9414 35.9744 14.9414C36.1854 14.9414 38.0321 14.915 38.7048 13.7939V13.7807V13.0948L38.6784 13.0816C37.8474 12.7255 36.9109 12.5804 36.3701 12.5804ZM35.9084 16.5902C33.9035 16.5902 32.6505 15.5614 32.6505 13.8862C32.6505 12.1451 33.9959 11.1427 36.3305 11.1427C37.1087 11.1427 37.9002 11.3273 38.6784 11.6966L38.7311 11.723V11.2746C38.7311 10.0742 37.8606 9.29603 36.5152 9.29603C35.5919 9.29603 34.6158 9.75768 34.075 10.4568L33.033 9.34879C34.0882 7.87149 35.7502 7.64726 36.6471 7.64726C39.1664 7.64726 40.5514 8.93989 40.5514 11.2746V16.3923H38.7443V15.3767L38.6784 15.4558C37.9002 16.4451 36.6075 16.5902 35.9084 16.5902ZM42.6091 16.4055H44.4425V4.13867H42.6091V16.4055ZM50.51 9.24327C49.125 9.24327 48.0962 10.0874 47.9247 11.4065V11.446H53.0293V11.4065C52.8314 10.0742 51.8686 9.24327 50.51 9.24327ZM50.51 16.5902C47.9643 16.5902 46.1045 14.704 46.1045 12.0924C46.1045 10.7865 46.5529 9.66536 47.3839 8.84756C48.1885 8.06934 49.2965 7.64726 50.4968 7.64726C53.0293 7.64726 54.7836 9.4675 54.7836 12.0924C54.7836 12.2902 54.7836 12.5672 54.7704 12.7519H47.8983V12.7914C48.083 14.1236 49.1382 14.9942 50.5759 14.9942C51.5784 14.9942 52.5017 14.5193 52.937 13.7675C53.2272 13.8994 53.5437 14.0445 53.8603 14.1764C54.0581 14.2555 54.2428 14.3479 54.4275 14.427C53.7548 15.7856 52.2907 16.5902 50.51 16.5902ZM56.3796 16.4055H58.1867V7.84511H56.3796V16.4055ZM64.2937 9.42793C62.7768 9.42793 61.6689 10.5491 61.6689 12.0924C61.6689 13.6752 62.7768 14.8095 64.2937 14.8095C65.6259 14.8095 66.9713 13.873 66.9713 12.0924C66.9713 10.3644 65.5864 9.42793 64.2937 9.42793ZM64.0431 16.5902C61.6029 16.5902 59.7695 14.6776 59.7695 12.1319C59.7695 9.53345 61.5634 7.66045 64.0431 7.66045C65.3357 7.66045 66.4437 8.20124 66.9318 9.07179L66.9977 9.19051V4.13867H68.8048V16.4055H66.9977V15.0469L66.9318 15.1657C66.4437 16.0362 65.3094 16.5902 64.0431 16.5902ZM74.991 9.45431C73.4609 9.45431 72.3397 10.5623 72.3397 12.1055C72.3397 13.6884 73.4477 14.8227 74.991 14.8227C76.5342 14.8227 77.6554 13.6752 77.6554 12.1055C77.6554 10.5623 76.5342 9.45431 74.991 9.45431ZM74.991 16.5902C73.7907 16.5902 72.6695 16.1549 71.8517 15.3635C70.9943 14.5457 70.5327 13.385 70.5327 12.0924C70.5327 9.52026 72.4057 7.64726 74.991 7.64726C77.5894 7.64726 79.4888 9.52026 79.4888 12.0924C79.4888 13.3718 79.014 14.5325 78.1566 15.3635C77.3256 16.1549 76.2045 16.5902 74.991 16.5902ZM57.2897 6.22272C56.6038 6.22272 56.0499 5.69511 56.0499 5.06198C56.0499 4.41566 56.6038 3.90125 57.2897 3.90125C57.9756 3.90125 58.5164 4.41566 58.5164 5.06198C58.5032 5.7083 57.9756 6.22272 57.2897 6.22272Z" fill="white"/>
<path d="M17.6532 7.2915V9.54702L11.1372 5.78782L14.0259 4.11267L16.7167 5.66911C17.297 5.99886 17.6532 6.6188 17.6532 7.2915ZM1.82496 12.0136L8.34091 15.7728L5.45226 17.4479L2.76146 15.8915C2.18109 15.5617 1.82496 14.9286 1.82496 14.2691V12.0136ZM6.11177 12.8709V9.49426L12.6673 13.2798L9.73907 14.9682L6.11177 12.8709ZM9.73907 6.59242L13.3664 8.68966V12.0795L6.81085 8.29395L9.73907 6.59242ZM9.73907 1.9231C10.0688 1.9231 10.3986 2.01543 10.6756 2.17371L12.6277 3.29487L6.11177 7.05408L6.09858 3.71696L8.78937 2.16052C9.07956 2.01543 9.40931 1.9231 9.73907 1.9231ZM2.76146 5.66911L4.71361 4.53475V12.0663L1.82496 10.4044V7.2915C1.82496 6.6188 2.18109 5.99886 2.76146 5.66911ZM13.3796 17.8173L10.6888 19.3737C10.3986 19.532 10.082 19.6243 9.75226 19.6243C9.4225 19.6243 9.09275 19.532 8.81575 19.3737L6.86361 18.2525L13.3796 14.4933V17.8173ZM16.7167 15.8915L14.7645 17.0127V9.49426L17.6532 11.1562V14.2691C17.6532 14.9286 17.297 15.5617 16.7167 15.8915ZM17.4553 4.38966L11.4142 0.90745C10.913 0.617266 10.3326 0.458984 9.73907 0.458984C9.14551 0.458984 8.56514 0.617266 8.06391 0.90745L2.02281 4.38966C0.993975 4.98322 0.347656 6.10438 0.347656 7.2915V14.2691C0.347656 15.4562 0.993975 16.5774 2.02281 17.1709L8.06391 20.6532C8.56514 20.9433 9.14551 21.1016 9.73907 21.1016C10.3326 21.1016 10.913 20.9433 11.4142 20.6532L17.4553 17.1709C18.4842 16.5774 19.1305 15.4562 19.1305 14.2691V7.2915C19.1305 6.09119 18.4842 4.98322 17.4553 4.38966Z" fill="white"/>
</svg>
