<svg width="40" height="40" viewBox="0 0 40 40" fill="none" xmlns="http://www.w3.org/2000/svg">
<rect width="40" height="40" rx="8" fill="#05143D"/>
<path fill-rule="evenodd" clip-rule="evenodd" d="M12.3717 15.2392C12.3967 14.9933 12.3025 14.7508 12.1192 14.5858L10.2525 12.3358V12H16.0508L20.5325 21.8292L24.4725 12H30V12.3358L28.4033 13.8667C28.2658 13.9717 28.1975 14.1442 28.2258 14.315V25.5633C28.1975 25.7333 28.2658 25.9058 28.4033 26.0108L29.9625 27.5417V27.8775H22.1192V27.5417L23.735 25.9733C23.8933 25.815 23.8933 25.7683 23.8933 25.5258V16.4342L19.4025 27.8408H18.7958L13.5667 16.4342V24.0792C13.5233 24.4 13.63 24.7242 13.8558 24.9558L15.9567 27.5042V27.8408H10V27.5042L12.1008 24.9558C12.3258 24.7233 12.4258 24.3975 12.3717 24.0792V15.2392Z" fill="white"/>
</svg>
