<svg width="40" height="40" viewBox="0 0 40 40" fill="none" xmlns="http://www.w3.org/2000/svg">
<g clip-path="url(#clip0_6_34)">
<path d="M20 40C31.0457 40 40 31.0457 40 20C40 8.9543 31.0457 0 20 0C8.9543 0 0 8.9543 0 20C0 31.0457 8.9543 40 20 40Z" fill="url(#paint0_linear_6_34)"/>
<g filter="url(#filter0_i_6_34)">
<path d="M19.9994 35.3876C28.496 35.3876 35.384 28.4997 35.384 20.003C35.384 11.5063 28.496 4.61841 19.9994 4.61841C11.5027 4.61841 4.61475 11.5063 4.61475 20.003C4.61475 28.4997 11.5027 35.3876 19.9994 35.3876Z" fill="white" fill-opacity="0.16"/>
</g>
<g filter="url(#filter1_i_6_34)">
<path d="M20.0006 28.8897C19.6638 28.8896 19.3409 28.7558 19.1028 28.5176L11.4836 20.8985C11.2456 20.6604 11.1118 20.3374 11.1118 20.0007C11.1118 19.664 11.2456 19.341 11.4836 19.1029L19.1028 11.4837C19.3409 11.2457 19.6638 11.1119 20.0006 11.1119C20.3373 11.1119 20.6602 11.2457 20.8984 11.4837L28.5175 19.1029C28.7556 19.341 28.8893 19.664 28.8893 20.0007C28.8893 20.3374 28.7556 20.6604 28.5175 20.8985L20.8984 28.5176C20.6603 28.7558 20.3373 28.8896 20.0006 28.8897Z" fill="#0B2268"/>
</g>
</g>
<defs>
<filter id="filter0_i_6_34" x="4.61475" y="4.61841" width="30.7693" height="45.8372" filterUnits="userSpaceOnUse" color-interpolation-filters="sRGB">
<feFlood flood-opacity="0" result="BackgroundImageFix"/>
<feBlend mode="normal" in="SourceGraphic" in2="BackgroundImageFix" result="shape"/>
<feColorMatrix in="SourceAlpha" type="matrix" values="0 0 0 0 0 0 0 0 0 0 0 0 0 0 0 0 0 0 127 0" result="hardAlpha"/>
<feOffset dy="15.068"/>
<feGaussianBlur stdDeviation="7.53402"/>
<feComposite in2="hardAlpha" operator="arithmetic" k2="-1" k3="1"/>
<feColorMatrix type="matrix" values="0 0 0 0 1 0 0 0 0 1 0 0 0 0 1 0 0 0 0.4 0"/>
<feBlend mode="normal" in2="shape" result="effect1_innerShadow_6_34"/>
</filter>
<filter id="filter1_i_6_34" x="11.1118" y="11.1119" width="17.7775" height="19.2301" filterUnits="userSpaceOnUse" color-interpolation-filters="sRGB">
<feFlood flood-opacity="0" result="BackgroundImageFix"/>
<feBlend mode="normal" in="SourceGraphic" in2="BackgroundImageFix" result="shape"/>
<feColorMatrix in="SourceAlpha" type="matrix" values="0 0 0 0 0 0 0 0 0 0 0 0 0 0 0 0 0 0 127 0" result="hardAlpha"/>
<feOffset dy="1.45234"/>
<feGaussianBlur stdDeviation="2.90467"/>
<feComposite in2="hardAlpha" operator="arithmetic" k2="-1" k3="1"/>
<feColorMatrix type="matrix" values="0 0 0 0 1 0 0 0 0 1 0 0 0 0 1 0 0 0 0.4 0"/>
<feBlend mode="normal" in2="shape" result="effect1_innerShadow_6_34"/>
</filter>
<linearGradient id="paint0_linear_6_34" x1="1.96816" y1="39.9989" x2="44.419" y2="25.8114" gradientUnits="userSpaceOnUse">
<stop stop-color="#3F70D8"/>
<stop offset="1" stop-color="#E2EEFE"/>
</linearGradient>
<clipPath id="clip0_6_34">
<rect width="40" height="40" fill="white"/>
</clipPath>
</defs>
</svg>
