<svg width="40" height="40" viewBox="0 0 40 40" fill="none" xmlns="http://www.w3.org/2000/svg">
<g clip-path="url(#clip0_16_5503)">
<rect x="4.7655" y="4.73096" width="30.4731" height="30.4731" rx="15.2365" fill="url(#paint0_linear_16_5503)"/>
<rect x="4.7655" y="4.73096" width="30.4731" height="30.4731" rx="15.2365" fill="#E2EEFE"/>
<path d="M20.0876 3.84985C20.0859 3.8482 20.0869 14.5934 20.0876 19.9653" stroke="url(#paint1_linear_16_5503)" stroke-width="3.15789" stroke-linecap="round"/>
<path d="M20.0876 21.9575C20.0859 21.9559 20.0869 32.701 20.0876 38.073" stroke="url(#paint2_linear_16_5503)" stroke-width="3.15789" stroke-linecap="round"/>
<path d="M35.0698 11.6978C35.0704 11.6956 25.6623 16.8864 20.9588 19.4817" stroke="url(#paint3_linear_16_5503)" stroke-width="3.15789"/>
<path d="M19.2147 20.4434C19.2154 20.4412 9.80721 25.632 5.1038 28.2273" stroke="url(#paint4_linear_16_5503)" stroke-width="3.15789"/>
<path d="M5.10362 11.6978C5.10298 11.6956 14.5111 16.8864 19.2146 19.4817" stroke="url(#paint5_linear_16_5503)" stroke-width="3.15789"/>
<path d="M20.9587 20.4434C20.958 20.4412 30.3662 25.632 35.0696 28.2273" stroke="url(#paint6_linear_16_5503)" stroke-width="3.15789"/>
<g filter="url(#filter0_bi_16_5503)">
<path d="M20.0031 24.3512C19.1432 24.3512 18.3026 24.0962 17.5876 23.6184C16.8726 23.1407 16.3153 22.4616 15.9862 21.6672C15.6572 20.8727 15.5711 19.9985 15.7388 19.1551C15.9066 18.3117 16.3207 17.537 16.9287 16.929C17.5368 16.3209 18.3115 15.9068 19.1549 15.7391C19.9983 15.5713 20.8725 15.6574 21.6669 15.9865C22.4614 16.3156 23.1404 16.8728 23.6182 17.5878C24.0959 18.3028 24.3509 19.1434 24.3509 20.0033C24.3495 21.156 23.891 22.2611 23.076 23.0762C22.2609 23.8913 21.1558 24.3498 20.0031 24.3512Z" fill="#0B2268"/>
<path d="M20.0028 24.1205C19.1886 24.1205 18.3927 23.879 17.7157 23.4266C17.0387 22.9742 16.511 22.3312 16.1993 21.5789C15.8877 20.8266 15.8062 19.9988 15.965 19.2001C16.1239 18.4015 16.516 17.6679 17.0918 17.0921C17.6676 16.5163 18.4012 16.1241 19.1999 15.9653C19.9985 15.8064 20.8264 15.888 21.5787 16.1996C22.331 16.5112 22.974 17.0389 23.4264 17.716C23.8788 18.393 24.1202 19.1889 24.1203 20.0031C24.119 21.0947 23.6847 22.1412 22.9129 22.9131C22.141 23.685 21.0944 24.1192 20.0028 24.1205Z" stroke="url(#paint7_linear_16_5503)" stroke-width="0.461315"/>
</g>
<g filter="url(#filter1_bi_16_5503)">
<path d="M33.918 16.5169C36.3193 16.5169 38.2658 14.5704 38.2658 12.1691C38.2658 9.76788 36.3193 7.82129 33.918 7.82129C31.5168 7.82129 29.5702 9.76788 29.5702 12.1691C29.5702 14.5704 31.5168 16.5169 33.918 16.5169Z" fill="#0B2268"/>
<path d="M38.0352 12.1691C38.0352 14.443 36.1919 16.2863 33.918 16.2863C31.6442 16.2863 29.8008 14.443 29.8008 12.1691C29.8008 9.89527 31.6442 8.05195 33.918 8.05195C36.1919 8.05195 38.0352 9.89527 38.0352 12.1691Z" stroke="url(#paint8_linear_16_5503)" stroke-width="0.461315"/>
</g>
<g filter="url(#filter2_bi_16_5503)">
<path d="M33.918 32.1722C36.3193 32.1722 38.2658 30.2256 38.2658 27.8244C38.2658 25.4232 36.3193 23.4766 33.918 23.4766C31.5168 23.4766 29.5702 25.4232 29.5702 27.8244C29.5702 30.2256 31.5168 32.1722 33.918 32.1722Z" fill="#0B2268"/>
<path d="M38.0352 27.8244C38.0352 30.0982 36.1919 31.9416 33.918 31.9416C31.6442 31.9416 29.8008 30.0982 29.8008 27.8244C29.8008 25.5505 31.6442 23.7072 33.918 23.7072C36.1919 23.7072 38.0352 25.5505 38.0352 27.8244Z" stroke="url(#paint9_linear_16_5503)" stroke-width="0.461315"/>
</g>
<g filter="url(#filter3_bi_16_5503)">
<path d="M20.0031 40.002C22.4043 40.002 24.3509 38.0555 24.3509 35.6542C24.3509 33.253 22.4043 31.3064 20.0031 31.3064C17.6019 31.3064 15.6553 33.253 15.6553 35.6542C15.6553 38.0555 17.6019 40.002 20.0031 40.002Z" fill="#0B2268"/>
<path d="M24.1203 35.6542C24.1203 37.9281 22.2769 39.7714 20.0031 39.7714C17.7292 39.7714 15.8859 37.9281 15.8859 35.6542C15.8859 33.3804 17.7292 31.5371 20.0031 31.5371C22.2769 31.5371 24.1203 33.3804 24.1203 35.6542Z" stroke="url(#paint10_linear_16_5503)" stroke-width="0.461315"/>
</g>
<g filter="url(#filter4_bi_16_5503)">
<path d="M6.08385 32.1722C8.48509 32.1722 10.4317 30.2256 10.4317 27.8244C10.4317 25.4232 8.48509 23.4766 6.08385 23.4766C3.68261 23.4766 1.73602 25.4232 1.73602 27.8244C1.73602 30.2256 3.68261 32.1722 6.08385 32.1722Z" fill="#0B2268"/>
<path d="M10.201 27.8244C10.201 30.0982 8.3577 31.9416 6.08385 31.9416C3.81 31.9416 1.96668 30.0982 1.96668 27.8244C1.96668 25.5505 3.81 23.7072 6.08385 23.7072C8.3577 23.7072 10.201 25.5505 10.201 27.8244Z" stroke="url(#paint11_linear_16_5503)" stroke-width="0.461315"/>
</g>
<g filter="url(#filter5_bi_16_5503)">
<path d="M6.08385 16.5169C8.48509 16.5169 10.4317 14.5704 10.4317 12.1691C10.4317 9.76788 8.48509 7.82129 6.08385 7.82129C3.68261 7.82129 1.73602 9.76788 1.73602 12.1691C1.73602 14.5704 3.68261 16.5169 6.08385 16.5169Z" fill="#0B2268"/>
<path d="M10.201 12.1691C10.201 14.443 8.3577 16.2863 6.08385 16.2863C3.81 16.2863 1.96668 14.443 1.96668 12.1691C1.96668 9.89527 3.81 8.05195 6.08385 8.05195C8.3577 8.05195 10.201 9.89527 10.201 12.1691Z" stroke="url(#paint12_linear_16_5503)" stroke-width="0.461315"/>
</g>
<g filter="url(#filter6_bi_16_5503)">
<path d="M20.0031 8.69565C22.4043 8.69565 24.3509 6.74906 24.3509 4.34783C24.3509 1.94659 22.4043 0 20.0031 0C17.6019 0 15.6553 1.94659 15.6553 4.34783C15.6553 6.74906 17.6019 8.69565 20.0031 8.69565Z" fill="#0B2268"/>
<path d="M24.1203 4.34783C24.1203 6.62168 22.2769 8.46499 20.0031 8.46499C17.7292 8.46499 15.8859 6.62168 15.8859 4.34783C15.8859 2.07398 17.7292 0.230657 20.0031 0.230657C22.2769 0.230657 24.1203 2.07398 24.1203 4.34783Z" stroke="url(#paint13_linear_16_5503)" stroke-width="0.461315"/>
</g>
</g>
<defs>
<filter id="filter0_bi_16_5503" x="6.94125" y="6.9415" width="26.1237" height="26.1236" filterUnits="userSpaceOnUse" color-interpolation-filters="sRGB">
<feFlood flood-opacity="0" result="BackgroundImageFix"/>
<feGaussianBlur in="BackgroundImageFix" stdDeviation="4.35701"/>
<feComposite in2="SourceAlpha" operator="in" result="effect1_backgroundBlur_16_5503"/>
<feBlend mode="normal" in="SourceGraphic" in2="effect1_backgroundBlur_16_5503" result="shape"/>
<feColorMatrix in="SourceAlpha" type="matrix" values="0 0 0 0 0 0 0 0 0 0 0 0 0 0 0 0 0 0 127 0" result="hardAlpha"/>
<feOffset dy="1.45234"/>
<feGaussianBlur stdDeviation="2.90467"/>
<feComposite in2="hardAlpha" operator="arithmetic" k2="-1" k3="1"/>
<feColorMatrix type="matrix" values="0 0 0 0 1 0 0 0 0 1 0 0 0 0 1 0 0 0 0.4 0"/>
<feBlend mode="normal" in2="shape" result="effect2_innerShadow_16_5503"/>
</filter>
<filter id="filter1_bi_16_5503" x="20.8562" y="-0.892733" width="26.1237" height="26.1236" filterUnits="userSpaceOnUse" color-interpolation-filters="sRGB">
<feFlood flood-opacity="0" result="BackgroundImageFix"/>
<feGaussianBlur in="BackgroundImageFix" stdDeviation="4.35701"/>
<feComposite in2="SourceAlpha" operator="in" result="effect1_backgroundBlur_16_5503"/>
<feBlend mode="normal" in="SourceGraphic" in2="effect1_backgroundBlur_16_5503" result="shape"/>
<feColorMatrix in="SourceAlpha" type="matrix" values="0 0 0 0 0 0 0 0 0 0 0 0 0 0 0 0 0 0 127 0" result="hardAlpha"/>
<feOffset dy="1.45234"/>
<feGaussianBlur stdDeviation="2.90467"/>
<feComposite in2="hardAlpha" operator="arithmetic" k2="-1" k3="1"/>
<feColorMatrix type="matrix" values="0 0 0 0 1 0 0 0 0 1 0 0 0 0 1 0 0 0 0.4 0"/>
<feBlend mode="normal" in2="shape" result="effect2_innerShadow_16_5503"/>
</filter>
<filter id="filter2_bi_16_5503" x="20.8562" y="14.7625" width="26.1237" height="26.1236" filterUnits="userSpaceOnUse" color-interpolation-filters="sRGB">
<feFlood flood-opacity="0" result="BackgroundImageFix"/>
<feGaussianBlur in="BackgroundImageFix" stdDeviation="4.35701"/>
<feComposite in2="SourceAlpha" operator="in" result="effect1_backgroundBlur_16_5503"/>
<feBlend mode="normal" in="SourceGraphic" in2="effect1_backgroundBlur_16_5503" result="shape"/>
<feColorMatrix in="SourceAlpha" type="matrix" values="0 0 0 0 0 0 0 0 0 0 0 0 0 0 0 0 0 0 127 0" result="hardAlpha"/>
<feOffset dy="1.45234"/>
<feGaussianBlur stdDeviation="2.90467"/>
<feComposite in2="hardAlpha" operator="arithmetic" k2="-1" k3="1"/>
<feColorMatrix type="matrix" values="0 0 0 0 1 0 0 0 0 1 0 0 0 0 1 0 0 0 0.4 0"/>
<feBlend mode="normal" in2="shape" result="effect2_innerShadow_16_5503"/>
</filter>
<filter id="filter3_bi_16_5503" x="6.94125" y="22.5924" width="26.1237" height="26.1236" filterUnits="userSpaceOnUse" color-interpolation-filters="sRGB">
<feFlood flood-opacity="0" result="BackgroundImageFix"/>
<feGaussianBlur in="BackgroundImageFix" stdDeviation="4.35701"/>
<feComposite in2="SourceAlpha" operator="in" result="effect1_backgroundBlur_16_5503"/>
<feBlend mode="normal" in="SourceGraphic" in2="effect1_backgroundBlur_16_5503" result="shape"/>
<feColorMatrix in="SourceAlpha" type="matrix" values="0 0 0 0 0 0 0 0 0 0 0 0 0 0 0 0 0 0 127 0" result="hardAlpha"/>
<feOffset dy="1.45234"/>
<feGaussianBlur stdDeviation="2.90467"/>
<feComposite in2="hardAlpha" operator="arithmetic" k2="-1" k3="1"/>
<feColorMatrix type="matrix" values="0 0 0 0 1 0 0 0 0 1 0 0 0 0 1 0 0 0 0.4 0"/>
<feBlend mode="normal" in2="shape" result="effect2_innerShadow_16_5503"/>
</filter>
<filter id="filter4_bi_16_5503" x="-6.978" y="14.7625" width="26.1237" height="26.1236" filterUnits="userSpaceOnUse" color-interpolation-filters="sRGB">
<feFlood flood-opacity="0" result="BackgroundImageFix"/>
<feGaussianBlur in="BackgroundImageFix" stdDeviation="4.35701"/>
<feComposite in2="SourceAlpha" operator="in" result="effect1_backgroundBlur_16_5503"/>
<feBlend mode="normal" in="SourceGraphic" in2="effect1_backgroundBlur_16_5503" result="shape"/>
<feColorMatrix in="SourceAlpha" type="matrix" values="0 0 0 0 0 0 0 0 0 0 0 0 0 0 0 0 0 0 127 0" result="hardAlpha"/>
<feOffset dy="1.45234"/>
<feGaussianBlur stdDeviation="2.90467"/>
<feComposite in2="hardAlpha" operator="arithmetic" k2="-1" k3="1"/>
<feColorMatrix type="matrix" values="0 0 0 0 1 0 0 0 0 1 0 0 0 0 1 0 0 0 0.4 0"/>
<feBlend mode="normal" in2="shape" result="effect2_innerShadow_16_5503"/>
</filter>
<filter id="filter5_bi_16_5503" x="-6.978" y="-0.892733" width="26.1237" height="26.1236" filterUnits="userSpaceOnUse" color-interpolation-filters="sRGB">
<feFlood flood-opacity="0" result="BackgroundImageFix"/>
<feGaussianBlur in="BackgroundImageFix" stdDeviation="4.35701"/>
<feComposite in2="SourceAlpha" operator="in" result="effect1_backgroundBlur_16_5503"/>
<feBlend mode="normal" in="SourceGraphic" in2="effect1_backgroundBlur_16_5503" result="shape"/>
<feColorMatrix in="SourceAlpha" type="matrix" values="0 0 0 0 0 0 0 0 0 0 0 0 0 0 0 0 0 0 127 0" result="hardAlpha"/>
<feOffset dy="1.45234"/>
<feGaussianBlur stdDeviation="2.90467"/>
<feComposite in2="hardAlpha" operator="arithmetic" k2="-1" k3="1"/>
<feColorMatrix type="matrix" values="0 0 0 0 1 0 0 0 0 1 0 0 0 0 1 0 0 0 0.4 0"/>
<feBlend mode="normal" in2="shape" result="effect2_innerShadow_16_5503"/>
</filter>
<filter id="filter6_bi_16_5503" x="6.94125" y="-8.71402" width="26.1237" height="26.1236" filterUnits="userSpaceOnUse" color-interpolation-filters="sRGB">
<feFlood flood-opacity="0" result="BackgroundImageFix"/>
<feGaussianBlur in="BackgroundImageFix" stdDeviation="4.35701"/>
<feComposite in2="SourceAlpha" operator="in" result="effect1_backgroundBlur_16_5503"/>
<feBlend mode="normal" in="SourceGraphic" in2="effect1_backgroundBlur_16_5503" result="shape"/>
<feColorMatrix in="SourceAlpha" type="matrix" values="0 0 0 0 0 0 0 0 0 0 0 0 0 0 0 0 0 0 127 0" result="hardAlpha"/>
<feOffset dy="1.45234"/>
<feGaussianBlur stdDeviation="2.90467"/>
<feComposite in2="hardAlpha" operator="arithmetic" k2="-1" k3="1"/>
<feColorMatrix type="matrix" values="0 0 0 0 1 0 0 0 0 1 0 0 0 0 1 0 0 0 0.4 0"/>
<feBlend mode="normal" in2="shape" result="effect2_innerShadow_16_5503"/>
</filter>
<linearGradient id="paint0_linear_16_5503" x1="6.2649" y1="35.2032" x2="38.6051" y2="24.3948" gradientUnits="userSpaceOnUse">
<stop stop-color="#3F70D8"/>
<stop offset="1" stop-color="#E2EEFE"/>
</linearGradient>
<linearGradient id="paint1_linear_16_5503" x1="19.7166" y1="16.1494" x2="19.7166" y2="8.5613" gradientUnits="userSpaceOnUse">
<stop stop-color="#3F70D8"/>
<stop offset="1" stop-color="#E2EEFE"/>
</linearGradient>
<linearGradient id="paint2_linear_16_5503" x1="20.0874" y1="23.4116" x2="20.0874" y2="33.6029" gradientUnits="userSpaceOnUse">
<stop stop-color="#3F70D8"/>
<stop offset="1" stop-color="#E2EEFE"/>
</linearGradient>
<linearGradient id="paint3_linear_16_5503" x1="22.3702" y1="18.8959" x2="31.1686" y2="14.3338" gradientUnits="userSpaceOnUse">
<stop stop-color="#3F70D8"/>
<stop offset="1" stop-color="#E2EEFE"/>
</linearGradient>
<linearGradient id="paint4_linear_16_5503" x1="17.9414" y1="21.1456" x2="9.01773" y2="26.0681" gradientUnits="userSpaceOnUse">
<stop stop-color="#3F70D8"/>
<stop offset="1" stop-color="#E2EEFE"/>
</linearGradient>
<linearGradient id="paint5_linear_16_5503" x1="17.8032" y1="18.8959" x2="9.00482" y2="14.3338" gradientUnits="userSpaceOnUse">
<stop stop-color="#3F70D8"/>
<stop offset="1" stop-color="#E2EEFE"/>
</linearGradient>
<linearGradient id="paint6_linear_16_5503" x1="22.232" y1="21.1456" x2="31.1557" y2="26.0681" gradientUnits="userSpaceOnUse">
<stop stop-color="#3F70D8"/>
<stop offset="1" stop-color="#E2EEFE"/>
</linearGradient>
<linearGradient id="paint7_linear_16_5503" x1="20.0031" y1="15.6555" x2="20.0031" y2="24.3512" gradientUnits="userSpaceOnUse">
<stop stop-color="#D3E3FF"/>
<stop offset="1" stop-color="#B1CAF1" stop-opacity="0.15"/>
</linearGradient>
<linearGradient id="paint8_linear_16_5503" x1="33.918" y1="7.82129" x2="33.918" y2="16.5169" gradientUnits="userSpaceOnUse">
<stop stop-color="#D3E3FF"/>
<stop offset="1" stop-color="#B1CAF1" stop-opacity="0.15"/>
</linearGradient>
<linearGradient id="paint9_linear_16_5503" x1="33.918" y1="23.4766" x2="33.918" y2="32.1722" gradientUnits="userSpaceOnUse">
<stop stop-color="#D3E3FF"/>
<stop offset="1" stop-color="#B1CAF1" stop-opacity="0.15"/>
</linearGradient>
<linearGradient id="paint10_linear_16_5503" x1="20.0031" y1="31.3064" x2="20.0031" y2="40.002" gradientUnits="userSpaceOnUse">
<stop stop-color="#D3E3FF"/>
<stop offset="1" stop-color="#B1CAF1" stop-opacity="0.15"/>
</linearGradient>
<linearGradient id="paint11_linear_16_5503" x1="6.08385" y1="23.4766" x2="6.08385" y2="32.1722" gradientUnits="userSpaceOnUse">
<stop stop-color="#D3E3FF"/>
<stop offset="1" stop-color="#B1CAF1" stop-opacity="0.15"/>
</linearGradient>
<linearGradient id="paint12_linear_16_5503" x1="6.08385" y1="7.82129" x2="6.08385" y2="16.5169" gradientUnits="userSpaceOnUse">
<stop stop-color="#D3E3FF"/>
<stop offset="1" stop-color="#B1CAF1" stop-opacity="0.15"/>
</linearGradient>
<linearGradient id="paint13_linear_16_5503" x1="20.0031" y1="0" x2="20.0031" y2="8.69565" gradientUnits="userSpaceOnUse">
<stop stop-color="#D3E3FF"/>
<stop offset="1" stop-color="#B1CAF1" stop-opacity="0.15"/>
</linearGradient>
<clipPath id="clip0_16_5503">
<rect width="40" height="40" fill="white"/>
</clipPath>
</defs>
</svg>
