<svg width="93" height="29" viewBox="0 0 93 29" fill="none" xmlns="http://www.w3.org/2000/svg">
<g clip-path="url(#clip0_4241_6544)">
<path d="M31.927 14.25C31.9001 13.5786 32.005 12.9085 32.2357 12.2783C32.4663 11.6481 32.8182 11.0703 33.271 10.5782C33.7238 10.0862 34.2685 9.68955 34.8738 9.4113C35.479 9.13304 36.1328 8.97865 36.7974 8.95703H37.0039C39.5725 8.95703 41.0885 10.4839 41.5368 12.2702L39.9402 12.8097C39.7968 12.144 39.4213 11.5526 38.8822 11.1434C38.3432 10.7342 37.6766 10.5344 37.0039 10.5806C35.3418 10.5806 33.6747 11.8071 33.6747 14.2806C33.6747 16.754 35.3015 17.9348 37.024 17.9348C37.7 17.9534 38.3627 17.7424 38.906 17.3355C39.4493 16.9286 39.8418 16.3493 40.0208 15.6903L41.5872 16.1993C41.3168 17.2045 40.7154 18.0866 39.8822 18.7001C39.049 19.3135 38.0337 19.6216 37.0039 19.5735C35.6809 19.5981 34.4025 19.0908 33.4495 18.1631C32.4966 17.2355 31.9472 15.9635 31.922 14.6266C31.917 14.5045 31.922 14.3773 31.927 14.25Z" fill="white"/>
<path d="M44.695 19.3398H43.043V8.92688H44.695V12.9984C44.9348 12.711 45.2364 12.4827 45.5768 12.331C45.9172 12.1793 46.2875 12.1081 46.6592 12.123C48.3666 12.123 49.1775 13.3598 49.1775 14.9019V19.3398H47.5859V15.197C47.6336 14.8439 47.5421 14.4859 47.3311 14.2003C47.12 13.9147 46.8064 13.7243 46.4578 13.6702C46.359 13.66 46.2594 13.66 46.1606 13.6702C45.7786 13.6702 45.4122 13.8236 45.142 14.0965C44.8719 14.3695 44.7201 14.7397 44.7201 15.1258C44.7176 15.1682 44.7176 15.2106 44.7201 15.253L44.695 19.3398Z" fill="white"/>
<path d="M52.8842 15.3293L54.657 15.0494C55.06 14.9985 55.1607 14.7898 55.1607 14.5404C55.1607 13.9501 54.7678 13.4767 53.8512 13.4767C53.505 13.4485 53.1617 13.5592 52.8958 13.785C52.63 14.0108 52.4629 14.3335 52.4309 14.6829V14.7593L50.9199 14.4183C51.0458 13.207 52.1337 12.1281 53.8361 12.1281C55.9716 12.1281 56.7825 13.3495 56.7825 14.7745V18.2506C56.7807 18.6273 56.8093 19.0034 56.8681 19.3754H55.3571C55.3027 19.0802 55.2807 18.7797 55.2916 18.4796C55.0623 18.8363 54.7444 19.126 54.3697 19.3198C53.995 19.5135 53.5766 19.6047 53.1561 19.584C52.5819 19.632 52.0123 19.4477 51.5723 19.0718C51.1323 18.6959 50.8578 18.159 50.8091 17.5788C50.8091 17.5432 50.8091 17.5076 50.8091 17.477C50.7839 16.1894 51.6955 15.4972 52.8842 15.3293ZM55.1708 16.4541V16.1334L53.3626 16.4083C53.1172 16.4161 52.8842 16.5195 52.7125 16.6969C52.5407 16.8743 52.4434 17.1118 52.441 17.36C52.4429 17.4829 52.469 17.6043 52.5179 17.7169C52.5667 17.8296 52.6373 17.9312 52.7254 18.016C52.8135 18.1008 52.9175 18.1671 53.0312 18.2108C53.145 18.2546 53.2662 18.275 53.3878 18.271H53.4634C53.6695 18.2928 53.8779 18.2731 54.0765 18.2132C54.2752 18.1533 54.4601 18.0542 54.6207 17.9218C54.7812 17.7893 54.9143 17.6261 55.0122 17.4414C55.11 17.2568 55.1708 17.0544 55.1909 16.8459C55.1981 16.7148 55.1896 16.5832 55.1657 16.4541H55.1708Z" fill="white"/>
<path d="M59.592 8.78459C59.734 8.78258 59.8749 8.80892 60.0068 8.86211C60.1387 8.91531 60.2588 8.9943 60.3604 9.09456C60.4619 9.19482 60.5429 9.31437 60.5986 9.44633C60.6543 9.5783 60.6836 9.72009 60.6849 9.86355C60.6849 10.0783 60.6221 10.2883 60.5043 10.467C60.3865 10.6458 60.2191 10.7854 60.023 10.8682C59.8269 10.9511 59.611 10.9735 59.4023 10.9327C59.1937 10.8919 59.0016 10.7897 58.8503 10.6389C58.699 10.4881 58.5952 10.2955 58.5519 10.0852C58.5086 9.87498 58.5278 9.65649 58.6071 9.45723C58.6863 9.25797 58.8221 9.08683 58.9974 8.96534C59.1726 8.84385 59.3795 8.77742 59.592 8.77441V8.78459ZM58.7862 19.3706V12.337H60.4382V19.34L58.7862 19.3706Z" fill="white"/>
<path d="M64.2016 19.3398H62.5547V12.3367H64.1613V13.2681C64.3708 12.9105 64.6717 12.6164 65.0323 12.4167C65.393 12.217 65.8002 12.1191 66.2112 12.1332C67.9035 12.1332 68.7295 13.3699 68.7295 14.912V19.3398H67.0826V15.197C67.0826 14.3369 66.6947 13.6396 65.6572 13.6396C65.4654 13.641 65.2757 13.6805 65.099 13.7559C64.9223 13.8313 64.762 13.9411 64.6273 14.0791C64.4927 14.2171 64.3862 14.3806 64.314 14.5602C64.2418 14.7397 64.2054 14.9319 64.2067 15.1257C64.2067 15.1817 64.2067 15.2377 64.2067 15.2937L64.2016 19.3398Z" fill="white"/>
<path d="M70.7227 19.3398V8.92688H72.3746V19.3398H70.7227Z" fill="white"/>
<path d="M75.3217 8.78431C75.5343 8.78331 75.7424 8.84616 75.9196 8.96489C76.0968 9.08361 76.235 9.25287 76.3169 9.45116C76.3987 9.64945 76.4203 9.86783 76.3791 10.0786C76.3379 10.2893 76.2356 10.483 76.0853 10.6349C75.9349 10.7868 75.7433 10.8901 75.5348 10.9318C75.3262 10.9735 75.1101 10.9516 74.9138 10.8689C74.7176 10.7862 74.5501 10.6465 74.4326 10.4674C74.3151 10.2884 74.2529 10.0781 74.2539 9.86327C74.2565 9.57793 74.3699 9.30504 74.5696 9.10327C74.7692 8.9015 75.0393 8.78697 75.3217 8.78431ZM74.5108 19.3703V12.3367H76.1477V19.3398L74.5108 19.3703Z" fill="white"/>
<path d="M79.9352 19.3398H78.2832V12.3368H79.8899V13.2681C80.0997 12.9109 80.4007 12.6171 80.7612 12.4174C81.1218 12.2178 81.5288 12.1196 81.9397 12.1332C83.632 12.1332 84.458 13.3699 84.458 14.912V19.3398H82.806V15.197C82.8537 14.8439 82.7622 14.4859 82.5511 14.2003C82.3401 13.9147 82.0265 13.7243 81.6778 13.6702C81.5774 13.66 81.4761 13.66 81.3757 13.6702C80.9909 13.6742 80.6233 13.8315 80.3526 14.1078C80.0819 14.3842 79.9301 14.7573 79.9302 15.1461C79.925 15.2054 79.925 15.265 79.9302 15.3243L79.9352 19.3398Z" fill="white"/>
<path d="M90.0936 15.2937L92.9997 19.3653H90.9851L88.9705 16.4796L88.1193 17.3855V19.3398H86.4824V8.92688H88.1193V15.1665L90.7786 12.3368H92.9695L90.0936 15.2937Z" fill="white"/>
<path d="M12.3698 6.1073L19.5116 10.2501V18.5764L12.3899 22.7446L5.25313 18.612V10.2908L12.3698 6.1073ZM12.3698 0L9.75077 1.52682L2.61901 5.71032L0 7.23715V21.6758L2.61901 23.2026L9.76084 27.3454L12.3799 28.8722L14.9989 27.3454L22.1155 23.1721L24.7345 21.6453V7.18625L22.1155 5.65943L14.9787 1.52682L12.3597 0H12.3698Z" fill="white"/>
</g>
<defs>
<clipPath id="clip0_4241_6544">
<rect width="93" height="28.8621" fill="white"/>
</clipPath>
</defs>
</svg>
