<svg width="257" height="60" viewBox="0 0 257 60" fill="none" xmlns="http://www.w3.org/2000/svg">
<g filter="url(#filter0_b_1983_43425)">
<rect width="257" height="60" rx="30" fill="url(#paint0_radial_1983_43425)" fill-opacity="0.35"/>
<path d="M44.9243 24H43.0127L42.0679 21.3267H37.937L37.0288 24H35.1245L39.0576 13.4971H41.0205L44.9243 24ZM41.6064 19.9058L40.1489 15.7163C40.105 15.5796 40.0586 15.3599 40.0098 15.0571H39.9805C39.9365 15.3354 39.8877 15.5552 39.834 15.7163L38.3911 19.9058H41.6064ZM45.6253 23.7656V22.1909C46.2601 22.6743 46.9608 22.916 47.7274 22.916C48.7528 22.916 49.2655 22.6133 49.2655 22.0078C49.2655 21.8369 49.2215 21.6929 49.1336 21.5757C49.0457 21.4536 48.9261 21.3462 48.7747 21.2534C48.6283 21.1606 48.4525 21.0776 48.2474 21.0044C48.0472 20.9312 47.8226 20.8481 47.5736 20.7554C47.266 20.6333 46.9876 20.5039 46.7386 20.3672C46.4945 20.2305 46.2894 20.0767 46.1234 19.9058C45.9622 19.73 45.8402 19.5322 45.7572 19.3125C45.6742 19.0928 45.6327 18.8364 45.6327 18.5435C45.6327 18.1821 45.7181 17.8647 45.889 17.5913C46.0599 17.313 46.2894 17.0811 46.5775 16.8955C46.8656 16.7051 47.1927 16.5635 47.5589 16.4707C47.9251 16.373 48.3036 16.3242 48.6942 16.3242C49.3875 16.3242 50.0077 16.4292 50.5545 16.6392V18.126C50.0272 17.7646 49.4217 17.584 48.7381 17.584C48.5233 17.584 48.328 17.606 48.1522 17.6499C47.9813 17.6938 47.8348 17.7549 47.7127 17.833C47.5907 17.9111 47.4954 18.0063 47.4271 18.1187C47.3587 18.2261 47.3246 18.3457 47.3246 18.4775C47.3246 18.6387 47.3587 18.7754 47.4271 18.8877C47.4954 19 47.5955 19.1001 47.7274 19.188C47.8641 19.271 48.0252 19.3491 48.2108 19.4224C48.4012 19.4907 48.6185 19.5664 48.8626 19.6494C49.1849 19.7812 49.473 19.9155 49.7269 20.0522C49.9857 20.189 50.2054 20.3452 50.3861 20.521C50.5667 20.6919 50.7059 20.8921 50.8036 21.1216C50.9012 21.3462 50.95 21.6147 50.95 21.9272C50.95 22.3081 50.8621 22.6401 50.6864 22.9233C50.5106 23.2065 50.2762 23.4409 49.9832 23.6265C49.6903 23.812 49.3509 23.9487 48.9652 24.0366C48.5843 24.1294 48.1815 24.1758 47.7567 24.1758C46.9364 24.1758 46.2259 24.0391 45.6253 23.7656ZM56.4338 23.9194C56.1017 24.0854 55.6647 24.1685 55.1227 24.1685C53.6677 24.1685 52.9401 23.4702 52.9401 22.0737V17.833H51.6877V16.5H52.9401V14.7642L54.6393 14.2808V16.5H56.4338V17.833H54.6393V21.583C54.6393 22.0273 54.7199 22.3447 54.881 22.5352C55.0422 22.7256 55.3107 22.8208 55.6867 22.8208C55.9748 22.8208 56.2238 22.7378 56.4338 22.5718V23.9194ZM64.0708 20.7114H58.9585C58.978 21.4048 59.1904 21.9395 59.5957 22.3154C60.0059 22.6914 60.5674 22.8794 61.2803 22.8794C62.0811 22.8794 62.8159 22.6401 63.4849 22.1616V23.5312C62.8013 23.9609 61.898 24.1758 60.7749 24.1758C59.6714 24.1758 58.8047 23.8364 58.1748 23.1577C57.5498 22.4741 57.2373 21.5146 57.2373 20.2793C57.2373 19.1123 57.5816 18.1626 58.27 17.4302C58.9634 16.6929 59.8228 16.3242 60.8482 16.3242C61.8736 16.3242 62.667 16.6538 63.2285 17.313C63.7901 17.9722 64.0708 18.8877 64.0708 20.0596V20.7114ZM62.4302 19.5103C62.4253 18.8999 62.2813 18.4263 61.9981 18.0894C61.7149 17.7476 61.3242 17.5767 60.8262 17.5767C60.3379 17.5767 59.9229 17.7549 59.5811 18.1113C59.2442 18.4678 59.0366 18.9341 58.9585 19.5103H62.4302ZM69.9501 18.1187C69.745 17.9575 69.4496 17.877 69.0638 17.877C68.5609 17.877 68.141 18.104 67.8041 18.5581C67.4671 19.0122 67.2987 19.6299 67.2987 20.4111V24H65.5995V16.5H67.2987V18.0454H67.328C67.494 17.5181 67.7479 17.1079 68.0897 16.8149C68.4364 16.5171 68.8221 16.3682 69.2469 16.3682C69.5546 16.3682 69.7889 16.4146 69.9501 16.5073V18.1187ZM71.9182 14.9253C71.6398 14.9253 71.4006 14.835 71.2004 14.6543C71.0051 14.4736 70.9074 14.2441 70.9074 13.9658C70.9074 13.6875 71.0051 13.4556 71.2004 13.27C71.4006 13.0845 71.6398 12.9917 71.9182 12.9917C72.2062 12.9917 72.4504 13.0845 72.6506 13.27C72.8508 13.4556 72.9509 13.6875 72.9509 13.9658C72.9509 14.2295 72.8508 14.4565 72.6506 14.647C72.4504 14.8325 72.2062 14.9253 71.9182 14.9253ZM72.7604 24H71.0612V16.5H72.7604V24ZM80.4341 17.2104L76.3838 22.6743H80.4195V24H74.0035V23.3628L78.1416 17.8257H74.399V16.5H80.4341V17.2104ZM92.993 24H91.2938V19.9131C91.2938 19.127 91.1815 18.5581 90.9569 18.2065C90.7372 17.855 90.3637 17.6792 89.8363 17.6792C89.392 17.6792 89.0136 17.9014 88.7011 18.3457C88.3934 18.79 88.2396 19.3223 88.2396 19.9424V24H86.5331V19.7739C86.5331 18.3774 86.0399 17.6792 85.0536 17.6792C84.5946 17.6792 84.2162 17.8892 83.9183 18.3091C83.6254 18.729 83.4789 19.2734 83.4789 19.9424V24H81.7797V16.5H83.4789V17.6865H83.5082C84.0502 16.7783 84.8387 16.3242 85.8739 16.3242C86.3915 16.3242 86.8431 16.4683 87.2289 16.7563C87.6195 17.0396 87.8856 17.4131 88.0272 17.877C88.5839 16.8418 89.4139 16.3242 90.5175 16.3242C92.1679 16.3242 92.993 17.3423 92.993 19.3784V24ZM107.322 24H105.286L103.609 21.1875C103.458 20.9287 103.309 20.709 103.162 20.5283C103.021 20.3428 102.874 20.1914 102.723 20.0742C102.576 19.957 102.415 19.8716 102.239 19.8179C102.064 19.7642 101.866 19.7373 101.646 19.7373H100.943V24H99.2071V13.4971H102.664C103.157 13.4971 103.611 13.5557 104.026 13.6729C104.441 13.79 104.803 13.9683 105.11 14.2075C105.418 14.4419 105.657 14.7373 105.828 15.0938C106.004 15.4453 106.092 15.8579 106.092 16.3315C106.092 16.7026 106.036 17.0444 105.923 17.3569C105.816 17.6646 105.66 17.9404 105.455 18.1846C105.254 18.4238 105.01 18.6289 104.722 18.7998C104.439 18.9707 104.119 19.1025 103.763 19.1953V19.2246C103.953 19.332 104.119 19.4517 104.261 19.5835C104.402 19.7104 104.537 19.8423 104.664 19.979C104.791 20.1157 104.915 20.272 105.037 20.4478C105.164 20.6187 105.303 20.8188 105.455 21.0483L107.322 24ZM100.943 14.9106V18.3237H102.393C102.662 18.3237 102.908 18.2822 103.133 18.1992C103.362 18.1162 103.56 17.9966 103.726 17.8403C103.892 17.6841 104.022 17.4937 104.114 17.269C104.207 17.0444 104.253 16.793 104.253 16.5146C104.253 16.0117 104.095 15.6187 103.777 15.3354C103.46 15.0522 103.003 14.9106 102.408 14.9106H100.943ZM114.227 20.7114H109.115C109.134 21.4048 109.347 21.9395 109.752 22.3154C110.162 22.6914 110.724 22.8794 111.436 22.8794C112.237 22.8794 112.972 22.6401 113.641 22.1616V23.5312C112.957 23.9609 112.054 24.1758 110.931 24.1758C109.828 24.1758 108.961 23.8364 108.331 23.1577C107.706 22.4741 107.393 21.5146 107.393 20.2793C107.393 19.1123 107.738 18.1626 108.426 17.4302C109.12 16.6929 109.979 16.3242 111.004 16.3242C112.03 16.3242 112.823 16.6538 113.385 17.313C113.946 17.9722 114.227 18.8877 114.227 20.0596V20.7114ZM112.586 19.5103C112.581 18.8999 112.437 18.4263 112.154 18.0894C111.871 17.7476 111.48 17.5767 110.982 17.5767C110.494 17.5767 110.079 17.7549 109.737 18.1113C109.4 18.4678 109.193 18.9341 109.115 19.5103H112.586ZM117.462 24H115.756V12.8965H117.462V24ZM125.348 24H123.7V22.8281H123.671C123.153 23.7266 122.394 24.1758 121.393 24.1758C120.656 24.1758 120.077 23.9756 119.657 23.5752C119.242 23.1748 119.035 22.645 119.035 21.9858C119.035 20.5698 119.85 19.7446 121.481 19.5103L123.708 19.1953C123.708 18.126 123.2 17.5913 122.184 17.5913C121.291 17.5913 120.485 17.8989 119.767 18.5142V17.0273C120.558 16.5586 121.471 16.3242 122.506 16.3242C124.401 16.3242 125.348 17.2568 125.348 19.1221V24ZM123.708 20.3159L122.133 20.5356C121.645 20.5991 121.276 20.7188 121.027 20.8945C120.783 21.0654 120.661 21.3682 120.661 21.8027C120.661 22.1201 120.773 22.3813 120.998 22.5864C121.227 22.7866 121.532 22.8867 121.913 22.8867C122.431 22.8867 122.858 22.7061 123.195 22.3447C123.537 21.9785 123.708 21.5195 123.708 20.9678V20.3159ZM133.835 16.5L130.451 25.2012C129.748 26.7539 128.762 27.5303 127.492 27.5303C127.136 27.5303 126.838 27.4985 126.599 27.4351V26.0215C126.867 26.1094 127.111 26.1533 127.331 26.1533C127.966 26.1533 128.439 25.8408 128.752 25.2158L129.257 23.9854L126.276 16.5H128.159L129.946 21.9492C129.965 22.0176 130.009 22.1982 130.078 22.4912H130.114C130.139 22.3789 130.183 22.2031 130.246 21.9639L132.121 16.5H133.835ZM141.113 20.7114H136.001C136.02 21.4048 136.233 21.9395 136.638 22.3154C137.048 22.6914 137.61 22.8794 138.323 22.8794C139.123 22.8794 139.858 22.6401 140.527 22.1616V23.5312C139.844 23.9609 138.94 24.1758 137.817 24.1758C136.714 24.1758 135.847 23.8364 135.217 23.1577C134.592 22.4741 134.28 21.5146 134.28 20.2793C134.28 19.1123 134.624 18.1626 135.312 17.4302C136.006 16.6929 136.865 16.3242 137.89 16.3242C138.916 16.3242 139.709 16.6538 140.271 17.313C140.832 17.9722 141.113 18.8877 141.113 20.0596V20.7114ZM139.472 19.5103C139.468 18.8999 139.323 18.4263 139.04 18.0894C138.757 17.7476 138.366 17.5767 137.868 17.5767C137.38 17.5767 136.965 17.7549 136.623 18.1113C136.286 18.4678 136.079 18.9341 136.001 19.5103H139.472ZM146.992 18.1187C146.787 17.9575 146.492 17.877 146.106 17.877C145.603 17.877 145.183 18.104 144.846 18.5581C144.509 19.0122 144.341 19.6299 144.341 20.4111V24H142.642V16.5H144.341V18.0454H144.37C144.536 17.5181 144.79 17.1079 145.132 16.8149C145.479 16.5171 145.864 16.3682 146.289 16.3682C146.597 16.3682 146.831 16.4146 146.992 16.5073V18.1187ZM147.737 23.7656V22.1909C148.372 22.6743 149.073 22.916 149.839 22.916C150.865 22.916 151.377 22.6133 151.377 22.0078C151.377 21.8369 151.333 21.6929 151.246 21.5757C151.158 21.4536 151.038 21.3462 150.887 21.2534C150.74 21.1606 150.564 21.0776 150.359 21.0044C150.159 20.9312 149.935 20.8481 149.685 20.7554C149.378 20.6333 149.1 20.5039 148.851 20.3672C148.606 20.2305 148.401 20.0767 148.235 19.9058C148.074 19.73 147.952 19.5322 147.869 19.3125C147.786 19.0928 147.745 18.8364 147.745 18.5435C147.745 18.1821 147.83 17.8647 148.001 17.5913C148.172 17.313 148.401 17.0811 148.689 16.8955C148.977 16.7051 149.305 16.5635 149.671 16.4707C150.037 16.373 150.415 16.3242 150.806 16.3242C151.499 16.3242 152.12 16.4292 152.666 16.6392V18.126C152.139 17.7646 151.534 17.584 150.85 17.584C150.635 17.584 150.44 17.606 150.264 17.6499C150.093 17.6938 149.947 17.7549 149.825 17.833C149.703 17.9111 149.607 18.0063 149.539 18.1187C149.471 18.2261 149.436 18.3457 149.436 18.4775C149.436 18.6387 149.471 18.7754 149.539 18.8877C149.607 19 149.707 19.1001 149.839 19.188C149.976 19.271 150.137 19.3491 150.323 19.4224C150.513 19.4907 150.73 19.5664 150.975 19.6494C151.297 19.7812 151.585 19.9155 151.839 20.0522C152.098 20.189 152.317 20.3452 152.498 20.521C152.679 20.6919 152.818 20.8921 152.915 21.1216C153.013 21.3462 153.062 21.6147 153.062 21.9272C153.062 22.3081 152.974 22.6401 152.798 22.9233C152.622 23.2065 152.388 23.4409 152.095 23.6265C151.802 23.812 151.463 23.9487 151.077 24.0366C150.696 24.1294 150.293 24.1758 149.869 24.1758C149.048 24.1758 148.338 24.0391 147.737 23.7656ZM41.8628 46H40.2148V44.8281H40.1855C39.668 45.7266 38.9087 46.1758 37.9077 46.1758C37.1704 46.1758 36.5918 45.9756 36.1719 45.5752C35.7568 45.1748 35.5493 44.645 35.5493 43.9858C35.5493 42.5698 36.3647 41.7446 37.9956 41.5103L40.2222 41.1953C40.2222 40.126 39.7144 39.5913 38.6987 39.5913C37.8052 39.5913 36.9995 39.8989 36.2817 40.5142V39.0273C37.0728 38.5586 37.9858 38.3242 39.021 38.3242C40.9155 38.3242 41.8628 39.2568 41.8628 41.1221V46ZM40.2222 42.3159L38.6475 42.5356C38.1592 42.5991 37.7905 42.7188 37.5415 42.8945C37.2974 43.0654 37.1753 43.3682 37.1753 43.8027C37.1753 44.1201 37.2876 44.3813 37.5122 44.5864C37.7417 44.7866 38.0469 44.8867 38.4277 44.8867C38.9453 44.8867 39.3726 44.7061 39.7095 44.3447C40.0513 43.9785 40.2222 43.5195 40.2222 42.9678V42.3159ZM50.5326 46H48.8333V41.7739C48.8333 40.3726 48.3377 39.6719 47.3465 39.6719C46.8289 39.6719 46.4017 39.8672 46.0648 40.2578C45.7279 40.6436 45.5594 41.1318 45.5594 41.7227V46H43.8529V38.5H45.5594V39.7451H45.5887C46.1502 38.7979 46.9608 38.3242 48.0204 38.3242C48.8358 38.3242 49.4583 38.5903 49.888 39.1226C50.3177 39.6499 50.5326 40.4141 50.5326 41.415V46ZM59.3415 46H57.6423V44.7256H57.613C57.0661 45.6924 56.2238 46.1758 55.0861 46.1758C54.1633 46.1758 53.4235 45.8413 52.8669 45.1724C52.3151 44.4985 52.0392 43.583 52.0392 42.4258C52.0392 41.1855 52.3444 40.1919 52.9548 39.4448C53.57 38.6978 54.3879 38.3242 55.4084 38.3242C56.4191 38.3242 57.154 38.7295 57.613 39.54H57.6423V34.8965H59.3415V46ZM57.6642 42.5723V41.5908C57.6642 41.0586 57.4909 40.6069 57.1442 40.2358C56.7975 39.8647 56.3556 39.6792 55.8185 39.6792C55.1838 39.6792 54.6833 39.916 54.3171 40.3896C53.9557 40.8633 53.7751 41.52 53.7751 42.3599C53.7751 43.1216 53.9484 43.7246 54.2951 44.1689C54.6467 44.6084 55.1179 44.8281 55.7087 44.8281C56.2897 44.8281 56.7609 44.6157 57.1222 44.1909C57.4836 43.7612 57.6642 43.2217 57.6642 42.5723ZM73.0262 45.5605C72.2352 45.9707 71.2513 46.1758 70.0746 46.1758C68.5511 46.1758 67.3304 45.6948 66.4125 44.7329C65.4945 43.771 65.0355 42.5088 65.0355 40.9463C65.0355 39.2666 65.5506 37.9092 66.5809 36.874C67.6161 35.8389 68.9222 35.3213 70.4994 35.3213C71.515 35.3213 72.3573 35.4653 73.0262 35.7534V37.4819C72.3182 37.062 71.537 36.8521 70.6825 36.8521C69.5448 36.8521 68.6219 37.2158 67.9139 37.9434C67.2108 38.6709 66.8592 39.6426 66.8592 40.8584C66.8592 42.0156 67.1888 42.9385 67.848 43.627C68.5072 44.3105 69.3739 44.6523 70.4481 44.6523C71.4393 44.6523 72.2987 44.418 73.0262 43.9492V45.5605ZM76.4445 46H74.738V34.8965H76.4445V46ZM79.4307 36.9253C79.1524 36.9253 78.9131 36.835 78.7129 36.6543C78.5176 36.4736 78.42 36.2441 78.42 35.9658C78.42 35.6875 78.5176 35.4556 78.7129 35.27C78.9131 35.0845 79.1524 34.9917 79.4307 34.9917C79.7188 34.9917 79.9629 35.0845 80.1631 35.27C80.3633 35.4556 80.4634 35.6875 80.4634 35.9658C80.4634 36.2295 80.3633 36.4565 80.1631 36.647C79.9629 36.8325 79.7188 36.9253 79.4307 36.9253ZM80.273 46H78.5738V38.5H80.273V46ZM88.7596 42.7114H83.6473C83.6669 43.4048 83.8793 43.9395 84.2845 44.3154C84.6947 44.6914 85.2562 44.8794 85.9691 44.8794C86.7699 44.8794 87.5048 44.6401 88.1737 44.1616V45.5312C87.4901 45.9609 86.5868 46.1758 85.4637 46.1758C84.3602 46.1758 83.4935 45.8364 82.8637 45.1577C82.2387 44.4741 81.9262 43.5146 81.9262 42.2793C81.9262 41.1123 82.2704 40.1626 82.9589 39.4302C83.6522 38.6929 84.5116 38.3242 85.537 38.3242C86.5624 38.3242 87.3558 38.6538 87.9174 39.313C88.4789 39.9722 88.7596 40.8877 88.7596 42.0596V42.7114ZM87.119 41.5103C87.1141 40.8999 86.9701 40.4263 86.6869 40.0894C86.4037 39.7476 86.0131 39.5767 85.515 39.5767C85.0267 39.5767 84.6117 39.7549 84.2699 40.1113C83.933 40.4678 83.7255 40.9341 83.6473 41.5103H87.119ZM96.968 46H95.2688V41.7739C95.2688 40.3726 94.7732 39.6719 93.782 39.6719C93.2644 39.6719 92.8371 39.8672 92.5002 40.2578C92.1633 40.6436 91.9948 41.1318 91.9948 41.7227V46H90.2883V38.5H91.9948V39.7451H92.0241C92.5857 38.7979 93.3962 38.3242 94.4558 38.3242C95.2712 38.3242 95.8938 38.5903 96.3235 39.1226C96.7531 39.6499 96.968 40.4141 96.968 41.415V46ZM102.913 45.9194C102.581 46.0854 102.144 46.1685 101.602 46.1685C100.147 46.1685 99.4195 45.4702 99.4195 44.0737V39.833H98.167V38.5H99.4195V36.7642L101.119 36.2808V38.5H102.913V39.833H101.119V43.583C101.119 44.0273 101.199 44.3447 101.36 44.5352C101.522 44.7256 101.79 44.8208 102.166 44.8208C102.454 44.8208 102.703 44.7378 102.913 44.5718V45.9194ZM111.654 46.1758C110.497 46.1758 109.572 45.8267 108.878 45.1284C108.19 44.4253 107.845 43.4951 107.845 42.3379C107.845 41.0781 108.204 40.0942 108.922 39.3862C109.645 38.6782 110.616 38.3242 111.837 38.3242C113.009 38.3242 113.922 38.6685 114.576 39.3569C115.231 40.0454 115.558 41 115.558 42.2207C115.558 43.417 115.204 44.3765 114.496 45.0991C113.793 45.8169 112.845 46.1758 111.654 46.1758ZM111.735 39.6792C111.071 39.6792 110.546 39.9111 110.16 40.375C109.774 40.8389 109.581 41.4785 109.581 42.2939C109.581 43.0801 109.777 43.7002 110.167 44.1543C110.558 44.6035 111.08 44.8281 111.735 44.8281C112.404 44.8281 112.916 44.606 113.273 44.1616C113.634 43.7173 113.815 43.085 113.815 42.2646C113.815 41.4395 113.634 40.8022 113.273 40.353C112.916 39.9038 112.404 39.6792 111.735 39.6792ZM121.195 36.2808C120.966 36.1489 120.705 36.083 120.412 36.083C119.587 36.083 119.174 36.5493 119.174 37.4819V38.5H120.917V39.833H119.181V46H117.482V39.833H116.2V38.5H117.482V37.2842C117.482 36.4932 117.741 35.8706 118.258 35.4165C118.776 34.9575 119.423 34.728 120.199 34.728C120.619 34.728 120.951 34.7744 121.195 34.8672V36.2808ZM126.276 36.2808C126.047 36.1489 125.786 36.083 125.493 36.083C124.667 36.083 124.255 36.5493 124.255 37.4819V38.5H125.998V39.833H124.262V46H122.563V39.833H121.281V38.5H122.563V37.2842C122.563 36.4932 122.822 35.8706 123.339 35.4165C123.857 34.9575 124.504 34.728 125.28 34.728C125.7 34.728 126.032 34.7744 126.276 34.8672V36.2808ZM130.376 42.5283H126.377V41.2759H130.376V42.5283ZM137.742 45.6558C137.141 46.0024 136.431 46.1758 135.61 46.1758C134.497 46.1758 133.599 45.8291 132.915 45.1357C132.232 44.4375 131.89 43.5342 131.89 42.4258C131.89 41.1904 132.256 40.1992 132.988 39.4521C133.726 38.7002 134.71 38.3242 135.94 38.3242C136.624 38.3242 137.227 38.4438 137.749 38.6831V40.2651C137.227 39.8745 136.67 39.6792 136.079 39.6792C135.361 39.6792 134.773 39.9233 134.314 40.4116C133.855 40.895 133.626 41.5298 133.626 42.3159C133.626 43.0923 133.84 43.7051 134.27 44.1543C134.705 44.6035 135.286 44.8281 136.013 44.8281C136.624 44.8281 137.2 44.6108 137.742 44.1763V45.6558ZM146.009 46H144.31V41.8984C144.31 40.4141 143.814 39.6719 142.823 39.6719C142.325 39.6719 141.905 39.8867 141.563 40.3164C141.221 40.7461 141.05 41.2954 141.05 41.9644V46H139.344V34.8965H141.05V39.7451H141.08C141.646 38.7979 142.456 38.3242 143.511 38.3242C145.176 38.3242 146.009 39.3423 146.009 41.3784V46ZM153.741 46H152.093V44.8281H152.064C151.546 45.7266 150.787 46.1758 149.786 46.1758C149.049 46.1758 148.47 45.9756 148.05 45.5752C147.635 45.1748 147.428 44.645 147.428 43.9858C147.428 42.5698 148.243 41.7446 149.874 41.5103L152.1 41.1953C152.1 40.126 151.593 39.5913 150.577 39.5913C149.683 39.5913 148.878 39.8989 148.16 40.5142V39.0273C148.951 38.5586 149.864 38.3242 150.899 38.3242C152.794 38.3242 153.741 39.2568 153.741 41.1221V46ZM152.1 42.3159L150.526 42.5356C150.037 42.5991 149.669 42.7188 149.42 42.8945C149.176 43.0654 149.053 43.3682 149.053 43.8027C149.053 44.1201 149.166 44.3813 149.39 44.5864C149.62 44.7866 149.925 44.8867 150.306 44.8867C150.824 44.8867 151.251 44.7061 151.588 44.3447C151.929 43.9785 152.1 43.5195 152.1 42.9678V42.3159ZM156.588 36.9253C156.31 36.9253 156.07 36.835 155.87 36.6543C155.675 36.4736 155.577 36.2441 155.577 35.9658C155.577 35.6875 155.675 35.4556 155.87 35.27C156.07 35.0845 156.31 34.9917 156.588 34.9917C156.876 34.9917 157.12 35.0845 157.32 35.27C157.521 35.4556 157.621 35.6875 157.621 35.9658C157.621 36.2295 157.521 36.4565 157.32 36.647C157.12 36.8325 156.876 36.9253 156.588 36.9253ZM157.43 46H155.731V38.5H157.43V46ZM166.247 46H164.547V41.7739C164.547 40.3726 164.052 39.6719 163.061 39.6719C162.543 39.6719 162.116 39.8672 161.779 40.2578C161.442 40.6436 161.273 41.1318 161.273 41.7227V46H159.567V38.5H161.273V39.7451H161.303C161.864 38.7979 162.675 38.3242 163.734 38.3242C164.55 38.3242 165.172 38.5903 165.602 39.1226C166.032 39.6499 166.247 40.4141 166.247 41.415V46ZM183.491 46H181.792V41.9131C181.792 41.127 181.679 40.5581 181.455 40.2065C181.235 39.855 180.861 39.6792 180.334 39.6792C179.89 39.6792 179.511 39.9014 179.199 40.3457C178.891 40.79 178.737 41.3223 178.737 41.9424V46H177.031V41.7739C177.031 40.3774 176.538 39.6792 175.551 39.6792C175.092 39.6792 174.714 39.8892 174.416 40.3091C174.123 40.729 173.977 41.2734 173.977 41.9424V46H172.277V38.5H173.977V39.6865H174.006C174.548 38.7783 175.337 38.3242 176.372 38.3242C176.889 38.3242 177.341 38.4683 177.727 38.7563C178.117 39.0396 178.383 39.4131 178.525 39.877C179.082 38.8418 179.912 38.3242 181.015 38.3242C182.666 38.3242 183.491 39.3423 183.491 41.3784V46ZM188.799 46.1758C187.642 46.1758 186.716 45.8267 186.023 45.1284C185.334 44.4253 184.99 43.4951 184.99 42.3379C184.99 41.0781 185.349 40.0942 186.067 39.3862C186.79 38.6782 187.761 38.3242 188.982 38.3242C190.154 38.3242 191.067 38.6685 191.721 39.3569C192.375 40.0454 192.703 41 192.703 42.2207C192.703 43.417 192.349 44.3765 191.641 45.0991C190.937 45.8169 189.99 46.1758 188.799 46.1758ZM188.879 39.6792C188.215 39.6792 187.69 39.9111 187.305 40.375C186.919 40.8389 186.726 41.4785 186.726 42.2939C186.726 43.0801 186.921 43.7002 187.312 44.1543C187.703 44.6035 188.225 44.8281 188.879 44.8281C189.548 44.8281 190.061 44.606 190.417 44.1616C190.779 43.7173 190.959 43.085 190.959 42.2646C190.959 41.4395 190.779 40.8022 190.417 40.353C190.061 39.9038 189.548 39.6792 188.879 39.6792ZM201.167 46H199.468V44.7256H199.439C198.892 45.6924 198.05 46.1758 196.912 46.1758C195.989 46.1758 195.249 45.8413 194.693 45.1724C194.141 44.4985 193.865 43.583 193.865 42.4258C193.865 41.1855 194.17 40.1919 194.781 39.4448C195.396 38.6978 196.214 38.3242 197.234 38.3242C198.245 38.3242 198.98 38.7295 199.439 39.54H199.468V34.8965H201.167V46ZM199.49 42.5723V41.5908C199.49 41.0586 199.317 40.6069 198.97 40.2358C198.623 39.8647 198.181 39.6792 197.644 39.6792C197.01 39.6792 196.509 39.916 196.143 40.3896C195.782 40.8633 195.601 41.52 195.601 42.3599C195.601 43.1216 195.774 43.7246 196.121 44.1689C196.472 44.6084 196.944 44.8281 197.534 44.8281C198.116 44.8281 198.587 44.6157 198.948 44.1909C199.309 43.7612 199.49 43.2217 199.49 42.5723ZM209.837 46H208.138V44.8135H208.109C207.615 45.7217 206.849 46.1758 205.809 46.1758C204.036 46.1758 203.15 45.1113 203.15 42.9824V38.5H204.849V42.8066C204.849 44.1543 205.369 44.8281 206.409 44.8281C206.912 44.8281 207.325 44.6426 207.647 44.2715C207.974 43.9004 208.138 43.4146 208.138 42.814V38.5H209.837V46ZM213.673 46H211.966V34.8965H213.673V46ZM222.152 42.7114H217.04C217.059 43.4048 217.272 43.9395 217.677 44.3154C218.087 44.6914 218.649 44.8794 219.362 44.8794C220.162 44.8794 220.897 44.6401 221.566 44.1616V45.5312C220.883 45.9609 219.979 46.1758 218.856 46.1758C217.753 46.1758 216.886 45.8364 216.256 45.1577C215.631 44.4741 215.319 43.5146 215.319 42.2793C215.319 41.1123 215.663 40.1626 216.351 39.4302C217.045 38.6929 217.904 38.3242 218.93 38.3242C219.955 38.3242 220.748 38.6538 221.31 39.313C221.871 39.9722 222.152 40.8877 222.152 42.0596V42.7114ZM220.512 41.5103C220.507 40.8999 220.363 40.4263 220.079 40.0894C219.796 39.7476 219.406 39.5767 218.908 39.5767C218.419 39.5767 218.004 39.7549 217.662 40.1113C217.326 40.4678 217.118 40.9341 217.04 41.5103H220.512Z" fill="white"/>
<rect x="0.33" y="0.33" width="256.34" height="59.34" rx="29.67" stroke="url(#paint1_linear_1983_43425)" stroke-opacity="0.65" stroke-width="0.66"/>
</g>
<defs>
<filter id="filter0_b_1983_43425" x="-12" y="-12" width="281" height="84" filterUnits="userSpaceOnUse" color-interpolation-filters="sRGB">
<feFlood flood-opacity="0" result="BackgroundImageFix"/>
<feGaussianBlur in="BackgroundImageFix" stdDeviation="6"/>
<feComposite in2="SourceAlpha" operator="in" result="effect1_backgroundBlur_1983_43425"/>
<feBlend mode="normal" in="SourceGraphic" in2="effect1_backgroundBlur_1983_43425" result="shape"/>
</filter>
<radialGradient id="paint0_radial_1983_43425" cx="0" cy="0" r="1" gradientUnits="userSpaceOnUse" gradientTransform="translate(2.31165 1.78512) rotate(12.7369) scale(257.071 176.927)">
<stop stop-color="#70A9FF" stop-opacity="0.4"/>
<stop offset="1" stop-color="white" stop-opacity="0"/>
</radialGradient>
<linearGradient id="paint1_linear_1983_43425" x1="-7.77217" y1="-2.13749" x2="68.8611" y2="150.77" gradientUnits="userSpaceOnUse">
<stop stop-color="white" stop-opacity="0.9"/>
<stop offset="1" stop-color="white" stop-opacity="0"/>
</linearGradient>
</defs>
</svg>
