<svg width="214" height="48" viewBox="0 0 214 48" fill="none" xmlns="http://www.w3.org/2000/svg">
<g filter="url(#filter0_b_1900_42999)">
<rect width="214" height="48" rx="24" fill="url(#paint0_radial_1900_42999)" fill-opacity="0.35"/>
<path d="M38.9092 30H36.6152L35.4814 26.792H30.5244L29.4346 30H27.1494L31.8691 17.3965H34.2246L38.9092 30ZM34.9277 25.0869L33.1787 20.0596C33.126 19.8955 33.0703 19.6318 33.0117 19.2686H32.9766C32.9238 19.6025 32.8652 19.8662 32.8008 20.0596L31.0693 25.0869H34.9277ZM39.7504 29.7188V27.8291C40.5121 28.4092 41.3529 28.6992 42.2729 28.6992C43.5033 28.6992 44.1186 28.3359 44.1186 27.6094C44.1186 27.4043 44.0658 27.2314 43.9604 27.0908C43.8549 26.9443 43.7113 26.8154 43.5297 26.7041C43.3539 26.5928 43.143 26.4932 42.8969 26.4053C42.6566 26.3174 42.3871 26.2178 42.0883 26.1064C41.7191 25.96 41.3852 25.8047 41.0863 25.6406C40.7934 25.4766 40.5473 25.292 40.3481 25.0869C40.1547 24.876 40.0082 24.6387 39.9086 24.375C39.809 24.1113 39.7592 23.8037 39.7592 23.4521C39.7592 23.0186 39.8617 22.6377 40.0668 22.3096C40.2719 21.9756 40.5473 21.6973 40.893 21.4746C41.2387 21.2461 41.6313 21.0762 42.0707 20.9648C42.5102 20.8477 42.9643 20.7891 43.433 20.7891C44.265 20.7891 45.0092 20.915 45.6654 21.167V22.9512C45.0326 22.5176 44.3061 22.3008 43.4858 22.3008C43.2279 22.3008 42.9936 22.3271 42.7826 22.3799C42.5775 22.4326 42.4018 22.5059 42.2553 22.5996C42.1088 22.6934 41.9945 22.8076 41.9125 22.9424C41.8305 23.0713 41.7895 23.2148 41.7895 23.373C41.7895 23.5664 41.8305 23.7305 41.9125 23.8652C41.9945 24 42.1147 24.1201 42.2729 24.2256C42.4369 24.3252 42.6303 24.4189 42.8529 24.5068C43.0815 24.5889 43.3422 24.6797 43.6352 24.7793C44.0219 24.9375 44.3676 25.0986 44.6723 25.2627C44.9828 25.4268 45.2465 25.6143 45.4633 25.8252C45.6801 26.0303 45.8471 26.2705 45.9643 26.5459C46.0815 26.8154 46.14 27.1377 46.14 27.5127C46.14 27.9697 46.0346 28.3682 45.8236 28.708C45.6127 29.0479 45.3315 29.3291 44.9799 29.5518C44.6283 29.7744 44.2211 29.9385 43.7582 30.0439C43.3012 30.1553 42.8178 30.2109 42.308 30.2109C41.3236 30.2109 40.4711 30.0469 39.7504 29.7188ZM52.7205 29.9033C52.3221 30.1025 51.7977 30.2021 51.1473 30.2021C49.4012 30.2021 48.5281 29.3643 48.5281 27.6885V22.5996H47.0252V21H48.5281V18.917L50.5672 18.3369V21H52.7205V22.5996H50.5672V27.0996C50.5672 27.6328 50.6639 28.0137 50.8572 28.2422C51.0506 28.4707 51.3729 28.585 51.824 28.585C52.1697 28.585 52.4686 28.4854 52.7205 28.2861V29.9033ZM61.885 26.0537H55.7502C55.7737 26.8857 56.0285 27.5273 56.5149 27.9785C57.0071 28.4297 57.6809 28.6553 58.5364 28.6553C59.4973 28.6553 60.3791 28.3682 61.1819 27.7939V29.4375C60.3615 29.9531 59.2776 30.2109 57.9299 30.2109C56.6057 30.2109 55.5656 29.8037 54.8098 28.9893C54.0598 28.1689 53.6848 27.0176 53.6848 25.5352C53.6848 24.1348 54.0979 22.9951 54.924 22.1162C55.7561 21.2314 56.7873 20.7891 58.0178 20.7891C59.2483 20.7891 60.2004 21.1846 60.8742 21.9756C61.5481 22.7666 61.885 23.8652 61.885 25.2715V26.0537ZM59.9162 24.6123C59.9104 23.8799 59.7375 23.3115 59.3977 22.9072C59.0578 22.4971 58.5891 22.292 57.9914 22.292C57.4055 22.292 56.9074 22.5059 56.4973 22.9336C56.093 23.3613 55.844 23.9209 55.7502 24.6123H59.9162ZM68.9401 22.9424C68.694 22.749 68.3395 22.6523 67.8766 22.6523C67.2731 22.6523 66.7692 22.9248 66.3649 23.4697C65.9606 24.0146 65.7584 24.7559 65.7584 25.6934V30H63.7194V21H65.7584V22.8545H65.7936C65.9928 22.2217 66.2975 21.7295 66.7076 21.3779C67.1237 21.0205 67.5866 20.8418 68.0963 20.8418C68.4655 20.8418 68.7467 20.8975 68.9401 21.0088V22.9424ZM71.3018 19.1104C70.9678 19.1104 70.6807 19.002 70.4405 18.7852C70.2061 18.5684 70.0889 18.293 70.0889 17.959C70.0889 17.625 70.2061 17.3467 70.4405 17.124C70.6807 16.9014 70.9678 16.79 71.3018 16.79C71.6475 16.79 71.9405 16.9014 72.1807 17.124C72.4209 17.3467 72.5411 17.625 72.5411 17.959C72.5411 18.2754 72.4209 18.5479 72.1807 18.7764C71.9405 18.999 71.6475 19.1104 71.3018 19.1104ZM72.3125 30H70.2735V21H72.3125V30ZM81.5209 21.8525L76.6606 28.4092H81.5034V30H73.8041V29.2354L78.77 22.5908H74.2788V21H81.5209V21.8525ZM96.5917 30H94.5526V25.0957C94.5526 24.1523 94.4178 23.4697 94.1483 23.0479C93.8846 22.626 93.4364 22.415 92.8036 22.415C92.2704 22.415 91.8163 22.6816 91.4413 23.2148C91.0721 23.748 90.8876 24.3867 90.8876 25.1309V30H88.8397V24.9287C88.8397 23.2529 88.2479 22.415 87.0643 22.415C86.5135 22.415 86.0594 22.667 85.702 23.1709C85.3504 23.6748 85.1747 24.3281 85.1747 25.1309V30H83.1356V21H85.1747V22.4238H85.2098C85.8602 21.334 86.8065 20.7891 88.0487 20.7891C88.6698 20.7891 89.2118 20.9619 89.6747 21.3076C90.1434 21.6475 90.4627 22.0957 90.6327 22.6523C91.3006 21.4102 92.2967 20.7891 93.621 20.7891C95.6014 20.7891 96.5917 22.0107 96.5917 24.4541V30ZM112.838 29.4727C111.888 29.9648 110.708 30.2109 109.296 30.2109C107.467 30.2109 106.003 29.6338 104.901 28.4795C103.799 27.3252 103.249 25.8105 103.249 23.9355C103.249 21.9199 103.867 20.291 105.103 19.0488C106.345 17.8066 107.913 17.1855 109.805 17.1855C111.024 17.1855 112.035 17.3584 112.838 17.7041V19.7783C111.988 19.2744 111.05 19.0225 110.025 19.0225C108.66 19.0225 107.552 19.459 106.703 20.332C105.859 21.2051 105.437 22.3711 105.437 23.8301C105.437 25.2188 105.833 26.3262 106.624 27.1523C107.415 27.9727 108.455 28.3828 109.744 28.3828C110.933 28.3828 111.965 28.1016 112.838 27.5391V29.4727ZM118.882 30.2109C117.493 30.2109 116.383 29.792 115.551 28.9541C114.725 28.1104 114.312 26.9941 114.312 25.6055C114.312 24.0938 114.742 22.9131 115.604 22.0635C116.471 21.2139 117.637 20.7891 119.102 20.7891C120.508 20.7891 121.604 21.2021 122.389 22.0283C123.174 22.8545 123.566 24 123.566 25.4648C123.566 26.9004 123.142 28.0518 122.292 28.9189C121.448 29.7803 120.312 30.2109 118.882 30.2109ZM118.979 22.415C118.182 22.415 117.552 22.6934 117.089 23.25C116.626 23.8066 116.395 24.5742 116.395 25.5527C116.395 26.4961 116.629 27.2402 117.098 27.7852C117.566 28.3242 118.193 28.5938 118.979 28.5938C119.781 28.5938 120.397 28.3271 120.824 27.7939C121.258 27.2607 121.475 26.502 121.475 25.5176C121.475 24.5273 121.258 23.7627 120.824 23.2236C120.397 22.6846 119.781 22.415 118.979 22.415ZM133.557 30H131.518V24.9287C131.518 23.2471 130.923 22.4062 129.734 22.4062C129.113 22.4062 128.6 22.6406 128.196 23.1094C127.791 23.5723 127.589 24.1582 127.589 24.8672V30H125.541V21H127.589V22.4941H127.624C128.298 21.3574 129.271 20.7891 130.542 20.7891C131.521 20.7891 132.268 21.1084 132.784 21.7471C133.299 22.3799 133.557 23.2969 133.557 24.498V30ZM143.961 30H141.922V24.9287C141.922 23.2471 141.327 22.4062 140.138 22.4062C139.517 22.4062 139.004 22.6406 138.6 23.1094C138.195 23.5723 137.993 24.1582 137.993 24.8672V30H135.945V21H137.993V22.4941H138.028C138.702 21.3574 139.675 20.7891 140.946 20.7891C141.925 20.7891 142.672 21.1084 143.187 21.7471C143.703 22.3799 143.961 23.2969 143.961 24.498V30ZM153.969 26.0537H147.834C147.858 26.8857 148.113 27.5273 148.599 27.9785C149.091 28.4297 149.765 28.6553 150.62 28.6553C151.581 28.6553 152.463 28.3682 153.266 27.7939V29.4375C152.446 29.9531 151.362 30.2109 150.014 30.2109C148.69 30.2109 147.65 29.8037 146.894 28.9893C146.144 28.1689 145.769 27.0176 145.769 25.5352C145.769 24.1348 146.182 22.9951 147.008 22.1162C147.84 21.2314 148.871 20.7891 150.102 20.7891C151.332 20.7891 152.284 21.1846 152.958 21.9756C153.632 22.7666 153.969 23.8652 153.969 25.2715V26.0537ZM152 24.6123C151.994 23.8799 151.822 23.3115 151.482 22.9072C151.142 22.4971 150.673 22.292 150.075 22.292C149.49 22.292 148.992 22.5059 148.581 22.9336C148.177 23.3613 147.928 23.9209 147.834 24.6123H152ZM162.246 29.5869C161.525 30.0029 160.673 30.2109 159.688 30.2109C158.352 30.2109 157.274 29.7949 156.454 28.9629C155.634 28.125 155.223 27.041 155.223 25.7109C155.223 24.2285 155.663 23.0391 156.542 22.1426C157.426 21.2402 158.607 20.7891 160.084 20.7891C160.904 20.7891 161.628 20.9326 162.255 21.2197V23.1182C161.628 22.6494 160.96 22.415 160.251 22.415C159.389 22.415 158.683 22.708 158.133 23.2939C157.582 23.874 157.306 24.6357 157.306 25.5791C157.306 26.5107 157.564 27.2461 158.08 27.7852C158.601 28.3242 159.299 28.5938 160.172 28.5938C160.904 28.5938 161.595 28.333 162.246 27.8115V29.5869ZM168.914 29.9033C168.516 30.1025 167.991 30.2021 167.341 30.2021C165.595 30.2021 164.722 29.3643 164.722 27.6885V22.5996H163.219V21H164.722V18.917L166.761 18.3369V21H168.914V22.5996H166.761V27.0996C166.761 27.6328 166.858 28.0137 167.051 28.2422C167.244 28.4707 167.567 28.585 168.018 28.585C168.363 28.585 168.662 28.4854 168.914 28.2861V29.9033ZM174.449 30.2109C173.06 30.2109 171.95 29.792 171.118 28.9541C170.292 28.1104 169.878 26.9941 169.878 25.6055C169.878 24.0938 170.309 22.9131 171.17 22.0635C172.038 21.2139 173.204 20.7891 174.668 20.7891C176.075 20.7891 177.17 21.2021 177.956 22.0283C178.741 22.8545 179.133 24 179.133 25.4648C179.133 26.9004 178.709 28.0518 177.859 28.9189C177.015 29.7803 175.878 30.2109 174.449 30.2109ZM174.545 22.415C173.749 22.415 173.119 22.6934 172.656 23.25C172.193 23.8066 171.961 24.5742 171.961 25.5527C171.961 26.4961 172.196 27.2402 172.665 27.7852C173.133 28.3242 173.76 28.5938 174.545 28.5938C175.348 28.5938 175.963 28.3271 176.391 27.7939C176.825 27.2607 177.042 26.502 177.042 25.5176C177.042 24.5273 176.825 23.7627 176.391 23.2236C175.963 22.6846 175.348 22.415 174.545 22.415ZM186.329 22.9424C186.083 22.749 185.728 22.6523 185.266 22.6523C184.662 22.6523 184.158 22.9248 183.754 23.4697C183.35 24.0146 183.147 24.7559 183.147 25.6934V30H181.108V21H183.147V22.8545H183.183C183.382 22.2217 183.686 21.7295 184.097 21.3779C184.513 21.0205 184.976 20.8418 185.485 20.8418C185.854 20.8418 186.136 20.8975 186.329 21.0088V22.9424Z" fill="white"/>
<rect x="0.33" y="0.33" width="213.34" height="47.34" rx="23.67" stroke="url(#paint1_linear_1900_42999)" stroke-opacity="0.65" stroke-width="0.66"/>
</g>
<defs>
<filter id="filter0_b_1900_42999" x="-12" y="-12" width="238" height="72" filterUnits="userSpaceOnUse" color-interpolation-filters="sRGB">
<feFlood flood-opacity="0" result="BackgroundImageFix"/>
<feGaussianBlur in="BackgroundImageFix" stdDeviation="6"/>
<feComposite in2="SourceAlpha" operator="in" result="effect1_backgroundBlur_1900_42999"/>
<feBlend mode="normal" in="SourceGraphic" in2="effect1_backgroundBlur_1900_42999" result="shape"/>
</filter>
<radialGradient id="paint0_radial_1900_42999" cx="0" cy="0" r="1" gradientUnits="userSpaceOnUse" gradientTransform="translate(1.92488 1.4281) rotate(12.2524) scale(213.658 141.807)">
<stop stop-color="#70A9FF" stop-opacity="0.4"/>
<stop offset="1" stop-color="white" stop-opacity="0"/>
</radialGradient>
<linearGradient id="paint1_linear_1900_42999" x1="-6.47177" y1="-1.70999" x2="53.3528" y2="122.536" gradientUnits="userSpaceOnUse">
<stop stop-color="white" stop-opacity="0.9"/>
<stop offset="1" stop-color="white" stop-opacity="0"/>
</linearGradient>
</defs>
</svg>
