<svg width="70" height="78" viewBox="0 0 70 78" fill="none" xmlns="http://www.w3.org/2000/svg">
<path d="M54.4444 0H15.5556C7 0 0 7 0 15.5556V62.2222C0 70.7778 7 77.7778 15.5556 77.7778H54.4444C63 77.7778 70 70.7778 70 62.2222V15.5556C70 7 63 0 54.4444 0ZM30.5667 62.7667C29.9833 63.35 29.2444 63.6222 28.5056 63.6222C27.7667 63.6222 27.0278 63.35 26.4444 62.7667L23.9167 60.2389L21.5056 62.65C20.9222 63.2333 20.1833 63.5056 19.4444 63.5056C18.7056 63.5056 17.9667 63.2333 17.3833 62.65C16.2556 61.5222 16.2556 59.6556 17.3833 58.5278L19.7944 56.1167L17.5 53.8222C16.3722 52.6944 16.3722 50.8278 17.5 49.7C18.6278 48.5722 20.4944 48.5722 21.6222 49.7L23.9167 51.9944L26.3278 49.5833C27.4556 48.4556 29.3222 48.4556 30.45 49.5833C31.5778 50.7111 31.5778 52.5778 30.45 53.7056L28.0389 56.1167L30.5667 58.6444C31.6944 59.7722 31.6944 61.6389 30.5667 62.7667ZM44.6833 64.1278C42.5444 64.1278 40.7944 62.4167 40.7944 60.2778V60.2C40.7944 58.0611 42.5444 56.3111 44.6833 56.3111C46.8222 56.3111 48.5722 58.0611 48.5722 60.2C48.5722 62.3389 46.8222 64.1278 44.6833 64.1278ZM52.5389 55.7278C50.4 55.7278 48.6111 53.9778 48.6111 51.8389C48.6111 49.7 50.3222 47.95 52.4611 47.95H52.5389C54.6778 47.95 56.4278 49.7 56.4278 51.8389C56.4278 53.9778 54.6778 55.7278 52.5389 55.7278ZM58.3333 28.1944C58.3333 31.9278 55.2611 35 51.5278 35H18.4722C14.7389 35 11.6667 31.9278 11.6667 28.1944V18.4722C11.6667 14.7389 14.7389 11.6667 18.4722 11.6667H51.5278C55.2611 11.6667 58.3333 14.7389 58.3333 18.4722V28.1944Z" fill="#182456"/>
<path d="M15.5556 0.271158H54.4444C62.8502 0.271158 69.7288 7.14976 69.7288 15.5556V62.2222C69.7288 70.628 62.8502 77.5066 54.4444 77.5066H15.5556C7.14976 77.5066 0.271158 70.628 0.271158 62.2222V15.5556C0.271158 7.14976 7.14976 0.271158 15.5556 0.271158ZM28.5056 63.8934C29.3125 63.8934 30.1215 63.5953 30.7584 62.9584C31.9921 61.7247 31.9921 59.6864 30.7584 58.4527L28.4224 56.1167L30.6417 53.8973C31.8754 52.6636 31.8754 50.6253 30.6417 49.3916C29.4081 48.1579 27.3697 48.1579 26.136 49.3916L23.9167 51.611L21.814 49.5083C20.5803 48.2746 18.5419 48.2746 17.3083 49.5083C16.0746 50.7419 16.0746 52.7803 17.3083 54.014L19.411 56.1167L17.1916 58.336C15.9579 59.5697 15.9579 61.6081 17.1916 62.8417C17.8285 63.4786 18.6375 63.7767 19.4444 63.7767C20.2514 63.7767 21.0604 63.4786 21.6973 62.8417L23.9167 60.6224L26.2527 62.9584C26.8896 63.5953 27.6986 63.8934 28.5056 63.8934ZM40.5233 60.2778C40.5233 62.57 42.3982 64.3989 44.6833 64.3989C46.9755 64.3989 48.8434 62.4851 48.8434 60.2C48.8434 57.9114 46.972 56.04 44.6833 56.04C42.3947 56.04 40.5233 57.9114 40.5233 60.2V60.2778ZM48.34 51.8389C48.34 54.131 50.2538 55.9989 52.5389 55.9989C54.8275 55.9989 56.6989 54.1275 56.6989 51.8389C56.6989 49.5502 54.8275 47.6788 52.5389 47.6788H52.4611C50.1689 47.6788 48.34 49.5538 48.34 51.8389ZM51.5278 35.2712C55.4109 35.2712 58.6045 32.0775 58.6045 28.1944V18.4722C58.6045 14.5891 55.4109 11.3955 51.5278 11.3955H18.4722C14.5891 11.3955 11.3955 14.5891 11.3955 18.4722V28.1944C11.3955 32.0775 14.5891 35.2712 18.4722 35.2712H51.5278Z" stroke="url(#paint0_linear_2006_43046)" stroke-opacity="0.65" stroke-width="0.542316"/>
<defs>
<linearGradient id="paint0_linear_2006_43046" x1="-2.11693" y1="-2.77082" x2="86.3137" y2="34.3037" gradientUnits="userSpaceOnUse">
<stop stop-color="white" stop-opacity="0.9"/>
<stop offset="1" stop-color="white" stop-opacity="0"/>
</linearGradient>
</defs>
</svg>
