<svg width="38" height="38" viewBox="0 0 38 38" fill="none" xmlns="http://www.w3.org/2000/svg">
<path d="M27.7576 12.3026C27.6468 12.2867 27.5359 12.2867 27.4251 12.3026C24.9709 12.2234 23.0234 10.2126 23.0234 7.74258C23.0234 5.22508 25.0659 3.16675 27.5993 3.16675C30.1168 3.16675 32.1751 5.20925 32.1751 7.74258C32.1593 10.2126 30.2118 12.2234 27.7576 12.3026Z" fill="white"/>
<path d="M32.9154 23.2756C31.1421 24.4631 28.6562 24.9065 26.3604 24.6056C26.9621 23.3073 27.2787 21.8665 27.2946 20.3465C27.2946 18.7631 26.9462 17.259 26.2812 15.9448C28.6246 15.6281 31.1104 16.0715 32.8996 17.259C35.4013 18.9056 35.4013 21.6131 32.9154 23.2756Z" fill="white"/>
<path d="M10.1946 12.3023C10.3055 12.2865 10.4163 12.2865 10.5271 12.3023C12.9813 12.2232 14.9288 10.2123 14.9288 7.74234C14.9288 5.209 12.8863 3.1665 10.353 3.1665C7.83547 3.1665 5.79297 5.209 5.79297 7.74234C5.79297 10.2123 7.74047 12.2232 10.1946 12.3023Z" fill="white"/>
<path d="M10.3722 20.3468C10.3722 21.8826 10.7047 23.3393 11.3064 24.6534C9.07391 24.8909 6.74641 24.4159 5.03641 23.2918C2.53474 21.6293 2.53474 18.9218 5.03641 17.2593C6.73057 16.1193 9.12141 15.6601 11.3697 15.9134C10.7206 17.2434 10.3722 18.7476 10.3722 20.3468Z" fill="white"/>
<path d="M19.1916 25.1275C19.0649 25.1117 18.9224 25.1117 18.7799 25.1275C15.8666 25.0325 13.5391 22.6417 13.5391 19.6967C13.5549 16.6883 15.9774 14.25 19.0016 14.25C22.0099 14.25 24.4482 16.6883 24.4482 19.6967C24.4324 22.6417 22.1207 25.0325 19.1916 25.1275Z" fill="white"/>
<path d="M14.0431 28.4062C11.6523 30.0053 11.6523 32.6337 14.0431 34.217C16.7665 36.0378 21.2315 36.0378 23.9548 34.217C26.3456 32.6178 26.3456 29.9895 23.9548 28.4062C21.2473 26.5853 16.7823 26.5853 14.0431 28.4062Z" fill="white"/>
</svg>
