<svg width="78" height="78" viewBox="0 0 78 78" fill="none" xmlns="http://www.w3.org/2000/svg">
<mask id="path-1-inside-1_2006_43048" fill="white">
<path d="M55.795 63.8383C55.0538 62.5749 55.4079 60.9625 56.6164 60.0938C63.7976 54.9213 68.3295 46.9746 69.0718 38.2673C69.2117 36.6855 70.6187 35.5219 72.2287 35.6543C73.8388 35.7866 75.0189 37.1648 74.8789 38.7466C73.9671 49.1436 68.5525 58.5934 60.0435 64.7478C58.7306 65.6759 56.8959 65.398 55.9553 64.1114C55.8952 64.009 55.8551 63.9407 55.795 63.8383Z"/>
<path d="M22.3271 7.19095C22.287 7.12266 22.2269 7.02023 22.1869 6.95194C21.5249 5.50705 22.1977 3.80456 23.6709 3.14967C33.3017 -1.09274 44.2854 -1.05053 53.8861 3.28282C55.3281 3.92033 55.971 5.64924 55.3173 7.06771C54.6288 8.50598 52.9013 9.12322 51.4592 8.48571C43.3955 4.87252 34.1559 4.79543 26.0881 8.37753C24.6845 8.99284 23.0683 8.45427 22.3271 7.19095Z"/>
<path d="M17.8934 65.4838C13.3746 62.4516 9.68548 58.5382 6.92099 53.8264C4.0363 48.9097 2.4063 43.5988 2.10589 37.9423C1.97678 36.3767 3.22872 35.0281 4.84308 34.9304C6.43741 34.7985 7.80642 36.0238 7.93554 37.5894C8.08312 40.3736 8.65911 43.0965 9.56857 45.6755C10.7847 49.1729 12.6329 52.4022 15.0331 55.2268C16.8133 57.3112 18.8868 59.1833 21.1737 60.7066C22.5069 61.6336 22.9008 63.4129 21.9327 64.6913C21.0395 66.0182 19.2267 66.4108 17.8934 65.4838Z"/>
<path d="M76.4851 14.2583C73.38 8.96606 66.4477 7.12291 61.0146 10.2096C55.5816 13.2963 53.7175 20.0915 56.8426 25.418C59.9677 30.7444 66.88 32.5534 72.313 29.4667C77.746 26.38 79.6101 19.5848 76.4851 14.2583Z"/>
<path d="M21.1574 13.8245C18.0524 8.53226 11.12 6.68911 5.68698 9.77581C0.253956 12.8625 -1.61015 19.6577 1.51493 24.9842C4.64001 30.3106 11.5523 32.1196 16.9853 29.0329C22.4184 25.9462 24.2624 19.1168 21.1574 13.8245Z"/>
<path d="M49.0035 61.2857C45.8984 55.9934 38.9661 54.1503 33.533 57.237C28.1 60.3237 26.2359 67.1189 29.361 72.4453C32.4861 77.7718 39.3984 79.5808 44.8314 76.4941C50.2644 73.4074 52.1285 66.6121 49.0035 61.2857Z"/>
</mask>
<path d="M55.795 63.8383C55.0538 62.5749 55.4079 60.9625 56.6164 60.0938C63.7976 54.9213 68.3295 46.9746 69.0718 38.2673C69.2117 36.6855 70.6187 35.5219 72.2287 35.6543C73.8388 35.7866 75.0189 37.1648 74.8789 38.7466C73.9671 49.1436 68.5525 58.5934 60.0435 64.7478C58.7306 65.6759 56.8959 65.398 55.9553 64.1114C55.8952 64.009 55.8551 63.9407 55.795 63.8383Z" fill="#182456"/>
<path d="M22.3271 7.19095C22.287 7.12266 22.2269 7.02023 22.1869 6.95194C21.5249 5.50705 22.1977 3.80456 23.6709 3.14967C33.3017 -1.09274 44.2854 -1.05053 53.8861 3.28282C55.3281 3.92033 55.971 5.64924 55.3173 7.06771C54.6288 8.50598 52.9013 9.12322 51.4592 8.48571C43.3955 4.87252 34.1559 4.79543 26.0881 8.37753C24.6845 8.99284 23.0683 8.45427 22.3271 7.19095Z" fill="#182456"/>
<path d="M17.8934 65.4838C13.3746 62.4516 9.68548 58.5382 6.92099 53.8264C4.0363 48.9097 2.4063 43.5988 2.10589 37.9423C1.97678 36.3767 3.22872 35.0281 4.84308 34.9304C6.43741 34.7985 7.80642 36.0238 7.93554 37.5894C8.08312 40.3736 8.65911 43.0965 9.56857 45.6755C10.7847 49.1729 12.6329 52.4022 15.0331 55.2268C16.8133 57.3112 18.8868 59.1833 21.1737 60.7066C22.5069 61.6336 22.9008 63.4129 21.9327 64.6913C21.0395 66.0182 19.2267 66.4108 17.8934 65.4838Z" fill="#182456"/>
<path d="M76.4851 14.2583C73.38 8.96606 66.4477 7.12291 61.0146 10.2096C55.5816 13.2963 53.7175 20.0915 56.8426 25.418C59.9677 30.7444 66.88 32.5534 72.313 29.4667C77.746 26.38 79.6101 19.5848 76.4851 14.2583Z" fill="#182456"/>
<path d="M21.1574 13.8245C18.0524 8.53226 11.12 6.68911 5.68698 9.77581C0.253956 12.8625 -1.61015 19.6577 1.51493 24.9842C4.64001 30.3106 11.5523 32.1196 16.9853 29.0329C22.4184 25.9462 24.2624 19.1168 21.1574 13.8245Z" fill="#182456"/>
<path d="M49.0035 61.2857C45.8984 55.9934 38.9661 54.1503 33.533 57.237C28.1 60.3237 26.2359 67.1189 29.361 72.4453C32.4861 77.7718 39.3984 79.5808 44.8314 76.4941C50.2644 73.4074 52.1285 66.6121 49.0035 61.2857Z" fill="#182456"/>
<path d="M55.795 63.8383L55.3273 64.1127L55.795 63.8383ZM56.6164 60.0938L56.933 60.5341L56.9334 60.5338L56.6164 60.0938ZM69.0718 38.2673L68.5316 38.2195L68.5314 38.2213L69.0718 38.2673ZM74.8789 38.7466L74.3387 38.6989L74.3387 38.6993L74.8789 38.7466ZM60.0435 64.7478L60.3566 65.1907L60.3614 65.1873L60.0435 64.7478ZM55.9553 64.1114L55.4875 64.3858L55.5013 64.4094L55.5175 64.4315L55.9553 64.1114ZM22.3271 7.19095L22.7949 6.91651L22.7949 6.91651L22.3271 7.19095ZM22.1869 6.95194L21.6938 7.17783L21.7053 7.20274L21.7191 7.22638L22.1869 6.95194ZM23.6709 3.14967L23.4523 2.65337L23.4506 2.65411L23.6709 3.14967ZM53.8861 3.28282L53.663 3.77713L53.6668 3.77883L53.8861 3.28282ZM55.3173 7.06771L55.8065 7.30191L55.8098 7.2947L55.3173 7.06771ZM51.4592 8.48571L51.2375 8.98062L51.2399 8.98172L51.4592 8.48571ZM26.0881 8.37753L26.3058 8.87422L26.3081 8.87319L26.0881 8.37753ZM17.8934 65.4838L18.203 65.0385L18.1956 65.0335L17.8934 65.4838ZM6.92099 53.8264L7.38874 53.5519L6.92099 53.8264ZM2.10589 37.9423L2.64744 37.9135L2.64702 37.9056L2.64637 37.8977L2.10589 37.9423ZM4.84308 34.9304L4.87586 35.4718L4.88778 35.4708L4.84308 34.9304ZM7.93554 37.5894L8.47709 37.5606L8.47667 37.5527L8.47602 37.5448L7.93554 37.5894ZM9.56857 45.6755L10.0808 45.4974L10.08 45.4952L9.56857 45.6755ZM15.0331 55.2268L14.6199 55.578L14.6208 55.579L15.0331 55.2268ZM21.1737 60.7066L21.4833 60.2612L21.4743 60.2553L21.1737 60.7066ZM21.9327 64.6913L21.5004 64.3639L21.4912 64.3759L21.4828 64.3885L21.9327 64.6913ZM76.4851 14.2583L76.0173 14.5328L76.4851 14.2583ZM49.0035 61.2857L48.5357 61.5601L49.0035 61.2857ZM56.2628 63.5638C55.667 62.5484 55.9459 61.2437 56.933 60.5341L56.2999 59.6534C54.87 60.6813 54.4406 62.6015 55.3273 64.1127L56.2628 63.5638ZM56.9334 60.5338C64.2412 55.2701 68.8562 47.1804 69.6122 38.3134L68.5314 38.2213C67.8028 46.7688 63.354 54.5725 56.2995 59.6537L56.9334 60.5338ZM69.612 38.3151C69.7249 37.0394 70.8623 36.0861 72.1843 36.1948L72.2732 35.1138C70.3751 34.9578 68.6986 36.3316 68.5316 38.2195L69.612 38.3151ZM72.1843 36.1948C73.5029 36.3032 74.4514 37.425 74.3387 38.6989L75.4191 38.7944C75.5863 36.9047 74.1747 35.2701 72.2732 35.1138L72.1843 36.1948ZM74.3387 38.6993C73.4408 48.9372 68.109 58.2448 59.7257 64.3084L60.3614 65.1873C68.9959 58.9419 74.4934 49.3501 75.4192 38.794L74.3387 38.6993ZM59.7305 64.305C58.6519 65.0674 57.1536 64.8316 56.3931 63.7913L55.5175 64.4315C56.6382 65.9644 58.8093 66.2844 60.3566 65.1907L59.7305 64.305ZM56.423 63.837C56.393 63.7858 56.3679 63.7431 56.3429 63.7004C56.3178 63.6577 56.2928 63.615 56.2628 63.5638L55.3273 64.1127C55.3573 64.1639 55.3823 64.2066 55.4074 64.2493C55.4324 64.292 55.4575 64.3346 55.4875 64.3858L56.423 63.837ZM22.7949 6.91651C22.7748 6.88237 22.7498 6.83969 22.7247 6.79701C22.6997 6.75433 22.6747 6.71165 22.6546 6.67751L21.7191 7.22638C21.7392 7.26052 21.7642 7.3032 21.7892 7.34588C21.8143 7.38856 21.8393 7.43124 21.8594 7.46539L22.7949 6.91651ZM22.6799 6.72605C22.1488 5.56678 22.6825 4.18252 23.8912 3.64523L23.4506 2.65411C21.7129 3.4266 20.901 5.44731 21.6938 7.17783L22.6799 6.72605ZM23.8895 3.64597C33.3796 -0.53448 44.2027 -0.492824 53.663 3.77712L54.1092 2.78852C44.368 -1.60824 33.2237 -1.651 23.4523 2.65338L23.8895 3.64597ZM53.6668 3.77883C54.8304 4.29325 55.3524 5.69581 54.8248 6.84073L55.8098 7.2947C56.5896 5.60266 55.8258 3.54741 54.1054 2.78681L53.6668 3.77883ZM54.8282 6.83354C54.2682 8.00324 52.8567 8.51057 51.6785 7.9897L51.2399 8.98172C52.9458 9.73587 54.9893 9.00872 55.8065 7.30189L54.8282 6.83354ZM51.681 7.99081C43.4794 4.31584 34.0792 4.23614 25.868 7.88187L26.3081 8.87319C34.2326 5.35473 43.3116 5.42919 51.2375 8.98062L51.681 7.99081ZM25.8703 7.88085C24.7158 8.38697 23.3954 7.94015 22.7949 6.91651L21.8594 7.46539C22.7412 8.96839 24.6532 9.59872 26.3058 8.87421L25.8703 7.88085ZM18.1956 65.0335C13.7444 62.0466 10.1119 58.1933 7.38874 53.5519L6.45324 54.1008C9.25905 58.8831 13.0048 62.8565 17.5912 65.9342L18.1956 65.0335ZM7.38874 53.5519C4.54666 48.7079 2.94312 43.4809 2.64744 37.9135L1.56434 37.971C1.86948 43.7167 3.52593 49.1115 6.45324 54.1008L7.38874 53.5519ZM2.64637 37.8977C2.54452 36.6626 3.53693 35.5527 4.87585 35.4717L4.81031 34.389C2.92051 34.5034 1.40904 36.0908 1.56541 37.9868L2.64637 37.8977ZM4.88778 35.4708C6.17005 35.3648 7.28943 36.3532 7.39505 37.6339L8.47602 37.5448C8.32341 35.6944 6.70477 34.2322 4.79838 34.3899L4.88778 35.4708ZM7.39398 37.6181C7.54452 40.458 8.13182 43.232 9.05712 45.8559L10.08 45.4952C9.1864 42.9611 8.62172 40.2891 8.47709 37.5606L7.39398 37.6181ZM9.05634 45.8536C10.2945 49.4145 12.1763 52.7024 14.6199 55.578L15.4464 54.8757C13.0895 52.102 11.2748 48.9313 10.0808 45.4974L9.05634 45.8536ZM14.6208 55.579C16.4313 57.699 18.542 59.6052 20.873 61.158L21.4743 60.2553C19.2317 58.7614 17.1952 56.9233 15.4455 54.8746L14.6208 55.579ZM20.8641 61.1519C21.9791 61.9271 22.2578 63.3637 21.5004 64.3639L22.365 65.0187C23.5438 63.4621 23.0347 61.34 21.4832 60.2613L20.8641 61.1519ZM21.4828 64.3885C20.7503 65.4767 19.2756 65.7843 18.203 65.0386L17.5838 65.9291C19.1777 67.0373 21.3287 66.5597 22.3826 64.9941L21.4828 64.3885ZM76.9528 13.9839C73.6953 8.43181 66.4336 6.50719 60.7468 9.73808L61.2825 10.6811C66.4618 7.73862 73.0647 9.5003 76.0173 14.5328L76.9528 13.9839ZM60.7468 9.73808C55.0561 12.9712 53.0936 20.0998 56.3748 25.6924L57.3103 25.1435C54.3414 20.0833 56.1071 13.6215 61.2825 10.6811L60.7468 9.73808ZM56.3748 25.6924C59.653 31.2797 66.8952 33.1685 72.5809 29.9382L72.0451 28.9952C66.8648 31.9383 60.2824 30.2091 57.3103 25.1435L56.3748 25.6924ZM72.5809 29.9382C78.2716 26.7051 80.2341 19.5765 76.9528 13.9839L76.0173 14.5328C78.9862 19.593 77.2205 26.0548 72.0451 28.9952L72.5809 29.9382ZM21.6252 13.5501C18.3677 7.99802 11.1059 6.0734 5.41909 9.30429L5.95487 10.2473C11.1341 7.30483 17.737 9.0665 20.6897 14.099L21.6252 13.5501ZM5.41909 9.30429C-0.271565 12.5374 -2.23406 19.666 1.04718 25.2586L1.98268 24.7097C-0.986234 19.6495 0.779477 13.1877 5.95487 10.2473L5.41909 9.30429ZM1.04718 25.2586C4.32531 30.8459 11.5675 32.7347 17.2532 29.5044L16.7175 28.5614C11.5371 31.5045 4.95471 29.7753 1.98268 24.7097L1.04718 25.2586ZM17.2532 29.5044C22.945 26.2707 24.8857 19.1075 21.6252 13.5501L20.6897 14.099C23.6392 19.1262 21.8917 25.6217 16.7175 28.5614L17.2532 29.5044ZM49.4712 61.0113C46.2137 55.4592 38.952 53.5346 33.2651 56.7654L33.8009 57.7085C38.9802 54.766 45.5831 56.5277 48.5357 61.5601L49.4712 61.0113ZM33.2651 56.7654C27.5745 59.9985 25.612 67.1272 28.8932 72.7198L29.8287 72.1709C26.8598 67.1106 28.6255 60.6488 33.8009 57.7085L33.2651 56.7654ZM28.8932 72.7198C32.1714 78.307 39.4136 80.1959 45.0993 76.9656L44.5635 76.0225C39.3832 78.9657 32.8008 77.2365 29.8287 72.1709L28.8932 72.7198ZM45.0993 76.9656C50.7899 73.7325 52.7525 66.6039 49.4712 61.0113L48.5357 61.5601C51.5046 66.6204 49.7389 73.0822 44.5635 76.0225L45.0993 76.9656Z" fill="url(#paint0_linear_2006_43048)" fill-opacity="0.65" mask="url(#path-1-inside-1_2006_43048)"/>
<defs>
<linearGradient id="paint0_linear_2006_43048" x1="58.1085" y1="-22.6968" x2="68.0945" y2="81.0385" gradientUnits="userSpaceOnUse">
<stop stop-color="white" stop-opacity="0.9"/>
<stop offset="1" stop-color="white" stop-opacity="0"/>
</linearGradient>
</defs>
</svg>
