<svg width="66" height="66" viewBox="0 0 66 66" fill="none" xmlns="http://www.w3.org/2000/svg">
<rect x="46.9492" y="30.9727" width="18.8125" height="3.55078" rx="1.77539" fill="url(#paint0_linear_100_21364)"/>
<g filter="url(#filter0_b_100_21364)">
<path d="M51.2373 18.1194L36.878 9.8278C34.5331 8.47407 31.6323 8.47407 29.2632 9.8278L14.9281 18.1194C12.5832 19.4732 11.1328 21.9873 11.1328 24.7189L11.1328 41.2538C11.1328 43.9613 12.5832 46.4754 14.9281 47.8533L29.2874 56.145C31.6323 57.4987 34.5331 57.4987 36.9022 56.145L51.2615 47.8533C53.6063 46.4996 55.0568 43.9855 55.0568 41.2538L55.0568 24.7189C55.0326 21.9873 53.5822 19.4974 51.2373 18.1194ZM31.2697 22.7125C31.2697 21.7214 32.0916 20.8994 33.0827 20.8994C34.0738 20.8994 34.8957 21.7214 34.8957 22.7125L34.8957 35.4038C34.8957 36.3949 34.0738 37.2168 33.0827 37.2168C32.0916 37.2168 31.2697 36.3949 31.2697 35.4038L31.2697 22.7125ZM35.3067 44.1789C35.1858 44.469 35.0166 44.7349 34.799 44.9766C34.3397 45.4359 33.7354 45.6777 33.0827 45.6777C32.7684 45.6777 32.4542 45.6051 32.1641 45.4843C31.8498 45.3634 31.6081 45.1942 31.3664 44.9766C31.1488 44.7349 30.9796 44.469 30.8345 44.1789C30.7137 43.8888 30.6653 43.5745 30.6653 43.2603C30.6653 42.6318 30.907 42.0032 31.3664 41.5439C31.6081 41.3264 31.8498 41.1572 32.1641 41.0363C33.0585 40.6495 34.1222 40.8671 34.799 41.5439C35.0166 41.7857 35.1858 42.0274 35.3067 42.3417C35.4276 42.6318 35.5001 42.946 35.5001 43.2603C35.5001 43.5745 35.4276 43.8888 35.3067 44.1789Z" fill="#0B2268"/>
<path d="M15.1108 18.4359L15.1111 18.4358L29.4445 10.1451C29.4448 10.1449 29.4451 10.1448 29.4453 10.1446C31.7024 8.85523 34.4643 8.85631 36.6953 10.1443C36.6953 10.1443 36.6953 10.1443 36.6953 10.1443L51.0521 18.4345C51.0525 18.4347 51.0529 18.435 51.0533 18.4352C53.287 19.7484 54.6678 22.1193 54.6913 24.7209L54.6913 41.2538C54.6913 43.8557 53.3099 46.2487 51.0787 47.5368L51.0787 47.5368L36.7209 55.8277C36.7207 55.8278 36.7205 55.8279 36.7203 55.828C34.4632 57.1175 31.7012 57.1165 29.4701 55.8285L15.1133 47.5382C15.113 47.5381 15.1127 47.5379 15.1124 47.5377C12.8785 46.2246 11.4983 43.83 11.4983 41.2538L11.4983 24.7189C11.4983 22.1171 12.8797 19.724 15.1108 18.4359ZM35.0575 45.235L35.0642 45.2282L35.0707 45.2211C35.3149 44.9498 35.5067 44.649 35.644 44.3194C35.7805 43.992 35.8655 43.63 35.8655 43.2603C35.8655 42.8923 35.7813 42.532 35.646 42.2058C35.5047 41.8405 35.3074 41.5625 35.0707 41.2995L35.0642 41.2923L35.0575 41.2855C34.2784 40.5065 33.0592 40.2545 32.0259 40.6979C31.6618 40.8391 31.3844 41.036 31.1219 41.2723L31.1147 41.2787L31.1079 41.2855C30.5763 41.8172 30.2999 42.5404 30.2999 43.2603C30.2999 43.6109 30.3537 43.975 30.4972 44.3194L30.502 44.3311L30.5077 44.3423C30.6638 44.6546 30.8504 44.9496 31.0947 45.2211L31.1076 45.2354L31.1219 45.2483C31.3849 45.485 31.6629 45.6823 32.0282 45.8236C32.3545 45.9589 32.7148 46.0431 33.0827 46.0431C33.8287 46.0431 34.5271 45.7654 35.0575 45.235ZM33.0827 20.534C31.8897 20.534 30.9042 21.5195 30.9042 22.7125L30.9042 35.4038C30.9042 36.5967 31.8897 37.5823 33.0827 37.5823C34.2757 37.5823 35.2612 36.5967 35.2612 35.4038L35.2612 22.7125C35.2612 21.5195 34.2757 20.534 33.0827 20.534Z" stroke="url(#paint1_linear_100_21364)" stroke-width="0.730891"/>
</g>
<rect x="0.21875" y="30.9727" width="16.6133" height="3.55078" rx="1.77539" fill="url(#paint2_linear_100_21364)"/>
<defs>
<filter id="filter0_b_100_21364" x="6.70317" y="4.38286" width="52.7832" height="57.2069" filterUnits="userSpaceOnUse" color-interpolation-filters="sRGB">
<feFlood flood-opacity="0" result="BackgroundImageFix"/>
<feGaussianBlur in="BackgroundImageFix" stdDeviation="2.21482"/>
<feComposite in2="SourceAlpha" operator="in" result="effect1_backgroundBlur_100_21364"/>
<feBlend mode="normal" in="SourceGraphic" in2="effect1_backgroundBlur_100_21364" result="shape"/>
</filter>
<linearGradient id="paint0_linear_100_21364" x1="47.8956" y1="31.9581" x2="64.6429" y2="32.4805" gradientUnits="userSpaceOnUse">
<stop stop-color="#3F70D8"/>
<stop offset="1" stop-color="#E2EEFE"/>
</linearGradient>
<linearGradient id="paint1_linear_100_21364" x1="33.0948" y1="8.8125" x2="33.0948" y2="57.1603" gradientUnits="userSpaceOnUse">
<stop stop-color="#D3E3FF"/>
<stop offset="1" stop-color="#B1CAF1" stop-opacity="0.15"/>
</linearGradient>
<linearGradient id="paint2_linear_100_21364" x1="1.05446" y1="31.9581" x2="15.8472" y2="32.3656" gradientUnits="userSpaceOnUse">
<stop stop-color="#3F70D8"/>
<stop offset="1" stop-color="#E2EEFE"/>
</linearGradient>
</defs>
</svg>
