<svg width="54" height="54" viewBox="0 0 54 54" fill="none" xmlns="http://www.w3.org/2000/svg">
<path d="M21.3073 34.3801C20.8798 34.3801 20.4523 34.2226 20.1148 33.8851C18.2698 32.0401 17.2573 29.5876 17.2573 27.0001C17.2573 21.6226 21.6223 17.2576 26.9998 17.2576C29.5873 17.2576 32.0398 18.2701 33.8848 20.1151C34.1998 20.4301 34.3798 20.8576 34.3798 21.3076C34.3798 21.7576 34.1998 22.1851 33.8848 22.5001L22.4998 33.8851C22.1623 34.2226 21.7348 34.3801 21.3073 34.3801ZM26.9998 20.6326C23.4898 20.6326 20.6323 23.4901 20.6323 27.0001C20.6323 28.1251 20.9248 29.2051 21.4648 30.1501L30.1498 21.4651C29.2048 20.9251 28.1248 20.6326 26.9998 20.6326Z" fill="white"/>
<path d="M12.5996 41.6476C12.2171 41.6476 11.8121 41.5126 11.4971 41.2426C9.08965 39.1951 6.92965 36.6751 5.08465 33.7501C2.69965 30.0376 2.69965 23.9851 5.08465 20.2501C10.5746 11.6551 18.5621 6.70508 26.9996 6.70508C31.9496 6.70508 36.8321 8.41508 41.1071 11.6326C41.8496 12.1951 42.0071 13.2526 41.4446 13.9951C40.8821 14.7376 39.8247 14.8951 39.0821 14.3326C35.3922 11.5426 31.2071 10.0801 26.9996 10.0801C19.7321 10.0801 12.7796 14.4451 7.91965 22.0726C6.23215 24.7051 6.23215 29.2951 7.91965 31.9276C9.60715 34.5601 11.5421 36.8326 13.6796 38.6776C14.3771 39.2851 14.4671 40.3426 13.8596 41.0626C13.5446 41.4451 13.0721 41.6476 12.5996 41.6476Z" fill="white"/>
<path d="M27.0012 47.2949C24.0087 47.2949 21.0837 46.6874 18.2712 45.4949C17.4162 45.1349 17.0112 44.1449 17.3712 43.2899C17.7312 42.4349 18.7212 42.0299 19.5762 42.3899C21.9612 43.4024 24.4587 43.9199 26.9787 43.9199C34.2462 43.9199 41.1987 39.5549 46.0587 31.9274C47.7462 29.2949 47.7462 24.7049 46.0587 22.0724C45.3612 20.9699 44.5962 19.9124 43.7862 18.9224C43.2012 18.2024 43.3137 17.1449 44.0337 16.5374C44.7537 15.9524 45.8112 16.0424 46.4187 16.7849C47.2962 17.8649 48.1512 19.0349 48.9162 20.2499C51.3012 23.9624 51.3012 30.0149 48.9162 33.7499C43.4262 42.3449 35.4387 47.2949 27.0012 47.2949Z" fill="white"/>
<path d="M28.5516 36.6075C27.7641 36.6075 27.0441 36.045 26.8866 35.235C26.7066 34.3125 27.3141 33.435 28.2366 33.2775C30.7116 32.8275 32.7816 30.7575 33.2316 28.2825C33.4116 27.36 34.2891 26.775 35.2116 26.9325C36.1341 27.1125 36.7416 27.99 36.5616 28.9125C35.8416 32.805 32.7366 35.8875 28.8666 36.6075C28.7541 36.585 28.6641 36.6075 28.5516 36.6075Z" fill="white"/>
<path d="M4.49877 51.1874C4.07127 51.1874 3.64377 51.0299 3.30627 50.6924C2.65377 50.0399 2.65377 48.9599 3.30627 48.3074L20.1138 31.4999C20.7663 30.8474 21.8463 30.8474 22.4988 31.4999C23.1513 32.1524 23.1513 33.2324 22.4988 33.8849L5.69127 50.6924C5.35377 51.0299 4.92627 51.1874 4.49877 51.1874Z" fill="white"/>
<path d="M32.6941 22.9947C32.2666 22.9947 31.8391 22.8372 31.5016 22.4997C30.8491 21.8472 30.8491 20.7672 31.5016 20.1147L48.3091 3.30725C48.9616 2.65475 50.0416 2.65475 50.6941 3.30725C51.3466 3.95975 51.3466 5.03975 50.6941 5.69225L33.8866 22.4997C33.5491 22.8372 33.1216 22.9947 32.6941 22.9947Z" fill="white"/>
</svg>
