<svg width="192" height="81" viewBox="0 0 192 81" fill="none" xmlns="http://www.w3.org/2000/svg">
<path opacity="0.5" d="M101.554 39.0273C101.819 38.9124 102.088 39.1809 101.973 39.4455L99.6153 44.8734C99.5802 44.9541 99.5802 45.0459 99.6153 45.1266L101.973 50.5545C102.088 50.8191 101.819 51.0876 101.554 50.9727L96.1266 48.6153C96.0459 48.5802 95.9541 48.5802 95.8734 48.6153L90.4455 50.9727C90.1809 51.0876 89.9124 50.8191 90.0273 50.5545L92.3847 45.1266C92.4198 45.0459 92.4198 44.9541 92.3847 44.8734L90.0273 39.4455C89.9124 39.1809 90.1809 38.9124 90.4455 39.0273L95.8734 41.3847C95.9541 41.4198 96.0459 41.4198 96.1266 41.3847L101.554 39.0273Z" fill="#6B7194"/>
<path d="M0.945312 79.5469V78C1.1224 78.1562 1.33333 78.2969 1.57812 78.4219C1.82812 78.5469 2.08854 78.6536 2.35938 78.7422C2.63542 78.8255 2.91146 78.8906 3.1875 78.9375C3.46354 78.9844 3.71875 79.0078 3.95312 79.0078C4.76042 79.0078 5.36198 78.8594 5.75781 78.5625C6.15885 78.2604 6.35938 77.8281 6.35938 77.2656C6.35938 76.9635 6.29167 76.7005 6.15625 76.4766C6.02604 76.2526 5.84375 76.0495 5.60938 75.8672C5.375 75.6797 5.09635 75.5026 4.77344 75.3359C4.45573 75.1641 4.11198 74.9844 3.74219 74.7969C3.35156 74.599 2.98698 74.3984 2.64844 74.1953C2.3099 73.9922 2.01562 73.7682 1.76562 73.5234C1.51562 73.2786 1.31771 73.0026 1.17188 72.6953C1.03125 72.3828 0.960938 72.0182 0.960938 71.6016C0.960938 71.0911 1.07292 70.6484 1.29688 70.2734C1.52083 69.8932 1.8151 69.5807 2.17969 69.3359C2.54427 69.0911 2.95833 68.9089 3.42188 68.7891C3.89062 68.6693 4.36719 68.6094 4.85156 68.6094C5.95573 68.6094 6.76042 68.7422 7.26562 69.0078V70.4844C6.60417 70.026 5.75521 69.7969 4.71875 69.7969C4.43229 69.7969 4.14583 69.8281 3.85938 69.8906C3.57292 69.9479 3.31771 70.0443 3.09375 70.1797C2.86979 70.3151 2.6875 70.4896 2.54688 70.7031C2.40625 70.9167 2.33594 71.1771 2.33594 71.4844C2.33594 71.7708 2.38802 72.0182 2.49219 72.2266C2.60156 72.4349 2.76042 72.625 2.96875 72.7969C3.17708 72.9688 3.42969 73.1354 3.72656 73.2969C4.02865 73.4583 4.375 73.6354 4.76562 73.8281C5.16667 74.026 5.54688 74.2344 5.90625 74.4531C6.26562 74.6719 6.58073 74.9141 6.85156 75.1797C7.1224 75.4453 7.33594 75.7396 7.49219 76.0625C7.65365 76.3854 7.73438 76.7552 7.73438 77.1719C7.73438 77.724 7.625 78.1927 7.40625 78.5781C7.19271 78.9583 6.90104 79.2682 6.53125 79.5078C6.16667 79.7474 5.74479 79.9193 5.26562 80.0234C4.78646 80.1328 4.28125 80.1875 3.75 80.1875C3.57292 80.1875 3.35417 80.1719 3.09375 80.1406C2.83333 80.1146 2.56771 80.0729 2.29688 80.0156C2.02604 79.9635 1.76823 79.8984 1.52344 79.8203C1.28385 79.737 1.09115 79.6458 0.945312 79.5469ZM16.0666 76.3203H10.4181C10.439 77.2109 10.6785 77.8984 11.1369 78.3828C11.5952 78.8672 12.2254 79.1094 13.0275 79.1094C13.9285 79.1094 14.7567 78.8125 15.5119 78.2188V79.4219C14.8088 79.9323 13.8791 80.1875 12.7228 80.1875C11.5926 80.1875 10.7046 79.8255 10.0588 79.1016C9.41292 78.3724 9.09 77.349 9.09 76.0312C9.09 74.7865 9.44156 73.7734 10.1447 72.9922C10.853 72.2057 11.7306 71.8125 12.7775 71.8125C13.8244 71.8125 14.6343 72.151 15.2072 72.8281C15.7801 73.5052 16.0666 74.4453 16.0666 75.6484V76.3203ZM14.7541 75.2344C14.7489 74.4948 14.5692 73.9193 14.215 73.5078C13.866 73.0964 13.3791 72.8906 12.7541 72.8906C12.1499 72.8906 11.6369 73.1068 11.215 73.5391C10.7931 73.9714 10.5327 74.5365 10.4338 75.2344H14.7541ZM23.305 79.6328C22.6904 80.0026 21.9613 80.1875 21.1175 80.1875C19.9769 80.1875 19.055 79.8177 18.3519 79.0781C17.654 78.3333 17.305 77.3698 17.305 76.1875C17.305 74.8698 17.6826 73.8125 18.4378 73.0156C19.193 72.2135 20.2008 71.8125 21.4613 71.8125C22.1644 71.8125 22.7842 71.9427 23.3206 72.2031V73.5156C22.7269 73.099 22.0915 72.8906 21.4144 72.8906C20.5967 72.8906 19.9248 73.1849 19.3988 73.7734C18.8779 74.3568 18.6175 75.125 18.6175 76.0781C18.6175 77.0156 18.8623 77.7552 19.3519 78.2969C19.8467 78.8385 20.5081 79.1094 21.3363 79.1094C22.0342 79.1094 22.6904 78.8776 23.305 78.4141V79.6328ZM31.5513 80H30.27V78.7344H30.2388C29.7075 79.7031 28.8846 80.1875 27.77 80.1875C25.8638 80.1875 24.9106 79.0521 24.9106 76.7812V72H26.1841V76.5781C26.1841 78.2656 26.8299 79.1094 28.1216 79.1094C28.7466 79.1094 29.2596 78.8802 29.6606 78.4219C30.0669 77.9583 30.27 77.3542 30.27 76.6094V72H31.5513V80ZM38.1569 73.2969C37.9329 73.125 37.61 73.0391 37.1881 73.0391C36.6413 73.0391 36.1829 73.2969 35.8131 73.8125C35.4485 74.3281 35.2663 75.0312 35.2663 75.9219V80H33.985V72H35.2663V73.6484H35.2975C35.4798 73.0859 35.7584 72.6484 36.1334 72.3359C36.5084 72.0182 36.9277 71.8594 37.3913 71.8594C37.7246 71.8594 37.9798 71.8958 38.1569 71.9688V73.2969ZM45.5984 76.3203H39.95C39.9708 77.2109 40.2104 77.8984 40.6688 78.3828C41.1271 78.8672 41.7573 79.1094 42.5594 79.1094C43.4604 79.1094 44.2885 78.8125 45.0438 78.2188V79.4219C44.3406 79.9323 43.4109 80.1875 42.2547 80.1875C41.1245 80.1875 40.2365 79.8255 39.5906 79.1016C38.9448 78.3724 38.6219 77.349 38.6219 76.0312C38.6219 74.7865 38.9734 73.7734 39.6766 72.9922C40.3849 72.2057 41.2625 71.8125 42.3094 71.8125C43.3563 71.8125 44.1661 72.151 44.7391 72.8281C45.312 73.5052 45.5984 74.4453 45.5984 75.6484V76.3203ZM44.2859 75.2344C44.2807 74.4948 44.101 73.9193 43.7469 73.5078C43.3979 73.0964 42.9109 72.8906 42.2859 72.8906C41.6818 72.8906 41.1688 73.1068 40.7469 73.5391C40.325 73.9714 40.0646 74.5365 39.9656 75.2344H44.2859ZM51.7863 80V68.7969H54.9738C55.9425 68.7969 56.7107 69.0339 57.2784 69.5078C57.8461 69.9818 58.13 70.599 58.13 71.3594C58.13 71.9948 57.9581 72.5469 57.6144 73.0156C57.2706 73.4844 56.7967 73.8177 56.1925 74.0156V74.0469C56.9477 74.1354 57.5519 74.4219 58.005 74.9062C58.4581 75.3854 58.6847 76.0104 58.6847 76.7812C58.6847 77.7396 58.3409 78.5156 57.6534 79.1094C56.9659 79.7031 56.0988 80 55.0519 80H51.7863ZM53.0988 69.9844V73.6016H54.4425C55.1613 73.6016 55.7264 73.4297 56.1378 73.0859C56.5493 72.737 56.755 72.2474 56.755 71.6172C56.755 70.5286 56.0389 69.9844 54.6066 69.9844H53.0988ZM53.0988 74.7812V78.8125H54.88C55.6508 78.8125 56.2472 78.6302 56.6691 78.2656C57.0961 77.901 57.3097 77.401 57.3097 76.7656C57.3097 75.4427 56.4086 74.7812 54.6066 74.7812H53.0988ZM61.9075 80H60.6263V68.1562H61.9075V80ZM67.685 80.1875C66.5027 80.1875 65.5574 79.8151 64.8491 79.0703C64.1459 78.3203 63.7944 77.3281 63.7944 76.0938C63.7944 74.75 64.1616 73.7005 64.8959 72.9453C65.6303 72.1901 66.6225 71.8125 67.8725 71.8125C69.0652 71.8125 69.9949 72.1797 70.6616 72.9141C71.3334 73.6484 71.6694 74.6667 71.6694 75.9688C71.6694 77.2448 71.3074 78.2682 70.5834 79.0391C69.8647 79.8047 68.8985 80.1875 67.685 80.1875ZM67.7788 72.8906C66.9558 72.8906 66.3048 73.1719 65.8256 73.7344C65.3465 74.2917 65.1069 75.0625 65.1069 76.0469C65.1069 76.9948 65.3491 77.7422 65.8334 78.2891C66.3178 78.8359 66.9663 79.1094 67.7788 79.1094C68.6069 79.1094 69.2423 78.8411 69.685 78.3047C70.1329 77.7682 70.3569 77.0052 70.3569 76.0156C70.3569 75.0156 70.1329 74.2448 69.685 73.7031C69.2423 73.1615 68.6069 72.8906 67.7788 72.8906ZM79.0094 79.6328C78.3948 80.0026 77.6656 80.1875 76.8219 80.1875C75.6813 80.1875 74.7594 79.8177 74.0563 79.0781C73.3583 78.3333 73.0094 77.3698 73.0094 76.1875C73.0094 74.8698 73.387 73.8125 74.1422 73.0156C74.8974 72.2135 75.9052 71.8125 77.1656 71.8125C77.8688 71.8125 78.4885 71.9427 79.025 72.2031V73.5156C78.4313 73.099 77.7958 72.8906 77.1188 72.8906C76.301 72.8906 75.6292 73.1849 75.1031 73.7734C74.5823 74.3568 74.3219 75.125 74.3219 76.0781C74.3219 77.0156 74.5667 77.7552 75.0563 78.2969C75.551 78.8385 76.2125 79.1094 77.0406 79.1094C77.7385 79.1094 78.3948 78.8776 79.0094 78.4141V79.6328ZM87.4275 80H85.6306L82.0994 76.1562H82.0681V80H80.7869V68.1562H82.0681V75.6641H82.0994L85.4587 72H87.1384L83.4275 75.8594L87.4275 80ZM93.705 79.6328C93.0904 80.0026 92.3613 80.1875 91.5175 80.1875C90.3769 80.1875 89.455 79.8177 88.7519 79.0781C88.054 78.3333 87.705 77.3698 87.705 76.1875C87.705 74.8698 88.0826 73.8125 88.8378 73.0156C89.593 72.2135 90.6008 71.8125 91.8613 71.8125C92.5644 71.8125 93.1842 71.9427 93.7206 72.2031V73.5156C93.1269 73.099 92.4915 72.8906 91.8144 72.8906C90.9967 72.8906 90.3248 73.1849 89.7988 73.7734C89.2779 74.3568 89.0175 75.125 89.0175 76.0781C89.0175 77.0156 89.2623 77.7552 89.7519 78.2969C90.2467 78.8385 90.9081 79.1094 91.7363 79.1094C92.4342 79.1094 93.0904 78.8776 93.705 78.4141V79.6328ZM102.123 80H100.842V75.3906C100.842 73.724 100.222 72.8906 98.9825 72.8906C98.3575 72.8906 97.8315 73.1328 97.4044 73.6172C96.9773 74.0964 96.7637 74.7135 96.7637 75.4688V80H95.4825V68.1562H96.7637V73.3281H96.795C97.4096 72.3177 98.2846 71.8125 99.42 71.8125C101.222 71.8125 102.123 72.8984 102.123 75.0703V80ZM110.112 80H108.83V78.75H108.799C108.242 79.7083 107.421 80.1875 106.338 80.1875C105.541 80.1875 104.916 79.9766 104.463 79.5547C104.015 79.1328 103.791 78.5729 103.791 77.875C103.791 76.3802 104.671 75.5104 106.432 75.2656L108.83 74.9297C108.83 73.5703 108.281 72.8906 107.182 72.8906C106.218 72.8906 105.349 73.2188 104.573 73.875V72.5625C105.359 72.0625 106.265 71.8125 107.291 71.8125C109.171 71.8125 110.112 72.8073 110.112 74.7969V80ZM108.83 75.9531L106.901 76.2188C106.307 76.3021 105.859 76.4505 105.557 76.6641C105.255 76.8724 105.104 77.2448 105.104 77.7812C105.104 78.1719 105.242 78.4922 105.518 78.7422C105.799 78.987 106.171 79.1094 106.635 79.1094C107.27 79.1094 107.794 78.888 108.205 78.4453C108.622 77.9974 108.83 77.4323 108.83 76.75V75.9531ZM113.022 69.9688C112.793 69.9688 112.597 69.8906 112.436 69.7344C112.274 69.5781 112.194 69.3802 112.194 69.1406C112.194 68.901 112.274 68.7031 112.436 68.5469C112.597 68.3854 112.793 68.3047 113.022 68.3047C113.256 68.3047 113.454 68.3854 113.616 68.5469C113.782 68.7031 113.866 68.901 113.866 69.1406C113.866 69.3698 113.782 69.5651 113.616 69.7266C113.454 69.888 113.256 69.9688 113.022 69.9688ZM113.647 80H112.366V72H113.647V80ZM122.721 80H121.44V75.4375C121.44 73.7396 120.82 72.8906 119.581 72.8906C118.94 72.8906 118.409 73.1328 117.987 73.6172C117.57 74.0964 117.362 74.7031 117.362 75.4375V80H116.081V72H117.362V73.3281H117.393C117.997 72.3177 118.872 71.8125 120.018 71.8125C120.893 71.8125 121.562 72.0964 122.026 72.6641C122.489 73.2266 122.721 74.0417 122.721 75.1094V80ZM128.862 79.5469V78C129.039 78.1562 129.25 78.2969 129.495 78.4219C129.745 78.5469 130.005 78.6536 130.276 78.7422C130.552 78.8255 130.828 78.8906 131.104 78.9375C131.38 78.9844 131.636 79.0078 131.87 79.0078C132.677 79.0078 133.279 78.8594 133.675 78.5625C134.076 78.2604 134.276 77.8281 134.276 77.2656C134.276 76.9635 134.209 76.7005 134.073 76.4766C133.943 76.2526 133.761 76.0495 133.526 75.8672C133.292 75.6797 133.013 75.5026 132.69 75.3359C132.373 75.1641 132.029 74.9844 131.659 74.7969C131.268 74.599 130.904 74.3984 130.565 74.1953C130.227 73.9922 129.933 73.7682 129.683 73.5234C129.433 73.2786 129.235 73.0026 129.089 72.6953C128.948 72.3828 128.878 72.0182 128.878 71.6016C128.878 71.0911 128.99 70.6484 129.214 70.2734C129.438 69.8932 129.732 69.5807 130.097 69.3359C130.461 69.0911 130.875 68.9089 131.339 68.7891C131.808 68.6693 132.284 68.6094 132.768 68.6094C133.873 68.6094 134.677 68.7422 135.183 69.0078V70.4844C134.521 70.026 133.672 69.7969 132.636 69.7969C132.349 69.7969 132.063 69.8281 131.776 69.8906C131.49 69.9479 131.235 70.0443 131.011 70.1797C130.787 70.3151 130.604 70.4896 130.464 70.7031C130.323 70.9167 130.253 71.1771 130.253 71.4844C130.253 71.7708 130.305 72.0182 130.409 72.2266C130.518 72.4349 130.677 72.625 130.886 72.7969C131.094 72.9688 131.347 73.1354 131.643 73.2969C131.946 73.4583 132.292 73.6354 132.683 73.8281C133.084 74.026 133.464 74.2344 133.823 74.4531C134.183 74.6719 134.498 74.9141 134.768 75.1797C135.039 75.4453 135.253 75.7396 135.409 76.0625C135.571 76.3854 135.651 76.7552 135.651 77.1719C135.651 77.724 135.542 78.1927 135.323 78.5781C135.11 78.9583 134.818 79.2682 134.448 79.5078C134.084 79.7474 133.662 79.9193 133.183 80.0234C132.703 80.1328 132.198 80.1875 131.667 80.1875C131.49 80.1875 131.271 80.1719 131.011 80.1406C130.75 80.1146 130.485 80.0729 130.214 80.0156C129.943 79.9635 129.685 79.8984 129.44 79.8203C129.201 79.737 129.008 79.6458 128.862 79.5469ZM140.898 80.1875C139.715 80.1875 138.77 79.8151 138.062 79.0703C137.358 78.3203 137.007 77.3281 137.007 76.0938C137.007 74.75 137.374 73.7005 138.108 72.9453C138.843 72.1901 139.835 71.8125 141.085 71.8125C142.278 71.8125 143.207 72.1797 143.874 72.9141C144.546 73.6484 144.882 74.6667 144.882 75.9688C144.882 77.2448 144.52 78.2682 143.796 79.0391C143.077 79.8047 142.111 80.1875 140.898 80.1875ZM140.991 72.8906C140.168 72.8906 139.517 73.1719 139.038 73.7344C138.559 74.2917 138.319 75.0625 138.319 76.0469C138.319 76.9948 138.562 77.7422 139.046 78.2891C139.53 78.8359 140.179 79.1094 140.991 79.1094C141.819 79.1094 142.455 78.8411 142.898 78.3047C143.345 77.7682 143.569 77.0052 143.569 76.0156C143.569 75.0156 143.345 74.2448 142.898 73.7031C142.455 73.1615 141.819 72.8906 140.991 72.8906ZM148.05 80H146.769V68.1562H148.05V80ZM156.952 80H155.671V78.7344H155.64C155.109 79.7031 154.286 80.1875 153.171 80.1875C151.265 80.1875 150.312 79.0521 150.312 76.7812V72H151.585V76.5781C151.585 78.2656 152.231 79.1094 153.523 79.1094C154.148 79.1094 154.661 78.8802 155.062 78.4219C155.468 77.9583 155.671 77.3542 155.671 76.6094V72H156.952V80ZM163.097 79.9219C162.795 80.0885 162.397 80.1719 161.902 80.1719C160.501 80.1719 159.8 79.3906 159.8 77.8281V73.0938H158.425V72H159.8V70.0469L161.082 69.6328V72H163.097V73.0938H161.082V77.6016C161.082 78.138 161.173 78.5208 161.355 78.75C161.537 78.9792 161.839 79.0938 162.261 79.0938C162.584 79.0938 162.863 79.0052 163.097 78.8281V79.9219ZM165.304 69.9688C165.075 69.9688 164.88 69.8906 164.718 69.7344C164.557 69.5781 164.476 69.3802 164.476 69.1406C164.476 68.901 164.557 68.7031 164.718 68.5469C164.88 68.3854 165.075 68.3047 165.304 68.3047C165.539 68.3047 165.737 68.3854 165.898 68.5469C166.065 68.7031 166.148 68.901 166.148 69.1406C166.148 69.3698 166.065 69.5651 165.898 69.7266C165.737 69.888 165.539 69.9688 165.304 69.9688ZM165.929 80H164.648V72H165.929V80ZM171.707 80.1875C170.525 80.1875 169.579 79.8151 168.871 79.0703C168.168 78.3203 167.816 77.3281 167.816 76.0938C167.816 74.75 168.183 73.7005 168.918 72.9453C169.652 72.1901 170.644 71.8125 171.894 71.8125C173.087 71.8125 174.017 72.1797 174.683 72.9141C175.355 73.6484 175.691 74.6667 175.691 75.9688C175.691 77.2448 175.329 78.2682 174.605 79.0391C173.887 79.8047 172.92 80.1875 171.707 80.1875ZM171.801 72.8906C170.978 72.8906 170.327 73.1719 169.848 73.7344C169.368 74.2917 169.129 75.0625 169.129 76.0469C169.129 76.9948 169.371 77.7422 169.855 78.2891C170.34 78.8359 170.988 79.1094 171.801 79.1094C172.629 79.1094 173.264 78.8411 173.707 78.3047C174.155 77.7682 174.379 77.0052 174.379 76.0156C174.379 75.0156 174.155 74.2448 173.707 73.7031C173.264 73.1615 172.629 72.8906 171.801 72.8906ZM184.219 80H182.938V75.4375C182.938 73.7396 182.318 72.8906 181.078 72.8906C180.438 72.8906 179.906 73.1328 179.484 73.6172C179.068 74.0964 178.859 74.7031 178.859 75.4375V80H177.578V72H178.859V73.3281H178.891C179.495 72.3177 180.37 71.8125 181.516 71.8125C182.391 71.8125 183.06 72.0964 183.523 72.6641C183.987 73.2266 184.219 74.0417 184.219 75.1094V80ZM185.996 79.7109V78.3359C186.694 78.8516 187.462 79.1094 188.301 79.1094C189.426 79.1094 189.988 78.7344 189.988 77.9844C189.988 77.7708 189.939 77.5911 189.84 77.4453C189.746 77.2943 189.616 77.1615 189.449 77.0469C189.288 76.9323 189.095 76.8307 188.871 76.7422C188.652 76.6484 188.416 76.5521 188.16 76.4531C187.806 76.3125 187.494 76.1719 187.223 76.0312C186.957 75.8854 186.733 75.724 186.551 75.5469C186.374 75.3646 186.238 75.1589 186.145 74.9297C186.056 74.7005 186.012 74.4323 186.012 74.125C186.012 73.75 186.098 73.4193 186.27 73.1328C186.442 72.8411 186.671 72.599 186.957 72.4062C187.244 72.2083 187.569 72.0599 187.934 71.9609C188.304 71.862 188.684 71.8125 189.074 71.8125C189.767 71.8125 190.387 71.9323 190.934 72.1719V73.4688C190.345 73.0833 189.668 72.8906 188.902 72.8906C188.663 72.8906 188.447 72.9193 188.254 72.9766C188.061 73.0286 187.895 73.1042 187.754 73.2031C187.619 73.3021 187.512 73.4219 187.434 73.5625C187.361 73.6979 187.324 73.849 187.324 74.0156C187.324 74.224 187.361 74.3984 187.434 74.5391C187.512 74.6797 187.624 74.8047 187.77 74.9141C187.916 75.0234 188.093 75.1224 188.301 75.2109C188.509 75.2995 188.746 75.3958 189.012 75.5C189.366 75.6354 189.684 75.776 189.965 75.9219C190.246 76.0625 190.486 76.224 190.684 76.4062C190.882 76.5833 191.033 76.7891 191.137 77.0234C191.246 77.2578 191.301 77.5365 191.301 77.8594C191.301 78.2552 191.212 78.599 191.035 78.8906C190.863 79.1823 190.632 79.4245 190.34 79.6172C190.048 79.8099 189.712 79.9531 189.332 80.0469C188.952 80.1406 188.554 80.1875 188.137 80.1875C187.314 80.1875 186.6 80.0286 185.996 79.7109Z" fill="white"/>
<path d="M64.5225 18.5308L63.3794 15.9186H55.9411L54.7981 18.5308H51.6328L57.2599 6.00669H62.1661L67.7932 18.5308H64.5225ZM57.0138 13.4675H62.3244L59.6691 7.38434L57.0138 13.4675Z" fill="white"/>
<path d="M71.3219 14.2368C71.4156 14.8332 71.7966 15.3401 72.4649 15.7576C73.1331 16.1631 74.1002 16.3659 75.3663 16.3659C76.3159 16.3659 77.1424 16.2645 77.8458 16.0618C78.5492 15.859 78.9009 15.5489 78.9009 15.1314C78.9009 14.6185 78.3089 14.2309 77.1248 13.9684L72.588 12.9128C70.1378 12.3403 68.9127 11.2072 68.9127 9.51344C68.9127 8.27296 69.4872 7.3426 70.636 6.72235C71.7849 6.10211 73.2269 5.79199 74.9619 5.79199C76.8142 5.79199 78.3382 6.14982 79.5339 6.86549C80.7414 7.56922 81.4155 8.57115 81.5562 9.87127L78.5316 9.99651C78.4261 9.49555 78.0568 9.06615 77.4238 8.70832C76.8024 8.35049 75.9408 8.17157 74.8388 8.17157C74.0416 8.17157 73.3851 8.27296 72.8693 8.47573C72.3652 8.6785 72.1132 8.9588 72.1132 9.31663C72.1132 9.8176 72.6817 10.1993 73.8189 10.4617L78.0217 11.3921C79.3933 11.7022 80.4132 12.1196 81.0814 12.6445C81.7613 13.1693 82.1013 13.9088 82.1013 14.863C82.1013 16.1631 81.4976 17.1353 80.2901 17.7794C79.0943 18.4234 77.4531 18.7455 75.3663 18.7455C70.8998 18.7455 68.5435 17.2724 68.2973 14.3263L71.3219 14.2368Z" fill="white"/>
<path d="M82.6172 8.67254V6.00669H96.3509V8.67254H91.093V18.5308H87.8926V8.67254H82.6172Z" fill="white"/>
<path d="M98.3385 18.5308V6.00669H110.56V8.54729H101.539V10.9627H108.626V13.3601H101.539V15.9902H110.912V18.5308H98.3385Z" fill="white"/>
<path d="M123.478 18.5308L119.205 13.9327H116.462V18.5308H113.262V6.00669H116.462H121.878C123.32 6.00669 124.504 6.34663 125.43 7.02651C126.356 7.70639 126.819 8.72025 126.819 10.0681C126.819 11.2609 126.468 12.1674 125.764 12.7876C125.061 13.3959 124.094 13.7597 122.863 13.879L127.54 18.5308H123.478ZM116.462 8.60097V11.4815H121.72C122.306 11.4815 122.769 11.3622 123.109 11.1237C123.449 10.8732 123.619 10.5213 123.619 10.0681C123.619 9.6029 123.443 9.24507 123.091 8.99458C122.751 8.73217 122.294 8.60097 121.72 8.60097H116.462Z" fill="white"/>
<path d="M129.352 18.5308V6.00669H132.553V18.5308H129.352Z" fill="white"/>
<path d="M139.067 15.865H148.14V18.5308H134.459V16.2765L143.269 8.67254H135.057V6.00669H147.894V8.26103L139.067 15.865Z" fill="white"/>
<path d="M163.408 6.00669H169L168.983 18.5308H165.923V7.70639L161.72 18.5308H157.377L153.174 7.70639V18.5308H150.097V6.00669H155.706L159.593 16.7059L163.408 6.00669Z" fill="white"/>
<path fill-rule="evenodd" clip-rule="evenodd" d="M42.3768 1.23043C40.2931 2.4437 36.4347 4.71006 35.447 5.30086C34.454 5.89488 33.9677 6.60794 33.8624 7.62414C33.84 7.8406 33.8213 8.78948 33.8209 9.73268C33.8202 11.4237 33.8189 11.4504 33.7251 11.6435C33.6728 11.7513 33.5681 11.9028 33.4924 11.9803C33.3213 12.1555 32.9585 12.2726 32.706 12.234C32.5858 12.2157 32.0645 11.9386 31.0727 11.3659C29.4209 10.4121 29.0614 10.2212 28.7919 10.1552C28.2704 10.0275 27.6983 10.0503 27.1827 10.2195C26.9661 10.2906 25.7331 10.99 23.9599 12.0477C23.0896 12.5668 23.0034 12.6505 23.0032 12.9774C23.0028 13.3987 22.7044 13.2002 27.9887 16.2937C31.7142 18.4747 32.8592 19.1259 33.0666 19.182C33.236 19.2277 33.507 19.2553 33.8049 19.2572C34.5694 19.262 34.6788 19.2168 36.6007 18.1041C38.1379 17.2142 38.2749 17.1437 38.509 17.1221C38.7288 17.1018 38.7918 17.1146 39.0001 17.2218C39.2428 17.3468 39.3908 17.502 39.4884 17.7341C39.5286 17.8297 39.549 18.3884 39.5675 19.905C39.5916 21.8834 39.5954 21.9565 39.6894 22.248C39.8378 22.7083 40.0507 23.0865 40.3397 23.4032C40.5809 23.6677 40.7363 23.7703 42.2711 24.6793C44.4237 25.9541 44.5721 26.0319 44.777 25.9928C44.9826 25.9535 45.2161 25.7421 45.2731 25.5437C45.3044 25.4346 45.3143 23.6617 45.3053 19.7545L45.2923 14.1226L45.173 13.7786C44.9981 13.2744 44.8296 13.0008 44.4713 12.6388C44.1353 12.2994 44.0409 12.2385 41.9341 11.0012C41.4303 10.7052 40.95 10.3912 40.8542 10.2949C40.5503 9.9896 40.4965 9.49209 40.7245 9.0961C40.8529 8.87335 40.85 8.87537 41.9331 8.23376C43.867 7.08807 44.2195 6.86443 44.4409 6.64281C44.7369 6.34642 45.0424 5.84221 45.1774 5.42708L45.2858 5.09428L45.289 2.79422C45.2909 1.52918 45.2777 0.440753 45.2598 0.375535C45.2085 0.189122 44.918 -0.000300585 44.6839 3.58118e-07C44.5068 0.000215318 44.3013 0.109845 42.3768 1.23043ZM39.585 9.65447C39.6427 9.71324 39.6513 9.91225 39.6513 11.1835C39.6513 12.6701 39.6374 12.8123 39.4914 12.8103C39.4516 12.8098 38.8485 12.4734 38.1513 12.0628C36.9791 11.3725 36.8837 11.3074 36.8837 11.1991C36.8837 11.0908 36.9791 11.0258 38.1513 10.3355C38.8485 9.92485 39.4413 9.58848 39.4688 9.58792C39.4961 9.58736 39.5484 9.61733 39.585 9.65447ZM36.6851 11.4012C36.7577 11.4751 36.7577 14.4055 36.6851 14.4794C36.6572 14.5078 36.5954 14.5305 36.5477 14.53C36.437 14.5287 34.0349 13.1158 33.9728 13.0155C33.9398 12.9622 33.9393 12.9193 33.971 12.8681C34.0319 12.7699 36.439 11.3527 36.5477 11.351C36.5954 11.3502 36.6572 11.3728 36.6851 11.4012ZM39.6006 13.1209C39.6381 13.159 39.6513 13.5616 39.6513 14.6655C39.6513 15.9655 39.6428 16.1673 39.585 16.2261C39.5484 16.2633 39.504 16.2937 39.4862 16.2937C39.4684 16.2937 39.1037 16.0884 38.6758 15.8376C38.2479 15.5867 37.6742 15.253 37.4011 15.096C36.9039 14.8102 36.7822 14.6816 36.8976 14.5641C36.9978 14.4622 39.3824 13.0761 39.4633 13.0728C39.511 13.0709 39.5727 13.0925 39.6006 13.1209Z" fill="white"/>
</svg>
