<svg width="752" height="742" viewBox="0 0 752 742" fill="none" xmlns="http://www.w3.org/2000/svg">
<g filter="url(#filter0_b_2269_45339)">
<circle cx="375.906" cy="371.414" r="159.908" transform="rotate(145.156 375.906 371.414)" stroke="url(#paint0_linear_2269_45339)" stroke-opacity="0.65" stroke-width="0.905906"/>
</g>
<g filter="url(#filter1_b_2269_45339)">
<circle cx="374.736" cy="369.706" r="126.504" transform="rotate(145.156 374.736 369.706)" stroke="url(#paint1_linear_2269_45339)" stroke-opacity="0.65" stroke-width="0.905906"/>
</g>
<g filter="url(#filter2_b_2269_45339)">
<path d="M125.38 444.703L376.643 368.731C441.794 353.136 545.201 330.343 639.971 307.392" stroke="url(#paint2_linear_2269_45339)" stroke-width="0.868084"/>
</g>
<g filter="url(#filter3_b_2269_45339)">
<path d="M377.744 370.377L306.721 628.088" stroke="url(#paint3_linear_2269_45339)" stroke-width="0.868084"/>
</g>
<g filter="url(#filter4_b_2269_45339)">
<path d="M376.221 369.868L559.359 575.835" stroke="url(#paint4_linear_2269_45339)" stroke-width="0.868084"/>
</g>
<g filter="url(#filter5_b_2269_45339)">
<circle cx="496.536" cy="342.858" r="17.9016" fill="url(#paint5_radial_2269_45339)" fill-opacity="0.35"/>
<circle cx="496.536" cy="342.858" r="17.5673" stroke="url(#paint6_linear_2269_45339)" stroke-opacity="0.65" stroke-width="0.668591"/>
</g>
<path d="M496.527 347.768C497.355 347.768 498.026 347.097 498.026 346.27C498.026 345.442 497.355 344.771 496.527 344.771C495.7 344.771 495.029 345.442 495.029 346.27C495.029 347.097 495.7 347.768 496.527 347.768Z" fill="#3CD65E"/>
<path d="M502.299 340.58L502.299 339.431C502.299 336.95 501.702 333.659 496.527 333.659C491.352 333.659 490.755 336.95 490.755 339.431L490.755 340.58C488.182 340.902 487.336 342.207 487.336 345.415L487.336 347.124C487.336 350.892 488.485 352.041 492.253 352.041L500.801 352.041C504.569 352.041 505.718 350.892 505.718 347.124L505.718 345.415C505.718 342.207 504.873 340.902 502.299 340.58ZM496.527 349.045C494.992 349.045 493.751 347.795 493.751 346.269C493.751 344.734 495.001 343.494 496.527 343.494C498.053 343.494 499.303 344.744 499.303 346.269C499.303 347.804 498.062 349.045 496.527 349.045ZM492.253 340.497C492.18 340.497 492.115 340.497 492.042 340.497L492.042 339.431C492.042 336.738 492.805 334.946 496.527 334.946C500.249 334.946 501.012 336.738 501.012 339.431L501.012 340.507C500.939 340.507 500.874 340.507 500.801 340.507L492.253 340.507L492.253 340.497Z" fill="#3CD65E"/>
<g filter="url(#filter6_b_2269_45339)">
<path d="M377.237 368.346L199.68 185.208" stroke="url(#paint7_linear_2269_45339)" stroke-width="0.868084"/>
</g>
<g filter="url(#filter7_b_2269_45339)">
<circle cx="460.849" cy="463.776" r="17.9016" fill="url(#paint8_radial_2269_45339)" fill-opacity="0.35"/>
<circle cx="460.849" cy="463.776" r="17.5673" stroke="url(#paint9_linear_2269_45339)" stroke-opacity="0.65" stroke-width="0.668591"/>
</g>
<path d="M460.842 468.686C461.669 468.686 462.34 468.015 462.34 467.188C462.34 466.36 461.669 465.689 460.842 465.689C460.014 465.689 459.344 466.36 459.344 467.188C459.344 468.015 460.014 468.686 460.842 468.686Z" fill="#3CD65E"/>
<path d="M466.613 461.498L466.613 460.349C466.613 457.868 466.016 454.577 460.841 454.577C455.667 454.577 455.069 457.868 455.069 460.349L455.069 461.498C452.496 461.82 451.65 463.125 451.65 466.333L451.65 468.042C451.65 471.81 452.799 472.959 456.568 472.959L465.115 472.959C468.884 472.959 470.033 471.81 470.033 468.042L470.033 466.333C470.033 463.125 469.187 461.82 466.613 461.498ZM460.841 469.963C459.307 469.963 458.066 468.713 458.066 467.187C458.066 465.652 459.316 464.412 460.841 464.412C462.367 464.412 463.617 465.662 463.617 467.187C463.617 468.722 462.376 469.963 460.841 469.963ZM456.568 461.415C456.494 461.415 456.43 461.415 456.356 461.415L456.356 460.349C456.356 457.656 457.119 455.864 460.841 455.864C464.564 455.864 465.327 457.656 465.327 460.349L465.327 461.425C465.253 461.425 465.189 461.425 465.115 461.425L456.568 461.425L456.568 461.415Z" fill="#3CD65E"/>
<g filter="url(#filter8_b_2269_45339)">
<circle cx="290.906" cy="278.346" r="17.9016" fill="url(#paint10_radial_2269_45339)" fill-opacity="0.35"/>
<circle cx="290.906" cy="278.346" r="17.5673" stroke="url(#paint11_linear_2269_45339)" stroke-opacity="0.65" stroke-width="0.668591"/>
</g>
<path d="M290.895 283.254C291.722 283.254 292.393 282.583 292.393 281.756C292.393 280.929 291.722 280.258 290.895 280.258C290.067 280.258 289.396 280.929 289.396 281.756C289.396 282.583 290.067 283.254 290.895 283.254Z" fill="#3CD65E"/>
<path d="M296.666 276.066L296.666 274.918C296.666 272.436 296.069 269.146 290.894 269.146C285.72 269.146 285.122 272.436 285.122 274.918L285.122 276.066C282.549 276.388 281.703 277.693 281.703 280.901L281.703 282.61C281.703 286.379 282.852 287.528 286.62 287.528L295.168 287.528C298.936 287.528 300.085 286.379 300.085 282.61L300.085 280.901C300.085 277.693 299.24 276.388 296.666 276.066ZM290.894 284.531C289.359 284.531 288.119 283.281 288.119 281.756C288.119 280.221 289.368 278.98 290.894 278.98C292.42 278.98 293.67 280.23 293.67 281.756C293.67 283.291 292.429 284.531 290.894 284.531ZM286.62 275.984C286.547 275.984 286.482 275.984 286.409 275.984L286.409 274.918C286.409 272.225 287.172 270.432 290.894 270.432C294.617 270.432 295.379 272.225 295.379 274.918L295.379 275.993C295.306 275.993 295.242 275.993 295.168 275.993L286.62 275.993L286.62 275.984Z" fill="#3CD65E"/>
<g filter="url(#filter9_b_2269_45339)">
<circle cx="344.921" cy="492.597" r="17.9016" fill="url(#paint12_radial_2269_45339)" fill-opacity="0.35"/>
<circle cx="344.921" cy="492.597" r="17.5673" stroke="url(#paint13_linear_2269_45339)" stroke-opacity="0.65" stroke-width="0.668591"/>
</g>
<path d="M344.91 497.508C345.738 497.508 346.408 496.837 346.408 496.01C346.408 495.182 345.738 494.512 344.91 494.512C344.083 494.512 343.412 495.182 343.412 496.01C343.412 496.837 344.083 497.508 344.91 497.508Z" fill="#3CD65E"/>
<path d="M350.682 490.32L350.682 489.171C350.682 486.69 350.084 483.399 344.91 483.399C339.735 483.399 339.138 486.69 339.138 489.171L339.138 490.32C336.564 490.642 335.719 491.947 335.719 495.155L335.719 496.864C335.719 500.633 336.868 501.782 340.636 501.782L349.184 501.782C352.952 501.782 354.101 500.633 354.101 496.864L354.101 495.155C354.101 491.947 353.255 490.642 350.682 490.32ZM344.91 498.785C343.375 498.785 342.134 497.535 342.134 496.01C342.134 494.475 343.384 493.234 344.91 493.234C346.436 493.234 347.686 494.484 347.686 496.01C347.686 497.544 346.445 498.785 344.91 498.785ZM340.636 490.238C340.562 490.238 340.498 490.238 340.425 490.238L340.425 489.171C340.425 486.478 341.187 484.686 344.91 484.686C348.632 484.686 349.395 486.478 349.395 489.171L349.395 490.247C349.322 490.247 349.257 490.247 349.184 490.247L340.636 490.247L340.636 490.238Z" fill="#3CD65E"/>
<g filter="url(#filter10_b_2269_45339)">
<circle cx="255.218" cy="403.37" r="17.9016" fill="url(#paint14_radial_2269_45339)" fill-opacity="0.35"/>
<circle cx="255.218" cy="403.37" r="17.5673" stroke="url(#paint15_linear_2269_45339)" stroke-opacity="0.65" stroke-width="0.668591"/>
</g>
<path d="M255.209 408.28C256.036 408.28 256.707 407.61 256.707 406.782C256.707 405.955 256.036 405.284 255.209 405.284C254.382 405.284 253.711 405.955 253.711 406.782C253.711 407.61 254.382 408.28 255.209 408.28Z" fill="#3CD65E"/>
<path d="M260.981 401.093L260.981 399.944C260.981 397.462 260.383 394.172 255.209 394.172C250.034 394.172 249.437 397.462 249.437 399.944L249.437 401.093C246.863 401.414 246.018 402.72 246.018 405.927L246.018 407.637C246.018 411.405 247.166 412.554 250.935 412.554L259.483 412.554C263.251 412.554 264.4 411.405 264.4 407.637L264.4 405.927C264.4 402.72 263.554 401.414 260.981 401.093ZM255.209 409.558C253.674 409.558 252.433 408.308 252.433 406.782C252.433 405.247 253.683 404.006 255.209 404.006C256.734 404.006 257.984 405.256 257.984 406.782C257.984 408.317 256.744 409.558 255.209 409.558ZM250.935 401.01C250.861 401.01 250.797 401.01 250.723 401.01L250.723 399.944C250.723 397.251 251.486 395.459 255.209 395.459C258.931 395.459 259.694 397.251 259.694 399.944L259.694 401.019C259.62 401.019 259.556 401.019 259.483 401.019L250.935 401.019L250.935 401.01Z" fill="#3CD65E"/>
<g filter="url(#filter11_bd_2269_45339)">
<circle cx="377.479" cy="370.733" r="70.5987" transform="rotate(145.156 377.479 370.733)" fill="url(#paint16_radial_2269_45339)" fill-opacity="0.65" shape-rendering="crispEdges"/>
<circle cx="377.479" cy="370.733" r="70.1457" transform="rotate(145.156 377.479 370.733)" stroke="url(#paint17_linear_2269_45339)" stroke-opacity="0.65" stroke-width="0.905906" shape-rendering="crispEdges"/>
</g>
<g filter="url(#filter12_d_2269_45339)">
<rect x="443.826" y="382.618" width="95.3211" height="95.3211" rx="47.6606" transform="rotate(145.156 443.826 382.618)" fill="#023898"/>
<rect x="443.826" y="382.618" width="95.3211" height="95.3211" rx="47.6606" transform="rotate(145.156 443.826 382.618)" fill="url(#paint18_radial_2269_45339)" fill-opacity="0.7"/>
<rect x="443.826" y="382.618" width="95.3211" height="95.3211" rx="47.6606" transform="rotate(145.156 443.826 382.618)" fill="url(#paint19_radial_2269_45339)"/>
</g>
<g filter="url(#filter13_d_2269_45339)">
<path fill-rule="evenodd" clip-rule="evenodd" d="M398.382 393.613C398.399 387.922 398.391 377.36 398.367 374.644C398.344 371.914 397.479 370.084 395.551 368.683C395.14 368.384 393.245 367.239 391.34 366.138C387.924 364.164 387.871 364.13 387.592 363.712C387.437 363.479 387.254 363.088 387.187 362.842C387.036 362.286 387.23 361.405 387.607 360.932C387.786 360.707 388.964 359.96 391.296 358.593C395.18 356.316 395.991 355.801 396.444 355.325C397.32 354.404 397.952 353.203 398.221 351.948C398.334 351.421 398.381 348.075 398.345 343.202C398.327 340.811 398.26 340.536 397.6 340.154C396.749 339.662 397.504 339.281 384.993 346.516C376.173 351.617 373.5 353.207 373.141 353.567C372.848 353.861 372.471 354.385 372.115 354.994C371.199 356.558 371.161 356.835 371.132 362.077C371.109 366.269 371.089 366.632 370.855 367.138C370.636 367.613 370.535 367.727 370.072 368.03C369.532 368.382 369.043 368.504 368.458 368.434C368.218 368.405 367.065 367.795 363.979 366.064C359.953 363.805 359.801 363.728 359.1 363.581C357.994 363.348 356.978 363.344 355.996 363.568C355.175 363.754 354.784 363.953 351.129 366.043C346.003 368.973 345.67 369.186 345.506 369.653C345.342 370.12 345.493 370.846 345.826 371.194C346.009 371.386 349.58 373.474 357.485 378.014L368.879 384.557L369.715 384.713C370.941 384.942 371.694 384.916 372.85 384.603C373.934 384.309 374.169 384.187 379.164 381.307C380.359 380.618 381.563 379.999 381.871 379.915C382.848 379.647 383.917 380.117 384.447 381.047C384.745 381.57 384.744 381.562 384.757 384.533C384.781 389.838 384.815 390.822 385.001 391.535C385.249 392.488 385.906 393.703 386.584 394.464L387.128 395.075L391.772 397.765C394.325 399.244 396.54 400.487 396.693 400.526C397.131 400.638 397.857 400.263 398.134 399.782C398.344 399.419 398.366 398.869 398.382 393.613ZM384.669 378.057C384.481 378.107 384.069 377.893 381.501 376.41C378.497 374.676 378.226 374.481 378.403 374.184C378.452 374.103 379.846 373.258 381.501 372.306C384.285 370.706 384.529 370.586 384.748 370.712C384.967 370.838 384.985 371.11 384.991 374.321C384.995 376.23 384.972 377.839 384.941 377.896C384.909 377.953 384.787 378.025 384.669 378.057ZM384.575 370.069C384.34 370.132 378.419 366.713 378.356 366.478C378.331 366.388 378.359 366.234 378.416 366.137C378.55 365.912 384.251 362.63 384.527 362.62C384.674 362.614 384.761 362.664 384.827 362.788C384.953 363.028 384.965 369.62 384.839 369.846C384.784 369.944 384.665 370.045 384.575 370.069ZM377.646 374.046C377.525 374.078 376.696 373.636 374.465 372.348C371.839 370.831 371.441 370.578 371.391 370.391C371.359 370.273 371.35 370.146 371.371 370.11C371.392 370.073 372.239 369.564 373.253 368.979C374.267 368.393 375.621 367.606 376.262 367.228C377.428 366.541 377.832 366.441 377.933 366.815C378.02 367.14 377.995 373.65 377.906 373.82C377.854 373.92 377.737 374.022 377.646 374.046Z" fill="white"/>
</g>
<g filter="url(#filter14_b_2269_45339)">
<path d="M657.577 621.12C654.383 631.431 647.218 641.841 638.204 650.319C629.189 658.796 618.36 665.309 607.872 667.865L492.816 695.908C471.653 701.066 437.221 709.169 415.979 713.99L300.492 740.2C289.964 742.59 277.367 741.59 265.518 738.022C253.668 734.454 242.614 728.332 235.156 720.527L153.342 634.907C138.293 619.158 114.061 593.391 99.2644 577.405L18.822 490.496C11.489 482.573 6.05651 471.164 3.22178 459.118C0.387095 447.072 0.161449 434.438 3.19172 424.076L36.4339 310.414C42.5483 289.507 52.7469 255.637 59.193 234.83L94.2378 121.71C97.4325 111.398 104.597 100.989 113.611 92.5111C122.626 84.0332 133.455 77.5206 143.943 74.9642L258.999 46.9213C280.162 41.7632 314.594 33.6605 335.836 28.8395L451.323 2.62922C461.851 0.239936 474.448 1.23983 486.297 4.80781C498.147 8.37578 509.201 14.4976 516.659 22.3026L598.473 107.923C613.522 123.671 637.754 149.438 652.551 165.424L732.993 252.334C740.326 260.257 745.759 271.666 748.593 283.712C751.428 295.757 751.654 308.392 748.623 318.753L715.381 432.416C709.267 453.323 699.068 487.193 692.622 508L657.577 621.12Z" stroke="url(#paint20_linear_2269_45339)" stroke-opacity="0.65" stroke-width="0.905906"/>
</g>
<g filter="url(#filter15_b_2269_45339)">
<path d="M579.707 531.772C576.09 543.445 567.983 555.222 557.787 564.811C547.591 574.4 535.339 581.77 523.466 584.664L474.707 596.548C450.791 602.377 411.881 611.534 387.876 616.982L338.934 628.089C327.017 630.794 312.764 629.661 299.362 625.626C285.959 621.59 273.451 614.665 265.008 605.829L230.337 569.545C213.331 551.748 185.946 522.629 169.225 504.564L135.135 467.733C126.834 458.765 120.689 445.855 117.482 432.23C114.276 418.606 114.019 404.31 117.45 392.581L131.537 344.413C138.447 320.786 149.972 282.511 157.256 258.998L172.108 211.06C175.724 199.386 183.832 187.61 194.028 178.021C204.224 168.432 216.476 161.061 228.349 158.168L277.108 146.284C301.023 140.454 339.933 131.298 363.939 125.85L412.88 114.742C424.798 112.038 439.05 113.17 452.453 117.206C465.855 121.242 478.364 128.167 486.806 137.002L521.478 173.287C538.484 191.084 565.868 220.202 582.589 238.268L616.68 275.099C624.981 284.067 631.126 296.977 634.332 310.601C637.539 324.226 637.795 338.521 634.365 350.251L620.277 398.419C613.368 422.045 601.843 460.32 594.558 483.834L579.707 531.772Z" stroke="url(#paint21_linear_2269_45339)" stroke-opacity="0.65" stroke-width="0.825688"/>
</g>
<g filter="url(#filter16_b_2269_45339)">
<path d="M637.58 269.586C658.796 269.586 676.021 286.811 676.021 308.027C676.021 329.243 658.796 346.468 637.58 346.468C616.364 346.468 599.139 329.243 599.139 308.027C599.139 286.811 616.364 269.586 637.58 269.586Z" fill="#00051B"/>
<path d="M637.58 269.874C658.637 269.874 675.733 286.971 675.733 308.027C675.733 329.084 658.637 346.18 637.58 346.18C616.523 346.18 599.427 329.084 599.427 308.027C599.427 286.971 616.523 269.874 637.58 269.874Z" stroke="url(#paint22_linear_2269_45339)" stroke-opacity="0.65" stroke-width="0.576123"/>
</g>
<rect width="39.151" height="39.151" rx="19.5755" transform="matrix(-0.99961 0.0279431 0.0279431 0.99961 656.604 287.909)" fill="#FE0420" fill-opacity="0.12"/>
<path d="M629.956 314.524C628.724 314.559 627.706 314.261 626.901 313.632C626.106 312.99 625.691 312.059 625.657 310.837C625.65 310.581 625.667 310.266 625.708 309.893C625.82 309.051 625.983 308.04 626.198 306.858C626.813 303.639 628.585 301.988 631.515 301.907C632.312 301.884 633.03 302.016 633.67 302.3C634.31 302.573 634.819 303.002 635.198 303.585C635.577 304.156 635.778 304.849 635.8 305.664C635.807 305.908 635.79 306.217 635.748 306.591C635.622 307.631 635.464 308.642 635.274 309.625C634.956 311.229 634.363 312.439 633.495 313.255C632.626 314.06 631.447 314.483 629.956 314.524ZM630.103 312.005C630.683 311.989 631.169 311.783 631.562 311.388C631.966 310.993 632.244 310.397 632.398 309.601C632.606 308.501 632.76 307.542 632.862 306.724C632.896 306.478 632.91 306.228 632.903 305.972C632.873 304.913 632.367 304.397 631.383 304.425C630.803 304.441 630.312 304.647 629.909 305.043C629.516 305.438 629.242 306.033 629.088 306.829C628.924 307.614 628.764 308.573 628.609 309.707C628.574 309.941 628.56 310.186 628.568 310.441C628.597 311.512 629.109 312.033 630.103 312.005Z" fill="#FE0420"/>
<path d="M637.563 314.312C637.428 314.315 637.322 314.276 637.246 314.195C637.181 314.101 637.16 313.993 637.181 313.873L639.403 302.135C639.424 302.003 639.488 301.893 639.597 301.806C639.705 301.719 639.821 301.674 639.944 301.671L644.855 301.534C646.221 301.495 647.324 301.74 648.164 302.267C649.016 302.794 649.457 303.578 649.486 304.619C649.495 304.919 649.466 305.231 649.401 305.556C649.132 306.941 648.539 307.975 647.622 308.659C646.718 309.343 645.459 309.708 643.847 309.753L641.354 309.823L640.615 313.777C640.594 313.909 640.529 314.019 640.421 314.106C640.313 314.193 640.197 314.238 640.074 314.241L637.563 314.312ZM643.907 307.272C644.424 307.258 644.869 307.108 645.243 306.822C645.629 306.536 645.876 306.133 645.985 305.615C646.016 305.411 646.03 305.231 646.025 305.075C646.016 304.728 645.904 304.468 645.69 304.294C645.475 304.109 645.115 304.023 644.611 304.037L642.395 304.099L641.784 307.332L643.907 307.272Z" fill="#FE0420"/>
<g filter="url(#filter17_b_2269_45339)">
<path d="M249.992 154.225C265.504 182.916 254.804 218.805 226.113 234.317C197.423 249.829 161.534 239.129 146.021 210.439C130.509 181.748 141.209 145.859 169.9 130.347C198.59 114.835 234.479 125.535 249.992 154.225Z" fill="#00051B"/>
<path d="M249.593 154.441C264.986 182.911 254.368 218.526 225.898 233.919C197.427 249.312 161.813 238.694 146.42 210.223C131.027 181.753 141.645 146.139 170.115 130.745C198.586 115.352 234.2 125.97 249.593 154.441Z" stroke="url(#paint23_linear_2269_45339)" stroke-opacity="0.65" stroke-width="0.905906"/>
</g>
<rect x="210.037" y="137.424" width="65.7555" height="65.7555" rx="32.8777" transform="rotate(60 210.037 137.424)" fill="#FFB800" fill-opacity="0.08"/>
<path d="M203.471 173.127L203.54 169.703L211.949 174.286L211.713 183.86L208.714 182.208L208.742 176.138L203.471 173.127ZM208.61 188.145L205.403 189.997L208.401 191.649L211.608 189.797L211.677 186.374L208.678 184.722L208.61 188.145ZM203.512 175.774L203.443 179.197L206.442 180.849L206.511 177.426L203.512 175.774ZM206.415 186.919L206.483 183.496L201.212 180.485L201.24 174.415L198.241 172.763L195.034 174.614L195.007 180.684L189.569 183.824L189.5 187.247L192.499 188.899L197.937 185.76L203.208 188.771L206.415 186.919ZM197.734 194.424L192.54 191.547L189.333 193.398L197.742 197.981L206.248 193.07L203.172 191.285L197.734 194.424ZM194.771 190.259L197.77 191.911L200.977 190.059L197.978 188.407L194.771 190.259ZM187.338 185.112L184.131 186.964L184.062 190.387L187.061 192.039L190.268 190.187L187.269 188.535L187.338 185.112ZM195.062 168.544L194.993 171.967L198.2 170.115L201.276 171.901L201.345 168.478L198.269 166.692L195.062 168.544ZM192.839 173.388L192.908 169.965L184.402 174.876L184.167 184.45L187.374 182.598L187.401 176.528C187.401 176.528 192.839 173.388 192.839 173.388ZM192.735 179.325L192.803 175.902L189.596 177.754L189.528 181.177C189.528 181.177 192.735 179.325 192.735 179.325Z" fill="#FFB800"/>
<g filter="url(#filter18_b_2269_45339)">
<path d="M560.727 502.257C599.399 502.257 630.798 533.656 630.798 572.328C630.798 611 599.399 642.399 560.727 642.399C522.055 642.399 490.656 611 490.656 572.328C490.656 533.656 522.055 502.257 560.727 502.257Z" fill="#00051B" fill-opacity="0.65"/>
<path d="M560.727 502.492C599.269 502.492 630.563 533.786 630.563 572.328C630.563 610.87 599.269 642.163 560.727 642.163C522.185 642.163 490.892 610.87 490.892 572.328C490.892 533.786 522.185 502.492 560.727 502.492Z" stroke="url(#paint24_linear_2269_45339)" stroke-opacity="0.65" stroke-width="0.470751"/>
</g>
<rect width="68.1739" height="68.1739" rx="34.0869" transform="matrix(-0.99961 0.0279431 0.0279431 0.99961 593.752 536.954)" fill="#071CFF" fill-opacity="0.08"/>
<path d="M558.953 557.386C559.67 556.951 560.777 556.92 561.516 557.315L569.059 561.341C569.505 561.578 569.756 561.944 569.81 562.327L569.817 562.327L570.412 583.606C570.414 584.026 570.182 584.449 569.713 584.734L562.407 589.175C561.691 589.61 560.583 589.641 559.844 589.247L552.301 585.221C551.819 584.964 551.579 584.551 551.556 584.133C551.554 584.092 551.553 584.058 551.553 584.03L550.965 562.991C550.963 562.968 550.963 562.945 550.963 562.922L550.961 562.854L550.965 562.854C550.987 562.464 551.206 562.095 551.647 561.827L558.953 557.386ZM568.98 574.231L562.106 578.409C561.39 578.844 560.282 578.875 559.543 578.481L552.462 574.702L552.724 584.059L559.804 587.817C560.204 588.033 560.619 588.243 561.019 588.26L561.099 588.26C561.515 588.25 561.913 588.011 562.317 587.783L569.241 583.563L568.98 574.231ZM550.336 583.705C550.358 584.52 550.461 585.053 550.646 585.426C550.799 585.735 551.023 585.968 551.426 586.248L551.449 586.264C551.538 586.324 551.636 586.388 551.754 586.462L551.894 586.549L552.324 586.812L551.749 587.909L551.268 587.614L551.187 587.564C551.048 587.477 550.933 587.402 550.825 587.328C549.675 586.539 549.229 585.656 549.168 583.794L549.167 583.737L550.336 583.705ZM559.969 568.775C559.916 568.797 559.866 568.821 559.82 568.849L552.513 573.29C552.506 573.295 552.498 573.299 552.491 573.304L552.485 573.308L552.497 573.315L552.514 573.324L560.058 577.35C560.105 577.375 560.156 577.397 560.211 577.415L559.969 568.775ZM561.138 568.742L561.38 577.383C561.433 577.361 561.483 577.337 561.529 577.309L568.835 572.868C568.843 572.863 568.85 572.859 568.857 572.854L568.864 572.85L568.852 572.843L568.835 572.834L561.291 568.808C561.244 568.783 561.193 568.761 561.138 568.742ZM568.69 563.869L562.135 567.853L568.902 571.464L568.69 563.869ZM552.172 564.34L552.384 571.917L558.924 567.943L552.172 564.34ZM561.001 558.446C560.609 558.236 559.91 558.256 559.53 558.487L552.224 562.928C552.216 562.932 552.209 562.937 552.202 562.942L552.196 562.946L552.207 562.953L552.225 562.962L559.768 566.988C560.16 567.197 560.859 567.178 561.239 566.947L568.546 562.506C568.553 562.501 568.561 562.496 568.568 562.492L568.574 562.488L568.562 562.481L568.545 562.471L561.001 558.446ZM569.643 558.669L570.124 558.963L570.204 559.014C570.343 559.101 570.459 559.176 570.566 559.249C571.717 560.039 572.163 560.922 572.223 562.784L572.225 562.84L571.056 562.873C571.033 562.058 570.931 561.524 570.746 561.152C570.593 560.843 570.369 560.61 569.965 560.33L569.942 560.314C569.854 560.253 569.756 560.19 569.637 560.115L569.498 560.028L569.068 559.765L569.643 558.669Z" fill="#071CFF"/>
<g filter="url(#filter19_b_2269_45339)">
<mask id="path-46-inside-1_2269_45339" fill="white">
<path d="M521.389 630.302C502.849 617.689 490.662 596.419 490.662 572.327C490.662 549.844 501.274 529.82 517.759 516.994"/>
</mask>
<path d="M521.018 630.847C521.319 631.052 521.729 630.974 521.934 630.673C522.138 630.372 522.06 629.961 521.759 629.757L521.018 630.847ZM518.163 517.514C518.451 517.291 518.502 516.877 518.279 516.589C518.055 516.302 517.641 516.25 517.354 516.474L518.163 517.514ZM521.759 629.757C503.392 617.261 491.321 596.191 491.321 572.327L490.003 572.327C490.003 596.647 502.305 618.116 521.018 630.847L521.759 629.757ZM491.321 572.327C491.321 550.057 501.833 530.221 518.163 517.514L517.354 516.474C500.716 529.419 490.003 549.632 490.003 572.327L491.321 572.327Z" fill="url(#paint25_linear_2269_45339)" mask="url(#path-46-inside-1_2269_45339)"/>
</g>
<g filter="url(#filter20_d_2269_45339)">
<g filter="url(#filter21_f_2269_45339)">
<circle cx="517.835" cy="517.74" r="4.32004" transform="rotate(-71.6487 517.835 517.74)" fill="url(#paint26_radial_2269_45339)"/>
</g>
<g style="mix-blend-mode:lighten" filter="url(#filter22_f_2269_45339)">
<circle cx="517.833" cy="517.741" r="2.3785" transform="rotate(-71.6487 517.833 517.741)" fill="#E4F9FF"/>
</g>
<g filter="url(#filter23_f_2269_45339)">
<circle cx="517.839" cy="517.742" r="1.22797" transform="rotate(-71.6487 517.839 517.742)" fill="white"/>
</g>
</g>
<g filter="url(#filter24_b_2269_45339)">
<path d="M171.752 439.09C174.815 468.805 153.176 495.418 123.462 498.481C93.7471 501.544 67.1341 479.905 64.0709 450.191C61.0076 420.477 82.6464 393.864 112.361 390.8C142.075 387.737 168.688 409.376 171.752 439.09Z" fill="#00051B" fill-opacity="0.65"/>
<path d="M171.301 439.137C174.339 468.602 152.881 494.993 123.415 498.03C93.9495 501.068 67.559 479.61 64.5214 450.145C61.4839 420.679 82.9417 394.288 112.407 391.251C141.873 388.213 168.263 409.671 171.301 439.137Z" stroke="url(#paint27_linear_2269_45339)" stroke-opacity="0.65" stroke-width="0.905906"/>
</g>
<rect x="141.041" y="403.046" width="67.1685" height="67.1685" rx="33.5843" transform="rotate(74.2032 141.041 403.046)" fill="#8247E5" fill-opacity="0.12"/>
<path d="M123.976 449.769C124.102 449.263 123.945 448.706 123.556 448.284L120.519 445.397L118.546 443.411L115.535 440.586C115.162 440.221 115.004 439.664 115.115 439.101L115.982 435.981C116.108 435.475 116.521 435.026 117.078 434.869L120.19 433.988C120.689 433.847 121.253 433.957 121.706 434.361L124.015 436.583C124.388 436.948 124.546 437.505 124.435 438.068L123.568 441.189C123.441 441.695 123.029 442.143 122.472 442.3L120.416 442.882L122.453 444.85L124.566 444.252C125.065 444.111 125.487 443.721 125.662 443.14L127.187 437.359C127.314 436.853 127.156 436.296 126.767 435.874L122.341 431.645C121.951 431.223 121.381 431.115 120.889 431.254L115.043 432.908C114.543 433.05 114.122 433.439 113.947 434.02L112.44 439.866C112.313 440.372 112.471 440.928 112.86 441.35L115.815 444.192L117.851 446.159L120.806 449C121.179 449.365 121.336 449.922 121.226 450.485L120.423 453.588C120.297 454.094 119.884 454.542 119.327 454.699L116.215 455.58C115.715 455.721 115.152 455.611 114.699 455.207L112.408 453.049C112.035 452.684 111.877 452.128 111.988 451.565L112.789 448.455C112.915 447.949 113.328 447.501 113.885 447.343L115.876 446.78L113.839 444.812L111.784 445.394C111.284 445.535 110.862 445.924 110.688 446.505L109.181 452.351C109.054 452.857 109.212 453.414 109.601 453.836L113.947 458.025C114.32 458.39 114.906 458.556 115.463 458.398L121.373 456.726C121.872 456.585 122.294 456.196 122.469 455.614L123.976 449.769Z" fill="#6A54FF"/>
<g filter="url(#filter25_b_2269_45339)">
<path d="M316.61 571.894C345.778 577.035 365.287 604.891 360.146 634.059C355.006 663.227 327.15 682.735 297.982 677.595C268.814 672.455 249.305 644.599 254.446 615.43C259.586 586.262 287.442 566.754 316.61 571.894Z" fill="#00051B" fill-opacity="0.65"/>
<path d="M316.56 572.18C345.57 577.292 364.974 604.998 359.861 634.008C354.748 663.019 327.043 682.422 298.032 677.309C269.022 672.197 249.619 644.491 254.731 615.481C259.844 586.47 287.549 567.067 316.56 572.18Z" stroke="url(#paint28_linear_2269_45339)" stroke-opacity="0.65" stroke-width="0.579939"/>
</g>
<rect x="282.922" y="591.946" width="58.1086" height="58.1086" rx="29.0543" transform="rotate(8.39366 282.922 591.946)" fill="#29BCC8" fill-opacity="0.12"/>
<path d="M303.693 620.271C303.703 620.265 303.714 620.26 303.725 620.257C303.847 620.202 303.968 620.149 304.09 620.103L304.093 617.742C304.094 617.536 304.011 617.338 303.864 617.191C303.716 617.045 303.516 616.963 303.307 616.962L300.041 616.957L300.031 623.733C300.831 622.212 302.118 620.996 303.693 620.271V620.271Z" fill="#2AC8CE"/>
<path d="M307.026 624.398L307.754 624.399C308.006 624.399 308.254 624.351 308.487 624.257C308.719 624.162 308.93 624.024 309.108 623.849C309.286 623.674 309.427 623.467 309.523 623.238C309.62 623.009 309.67 622.764 309.67 622.517L309.673 620.498C309.279 620.43 307.479 620.39 307.061 620.389C305.282 620.386 303.567 621.047 302.263 622.241C300.96 623.435 300.164 625.072 300.038 626.822C300.026 626.982 300.019 627.143 300.019 627.306C300.019 627.47 300.025 627.63 300.036 627.791L300.03 632.097C300.03 632.199 300.05 632.3 300.089 632.394C300.129 632.488 300.187 632.574 300.26 632.646C300.333 632.719 300.42 632.776 300.515 632.815C300.611 632.854 300.713 632.874 300.816 632.874L304.082 632.879L304.09 627.274C304.093 626.509 304.404 625.777 304.954 625.238C305.505 624.698 306.25 624.396 307.026 624.398L307.026 624.398Z" fill="#2AC8CE"/>
<path d="M311.144 629.584C311.133 629.59 311.122 629.595 311.111 629.599C310.99 629.654 310.868 629.707 310.747 629.753L310.743 632.114C310.743 632.32 310.825 632.518 310.973 632.664C311.12 632.811 311.32 632.893 311.53 632.894L314.793 632.899L314.803 626.123C314.003 627.643 312.717 628.859 311.144 629.584V629.584Z" fill="#2AC8CE"/>
<path d="M314.816 622.061L314.822 617.754C314.822 617.652 314.802 617.551 314.763 617.457C314.723 617.363 314.665 617.277 314.592 617.205C314.519 617.133 314.433 617.075 314.337 617.036C314.241 616.997 314.139 616.977 314.036 616.977L310.77 616.972L310.762 622.578C310.759 623.342 310.449 624.074 309.899 624.613C309.349 625.152 308.605 625.454 307.829 625.453L307.098 625.452C306.846 625.451 306.597 625.5 306.365 625.594C306.133 625.688 305.922 625.827 305.744 626.002C305.566 626.177 305.425 626.384 305.328 626.613C305.232 626.842 305.182 627.087 305.182 627.334L305.179 629.354C305.573 629.421 307.373 629.461 307.79 629.462C307.838 629.462 307.882 629.462 307.93 629.459C308.909 629.444 309.874 629.226 310.761 628.819L310.779 628.81C311.915 628.289 312.888 627.478 313.598 626.461C314.308 625.444 314.729 624.258 314.817 623.026C314.829 622.866 314.835 622.705 314.835 622.542C314.833 622.382 314.827 622.222 314.816 622.061Z" fill="#2AC8CE"/>
<g filter="url(#filter26_b_2269_45339)">
<path d="M349.619 592.255C354.238 598.098 357.684 605.004 359.519 612.707C366.318 641.249 348.446 669.995 319.634 676.858C312.415 678.577 305.19 678.761 298.308 677.622" stroke="url(#paint29_linear_2269_45339)" stroke-width="0.579939" stroke-linecap="round"/>
</g>
<g filter="url(#filter27_d_2269_45339)">
<g filter="url(#filter28_f_2269_45339)">
<circle cx="349.435" cy="592.56" r="3.38463" transform="rotate(4.95256 349.435 592.56)" fill="url(#paint30_radial_2269_45339)"/>
</g>
<g style="mix-blend-mode:lighten" filter="url(#filter29_f_2269_45339)">
<circle cx="349.438" cy="592.558" r="1.86349" transform="rotate(4.95256 349.438 592.558)" fill="#E4F9FF"/>
</g>
<g filter="url(#filter30_f_2269_45339)">
<circle cx="349.434" cy="592.562" r="0.962079" transform="rotate(4.95256 349.434 592.562)" fill="white"/>
</g>
</g>
<defs>
<filter id="filter0_b_2269_45339" x="210.152" y="205.66" width="331.508" height="331.508" filterUnits="userSpaceOnUse" color-interpolation-filters="sRGB">
<feFlood flood-opacity="0" result="BackgroundImageFix"/>
<feGaussianBlur in="BackgroundImageFix" stdDeviation="2.68949"/>
<feComposite in2="SourceAlpha" operator="in" result="effect1_backgroundBlur_2269_45339"/>
<feBlend mode="normal" in="SourceGraphic" in2="effect1_backgroundBlur_2269_45339" result="shape"/>
</filter>
<filter id="filter1_b_2269_45339" x="219.856" y="214.826" width="309.758" height="309.76" filterUnits="userSpaceOnUse" color-interpolation-filters="sRGB">
<feFlood flood-opacity="0" result="BackgroundImageFix"/>
<feGaussianBlur in="BackgroundImageFix" stdDeviation="13.9557"/>
<feComposite in2="SourceAlpha" operator="in" result="effect1_backgroundBlur_2269_45339"/>
<feBlend mode="normal" in="SourceGraphic" in2="effect1_backgroundBlur_2269_45339" result="shape"/>
</filter>
<filter id="filter2_b_2269_45339" x="98.5078" y="280.224" width="568.311" height="191.641" filterUnits="userSpaceOnUse" color-interpolation-filters="sRGB">
<feFlood flood-opacity="0" result="BackgroundImageFix"/>
<feGaussianBlur in="BackgroundImageFix" stdDeviation="13.3731"/>
<feComposite in2="SourceAlpha" operator="in" result="effect1_backgroundBlur_2269_45339"/>
<feBlend mode="normal" in="SourceGraphic" in2="effect1_backgroundBlur_2269_45339" result="shape"/>
</filter>
<filter id="filter3_b_2269_45339" x="279.557" y="343.516" width="125.352" height="311.435" filterUnits="userSpaceOnUse" color-interpolation-filters="sRGB">
<feFlood flood-opacity="0" result="BackgroundImageFix"/>
<feGaussianBlur in="BackgroundImageFix" stdDeviation="13.3731"/>
<feComposite in2="SourceAlpha" operator="in" result="effect1_backgroundBlur_2269_45339"/>
<feBlend mode="normal" in="SourceGraphic" in2="effect1_backgroundBlur_2269_45339" result="shape"/>
</filter>
<filter id="filter4_b_2269_45339" x="349.15" y="342.834" width="237.279" height="260.035" filterUnits="userSpaceOnUse" color-interpolation-filters="sRGB">
<feFlood flood-opacity="0" result="BackgroundImageFix"/>
<feGaussianBlur in="BackgroundImageFix" stdDeviation="13.3731"/>
<feComposite in2="SourceAlpha" operator="in" result="effect1_backgroundBlur_2269_45339"/>
<feBlend mode="normal" in="SourceGraphic" in2="effect1_backgroundBlur_2269_45339" result="shape"/>
</filter>
<filter id="filter5_b_2269_45339" x="468.761" y="315.082" width="55.5499" height="55.5499" filterUnits="userSpaceOnUse" color-interpolation-filters="sRGB">
<feFlood flood-opacity="0" result="BackgroundImageFix"/>
<feGaussianBlur in="BackgroundImageFix" stdDeviation="4.93679"/>
<feComposite in2="SourceAlpha" operator="in" result="effect1_backgroundBlur_2269_45339"/>
<feBlend mode="normal" in="SourceGraphic" in2="effect1_backgroundBlur_2269_45339" result="shape"/>
</filter>
<filter id="filter6_b_2269_45339" x="172.621" y="158.16" width="231.674" height="237.234" filterUnits="userSpaceOnUse" color-interpolation-filters="sRGB">
<feFlood flood-opacity="0" result="BackgroundImageFix"/>
<feGaussianBlur in="BackgroundImageFix" stdDeviation="13.3731"/>
<feComposite in2="SourceAlpha" operator="in" result="effect1_backgroundBlur_2269_45339"/>
<feBlend mode="normal" in="SourceGraphic" in2="effect1_backgroundBlur_2269_45339" result="shape"/>
</filter>
<filter id="filter7_b_2269_45339" x="433.074" y="436" width="55.5499" height="55.5499" filterUnits="userSpaceOnUse" color-interpolation-filters="sRGB">
<feFlood flood-opacity="0" result="BackgroundImageFix"/>
<feGaussianBlur in="BackgroundImageFix" stdDeviation="4.93679"/>
<feComposite in2="SourceAlpha" operator="in" result="effect1_backgroundBlur_2269_45339"/>
<feBlend mode="normal" in="SourceGraphic" in2="effect1_backgroundBlur_2269_45339" result="shape"/>
</filter>
<filter id="filter8_b_2269_45339" x="263.13" y="250.571" width="55.5499" height="55.5499" filterUnits="userSpaceOnUse" color-interpolation-filters="sRGB">
<feFlood flood-opacity="0" result="BackgroundImageFix"/>
<feGaussianBlur in="BackgroundImageFix" stdDeviation="4.93679"/>
<feComposite in2="SourceAlpha" operator="in" result="effect1_backgroundBlur_2269_45339"/>
<feBlend mode="normal" in="SourceGraphic" in2="effect1_backgroundBlur_2269_45339" result="shape"/>
</filter>
<filter id="filter9_b_2269_45339" x="317.146" y="464.822" width="55.5499" height="55.5499" filterUnits="userSpaceOnUse" color-interpolation-filters="sRGB">
<feFlood flood-opacity="0" result="BackgroundImageFix"/>
<feGaussianBlur in="BackgroundImageFix" stdDeviation="4.93679"/>
<feComposite in2="SourceAlpha" operator="in" result="effect1_backgroundBlur_2269_45339"/>
<feBlend mode="normal" in="SourceGraphic" in2="effect1_backgroundBlur_2269_45339" result="shape"/>
</filter>
<filter id="filter10_b_2269_45339" x="227.443" y="375.595" width="55.5499" height="55.5499" filterUnits="userSpaceOnUse" color-interpolation-filters="sRGB">
<feFlood flood-opacity="0" result="BackgroundImageFix"/>
<feGaussianBlur in="BackgroundImageFix" stdDeviation="4.93679"/>
<feComposite in2="SourceAlpha" operator="in" result="effect1_backgroundBlur_2269_45339"/>
<feBlend mode="normal" in="SourceGraphic" in2="effect1_backgroundBlur_2269_45339" result="shape"/>
</filter>
<filter id="filter11_bd_2269_45339" x="234.927" y="231.379" width="285.103" height="285.102" filterUnits="userSpaceOnUse" color-interpolation-filters="sRGB">
<feFlood flood-opacity="0" result="BackgroundImageFix"/>
<feGaussianBlur in="BackgroundImageFix" stdDeviation="3.99701"/>
<feComposite in2="SourceAlpha" operator="in" result="effect1_backgroundBlur_2269_45339"/>
<feColorMatrix in="SourceAlpha" type="matrix" values="0 0 0 0 0 0 0 0 0 0 0 0 0 0 0 0 0 0 127 0" result="hardAlpha"/>
<feOffset dy="3.19761"/>
<feGaussianBlur stdDeviation="35.9731"/>
<feComposite in2="hardAlpha" operator="out"/>
<feColorMatrix type="matrix" values="0 0 0 0 0 0 0 0 0 0.03825 0 0 0 0 0.1125 0 0 0 0.25 0"/>
<feBlend mode="normal" in2="effect1_backgroundBlur_2269_45339" result="effect2_dropShadow_2269_45339"/>
<feBlend mode="normal" in="SourceGraphic" in2="effect2_dropShadow_2269_45339" result="shape"/>
</filter>
<filter id="filter12_d_2269_45339" x="279.554" y="302.271" width="202.784" height="202.783" filterUnits="userSpaceOnUse" color-interpolation-filters="sRGB">
<feFlood flood-opacity="0" result="BackgroundImageFix"/>
<feColorMatrix in="SourceAlpha" type="matrix" values="0 0 0 0 0 0 0 0 0 0 0 0 0 0 0 0 0 0 127 0" result="hardAlpha"/>
<feOffset dx="3.46625" dy="32.9294"/>
<feGaussianBlur stdDeviation="26.8634"/>
<feColorMatrix type="matrix" values="0 0 0 0 0 0 0 0 0 0 0 0 0 0 0 0 0 0 0.5 0"/>
<feBlend mode="normal" in2="BackgroundImageFix" result="effect1_dropShadow_2269_45339"/>
<feBlend mode="normal" in="SourceGraphic" in2="effect1_dropShadow_2269_45339" result="shape"/>
</filter>
<filter id="filter13_d_2269_45339" x="343.706" y="339.923" width="56.4174" height="64.0893" filterUnits="userSpaceOnUse" color-interpolation-filters="sRGB">
<feFlood flood-opacity="0" result="BackgroundImageFix"/>
<feColorMatrix in="SourceAlpha" type="matrix" values="0 0 0 0 0 0 0 0 0 0 0 0 0 0 0 0 0 0 127 0" result="hardAlpha"/>
<feOffset dy="1.73313"/>
<feGaussianBlur stdDeviation="0.866563"/>
<feComposite in2="hardAlpha" operator="out"/>
<feColorMatrix type="matrix" values="0 0 0 0 0.00197917 0 0 0 0 0.172267 0 0 0 0 0.475 0 0 0 0.35 0"/>
<feBlend mode="normal" in2="BackgroundImageFix" result="effect1_dropShadow_2269_45339"/>
<feBlend mode="normal" in="SourceGraphic" in2="effect1_dropShadow_2269_45339" result="shape"/>
</filter>
<filter id="filter14_b_2269_45339" x="-27.3587" y="-27.0374" width="806.532" height="796.904" filterUnits="userSpaceOnUse" color-interpolation-filters="sRGB">
<feFlood flood-opacity="0" result="BackgroundImageFix"/>
<feGaussianBlur in="BackgroundImageFix" stdDeviation="13.9557"/>
<feComposite in2="SourceAlpha" operator="in" result="effect1_backgroundBlur_2269_45339"/>
<feBlend mode="normal" in="SourceGraphic" in2="effect1_backgroundBlur_2269_45339" result="shape"/>
</filter>
<filter id="filter15_b_2269_45339" x="89.1226" y="87.4156" width="573.569" height="568" filterUnits="userSpaceOnUse" color-interpolation-filters="sRGB">
<feFlood flood-opacity="0" result="BackgroundImageFix"/>
<feGaussianBlur in="BackgroundImageFix" stdDeviation="12.7199"/>
<feComposite in2="SourceAlpha" operator="in" result="effect1_backgroundBlur_2269_45339"/>
<feBlend mode="normal" in="SourceGraphic" in2="effect1_backgroundBlur_2269_45339" result="shape"/>
</filter>
<filter id="filter16_b_2269_45339" x="589.725" y="260.173" width="95.7093" height="95.7093" filterUnits="userSpaceOnUse" color-interpolation-filters="sRGB">
<feFlood flood-opacity="0" result="BackgroundImageFix"/>
<feGaussianBlur in="BackgroundImageFix" stdDeviation="4.70661"/>
<feComposite in2="SourceAlpha" operator="in" result="effect1_backgroundBlur_2269_45339"/>
<feBlend mode="normal" in="SourceGraphic" in2="effect1_backgroundBlur_2269_45339" result="shape"/>
</filter>
<filter id="filter17_b_2269_45339" x="129.493" y="113.819" width="137.026" height="137.026" filterUnits="userSpaceOnUse" color-interpolation-filters="sRGB">
<feFlood flood-opacity="0" result="BackgroundImageFix"/>
<feGaussianBlur in="BackgroundImageFix" stdDeviation="4.70662"/>
<feComposite in2="SourceAlpha" operator="in" result="effect1_backgroundBlur_2269_45339"/>
<feBlend mode="normal" in="SourceGraphic" in2="effect1_backgroundBlur_2269_45339" result="shape"/>
</filter>
<filter id="filter18_b_2269_45339" x="482.965" y="494.565" width="155.526" height="155.525" filterUnits="userSpaceOnUse" color-interpolation-filters="sRGB">
<feFlood flood-opacity="0" result="BackgroundImageFix"/>
<feGaussianBlur in="BackgroundImageFix" stdDeviation="3.84578"/>
<feComposite in2="SourceAlpha" operator="in" result="effect1_backgroundBlur_2269_45339"/>
<feBlend mode="normal" in="SourceGraphic" in2="effect1_backgroundBlur_2269_45339" result="shape"/>
</filter>
<filter id="filter19_b_2269_45339" x="467.856" y="494.188" width="76.3395" height="158.921" filterUnits="userSpaceOnUse" color-interpolation-filters="sRGB">
<feFlood flood-opacity="0" result="BackgroundImageFix"/>
<feGaussianBlur in="BackgroundImageFix" stdDeviation="11.4032"/>
<feComposite in2="SourceAlpha" operator="in" result="effect1_backgroundBlur_2269_45339"/>
<feBlend mode="normal" in="SourceGraphic" in2="effect1_backgroundBlur_2269_45339" result="shape"/>
</filter>
<filter id="filter20_d_2269_45339" x="509.027" y="508.932" width="17.6168" height="17.6168" filterUnits="userSpaceOnUse" color-interpolation-filters="sRGB">
<feFlood flood-opacity="0" result="BackgroundImageFix"/>
<feColorMatrix in="SourceAlpha" type="matrix" values="0 0 0 0 0 0 0 0 0 0 0 0 0 0 0 0 0 0 127 0" result="hardAlpha"/>
<feOffset/>
<feGaussianBlur stdDeviation="2.24355"/>
<feColorMatrix type="matrix" values="0 0 0 0 0.491667 0 0 0 0 0.953833 0 0 0 0 0.983333 0 0 0 0.25 0"/>
<feBlend mode="normal" in2="BackgroundImageFix" result="effect1_dropShadow_2269_45339"/>
<feBlend mode="normal" in="SourceGraphic" in2="effect1_dropShadow_2269_45339" result="shape"/>
</filter>
<filter id="filter21_f_2269_45339" x="509.027" y="508.932" width="17.6168" height="17.6168" filterUnits="userSpaceOnUse" color-interpolation-filters="sRGB">
<feFlood flood-opacity="0" result="BackgroundImageFix"/>
<feBlend mode="normal" in="SourceGraphic" in2="BackgroundImageFix" result="shape"/>
<feGaussianBlur stdDeviation="2.24355" result="effect1_foregroundBlur_2269_45339"/>
</filter>
<filter id="filter22_f_2269_45339" x="510.966" y="510.875" width="13.732" height="13.732" filterUnits="userSpaceOnUse" color-interpolation-filters="sRGB">
<feFlood flood-opacity="0" result="BackgroundImageFix"/>
<feBlend mode="normal" in="SourceGraphic" in2="BackgroundImageFix" result="shape"/>
<feGaussianBlur stdDeviation="2.24355" result="effect1_foregroundBlur_2269_45339"/>
</filter>
<filter id="filter23_f_2269_45339" x="515.49" y="515.392" width="4.70058" height="4.6996" filterUnits="userSpaceOnUse" color-interpolation-filters="sRGB">
<feFlood flood-opacity="0" result="BackgroundImageFix"/>
<feBlend mode="normal" in="SourceGraphic" in2="BackgroundImageFix" result="shape"/>
<feGaussianBlur stdDeviation="0.560886" result="effect1_foregroundBlur_2269_45339"/>
</filter>
<filter id="filter24_b_2269_45339" x="54.368" y="381.098" width="127.086" height="127.084" filterUnits="userSpaceOnUse" color-interpolation-filters="sRGB">
<feFlood flood-opacity="0" result="BackgroundImageFix"/>
<feGaussianBlur in="BackgroundImageFix" stdDeviation="4.70661"/>
<feComposite in2="SourceAlpha" operator="in" result="effect1_backgroundBlur_2269_45339"/>
<feBlend mode="normal" in="SourceGraphic" in2="effect1_backgroundBlur_2269_45339" result="shape"/>
</filter>
<filter id="filter25_b_2269_45339" x="247.597" y="565.046" width="119.398" height="119.397" filterUnits="userSpaceOnUse" color-interpolation-filters="sRGB">
<feFlood flood-opacity="0" result="BackgroundImageFix"/>
<feGaussianBlur in="BackgroundImageFix" stdDeviation="3.01306"/>
<feComposite in2="SourceAlpha" operator="in" result="effect1_backgroundBlur_2269_45339"/>
<feBlend mode="normal" in="SourceGraphic" in2="effect1_backgroundBlur_2269_45339" result="shape"/>
</filter>
<filter id="filter26_b_2269_45339" x="280.149" y="574.097" width="98.9708" height="122.403" filterUnits="userSpaceOnUse" color-interpolation-filters="sRGB">
<feFlood flood-opacity="0" result="BackgroundImageFix"/>
<feGaussianBlur in="BackgroundImageFix" stdDeviation="8.93411"/>
<feComposite in2="SourceAlpha" operator="in" result="effect1_backgroundBlur_2269_45339"/>
<feBlend mode="normal" in="SourceGraphic" in2="effect1_backgroundBlur_2269_45339" result="shape"/>
</filter>
<filter id="filter27_d_2269_45339" x="342.535" y="585.659" width="13.8006" height="13.8006" filterUnits="userSpaceOnUse" color-interpolation-filters="sRGB">
<feFlood flood-opacity="0" result="BackgroundImageFix"/>
<feColorMatrix in="SourceAlpha" type="matrix" values="0 0 0 0 0 0 0 0 0 0 0 0 0 0 0 0 0 0 127 0" result="hardAlpha"/>
<feOffset/>
<feGaussianBlur stdDeviation="1.75776"/>
<feColorMatrix type="matrix" values="0 0 0 0 0.491667 0 0 0 0 0.953833 0 0 0 0 0.983333 0 0 0 0.25 0"/>
<feBlend mode="normal" in2="BackgroundImageFix" result="effect1_dropShadow_2269_45339"/>
<feBlend mode="normal" in="SourceGraphic" in2="effect1_dropShadow_2269_45339" result="shape"/>
</filter>
<filter id="filter28_f_2269_45339" x="342.535" y="585.659" width="13.8006" height="13.8006" filterUnits="userSpaceOnUse" color-interpolation-filters="sRGB">
<feFlood flood-opacity="0" result="BackgroundImageFix"/>
<feBlend mode="normal" in="SourceGraphic" in2="BackgroundImageFix" result="shape"/>
<feGaussianBlur stdDeviation="1.75775" result="effect1_foregroundBlur_2269_45339"/>
</filter>
<filter id="filter29_f_2269_45339" x="344.059" y="587.179" width="10.7576" height="10.7586" filterUnits="userSpaceOnUse" color-interpolation-filters="sRGB">
<feFlood flood-opacity="0" result="BackgroundImageFix"/>
<feBlend mode="normal" in="SourceGraphic" in2="BackgroundImageFix" result="shape"/>
<feGaussianBlur stdDeviation="1.75775" result="effect1_foregroundBlur_2269_45339"/>
</filter>
<filter id="filter30_f_2269_45339" x="347.594" y="590.721" width="3.68158" height="3.68256" filterUnits="userSpaceOnUse" color-interpolation-filters="sRGB">
<feFlood flood-opacity="0" result="BackgroundImageFix"/>
<feBlend mode="normal" in="SourceGraphic" in2="BackgroundImageFix" result="shape"/>
<feGaussianBlur stdDeviation="0.439439" result="effect1_foregroundBlur_2269_45339"/>
</filter>
<linearGradient id="paint0_linear_2269_45339" x1="205.845" y1="199.627" x2="545.684" y2="369.323" gradientUnits="userSpaceOnUse">
<stop stop-color="#315193"/>
<stop offset="1" stop-color="#315193" stop-opacity="0"/>
</linearGradient>
<linearGradient id="paint1_linear_2269_45339" x1="282.193" y1="253.645" x2="603.722" y2="387.163" gradientUnits="userSpaceOnUse">
<stop stop-color="#537FD2"/>
<stop offset="0.902547" stop-color="#537FD2" stop-opacity="0"/>
</linearGradient>
<linearGradient id="paint2_linear_2269_45339" x1="142.018" y1="454.456" x2="682.535" y2="292.776" gradientUnits="userSpaceOnUse">
<stop stop-color="#1E315C" stop-opacity="0"/>
<stop offset="0.5625" stop-color="#375593"/>
<stop offset="0.934267" stop-color="#1E315C" stop-opacity="0"/>
</linearGradient>
<linearGradient id="paint3_linear_2269_45339" x1="324.476" y1="588.519" x2="249.261" y2="523.704" gradientUnits="userSpaceOnUse">
<stop stop-color="#1E315C" stop-opacity="0"/>
<stop offset="0.5625" stop-color="#375593"/>
<stop offset="0.934267" stop-color="#1E315C" stop-opacity="0"/>
</linearGradient>
<linearGradient id="paint4_linear_2269_45339" x1="376.221" y1="381.941" x2="548.946" y2="474.68" gradientUnits="userSpaceOnUse">
<stop stop-color="#1E315C" stop-opacity="0"/>
<stop offset="0.5625" stop-color="#375593"/>
<stop offset="0.934267" stop-color="#1E315C" stop-opacity="0"/>
</linearGradient>
<radialGradient id="paint5_radial_2269_45339" cx="0" cy="0" r="1" gradientUnits="userSpaceOnUse" gradientTransform="translate(478.957 326.021) rotate(44.0741) scale(48.6217 77.7635)">
<stop stop-color="#70A9FF" stop-opacity="0.4"/>
<stop offset="1" stop-color="white" stop-opacity="0"/>
</radialGradient>
<linearGradient id="paint6_linear_2269_45339" x1="477.552" y1="323.681" x2="521.25" y2="344.036" gradientUnits="userSpaceOnUse">
<stop stop-color="#304B84"/>
<stop offset="1" stop-color="#304B84" stop-opacity="0"/>
</linearGradient>
<linearGradient id="paint7_linear_2269_45339" x1="369.352" y1="357.512" x2="200.382" y2="275.657" gradientUnits="userSpaceOnUse">
<stop stop-color="#1E315C" stop-opacity="0"/>
<stop offset="0.5625" stop-color="#375593"/>
<stop offset="0.934267" stop-color="#1E315C" stop-opacity="0"/>
</linearGradient>
<radialGradient id="paint8_radial_2269_45339" cx="0" cy="0" r="1" gradientUnits="userSpaceOnUse" gradientTransform="translate(443.269 446.939) rotate(44.0741) scale(48.6217 77.7635)">
<stop stop-color="#70A9FF" stop-opacity="0.4"/>
<stop offset="1" stop-color="white" stop-opacity="0"/>
</radialGradient>
<linearGradient id="paint9_linear_2269_45339" x1="441.865" y1="444.599" x2="485.562" y2="464.954" gradientUnits="userSpaceOnUse">
<stop stop-color="#304B84"/>
<stop offset="1" stop-color="#304B84" stop-opacity="0"/>
</linearGradient>
<radialGradient id="paint10_radial_2269_45339" cx="0" cy="0" r="1" gradientUnits="userSpaceOnUse" gradientTransform="translate(273.326 261.51) rotate(44.0741) scale(48.6217 77.7635)">
<stop stop-color="#70A9FF" stop-opacity="0.4"/>
<stop offset="1" stop-color="white" stop-opacity="0"/>
</radialGradient>
<linearGradient id="paint11_linear_2269_45339" x1="271.921" y1="259.169" x2="315.619" y2="279.525" gradientUnits="userSpaceOnUse">
<stop stop-color="#304B84"/>
<stop offset="1" stop-color="#304B84" stop-opacity="0"/>
</linearGradient>
<radialGradient id="paint12_radial_2269_45339" cx="0" cy="0" r="1" gradientUnits="userSpaceOnUse" gradientTransform="translate(327.342 475.761) rotate(44.0741) scale(48.6217 77.7635)">
<stop stop-color="#70A9FF" stop-opacity="0.4"/>
<stop offset="1" stop-color="white" stop-opacity="0"/>
</radialGradient>
<linearGradient id="paint13_linear_2269_45339" x1="325.937" y1="473.42" x2="369.634" y2="493.776" gradientUnits="userSpaceOnUse">
<stop stop-color="#304B84"/>
<stop offset="1" stop-color="#304B84" stop-opacity="0"/>
</linearGradient>
<radialGradient id="paint14_radial_2269_45339" cx="0" cy="0" r="1" gradientUnits="userSpaceOnUse" gradientTransform="translate(237.638 386.534) rotate(44.0741) scale(48.6217 77.7635)">
<stop stop-color="#70A9FF" stop-opacity="0.4"/>
<stop offset="1" stop-color="white" stop-opacity="0"/>
</radialGradient>
<linearGradient id="paint15_linear_2269_45339" x1="236.234" y1="384.193" x2="279.931" y2="404.549" gradientUnits="userSpaceOnUse">
<stop stop-color="#304B84"/>
<stop offset="1" stop-color="#304B84" stop-opacity="0"/>
</linearGradient>
<radialGradient id="paint16_radial_2269_45339" cx="0" cy="0" r="1" gradientUnits="userSpaceOnUse" gradientTransform="translate(308.15 304.335) rotate(44.0741) scale(191.75 306.676)">
<stop stop-color="#2A3B80" stop-opacity="0.85"/>
<stop offset="1" stop-color="#1E307A" stop-opacity="0.35"/>
</radialGradient>
<linearGradient id="paint17_linear_2269_45339" x1="325.034" y1="316.944" x2="470.544" y2="385.156" gradientUnits="userSpaceOnUse">
<stop stop-color="#34518E"/>
<stop offset="1" stop-color="#34518E" stop-opacity="0"/>
</linearGradient>
<radialGradient id="paint18_radial_2269_45339" cx="0" cy="0" r="1" gradientUnits="userSpaceOnUse" gradientTransform="translate(468.98 402.477) rotate(51.0441) scale(80.0169 80.0169)">
<stop stop-color="white" stop-opacity="0.59"/>
<stop offset="0.697917" stop-color="white" stop-opacity="0"/>
<stop offset="1" stop-color="white" stop-opacity="0"/>
</radialGradient>
<radialGradient id="paint19_radial_2269_45339" cx="0" cy="0" r="1" gradientUnits="userSpaceOnUse" gradientTransform="translate(526.09 466.024) rotate(-93.6705) scale(81.5875 90.9327)">
<stop stop-opacity="0.23"/>
<stop offset="0.861815" stop-opacity="0"/>
</radialGradient>
<linearGradient id="paint20_linear_2269_45339" x1="798.229" y1="455.282" x2="-82.0855" y2="826.16" gradientUnits="userSpaceOnUse">
<stop stop-color="#537FD2"/>
<stop offset="0.902547" stop-color="#537FD2" stop-opacity="0"/>
</linearGradient>
<linearGradient id="paint21_linear_2269_45339" x1="671.116" y1="427.469" x2="49.4118" y2="685.145" gradientUnits="userSpaceOnUse">
<stop stop-color="#537FD2"/>
<stop offset="0.902547" stop-color="#537FD2" stop-opacity="0"/>
</linearGradient>
<linearGradient id="paint22_linear_2269_45339" x1="609.559" y1="272.885" x2="706.915" y2="313.313" gradientUnits="userSpaceOnUse">
<stop stop-color="#537FD2"/>
<stop offset="0.902547" stop-color="#537FD2" stop-opacity="0"/>
</linearGradient>
<linearGradient id="paint23_linear_2269_45339" x1="225.042" y1="118.744" x2="241.553" y2="279.96" gradientUnits="userSpaceOnUse">
<stop stop-color="#537FD2"/>
<stop offset="0.902547" stop-color="#537FD2" stop-opacity="0"/>
</linearGradient>
<linearGradient id="paint24_linear_2269_45339" x1="509.65" y1="508.271" x2="687.111" y2="581.963" gradientUnits="userSpaceOnUse">
<stop stop-color="#537FD2"/>
<stop offset="0.902547" stop-color="#537FD2" stop-opacity="0"/>
</linearGradient>
<linearGradient id="paint25_linear_2269_45339" x1="521.611" y1="517.87" x2="557.764" y2="528.117" gradientUnits="userSpaceOnUse">
<stop stop-color="#87B1FF"/>
<stop offset="0.902547" stop-color="#3C7FFF" stop-opacity="0"/>
</linearGradient>
<radialGradient id="paint26_radial_2269_45339" cx="0" cy="0" r="1" gradientUnits="userSpaceOnUse" gradientTransform="translate(517.836 517.74) rotate(90) scale(5.83458 4.32004)">
<stop stop-color="#CAFFF9"/>
<stop offset="1" stop-color="#557AFF" stop-opacity="0"/>
</radialGradient>
<linearGradient id="paint27_linear_2269_45339" x1="163.085" y1="400.321" x2="120.519" y2="542.513" gradientUnits="userSpaceOnUse">
<stop stop-color="#537FD2"/>
<stop offset="0.902547" stop-color="#537FD2" stop-opacity="0"/>
</linearGradient>
<linearGradient id="paint28_linear_2269_45339" x1="277.287" y1="569.641" x2="401.339" y2="648.811" gradientUnits="userSpaceOnUse">
<stop stop-color="#537FD2"/>
<stop offset="0.902547" stop-color="#537FD2" stop-opacity="0"/>
</linearGradient>
<linearGradient id="paint29_linear_2269_45339" x1="371.403" y1="665.085" x2="335.378" y2="720.222" gradientUnits="userSpaceOnUse">
<stop stop-color="#87B1FF"/>
<stop offset="0.902547" stop-color="#3C7FFF" stop-opacity="0"/>
</linearGradient>
<radialGradient id="paint30_radial_2269_45339" cx="0" cy="0" r="1" gradientUnits="userSpaceOnUse" gradientTransform="translate(349.435 592.56) rotate(90) scale(4.57123 3.38463)">
<stop stop-color="#CAFFF9"/>
<stop offset="1" stop-color="#557AFF" stop-opacity="0"/>
</radialGradient>
</defs>
</svg>
