<svg width="33" height="32" viewBox="0 0 33 32" fill="none" xmlns="http://www.w3.org/2000/svg">
<path d="M16.4857 0.166748C7.74568 0.166748 0.652344 7.26008 0.652344 16.0001C0.652344 24.7401 7.74568 31.8334 16.4857 31.8334C25.2257 31.8334 32.319 24.7401 32.319 16.0001C32.319 7.26008 25.2257 0.166748 16.4857 0.166748ZM10.9915 18.3276C11.4507 18.7867 11.4507 19.5467 10.9915 20.0059C10.754 20.2434 10.4532 20.3542 10.1523 20.3542C9.85151 20.3542 9.55068 20.2434 9.31318 20.0059L6.14651 16.8392C5.68734 16.3801 5.68734 15.6201 6.14651 15.1609L9.31318 11.9942C9.77234 11.5351 10.5323 11.5351 10.9915 11.9942C11.4507 12.4534 11.4507 13.2134 10.9915 13.6726L8.66401 16.0001L10.9915 18.3276ZM19.1615 12.7701L15.9948 20.1642C15.8048 20.6076 15.3615 20.8767 14.9023 20.8767C14.744 20.8767 14.5857 20.8451 14.4432 20.7817C13.8415 20.5284 13.5565 19.8317 13.8257 19.2142L16.9923 11.8201C17.2457 11.2184 17.9423 10.9334 18.544 11.2026C19.1457 11.4717 19.4148 12.1684 19.1615 12.7701ZM26.8248 16.8392L23.6582 20.0059C23.4207 20.2434 23.1198 20.3542 22.819 20.3542C22.5182 20.3542 22.2173 20.2434 21.9798 20.0059C21.5207 19.5467 21.5207 18.7867 21.9798 18.3276L24.3073 16.0001L21.9798 13.6726C21.5207 13.2134 21.5207 12.4534 21.9798 11.9942C22.439 11.5351 23.199 11.5351 23.6582 11.9942L26.8248 15.1609C27.284 15.6201 27.284 16.3801 26.8248 16.8392Z" fill="white"/>
</svg>
