<svg width="26" height="25" viewBox="0 0 26 25" fill="none" xmlns="http://www.w3.org/2000/svg">
<circle cx="13" cy="12.5" r="10" fill="white"/>
<path d="M13 0C6.1125 0 0.5 5.6125 0.5 12.5C0.5 19.3875 6.1125 25 13 25C19.8875 25 25.5 19.3875 25.5 12.5C25.5 5.6125 19.8875 0 13 0ZM18.975 9.625L11.8875 16.7125C11.7125 16.8875 11.475 16.9875 11.225 16.9875C10.975 16.9875 10.7375 16.8875 10.5625 16.7125L7.025 13.175C6.6625 12.8125 6.6625 12.2125 7.025 11.85C7.3875 11.4875 7.9875 11.4875 8.35 11.85L11.225 14.725L17.65 8.3C18.0125 7.9375 18.6125 7.9375 18.975 8.3C19.3375 8.6625 19.3375 9.25 18.975 9.625Z" fill="url(#paint0_linear_7_20339)"/>
<defs>
<linearGradient id="paint0_linear_7_20339" x1="10" y1="0.5" x2="19" y2="22.5" gradientUnits="userSpaceOnUse">
<stop stop-color="#3E76D3"/>
<stop offset="1" stop-color="#13358F"/>
</linearGradient>
</defs>
</svg>
