<svg width="43" height="66" viewBox="0 0 43 66" fill="none" xmlns="http://www.w3.org/2000/svg">
<g filter="url(#filter0_b_100_21394)">
<path d="M21.4964 31.5632C27.0377 31.5632 31.5298 27.0664 31.5298 21.5193C31.5298 15.9722 27.0377 11.4753 21.4964 11.4753C15.9552 11.4753 11.4631 15.9722 11.4631 21.5193C11.4631 27.0664 15.9552 31.5632 21.4964 31.5632Z" fill="#0B2268"/>
<path d="M31.2121 21.5193C31.2121 26.8913 26.862 31.2456 21.4964 31.2456C16.1309 31.2456 11.7808 26.8913 11.7808 21.5193C11.7808 16.1473 16.1309 11.793 21.4964 11.793C26.862 11.793 31.2121 16.1473 31.2121 21.5193Z" stroke="url(#paint0_linear_100_21394)" stroke-width="0.635273"/>
</g>
<g filter="url(#filter1_b_100_21394)">
<path d="M21.4961 45.9124C24.6625 45.9124 27.2294 43.3428 27.2294 40.173C27.2294 37.0032 24.6625 34.4336 21.4961 34.4336C18.3297 34.4336 15.7628 37.0032 15.7628 40.173C15.7628 43.3428 18.3297 45.9124 21.4961 45.9124Z" fill="#0B2268"/>
<path d="M26.9118 40.173C26.9118 43.1677 24.4868 45.5947 21.4961 45.5947C18.5054 45.5947 16.0804 43.1677 16.0804 40.173C16.0804 37.1783 18.5054 34.7512 21.4961 34.7512C24.4868 34.7512 26.9118 37.1783 26.9118 40.173Z" stroke="url(#paint1_linear_100_21394)" stroke-width="0.635273"/>
</g>
<g filter="url(#filter2_b_100_21394)">
<path d="M21.4961 66C24.6625 66 27.2294 63.4304 27.2294 60.2606C27.2294 57.0909 24.6625 54.5212 21.4961 54.5212C18.3297 54.5212 15.7628 57.0909 15.7628 60.2606C15.7628 63.4304 18.3297 66 21.4961 66Z" fill="#0B2268"/>
<path d="M26.9118 60.2606C26.9118 63.2553 24.4868 65.6824 21.4961 65.6824C18.5054 65.6824 16.0804 63.2553 16.0804 60.2606C16.0804 57.266 18.5054 54.8389 21.4961 54.8389C24.4868 54.8389 26.9118 57.266 26.9118 60.2606Z" stroke="url(#paint2_linear_100_21394)" stroke-width="0.635273"/>
</g>
<g filter="url(#filter3_b_100_21394)">
<path d="M5.73332 61.6958C8.89975 61.6958 11.4666 59.1262 11.4666 55.9564C11.4666 52.7867 8.89975 50.217 5.73332 50.217C2.5669 50.217 0 52.7867 0 55.9564C0 59.1262 2.5669 61.6958 5.73332 61.6958Z" fill="#0B2268"/>
<path d="M11.149 55.9564C11.149 58.9511 8.72401 61.3782 5.73332 61.3782C2.74264 61.3782 0.317636 58.9511 0.317636 55.9564C0.317636 52.9618 2.74264 50.5347 5.73332 50.5347C8.72401 50.5347 11.149 52.9618 11.149 55.9564Z" stroke="url(#paint3_linear_100_21394)" stroke-width="0.635273"/>
</g>
<g filter="url(#filter4_b_100_21394)">
<path d="M37.2667 61.6958C40.4331 61.6958 43 59.1262 43 55.9564C43 52.7867 40.4331 50.217 37.2667 50.217C34.1003 50.217 31.5334 52.7867 31.5334 55.9564C31.5334 59.1262 34.1003 61.6958 37.2667 61.6958Z" fill="#0B2268"/>
<path d="M42.6824 55.9564C42.6824 58.9511 40.2574 61.3782 37.2667 61.3782C34.276 61.3782 31.851 58.9511 31.851 55.9564C31.851 52.9618 34.276 50.5347 37.2667 50.5347C40.2574 50.5347 42.6824 52.9618 42.6824 55.9564Z" stroke="url(#paint4_linear_100_21394)" stroke-width="0.635273"/>
</g>
<path d="M35.5466 37.3034C35.2619 37.3034 34.9837 37.2185 34.7475 37.0595C34.5112 36.9006 34.3275 36.6749 34.2199 36.4111C34.1123 36.1472 34.0855 35.8573 34.1431 35.5782C34.2007 35.2992 34.34 35.0436 34.5433 34.8441C37.1865 32.2505 38.9982 28.9277 39.7474 25.2993C40.4967 21.6709 40.1496 17.9013 38.7503 14.4712C37.3511 11.0411 34.9631 8.10581 31.8908 6.03967C28.8185 3.97352 25.2012 2.87011 21.5 2.87011C17.7988 2.87011 14.1814 3.97352 11.1092 6.03967C8.03688 8.10581 5.64887 11.0411 4.2496 14.4712C2.85034 17.9013 2.50321 21.6709 3.25248 25.2993C4.00176 28.9277 5.81348 32.2505 8.45666 34.8441C8.59418 34.9752 8.70429 35.1325 8.78058 35.3066C8.85688 35.4807 8.89783 35.6683 8.90107 35.8585C8.90431 36.0486 8.86976 36.2374 8.79944 36.4141C8.72912 36.5907 8.62443 36.7516 8.49145 36.8874C8.35847 37.0232 8.19986 37.1312 8.02483 37.205C7.8498 37.2789 7.66185 37.3172 7.4719 37.3177C7.28195 37.3183 7.09379 37.281 6.91836 37.2081C6.74293 37.1352 6.58372 37.0281 6.45 36.893C3.40018 33.9005 1.30972 30.0664 0.445178 25.8798C-0.419368 21.6932 -0.0188363 17.3437 1.5957 13.3859C3.21024 9.42804 5.96564 6.0412 9.51057 3.65719C13.0555 1.27317 17.2294 0 21.5 0C25.7706 0 29.9444 1.27317 33.4894 3.65719C37.0343 6.0412 39.7897 9.42804 41.4042 13.3859C43.0188 17.3437 43.4193 21.6932 42.5548 25.8798C41.6902 30.0664 39.5998 33.9005 36.5499 36.893C36.282 37.156 35.9218 37.3034 35.5466 37.3034Z" fill="url(#paint5_linear_100_21394)"/>
<path d="M21.5036 57.3905C21.1234 57.3905 20.7588 57.2393 20.49 56.9702C20.2212 56.7011 20.0702 56.3362 20.0702 55.9556V44.4768C20.0702 44.0963 20.2212 43.7313 20.49 43.4622C20.7588 43.1932 21.1234 43.042 21.5036 43.042C21.8837 43.042 22.2483 43.1932 22.5171 43.4622C22.7859 43.7313 22.9369 44.0963 22.9369 44.4768V55.9556C22.9369 56.3362 22.7859 56.7011 22.5171 56.9702C22.2483 57.2393 21.8837 57.3905 21.5036 57.3905Z" fill="url(#paint6_linear_100_21394)"/>
<path d="M5.733 53.0862C5.35286 53.0862 4.98829 52.9351 4.71949 52.666C4.45068 52.3969 4.29967 52.0319 4.29967 51.6514V45.912C4.29821 45.6441 4.37168 45.3812 4.51176 45.153C4.65184 44.9248 4.85295 44.7404 5.09231 44.6206L16.5589 38.8812C16.8992 38.7111 17.293 38.6833 17.6537 38.8038C18.0144 38.9244 18.3126 39.1835 18.4825 39.5241C18.6524 39.8646 18.6802 40.2589 18.5598 40.62C18.4394 40.9811 18.1806 41.2795 17.8403 41.4496L7.16633 46.7987V51.6514C7.16633 52.0319 7.01532 52.3969 6.74652 52.666C6.47772 52.9351 6.11315 53.0862 5.733 53.0862Z" fill="url(#paint7_linear_100_21394)"/>
<path d="M37.2626 53.0875C36.8825 53.0875 36.5179 52.9363 36.2491 52.6673C35.9803 52.3982 35.8293 52.0332 35.8293 51.6527V46.8L25.1553 41.4652C24.8151 41.2951 24.5563 40.9967 24.4358 40.6356C24.3154 40.2745 24.3432 39.8803 24.5132 39.5397C24.6831 39.1991 24.9812 38.94 25.3419 38.8195C25.7027 38.6989 26.0965 38.7268 26.4367 38.8969L37.9033 44.6363C38.1405 44.7549 38.3402 44.9371 38.4801 45.1625C38.62 45.388 38.6948 45.6479 38.696 45.9133V51.6527C38.696 52.0332 38.545 52.3982 38.2762 52.6673C38.0074 52.9363 37.6428 53.0875 37.2626 53.0875Z" fill="url(#paint8_linear_100_21394)"/>
<defs>
<filter id="filter0_b_100_21394" x="7.613" y="7.62521" width="27.7669" height="27.7882" filterUnits="userSpaceOnUse" color-interpolation-filters="sRGB">
<feFlood flood-opacity="0" result="BackgroundImageFix"/>
<feGaussianBlur in="BackgroundImageFix" stdDeviation="1.92507"/>
<feComposite in2="SourceAlpha" operator="in" result="effect1_backgroundBlur_100_21394"/>
<feBlend mode="normal" in="SourceGraphic" in2="effect1_backgroundBlur_100_21394" result="shape"/>
</filter>
<filter id="filter1_b_100_21394" x="11.9127" y="30.5835" width="19.1669" height="19.179" filterUnits="userSpaceOnUse" color-interpolation-filters="sRGB">
<feFlood flood-opacity="0" result="BackgroundImageFix"/>
<feGaussianBlur in="BackgroundImageFix" stdDeviation="1.92507"/>
<feComposite in2="SourceAlpha" operator="in" result="effect1_backgroundBlur_100_21394"/>
<feBlend mode="normal" in="SourceGraphic" in2="effect1_backgroundBlur_100_21394" result="shape"/>
</filter>
<filter id="filter2_b_100_21394" x="11.9127" y="50.6711" width="19.1669" height="19.179" filterUnits="userSpaceOnUse" color-interpolation-filters="sRGB">
<feFlood flood-opacity="0" result="BackgroundImageFix"/>
<feGaussianBlur in="BackgroundImageFix" stdDeviation="1.92507"/>
<feComposite in2="SourceAlpha" operator="in" result="effect1_backgroundBlur_100_21394"/>
<feBlend mode="normal" in="SourceGraphic" in2="effect1_backgroundBlur_100_21394" result="shape"/>
</filter>
<filter id="filter3_b_100_21394" x="-3.85014" y="46.3669" width="19.1669" height="19.179" filterUnits="userSpaceOnUse" color-interpolation-filters="sRGB">
<feFlood flood-opacity="0" result="BackgroundImageFix"/>
<feGaussianBlur in="BackgroundImageFix" stdDeviation="1.92507"/>
<feComposite in2="SourceAlpha" operator="in" result="effect1_backgroundBlur_100_21394"/>
<feBlend mode="normal" in="SourceGraphic" in2="effect1_backgroundBlur_100_21394" result="shape"/>
</filter>
<filter id="filter4_b_100_21394" x="27.6832" y="46.3669" width="19.1669" height="19.179" filterUnits="userSpaceOnUse" color-interpolation-filters="sRGB">
<feFlood flood-opacity="0" result="BackgroundImageFix"/>
<feGaussianBlur in="BackgroundImageFix" stdDeviation="1.92507"/>
<feComposite in2="SourceAlpha" operator="in" result="effect1_backgroundBlur_100_21394"/>
<feBlend mode="normal" in="SourceGraphic" in2="effect1_backgroundBlur_100_21394" result="shape"/>
</filter>
<linearGradient id="paint0_linear_100_21394" x1="21.4964" y1="11.4753" x2="21.4964" y2="31.5632" gradientUnits="userSpaceOnUse">
<stop stop-color="#D3E3FF"/>
<stop offset="1" stop-color="#B1CAF1" stop-opacity="0.15"/>
</linearGradient>
<linearGradient id="paint1_linear_100_21394" x1="21.4961" y1="34.4336" x2="21.4961" y2="45.9124" gradientUnits="userSpaceOnUse">
<stop stop-color="#D3E3FF"/>
<stop offset="1" stop-color="#B1CAF1" stop-opacity="0.15"/>
</linearGradient>
<linearGradient id="paint2_linear_100_21394" x1="21.4961" y1="54.5212" x2="21.4961" y2="66" gradientUnits="userSpaceOnUse">
<stop stop-color="#D3E3FF"/>
<stop offset="1" stop-color="#B1CAF1" stop-opacity="0.15"/>
</linearGradient>
<linearGradient id="paint3_linear_100_21394" x1="5.73332" y1="50.217" x2="5.73332" y2="61.6958" gradientUnits="userSpaceOnUse">
<stop stop-color="#D3E3FF"/>
<stop offset="1" stop-color="#B1CAF1" stop-opacity="0.15"/>
</linearGradient>
<linearGradient id="paint4_linear_100_21394" x1="37.2667" y1="50.217" x2="37.2667" y2="61.6958" gradientUnits="userSpaceOnUse">
<stop stop-color="#D3E3FF"/>
<stop offset="1" stop-color="#B1CAF1" stop-opacity="0.15"/>
</linearGradient>
<linearGradient id="paint5_linear_100_21394" x1="9.42218" y1="37.3201" x2="15.0989" y2="6.78298" gradientUnits="userSpaceOnUse">
<stop stop-color="#3F70D8"/>
<stop offset="1" stop-color="#E2EEFE"/>
</linearGradient>
<linearGradient id="paint6_linear_100_21394" x1="21.5041" y1="43.7297" x2="21.5041" y2="56.5026" gradientUnits="userSpaceOnUse">
<stop stop-color="#3F70D8"/>
<stop offset="1" stop-color="#E2EEFE"/>
</linearGradient>
<linearGradient id="paint7_linear_100_21394" x1="15.5708" y1="39.2445" x2="10.8734" y2="52.5074" gradientUnits="userSpaceOnUse">
<stop stop-color="#3F70D8"/>
<stop offset="1" stop-color="#E2EEFE"/>
</linearGradient>
<linearGradient id="paint8_linear_100_21394" x1="25.2096" y1="39.927" x2="39.8267" y2="44.8649" gradientUnits="userSpaceOnUse">
<stop stop-color="#3F70D8"/>
<stop offset="1" stop-color="#E2EEFE"/>
</linearGradient>
</defs>
</svg>
