<svg width="66" height="66" viewBox="0 0 66 66" fill="none" xmlns="http://www.w3.org/2000/svg">
<g clip-path="url(#clip0_7_41)">
<path d="M54.9384 15.043L33.2824 8.29305C33.0977 8.23565 32.9019 8.23565 32.7173 8.29305L11.0612 15.043C10.8455 15.1101 10.6557 15.252 10.5206 15.4473C10.3855 15.6426 10.3124 15.8806 10.3125 16.1253C10.3125 32.1823 16.3514 42.6122 21.4179 48.5342C24.5751 52.3261 28.3686 55.4235 32.5935 57.659C32.7219 57.719 32.8601 57.75 32.9998 57.75C33.1395 57.75 33.2777 57.719 33.4061 57.659C37.6311 55.4235 41.4246 52.3261 44.5817 48.5342C49.6482 42.6122 55.6871 32.1823 55.6871 16.1253C55.6872 15.8806 55.6141 15.6426 55.479 15.4473C55.3439 15.252 55.1541 15.1101 54.9384 15.043Z" fill="url(#paint0_linear_7_41)"/>
<g filter="url(#filter0_i_7_41)">
<path d="M62.2517 9.05737L33.3768 0.0574053C33.1305 -0.0191351 32.8695 -0.0191351 32.6232 0.0574053L3.74825 9.05737C3.46065 9.14676 3.20761 9.33599 3.02747 9.59638C2.84733 9.85678 2.74992 10.1741 2.75 10.5004C2.75 31.9098 10.802 45.8162 17.5574 53.7122C21.7669 58.7681 26.8249 62.898 32.4583 65.8787C32.6294 65.9587 32.8137 66 33 66C33.1863 66 33.3706 65.9587 33.5417 65.8787C39.1751 62.898 44.2331 58.7681 48.4426 53.7122C55.198 45.8162 63.25 31.9098 63.25 10.5004C63.2501 10.1741 63.1527 9.85678 62.9725 9.59638C62.7924 9.33599 62.5393 9.14676 62.2517 9.05737Z" fill="#0B2268"/>
<path d="M33.3117 0.266648L62.1867 9.26661C62.425 9.34068 62.6385 9.49869 62.7923 9.72104C62.9463 9.94362 63.0309 10.2172 63.0309 10.5003C63.0309 31.8495 55.0032 45.7069 48.2761 53.5697L48.2742 53.572C44.0836 58.6052 39.0495 62.7156 33.4443 65.6823C33.3031 65.7476 33.152 65.7809 33 65.7809C32.848 65.7809 32.6969 65.7476 32.5557 65.6823C26.9505 62.7156 21.9164 58.6052 17.7258 53.572L17.7239 53.5698C10.9968 45.7069 2.96912 31.8495 2.96912 10.5004C2.96905 10.2173 3.0537 9.94362 3.20768 9.72104C3.36149 9.4987 3.57497 9.34068 3.81329 9.26661L32.6883 0.266648M33.3117 0.266648C33.1079 0.203342 32.8921 0.203342 32.6883 0.266648M33.3117 0.266648H32.6883" stroke="url(#paint1_linear_7_41)" stroke-width="0.438249"/>
</g>
<g filter="url(#filter1_i_7_41)">
<path d="M34.348 15.836L37.9 23.0359L45.838 24.1894C46.1147 24.2299 46.3747 24.3469 46.5884 24.5272C46.8022 24.7076 46.9612 24.9441 47.0477 25.2101C47.1341 25.4761 47.1444 25.761 47.0775 26.0325C47.0106 26.3041 46.8691 26.5515 46.669 26.7469L40.924 32.3479L42.274 40.2529C42.3213 40.5287 42.2904 40.8123 42.1849 41.0715C42.0795 41.3308 41.9036 41.5553 41.6771 41.7198C41.4507 41.8843 41.1827 41.9821 40.9036 42.0023C40.6245 42.0224 40.3452 41.9641 40.0975 41.8339L32.998 38.0989L25.8986 41.8309C25.6509 41.9611 25.3716 42.0194 25.0925 41.9993C24.8133 41.9791 24.5454 41.8813 24.319 41.7168C24.0925 41.5523 23.9166 41.3278 23.8111 41.0685C23.7057 40.8093 23.6748 40.5257 23.7221 40.2499L25.0721 32.3449L19.3271 26.7439C19.127 26.5485 18.9855 26.3011 18.9186 26.0295C18.8516 25.758 18.862 25.4731 18.9484 25.2071C19.0348 24.9411 19.1939 24.7046 19.4077 24.5242C19.6214 24.3439 19.8813 24.2269 20.1581 24.1864L28.0961 23.0329L31.648 15.833C31.7851 15.596 31.982 15.3994 32.2192 15.2628C32.4563 15.1262 32.7252 15.0544 32.9989 15.0547C33.2726 15.055 33.5414 15.1274 33.7782 15.2645C34.015 15.4016 34.2116 15.5987 34.348 15.836Z" fill="url(#paint2_linear_7_41)"/>
</g>
</g>
<defs>
<filter id="filter0_i_7_41" x="2.75" y="0" width="60.5" height="67.3797" filterUnits="userSpaceOnUse" color-interpolation-filters="sRGB">
<feFlood flood-opacity="0" result="BackgroundImageFix"/>
<feBlend mode="normal" in="SourceGraphic" in2="BackgroundImageFix" result="shape"/>
<feColorMatrix in="SourceAlpha" type="matrix" values="0 0 0 0 0 0 0 0 0 0 0 0 0 0 0 0 0 0 127 0" result="hardAlpha"/>
<feOffset dy="1.37972"/>
<feGaussianBlur stdDeviation="2.75944"/>
<feComposite in2="hardAlpha" operator="arithmetic" k2="-1" k3="1"/>
<feColorMatrix type="matrix" values="0 0 0 0 1 0 0 0 0 1 0 0 0 0 1 0 0 0 0.4 0"/>
<feBlend mode="normal" in2="shape" result="effect1_innerShadow_7_41"/>
</filter>
<filter id="filter1_i_7_41" x="18.875" y="15.0547" width="28.2461" height="28.3313" filterUnits="userSpaceOnUse" color-interpolation-filters="sRGB">
<feFlood flood-opacity="0" result="BackgroundImageFix"/>
<feBlend mode="normal" in="SourceGraphic" in2="BackgroundImageFix" result="shape"/>
<feColorMatrix in="SourceAlpha" type="matrix" values="0 0 0 0 0 0 0 0 0 0 0 0 0 0 0 0 0 0 127 0" result="hardAlpha"/>
<feOffset dy="1.37972"/>
<feGaussianBlur stdDeviation="0.68986"/>
<feComposite in2="hardAlpha" operator="arithmetic" k2="-1" k3="1"/>
<feColorMatrix type="matrix" values="0 0 0 0 1 0 0 0 0 1 0 0 0 0 1 0 0 0 0.4 0"/>
<feBlend mode="normal" in2="shape" result="effect1_innerShadow_7_41"/>
</filter>
<linearGradient id="paint0_linear_7_41" x1="12.2031" y1="18.15" x2="61.8152" y2="24.4663" gradientUnits="userSpaceOnUse">
<stop stop-color="#8AE6CF"/>
<stop offset="1" stop-color="#7C3AE7"/>
</linearGradient>
<linearGradient id="paint1_linear_7_41" x1="33" y1="-8.28704e-06" x2="33" y2="66" gradientUnits="userSpaceOnUse">
<stop stop-color="#D3E3FF"/>
<stop offset="1" stop-color="#B1CAF1" stop-opacity="0.15"/>
</linearGradient>
<linearGradient id="paint2_linear_7_41" x1="48.3304" y1="42.0075" x2="23.8791" y2="44.2599" gradientUnits="userSpaceOnUse">
<stop stop-color="#3F70D8"/>
<stop offset="1" stop-color="#E2EEFE"/>
</linearGradient>
<clipPath id="clip0_7_41">
<rect width="66" height="66" fill="white"/>
</clipPath>
</defs>
</svg>
