<svg width="109" height="109" viewBox="0 0 109 109" fill="none" xmlns="http://www.w3.org/2000/svg">
<g filter="url(#filter0_b_61_797)">
<rect width="109" height="109" rx="24" fill="url(#paint0_radial_61_797)" fill-opacity="0.35"/>
<rect x="0.33" y="0.33" width="108.34" height="108.34" rx="23.67" stroke="url(#paint1_linear_61_797)" stroke-opacity="0.65" stroke-width="0.66"/>
</g>
<rect x="30" y="30" width="49" height="49" rx="12.7037" fill="#F3BA2F" fill-opacity="0.12"/>
<path d="M49.0231 52.4931L54.8395 46.6366L60.659 52.4962L64.0435 49.0883L54.8395 39.8203L45.6387 49.0852L49.0231 52.4931Z" fill="#F3BA2F"/>
<path d="M46.6344 54.9235L43.25 51.5156L39.8655 54.9236L43.2498 58.3315L46.6344 54.9235Z" fill="#F3BA2F"/>
<path d="M49.0241 57.3154L54.8406 63.1719L60.6599 57.3125L64.0462 60.7185L64.0445 60.7204L54.8406 69.9882L45.6395 60.7235L45.6348 60.7187L49.0241 57.3154Z" fill="#F3BA2F"/>
<path d="M66.428 58.3374L69.8125 54.9294L66.4281 51.5216L63.0436 54.9296L66.428 58.3374Z" fill="#F3BA2F"/>
<path d="M58.2732 54.9113H58.2746L54.8403 51.4531L52.3023 54.0087H52.302L52.0106 54.3024L51.409 54.9082L51.4043 54.9129L51.409 54.9179L54.8403 58.373L58.2746 54.9149L58.2763 54.9129L58.2732 54.9113Z" fill="#F3BA2F"/>
<defs>
<filter id="filter0_b_61_797" x="-12" y="-12" width="133" height="133" filterUnits="userSpaceOnUse" color-interpolation-filters="sRGB">
<feFlood flood-opacity="0" result="BackgroundImageFix"/>
<feGaussianBlur in="BackgroundImageFix" stdDeviation="6"/>
<feComposite in2="SourceAlpha" operator="in" result="effect1_backgroundBlur_61_797"/>
<feBlend mode="normal" in="SourceGraphic" in2="effect1_backgroundBlur_61_797" result="shape"/>
</filter>
<radialGradient id="paint0_radial_61_797" cx="0" cy="0" r="1" gradientUnits="userSpaceOnUse" gradientTransform="translate(54.5 5.54736e-06) rotate(84.7625) scale(128.773 205.954)">
<stop stop-color="#70A9FF" stop-opacity="0.4"/>
<stop offset="1" stop-color="white" stop-opacity="0"/>
</radialGradient>
<linearGradient id="paint1_linear_61_797" x1="47.5539" y1="-3.3391e-06" x2="85.1087" y2="100.123" gradientUnits="userSpaceOnUse">
<stop stop-color="white" stop-opacity="0.9"/>
<stop offset="1" stop-color="white" stop-opacity="0"/>
</linearGradient>
</defs>
</svg>
