<svg width="109" height="109" viewBox="0 0 109 109" fill="none" xmlns="http://www.w3.org/2000/svg">
<g filter="url(#filter0_b_61_795)">
<rect width="109" height="109" rx="24" fill="url(#paint0_radial_61_795)" fill-opacity="0.35"/>
<rect x="0.33" y="0.33" width="108.34" height="108.34" rx="23.67" stroke="url(#paint1_linear_61_795)" stroke-opacity="0.65" stroke-width="0.66"/>
</g>
<rect x="30" y="30" width="49" height="49" rx="12.7037" fill="#F90522" fill-opacity="0.12"/>
<path d="M46.8424 62.8415C45.2044 62.8415 43.8623 62.4562 42.8162 61.6859C41.7838 60.9018 41.2676 59.7876 41.2676 58.3431C41.2676 58.0404 41.302 57.6689 41.3708 57.2287C41.5498 56.2383 41.8045 55.0483 42.1348 53.6589C43.0708 49.8759 45.4866 47.9844 49.3821 47.9844C50.442 47.9844 51.3918 48.1632 52.2315 48.5208C53.0712 48.8647 53.7319 49.3875 54.2137 50.0891C54.6954 50.7769 54.9364 51.6023 54.9364 52.5653C54.9364 52.8542 54.902 53.2187 54.8331 53.6589C54.6266 54.8832 54.3788 56.0733 54.0898 57.2287C53.608 59.1134 52.7752 60.5235 51.5914 61.4589C50.4076 62.3806 48.8247 62.8415 46.8424 62.8415ZM47.1315 59.87C47.9024 59.87 48.5562 59.6431 49.0931 59.1891C49.6437 58.7351 50.036 58.0404 50.2699 57.105C50.5865 55.8119 50.8275 54.6838 50.9927 53.7208C51.0477 53.4319 51.0752 53.1362 51.0752 52.8335C51.0752 51.5817 50.4214 50.9557 49.1138 50.9557C48.3428 50.9557 47.6821 51.1827 47.1315 51.6367C46.5947 52.0907 46.2092 52.7854 45.9753 53.7208C45.7275 54.6425 45.4797 55.7706 45.232 57.105C45.1769 57.3801 45.1493 57.6689 45.1493 57.9716C45.1493 59.2373 45.8101 59.87 47.1315 59.87Z" fill="#FE0420"/>
<path d="M56.0323 62.1662C55.885 62.1662 55.7712 62.1189 55.6909 62.0243C55.6239 61.9162 55.6039 61.7947 55.6306 61.6597L58.4022 48.4909C58.429 48.3423 58.5026 48.2207 58.6232 48.1261C58.7437 48.0317 58.8709 47.9844 59.0048 47.9844H64.3472C65.8334 47.9844 67.0251 48.295 67.9222 48.9163C68.8327 49.5377 69.288 50.4358 69.288 51.6108C69.288 51.9485 69.2478 52.2997 69.1674 52.6643C68.8327 54.2176 68.1566 55.3657 67.139 56.1085C66.1347 56.8514 64.7556 57.2228 63.0015 57.2228H60.2902L59.3663 61.6597C59.3395 61.8082 59.2658 61.9297 59.1454 62.0243C59.0249 62.1189 58.8976 62.1662 58.7638 62.1662H56.0323ZM63.1422 54.4269C63.7045 54.4269 64.1932 54.2716 64.6083 53.9609C65.0368 53.6503 65.3179 53.2046 65.4518 52.6238C65.492 52.3942 65.5121 52.1916 65.5121 52.016C65.5121 51.6243 65.3983 51.3272 65.1707 51.1246C64.943 50.9085 64.5548 50.8005 64.0058 50.8005H61.5956L60.8324 54.4269H63.1422Z" fill="#FE0420"/>
<defs>
<filter id="filter0_b_61_795" x="-12" y="-12" width="133" height="133" filterUnits="userSpaceOnUse" color-interpolation-filters="sRGB">
<feFlood flood-opacity="0" result="BackgroundImageFix"/>
<feGaussianBlur in="BackgroundImageFix" stdDeviation="6"/>
<feComposite in2="SourceAlpha" operator="in" result="effect1_backgroundBlur_61_795"/>
<feBlend mode="normal" in="SourceGraphic" in2="effect1_backgroundBlur_61_795" result="shape"/>
</filter>
<radialGradient id="paint0_radial_61_795" cx="0" cy="0" r="1" gradientUnits="userSpaceOnUse" gradientTransform="translate(54.5 5.54736e-06) rotate(84.7625) scale(128.773 205.954)">
<stop stop-color="#70A9FF" stop-opacity="0.4"/>
<stop offset="1" stop-color="white" stop-opacity="0"/>
</radialGradient>
<linearGradient id="paint1_linear_61_795" x1="47.5539" y1="-3.3391e-06" x2="85.1087" y2="100.123" gradientUnits="userSpaceOnUse">
<stop stop-color="white" stop-opacity="0.9"/>
<stop offset="1" stop-color="white" stop-opacity="0"/>
</linearGradient>
</defs>
</svg>
