<svg width="109" height="109" viewBox="0 0 109 109" fill="none" xmlns="http://www.w3.org/2000/svg">
<g filter="url(#filter0_b_61_779)">
<rect width="109" height="109" rx="24" transform="matrix(-1 0 0 1 109 0)" fill="url(#paint0_radial_61_779)" fill-opacity="0.35"/>
<rect x="-0.33" y="0.33" width="108.34" height="108.34" rx="23.67" transform="matrix(-1 0 0 1 108.34 0)" stroke="url(#paint1_linear_61_779)" stroke-opacity="0.65" stroke-width="0.66"/>
</g>
<rect width="49" height="49" rx="12.7037" transform="matrix(-1 0 0 1 79 30)" fill="#CCFF00" fill-opacity="0.08"/>
<path d="M50.267 55.2505C49.7926 55.2505 49.392 54.9033 49.3121 54.4235L46.6117 38.1583C46.5681 37.896 46.6268 37.6337 46.7774 37.4177C46.928 37.2017 47.1509 37.0582 47.4054 37.0135C47.9326 36.9224 48.4341 37.2866 48.5245 37.8266L51.2249 54.0918C51.2685 54.3541 51.2098 54.6164 51.0592 54.8323C50.9086 55.0483 50.6857 55.1918 50.4312 55.2366C50.3785 55.2458 50.3227 55.2505 50.267 55.2505Z" fill="#CCFF00"/>
<path d="M50.267 55.2505C49.7926 55.2505 49.392 54.9033 49.3121 54.4235L46.6117 38.1583C46.5681 37.896 46.6268 37.6337 46.7774 37.4177C46.928 37.2017 47.1509 37.0582 47.4054 37.0135C47.9326 36.9224 48.4341 37.2866 48.5245 37.8266L51.2249 54.0918C51.2685 54.3541 51.2098 54.6164 51.0592 54.8323C50.9086 55.0483 50.6857 55.1918 50.4312 55.2366C50.3785 55.2458 50.3227 55.2505 50.267 55.2505Z" fill="#CCFF00"/>
<path d="M54.7908 47.7471C53.2471 47.7471 51.8118 48.2207 50.6114 49.0338L50.9383 51.0026C51.9699 50.0814 53.3179 49.5214 54.7908 49.5214C58.0304 49.5214 60.6661 52.2215 60.6661 55.5402C60.6661 58.859 58.0304 61.559 54.7908 61.559C51.5512 61.559 48.9156 58.859 48.9156 55.5402C48.9156 55.0974 48.9638 54.6669 49.0526 54.2519L48.5315 51.1183C47.6821 52.3757 47.1836 53.9001 47.1836 55.5417C47.1836 59.8386 50.5964 63.3348 54.7908 63.3348C58.9852 63.3348 62.398 59.8386 62.398 55.5417C62.398 51.2447 58.9868 47.7471 54.7908 47.7471Z" fill="#CCFF00"/>
<path d="M54.376 60.0895C54.9483 60.0895 55.4121 59.6142 55.4121 59.0279C55.4121 58.4416 54.9483 57.9664 54.376 57.9664C53.8037 57.9664 53.3398 58.4416 53.3398 59.0279C53.3398 59.6142 53.8037 60.0895 54.376 60.0895Z" fill="#1CD8D2"/>
<path d="M57.6123 58.8548C58.1846 58.8548 58.6486 58.3797 58.6486 57.7934C58.6486 57.2071 58.1846 56.7318 57.6123 56.7318C57.0401 56.7318 56.5762 57.2071 56.5762 57.7934C56.5762 58.3797 57.0401 58.8548 57.6123 58.8548Z" fill="#1CD8D2"/>
<path d="M55.0693 56.5779C55.6416 56.5779 56.1056 56.1026 56.1056 55.5163C56.1056 54.9301 55.6416 54.4548 55.0693 54.4548C54.497 54.4548 54.0332 54.9301 54.0332 55.5163C54.0332 56.1026 54.497 56.5779 55.0693 56.5779Z" fill="#1CD8D2"/>
<path d="M51.8526 57.6615C52.4249 57.6615 52.8888 57.1862 52.8888 56.6C52.8888 56.0137 52.4249 55.5385 51.8526 55.5385C51.2803 55.5385 50.8164 56.0137 50.8164 56.6C50.8164 57.1862 51.2803 57.6615 51.8526 57.6615Z" fill="#1CD8D2"/>
<path d="M58.2744 55.494C58.8467 55.494 59.3107 55.0188 59.3107 54.4326C59.3107 53.8463 58.8467 53.3711 58.2744 53.3711C57.7022 53.3711 57.2383 53.8463 57.2383 54.4326C57.2383 55.0188 57.7022 55.494 58.2744 55.494Z" fill="#1CD8D2"/>
<path d="M55.7609 53.0661C56.3331 53.0661 56.797 52.5909 56.797 52.0047C56.797 51.4184 56.3331 50.9431 55.7609 50.9431C55.1886 50.9431 54.7246 51.4184 54.7246 52.0047C54.7246 52.5909 55.1886 53.0661 55.7609 53.0661Z" fill="#1CD8D2"/>
<path d="M52.5127 54.3008C53.085 54.3008 53.5489 53.8255 53.5489 53.2392C53.5489 52.6529 53.085 52.1777 52.5127 52.1777C51.9405 52.1777 51.4766 52.6529 51.4766 53.2392C51.4766 53.8255 51.9405 54.3008 52.5127 54.3008Z" fill="#1CD8D2"/>
<defs>
<filter id="filter0_b_61_779" x="-12" y="-12" width="133" height="133" filterUnits="userSpaceOnUse" color-interpolation-filters="sRGB">
<feFlood flood-opacity="0" result="BackgroundImageFix"/>
<feGaussianBlur in="BackgroundImageFix" stdDeviation="6"/>
<feComposite in2="SourceAlpha" operator="in" result="effect1_backgroundBlur_61_779"/>
<feBlend mode="normal" in="SourceGraphic" in2="effect1_backgroundBlur_61_779" result="shape"/>
</filter>
<radialGradient id="paint0_radial_61_779" cx="0" cy="0" r="1" gradientUnits="userSpaceOnUse" gradientTransform="translate(54.5 5.54736e-06) rotate(84.7625) scale(128.773 205.954)">
<stop stop-color="#70A9FF" stop-opacity="0.4"/>
<stop offset="1" stop-color="white" stop-opacity="0"/>
</radialGradient>
<linearGradient id="paint1_linear_61_779" x1="47.5539" y1="-3.3391e-06" x2="85.1087" y2="100.123" gradientUnits="userSpaceOnUse">
<stop stop-color="white" stop-opacity="0.9"/>
<stop offset="1" stop-color="white" stop-opacity="0"/>
</linearGradient>
</defs>
</svg>
