<svg width="110" height="116" viewBox="0 0 110 116" fill="none" xmlns="http://www.w3.org/2000/svg">
<g filter="url(#filter0_b_1_1210)">
<rect width="110" height="109" rx="24" transform="matrix(-1 0 0 1 110 7)" fill="url(#paint0_radial_1_1210)" fill-opacity="0.35"/>
<rect x="-0.5" y="0.5" width="109" height="108" rx="23.5" transform="matrix(-1 0 0 1 109 7)" stroke="url(#paint1_linear_1_1210)" stroke-opacity="0.4"/>
</g>
<rect width="49" height="49" rx="12.7037" transform="matrix(-1 0 0 1 80 37)" fill="#11A97D" fill-opacity="0.12"/>
<path d="M63.6847 49.055C63.0233 48.9447 62.3459 49.0079 61.7142 49.2388C61.0824 49.4697 60.5168 49.861 60.0688 50.3769C59.215 51.3633 58.9496 52.6498 59.1547 53.9373C59.3407 55.0998 59.5871 56.2791 59.6423 57.3978C59.7198 59.0837 59.4712 60.7689 58.9114 62.3541C58.4046 63.7884 57.6826 64.9009 56.1361 65.1467C56.0214 65.1656 55.6041 65.1791 55.4855 65.1864C55.2818 65.1866 55.0784 65.1741 54.8761 65.1489C53.3296 64.902 52.6016 63.7895 52.0968 62.3467C51.5368 60.7612 51.2883 59.0758 51.3657 57.3894C51.421 56.2748 51.6675 55.0946 51.8524 53.93C52.0575 52.6415 51.7921 51.356 50.9394 50.3675C50.4903 49.8515 49.923 49.4609 49.2899 49.2317C48.6566 49.0025 47.978 48.9421 47.3164 49.056C45.3325 49.3883 44.0122 51.2071 44.0001 53.1144C43.9948 53.8492 44.1881 54.5709 44.5582 55.1977C45.1756 56.2498 46.1882 57.0155 47.0721 57.8123C47.6573 58.3436 48.6699 59.8541 49.1657 61.4916C49.4662 62.4833 49.7106 63.4873 49.9529 64.502C50.2928 65.9156 50.7614 69.0375 51.0691 70.4541C51.6836 73.2917 53.5659 73.9344 55.4513 74H55.5177C57.4031 73.9344 59.3156 73.2906 59.9309 70.4531C60.2377 69.0364 60.7042 65.9125 61.0472 64.5009C61.2905 63.4916 61.5339 62.4822 61.8344 61.4905C62.3303 59.853 63.3427 58.3373 63.9269 57.8103C64.8118 57.0123 65.8235 56.2478 66.4408 55.1957C66.8113 54.5689 67.005 53.8472 66.9999 53.1123C66.9899 51.2019 65.6726 49.3831 63.6847 49.055Z" fill="url(#paint2_linear_1_1210)"/>
<rect x="39" width="32" height="14" rx="3" fill="white"/>
<rect x="39" width="32" height="14" rx="3" fill="#D0D1D5"/>
<rect x="39" width="32" height="14" rx="3" fill="url(#paint3_linear_1_1210)"/>
<path d="M48.8633 3V11H47.5742L43.8047 5.55078H43.7383V11H42.2891V3H43.5859L47.3516 8.45312H47.4219V3H48.8633ZM50.7724 11V3H55.9755V4.21484H52.2216V6.38672H55.706V7.60156H52.2216V9.78516H56.0068V11H50.7724ZM59.4676 11L57.2098 3H58.7684L60.2098 8.87891H60.284L61.8231 3H63.2411L64.784 8.88281H64.8543L66.2957 3H67.8543L65.5965 11H64.1668L62.5653 5.38672H62.5028L60.8973 11H59.4676Z" fill="white"/>
<defs>
<filter id="filter0_b_1_1210" x="-12" y="-5" width="134" height="133" filterUnits="userSpaceOnUse" color-interpolation-filters="sRGB">
<feFlood flood-opacity="0" result="BackgroundImageFix"/>
<feGaussianBlur in="BackgroundImageFix" stdDeviation="6"/>
<feComposite in2="SourceAlpha" operator="in" result="effect1_backgroundBlur_1_1210"/>
<feBlend mode="normal" in="SourceGraphic" in2="effect1_backgroundBlur_1_1210" result="shape"/>
</filter>
<radialGradient id="paint0_radial_1_1210" cx="0" cy="0" r="1" gradientUnits="userSpaceOnUse" gradientTransform="translate(55 5.54736e-06) rotate(84.7147) scale(128.783 207.827)">
<stop stop-color="#70A9FF" stop-opacity="0.4"/>
<stop offset="1" stop-color="white" stop-opacity="0"/>
</radialGradient>
<linearGradient id="paint1_linear_1_1210" x1="47.9902" y1="-3.3391e-06" x2="85.2868" y2="100.347" gradientUnits="userSpaceOnUse">
<stop stop-color="white" stop-opacity="0.9"/>
<stop offset="1" stop-color="white" stop-opacity="0"/>
</linearGradient>
<linearGradient id="paint2_linear_1_1210" x1="46.3" y1="51.3437" x2="60.4785" y2="73.7606" gradientUnits="userSpaceOnUse">
<stop stop-color="#11A97D"/>
<stop offset="1" stop-color="#326CAB"/>
</linearGradient>
<linearGradient id="paint3_linear_1_1210" x1="39" y1="6.94833" x2="60.7524" y2="15.5782" gradientUnits="userSpaceOnUse">
<stop offset="0.174411" stop-color="#18AB88"/>
<stop offset="1" stop-color="#3174B5"/>
</linearGradient>
</defs>
</svg>
