<svg width="109" height="109" viewBox="0 0 109 109" fill="none" xmlns="http://www.w3.org/2000/svg">
<g filter="url(#filter0_b_61_782)">
<rect width="109" height="109" rx="24" transform="matrix(-1 0 0 1 109 0)" fill="url(#paint0_radial_61_782)" fill-opacity="0.35"/>
<rect x="-0.33" y="0.33" width="108.34" height="108.34" rx="23.67" transform="matrix(-1 0 0 1 108.34 0)" stroke="url(#paint1_linear_61_782)" stroke-opacity="0.65" stroke-width="0.66"/>
</g>
<rect width="49" height="49" rx="12.7037" transform="matrix(-1 0 0 1 79 30)" fill="#ED4E33" fill-opacity="0.12"/>
<path d="M54.4943 39.9995C62.5061 39.9995 69 46.4921 69 54.5024C69 62.5126 62.5061 68.9995 54.5 68.9995C46.4882 68.9995 40 62.5069 40 54.5024C39.9943 46.4921 46.4882 39.9995 54.4943 39.9995Z" fill="#ED4E33"/>
<path d="M52.7797 49.3996C49.3232 50.6831 49.0066 53.9703 48.0155 55.5054C47.0126 57.0588 44.7151 57.9159 45.0293 58.7076C45.3434 59.4992 47.6437 58.6489 49.4635 59.1541C51.2618 59.6531 53.7708 61.8912 57.2274 60.6077C58.9882 59.9539 60.2632 58.608 60.8496 57.014C60.9126 56.8428 60.7947 56.6599 60.6077 56.643C60.4914 56.6324 60.3798 56.6913 60.3274 56.7922C59.797 57.814 58.8872 58.6555 57.6966 59.0976C55.731 59.8274 53.5803 59.2544 52.2595 57.8172C51.9595 57.4908 51.7029 57.1193 51.5004 56.7087C51.4447 56.5957 51.3917 56.4808 51.3448 56.362C51.2975 56.2432 51.2574 56.1236 51.2206 56.0034C52.2595 55.535 53.4583 55.0389 54.8174 54.5343C56.15 54.0394 57.3627 53.6381 58.4426 53.317C59.173 53.1 59.8426 52.9193 60.4472 52.7717C60.4909 52.7612 60.534 52.7506 60.5769 52.7403C60.6683 52.7184 60.7622 52.7657 60.7961 52.8507L60.7966 52.8523C60.8165 52.9027 60.8337 52.9534 60.8523 53.0041C60.9718 53.3313 61.0614 53.6619 61.1206 53.9932C61.1465 54.1382 61.3103 54.2171 61.4446 54.1474C61.9409 53.8897 62.3948 53.6384 62.8004 53.3965C64.3118 52.4961 65.1498 51.7324 64.9778 51.2997C64.8059 50.8669 63.6553 50.8418 61.9092 51.1507C61.3543 51.249 60.739 51.381 60.076 51.5444C59.9613 51.5727 59.8453 51.602 59.728 51.6321C59.17 51.7752 58.5815 51.9392 57.9687 52.1227C56.8291 52.4641 55.6065 52.8731 54.3443 53.3418C53.1635 53.7804 52.0444 54.2351 51.018 54.6882C51.0055 52.7651 52.2073 50.9472 54.1729 50.2173C55.3633 49.7753 56.6217 49.8115 57.7228 50.2279C57.8314 50.2691 57.9551 50.2406 58.0345 50.1574C58.1617 50.0238 58.1227 49.8118 57.9575 49.7251C56.4191 48.9206 54.5406 48.7458 52.7797 49.3996Z" fill="white"/>
<defs>
<filter id="filter0_b_61_782" x="-12" y="-12" width="133" height="133" filterUnits="userSpaceOnUse" color-interpolation-filters="sRGB">
<feFlood flood-opacity="0" result="BackgroundImageFix"/>
<feGaussianBlur in="BackgroundImageFix" stdDeviation="6"/>
<feComposite in2="SourceAlpha" operator="in" result="effect1_backgroundBlur_61_782"/>
<feBlend mode="normal" in="SourceGraphic" in2="effect1_backgroundBlur_61_782" result="shape"/>
</filter>
<radialGradient id="paint0_radial_61_782" cx="0" cy="0" r="1" gradientUnits="userSpaceOnUse" gradientTransform="translate(54.5 5.54736e-06) rotate(84.7625) scale(128.773 205.954)">
<stop stop-color="#70A9FF" stop-opacity="0.4"/>
<stop offset="1" stop-color="white" stop-opacity="0"/>
</radialGradient>
<linearGradient id="paint1_linear_61_782" x1="47.5539" y1="-3.3391e-06" x2="85.1087" y2="100.123" gradientUnits="userSpaceOnUse">
<stop stop-color="white" stop-opacity="0.9"/>
<stop offset="1" stop-color="white" stop-opacity="0"/>
</linearGradient>
</defs>
</svg>
