<svg width="307" height="307" viewBox="0 0 307 307" fill="none" xmlns="http://www.w3.org/2000/svg">
<g filter="url(#filter0_b_1806_41724)">
<path d="M132.005 33.0012C132.005 35.9176 129.549 38.3735 126.633 38.3735H109.288C76.1331 38.3735 49.1181 65.3885 49.1181 98.5432V240.218C49.1181 243.135 46.6622 245.591 43.7458 245.591H33.0012C14.7354 245.591 0 230.855 0 212.589V33.0012C0 14.7354 14.7354 0 33.0012 0H99.0037C117.27 0 132.005 14.7354 132.005 33.0012Z" fill="url(#paint0_radial_1806_41724)"/>
<path d="M306.994 33.0012V212.589C306.994 230.855 292.259 245.591 273.993 245.591H264.323C261.406 245.591 258.951 243.135 258.951 240.218V98.5432C258.951 65.3885 231.936 38.3735 198.781 38.3735H180.362C177.445 38.3735 174.989 35.9176 174.989 33.0012C174.989 14.7354 189.725 0 207.991 0H273.993C292.259 0 306.994 14.7354 306.994 33.0012Z" fill="url(#paint1_radial_1806_41724)"/>
<path d="M198.763 61.3976H109.276C88.7076 61.3976 72.1302 77.975 72.1302 98.5432V269.843C72.1302 290.411 88.7076 306.988 109.276 306.988H134.295C138.593 306.988 141.97 303.611 141.97 299.314V260.94C141.97 254.647 147.189 249.428 153.482 249.428C159.775 249.428 164.994 254.647 164.994 260.94V299.314C164.994 303.611 168.371 306.988 172.669 306.988H198.916C219.331 306.988 235.909 290.411 235.909 269.996V98.5432C235.909 77.975 219.331 61.3976 198.763 61.3976ZM184.181 195.705H122.783C116.49 195.705 111.271 190.486 111.271 184.193C111.271 177.9 116.49 172.681 122.783 172.681H184.181C190.474 172.681 195.693 177.9 195.693 184.193C195.693 190.486 190.474 195.705 184.181 195.705ZM184.181 149.657H122.783C116.49 149.657 111.271 144.438 111.271 138.145C111.271 131.851 116.49 126.633 122.783 126.633H184.181C190.474 126.633 195.693 131.851 195.693 138.145C195.693 144.438 190.474 149.657 184.181 149.657Z" fill="url(#paint2_radial_1806_41724)"/>
<path d="M131.505 33.0012C131.505 35.6415 129.273 37.8735 126.633 37.8735H109.288C75.8569 37.8735 48.6181 65.1124 48.6181 98.5432V240.218C48.6181 242.859 46.3861 245.091 43.7458 245.091H33.0012C15.0116 245.091 0.5 230.579 0.5 212.589V33.0012C0.5 15.0116 15.0116 0.5 33.0012 0.5H99.0037C116.993 0.5 131.505 15.0116 131.505 33.0012ZM306.494 33.0012V212.589C306.494 230.579 291.983 245.091 273.993 245.091H264.323C261.683 245.091 259.451 242.859 259.451 240.218V98.5432C259.451 65.1124 232.212 37.8735 198.781 37.8735H180.362C177.721 37.8735 175.489 35.6415 175.489 33.0012C175.489 15.0116 190.001 0.5 207.991 0.5H273.993C291.983 0.5 306.494 15.0116 306.494 33.0012ZM109.276 61.8976H198.763C219.055 61.8976 235.409 78.2512 235.409 98.5432V269.996C235.409 290.135 219.055 306.488 198.916 306.488H172.669C168.647 306.488 165.494 303.335 165.494 299.314V260.94C165.494 254.371 160.052 248.928 153.482 248.928C146.913 248.928 141.47 254.371 141.47 260.94V299.314C141.47 303.335 138.317 306.488 134.295 306.488H109.276C88.9838 306.488 72.6302 290.135 72.6302 269.843V98.5432C72.6302 78.2512 88.9838 61.8976 109.276 61.8976ZM122.783 196.205H184.181C190.75 196.205 196.193 190.762 196.193 184.193C196.193 177.624 190.75 172.181 184.181 172.181H122.783C116.214 172.181 110.771 177.624 110.771 184.193C110.771 190.762 116.214 196.205 122.783 196.205ZM122.783 150.157H184.181C190.75 150.157 196.193 144.714 196.193 138.145C196.193 131.575 190.75 126.133 184.181 126.133H122.783C116.214 126.133 110.771 131.575 110.771 138.145C110.771 144.714 116.214 150.157 122.783 150.157Z" stroke="url(#paint3_linear_1806_41724)" stroke-opacity="0.65"/>
</g>
<defs>
<filter id="filter0_b_1806_41724" x="-38.2344" y="-38.2344" width="383.463" height="383.457" filterUnits="userSpaceOnUse" color-interpolation-filters="sRGB">
<feFlood flood-opacity="0" result="BackgroundImageFix"/>
<feGaussianBlur in="BackgroundImageFix" stdDeviation="19.1172"/>
<feComposite in2="SourceAlpha" operator="in" result="effect1_backgroundBlur_1806_41724"/>
<feBlend mode="normal" in="SourceGraphic" in2="effect1_backgroundBlur_1806_41724" result="shape"/>
</filter>
<radialGradient id="paint0_radial_1806_41724" cx="0" cy="0" r="1" gradientUnits="userSpaceOnUse" gradientTransform="translate(87.9801 306.988) rotate(-71.7746) scale(323.202 516.924)">
<stop stop-color="#679FFA" stop-opacity="0.85"/>
<stop offset="1" stop-color="#679FFA" stop-opacity="0"/>
</radialGradient>
<radialGradient id="paint1_radial_1806_41724" cx="0" cy="0" r="1" gradientUnits="userSpaceOnUse" gradientTransform="translate(87.9801 306.988) rotate(-71.7746) scale(323.202 516.924)">
<stop stop-color="#679FFA" stop-opacity="0.85"/>
<stop offset="1" stop-color="#679FFA" stop-opacity="0"/>
</radialGradient>
<radialGradient id="paint2_radial_1806_41724" cx="0" cy="0" r="1" gradientUnits="userSpaceOnUse" gradientTransform="translate(87.9801 306.988) rotate(-71.7746) scale(323.202 516.924)">
<stop stop-color="#679FFA" stop-opacity="0.85"/>
<stop offset="1" stop-color="#679FFA" stop-opacity="0"/>
</radialGradient>
<linearGradient id="paint3_linear_1806_41724" x1="-9.28409" y1="-10.9364" x2="365.399" y2="163.607" gradientUnits="userSpaceOnUse">
<stop stop-color="#3C3D69"/>
<stop offset="1" stop-color="#2C2D54" stop-opacity="0"/>
</linearGradient>
</defs>
</svg>
