<svg width="44" height="43" viewBox="0 0 44 43" fill="none" xmlns="http://www.w3.org/2000/svg">
<path fill-rule="evenodd" clip-rule="evenodd" d="M20.918 4.69408L19.1263 6.4857C18.9311 6.68097 18.6145 6.68097 18.4192 6.4857L17.1464 5.21291C16.9512 5.01765 16.9512 4.70107 17.1464 4.50581L21.1842 0.468008C21.8091 -0.156834 22.8221 -0.156828 23.447 0.468008L27.4855 4.50657C27.6808 4.70183 27.6808 5.01841 27.4855 5.21367L26.2128 6.48647C26.0175 6.68173 25.7009 6.68173 25.5056 6.48647L23.718 4.69879L23.718 12.6797L20.918 12.6797L20.918 4.69408Z" fill="url(#paint0_linear_1_9410)"/>
<path fill-rule="evenodd" clip-rule="evenodd" d="M8.06949 34.3992L10.6015 34.3992C10.8777 34.3992 11.1015 34.623 11.1015 34.8992L11.1015 36.6992C11.1015 36.9753 10.8777 37.1992 10.6015 37.1992L4.89122 37.1992C4.00756 37.1992 3.29122 36.4828 3.29122 35.5992V29.8878C3.29122 29.6117 3.51508 29.3878 3.79122 29.3878L5.59122 29.3878C5.86736 29.3878 6.09122 29.6117 6.09122 29.8878L6.09122 32.4177L15.7388 22.7701L17.7187 24.75L8.06949 34.3992Z" fill="url(#paint1_linear_1_9410)"/>
<path fill-rule="evenodd" clip-rule="evenodd" d="M35.4188 34.3992L32.8868 34.3992C32.6106 34.3992 32.3868 34.623 32.3868 34.8992L32.3868 36.6992C32.3868 36.9753 32.6106 37.1992 32.8868 37.1992L38.5971 37.1992C39.4807 37.1992 40.1971 36.4828 40.1971 35.5992V29.8878C40.1971 29.6117 39.9732 29.3878 39.6971 29.3878L37.8971 29.3878C37.6209 29.3878 37.3971 29.6117 37.3971 29.8878L37.3971 32.4177L27.7495 22.7701L25.7696 24.75L35.4188 34.3992Z" fill="url(#paint2_linear_1_9410)"/>
<g filter="url(#filter0_bi_1_9410)">
<mask id="path-4-inside-1_1_9410" fill="white">
<path fill-rule="evenodd" clip-rule="evenodd" d="M32.943 16.4246L22.6764 22.3713C22.263 22.6113 21.743 22.6113 21.3164 22.3713L11.0497 16.4246C10.3164 15.998 10.1297 14.998 10.6897 14.3713C11.0764 13.9313 11.5164 13.5713 11.983 13.318L19.2097 9.31797C20.7564 8.4513 23.263 8.4513 24.8097 9.31797L32.0364 13.318C32.503 13.5713 32.943 13.9446 33.3297 14.3713C33.863 14.998 33.6764 15.998 32.943 16.4246ZM21.2393 24.8506V33.9439C21.2393 34.9572 20.2127 35.6239 19.306 35.1839C16.5593 33.8372 11.9327 31.3172 11.9327 31.3172C10.306 30.3972 8.97266 28.0772 8.97266 26.1706V19.2906C8.97266 18.2372 10.0793 17.5706 10.986 18.0906L20.5727 23.6506C20.9727 23.9039 21.2393 24.3572 21.2393 24.8506ZM22.7578 33.9439V24.8506C22.7578 24.3572 23.0245 23.9039 23.4245 23.6506L33.0111 18.0906C33.9178 17.5706 35.0245 18.2372 35.0245 19.2906V26.1706C35.0245 28.0772 33.6911 30.3972 32.0645 31.3172C32.0645 31.3172 27.4378 33.8372 24.6911 35.1839C23.7845 35.6239 22.7578 34.9572 22.7578 33.9439Z"/>
</mask>
<path fill-rule="evenodd" clip-rule="evenodd" d="M32.943 16.4246L22.6764 22.3713C22.263 22.6113 21.743 22.6113 21.3164 22.3713L11.0497 16.4246C10.3164 15.998 10.1297 14.998 10.6897 14.3713C11.0764 13.9313 11.5164 13.5713 11.983 13.318L19.2097 9.31797C20.7564 8.4513 23.263 8.4513 24.8097 9.31797L32.0364 13.318C32.503 13.5713 32.943 13.9446 33.3297 14.3713C33.863 14.998 33.6764 15.998 32.943 16.4246ZM21.2393 24.8506V33.9439C21.2393 34.9572 20.2127 35.6239 19.306 35.1839C16.5593 33.8372 11.9327 31.3172 11.9327 31.3172C10.306 30.3972 8.97266 28.0772 8.97266 26.1706V19.2906C8.97266 18.2372 10.0793 17.5706 10.986 18.0906L20.5727 23.6506C20.9727 23.9039 21.2393 24.3572 21.2393 24.8506ZM22.7578 33.9439V24.8506C22.7578 24.3572 23.0245 23.9039 23.4245 23.6506L33.0111 18.0906C33.9178 17.5706 35.0245 18.2372 35.0245 19.2906V26.1706C35.0245 28.0772 33.6911 30.3972 32.0645 31.3172C32.0645 31.3172 27.4378 33.8372 24.6911 35.1839C23.7845 35.6239 22.7578 34.9572 22.7578 33.9439Z" fill="#0B2268"/>
<path d="M22.6764 22.3713L22.4421 21.9668L22.4416 21.967L22.6764 22.3713ZM32.943 16.4246L33.1773 16.8291L33.1781 16.8287L32.943 16.4246ZM21.3164 22.3713L21.0821 22.7758L21.0872 22.7787L21.3164 22.3713ZM11.0497 16.4246L10.8146 16.8287L10.8154 16.8291L11.0497 16.4246ZM10.6897 14.3713L11.0383 14.6828L11.0409 14.6799L10.6897 14.3713ZM11.983 13.318L12.2061 13.7288L12.2094 13.727L11.983 13.318ZM19.2097 9.31797L19.4361 9.72697L19.4382 9.72578L19.2097 9.31797ZM24.8097 9.31797L24.5812 9.72578L24.5833 9.72696L24.8097 9.31797ZM32.0364 13.318L31.81 13.727L31.8134 13.7288L32.0364 13.318ZM33.3297 14.3713L33.6857 14.0683L33.681 14.0628L33.6761 14.0574L33.3297 14.3713ZM19.306 35.1839L19.1002 35.6036L19.1019 35.6045L19.306 35.1839ZM11.9327 31.3172L11.7025 31.7242L11.7091 31.7278L11.9327 31.3172ZM10.986 18.0906L11.2205 17.6862L11.2186 17.6851L10.986 18.0906ZM20.5727 23.6506L20.8228 23.2556L20.8151 23.2508L20.8072 23.2462L20.5727 23.6506ZM23.4245 23.6506L23.19 23.2462L23.1821 23.2508L23.1744 23.2556L23.4245 23.6506ZM33.0111 18.0906L32.7786 17.6851L32.7766 17.6862L33.0111 18.0906ZM32.0645 31.3172L32.2881 31.7278L32.2946 31.7241L32.0645 31.3172ZM24.6911 35.1839L24.8952 35.6045L24.8969 35.6036L24.6911 35.1839ZM22.9107 22.7758L33.1773 16.8291L32.7087 16.0201L22.4421 21.9668L22.9107 22.7758ZM21.0872 22.7787C21.6539 23.0975 22.3504 23.1011 22.9111 22.7756L22.4416 21.967C22.1757 22.1215 21.8322 22.1251 21.5456 21.9639L21.0872 22.7787ZM10.8154 16.8291L21.0821 22.7758L21.5507 21.9668L11.284 16.0201L10.8154 16.8291ZM10.3411 14.0598C9.571 14.9216 9.84258 16.2631 10.8146 16.8287L11.2848 16.0206C10.7902 15.7328 10.6884 15.0743 11.0383 14.6828L10.3411 14.0598ZM11.76 12.9071C11.2393 13.1898 10.7571 13.5865 10.3386 14.0627L11.0409 14.6799C11.3957 14.2761 11.7935 13.9528 12.2061 13.7288L11.76 12.9071ZM18.9833 8.90897L11.7567 12.909L12.2094 13.727L19.4361 9.72696L18.9833 8.90897ZM25.0382 8.91016C24.1783 8.42828 23.0813 8.2005 22.0097 8.2005C20.9382 8.2005 19.8412 8.42828 18.9812 8.91016L19.4382 9.72578C20.1249 9.34099 21.0546 9.13543 22.0097 9.13543C22.9648 9.13543 23.8945 9.34099 24.5812 9.72578L25.0382 8.91016ZM32.2628 12.909L25.0361 8.90897L24.5833 9.72696L31.81 13.727L32.2628 12.909ZM33.6761 14.0574C33.2644 13.603 32.7841 13.192 32.2594 12.9071L31.8134 13.7288C32.222 13.9506 32.6217 14.2862 32.9833 14.6852L33.6761 14.0574ZM33.1781 16.8287C34.1495 16.2635 34.418 14.9288 33.6857 14.0683L32.9737 14.6743C33.3081 15.0671 33.2032 15.7324 32.708 16.0206L33.1781 16.8287ZM21.7068 33.9439V24.8506H20.7719V33.9439H21.7068ZM19.1019 35.6045C20.3324 36.2016 21.7068 35.2873 21.7068 33.9439H20.7719C20.7719 34.6272 20.0929 35.0462 19.5101 34.7633L19.1019 35.6045ZM11.9327 31.3172C11.7091 31.7278 11.7091 31.7278 11.7091 31.7278C11.7092 31.7278 11.7092 31.7278 11.7093 31.7279C11.7094 31.728 11.7097 31.7281 11.7099 31.7282C11.7105 31.7286 11.7114 31.729 11.7125 31.7296C11.7148 31.7309 11.7181 31.7327 11.7226 31.7351C11.7315 31.74 11.7447 31.7471 11.762 31.7566C11.7967 31.7754 11.8479 31.8032 11.9139 31.8391C12.0461 31.9107 12.2378 32.0146 12.4764 32.1434C12.9537 32.401 13.6187 32.7585 14.3697 33.1582C15.8701 33.9568 17.7194 34.9266 19.1002 35.6036L19.5118 34.7642C18.146 34.0945 16.3085 33.131 14.8089 32.3329C14.0599 31.9343 13.3966 31.5776 12.9205 31.3207C12.6825 31.1922 12.4913 31.0886 12.3597 31.0172C12.2939 30.9815 12.243 30.9539 12.2085 30.9352C12.1913 30.9258 12.1782 30.9187 12.1694 30.9139C12.1651 30.9115 12.1617 30.9097 12.1595 30.9085C12.1584 30.9079 12.1576 30.9075 12.1571 30.9072C12.1568 30.907 12.1566 30.9069 12.1564 30.9068C12.1564 30.9068 12.1563 30.9068 12.1563 30.9067C12.1563 30.9067 12.1563 30.9067 11.9327 31.3172ZM8.50519 26.1706C8.50519 27.2247 8.87063 28.3612 9.43741 29.3469C10.0039 30.332 10.7979 31.2125 11.7025 31.7241L12.1628 30.9103C11.4407 30.502 10.7548 29.7624 10.2479 28.8809C9.74135 27.9999 9.44012 27.0231 9.44012 26.1706H8.50519ZM8.50519 19.2906V26.1706H9.44012V19.2906H8.50519ZM11.2186 17.6851C9.98507 16.9776 8.50519 17.8956 8.50519 19.2906H9.44012C9.44012 18.5789 10.1736 18.1635 10.7534 18.4961L11.2186 17.6851ZM20.8072 23.2462L11.2205 17.6862L10.7515 18.4949L20.3381 24.0549L20.8072 23.2462ZM21.7068 24.8506C21.7068 24.1894 21.3515 23.5905 20.8228 23.2556L20.3225 24.0455C20.5938 24.2173 20.7719 24.525 20.7719 24.8506H21.7068ZM22.2903 24.8506V33.9439H23.2253V24.8506H22.2903ZM23.1744 23.2556C22.6456 23.5905 22.2903 24.1894 22.2903 24.8506H23.2253C23.2253 24.525 23.4034 24.2173 23.6746 24.0455L23.1744 23.2556ZM32.7766 17.6862L23.19 23.2462L23.659 24.0549L33.2457 18.4949L32.7766 17.6862ZM35.4919 19.2906C35.4919 17.8956 34.0121 16.9776 32.7786 17.6851L33.2437 18.4961C33.8236 18.1635 34.557 18.5789 34.557 19.2906H35.4919ZM35.4919 26.1706V19.2906H34.557V26.1706H35.4919ZM32.2946 31.7241C33.1992 31.2125 33.9933 30.332 34.5597 29.3469C35.1265 28.3612 35.4919 27.2247 35.4919 26.1706H34.557C34.557 27.0231 34.2558 27.9999 33.7492 28.8809C33.2423 29.7624 32.5564 30.502 31.8343 30.9103L32.2946 31.7241ZM24.8969 35.6036C26.2778 34.9266 28.127 33.9568 29.6274 33.1582C30.3784 32.7585 31.0434 32.401 31.5207 32.1434C31.7593 32.0146 31.9511 31.9107 32.0832 31.8391C32.1493 31.8032 32.2004 31.7754 32.2351 31.7566C32.2524 31.7471 32.2657 31.74 32.2746 31.7351C32.279 31.7327 32.2824 31.7309 32.2846 31.7296C32.2858 31.729 32.2866 31.7286 32.2872 31.7282C32.2875 31.7281 32.2877 31.728 32.2878 31.7279C32.2879 31.7278 32.288 31.7278 32.288 31.7278C32.2881 31.7278 32.2881 31.7278 32.0645 31.3172C31.8409 30.9067 31.8409 30.9067 31.8408 30.9067C31.8408 30.9068 31.8408 30.9068 31.8407 30.9068C31.8406 30.9069 31.8403 30.907 31.8401 30.9072C31.8395 30.9075 31.8387 30.9079 31.8376 30.9085C31.8354 30.9097 31.8321 30.9115 31.8277 30.9139C31.8189 30.9187 31.8058 30.9258 31.7886 30.9352C31.7541 30.9539 31.7032 30.9815 31.6374 31.0172C31.5058 31.0886 31.3146 31.1922 31.0766 31.3207C30.6005 31.5776 29.9372 31.9343 29.1882 32.3329C27.6886 33.131 25.8512 34.0945 24.4854 34.7642L24.8969 35.6036ZM22.2903 33.9439C22.2903 35.2873 23.6647 36.2016 24.8952 35.6045L24.4871 34.7633C23.9043 35.0462 23.2253 34.6272 23.2253 33.9439H22.2903Z" fill="url(#paint3_linear_1_9410)" mask="url(#path-4-inside-1_1_9410)"/>
</g>
<defs>
<filter id="filter0_bi_1_9410" x="0.142447" y="-0.16224" width="43.7123" height="44.3142" filterUnits="userSpaceOnUse" color-interpolation-filters="sRGB">
<feFlood flood-opacity="0" result="BackgroundImageFix"/>
<feGaussianBlur in="BackgroundImageFix" stdDeviation="4.4151"/>
<feComposite in2="SourceAlpha" operator="in" result="effect1_backgroundBlur_1_9410"/>
<feBlend mode="normal" in="SourceGraphic" in2="effect1_backgroundBlur_1_9410" result="shape"/>
<feColorMatrix in="SourceAlpha" type="matrix" values="0 0 0 0 0 0 0 0 0 0 0 0 0 0 0 0 0 0 127 0" result="hardAlpha"/>
<feOffset dy="1.4717"/>
<feGaussianBlur stdDeviation="2.9434"/>
<feComposite in2="hardAlpha" operator="arithmetic" k2="-1" k3="1"/>
<feColorMatrix type="matrix" values="0 0 0 0 1 0 0 0 0 1 0 0 0 0 1 0 0 0 0.4 0"/>
<feBlend mode="normal" in2="shape" result="effect2_innerShadow_1_9410"/>
</filter>
<linearGradient id="paint0_linear_1_9410" x1="22.3164" y1="11.1351" x2="21.7981" y2="-0.432966" gradientUnits="userSpaceOnUse">
<stop offset="0.0378115" stop-color="#3F70D8"/>
<stop offset="1" stop-color="#E2EEFE"/>
</linearGradient>
<linearGradient id="paint1_linear_1_9410" x1="12.8752" y1="27.3263" x2="3.22803" y2="38.1795" gradientUnits="userSpaceOnUse">
<stop offset="0.0378115" stop-color="#3F70D8"/>
<stop offset="0.902919" stop-color="#E2EEFE"/>
</linearGradient>
<linearGradient id="paint2_linear_1_9410" x1="30.6131" y1="27.3263" x2="40.2602" y2="38.1795" gradientUnits="userSpaceOnUse">
<stop offset="0.0378115" stop-color="#3F70D8"/>
<stop offset="0.902919" stop-color="#E2EEFE"/>
</linearGradient>
<linearGradient id="paint3_linear_1_9410" x1="21.9986" y1="8.66797" x2="21.9986" y2="35.3218" gradientUnits="userSpaceOnUse">
<stop stop-color="#D3E3FF"/>
<stop offset="1" stop-color="#B1CAF1" stop-opacity="0.15"/>
</linearGradient>
</defs>
</svg>
