<svg width="46" height="46" viewBox="0 0 46 46" fill="none" xmlns="http://www.w3.org/2000/svg">
<g clip-path="url(#clip0_1_9385)">
<path d="M3.01073 23.1905C3.01073 23.5325 3.00917 23.8316 3.01073 24.1307C3.01463 24.9061 3.28093 25.2793 4.01112 25.519C5.2825 25.9368 6.54607 26.3803 7.83072 26.7513C8.40628 26.9176 8.80612 27.162 8.92639 27.7773C8.96309 27.9639 9.106 28.1303 9.14193 28.3177C9.17785 28.502 9.20128 28.73 9.12475 28.8885C8.48203 30.223 7.81276 31.5458 7.1552 32.8733C6.79753 33.5964 6.86938 34.0235 7.4379 34.5935C8.42111 35.5798 9.40589 36.5644 10.3922 37.5483C10.9943 38.1496 11.4035 38.2136 12.1775 37.8302C13.3301 37.2578 14.4945 36.7089 15.6269 36.099C16.147 35.8195 16.6062 35.6836 17.1294 36.0452C17.2747 36.1459 17.4621 36.1927 17.6378 36.2388C17.8909 36.3052 18.0119 36.4582 18.0908 36.7073C18.5468 38.1441 19.0185 39.5755 19.4887 41.0076C19.7222 41.7182 20.1017 41.9954 20.8452 41.9969C22.3024 42.0001 23.7604 41.9993 25.2177 41.9969C25.9893 41.9954 26.361 41.7252 26.6023 40.992C26.9881 39.8191 27.4238 38.6595 27.7362 37.4679C27.9424 36.6792 28.2829 36.1326 29.1169 35.9772C29.2161 35.9585 29.3051 35.8656 29.402 35.8585C29.5925 35.8445 29.8151 35.8062 29.9736 35.8827C31.32 36.5316 32.6531 37.2071 33.9939 37.8677C34.6757 38.2035 35.1091 38.1293 35.6488 37.5921C36.6546 36.591 37.6573 35.5876 38.6585 34.5818C39.2122 34.0258 39.2848 33.5956 38.9397 32.8944C38.4461 31.8917 38.0088 30.8539 37.4301 29.9021C36.903 29.0345 36.7772 28.2443 37.313 27.3556C37.441 27.1433 37.5441 26.9902 37.7909 26.9106C39.2005 26.4553 40.6031 25.9798 42.0096 25.5175C42.5008 25.3558 42.8944 25.0818 42.9576 24.5437C43.0099 24.1002 42.9686 23.6457 42.9686 23.1928H33.5238C32.7725 28.9424 27.9151 32.4899 23.1037 32.5492C18.5 32.6062 13.3356 29.2461 12.5539 23.1889H3.01073V23.1905ZM31.1833 20.8135C30.5164 16.5555 26.7882 13.4999 22.5445 13.7373C18.19 13.9802 15.2638 17.5682 14.9287 20.8135H31.1833ZM12.539 20.8088C12.7194 19.3674 13.1544 18.0149 13.869 16.7593C14.5898 15.4919 15.5402 14.419 16.7272 13.5015C16.4594 13.2906 16.2188 13.1181 15.9963 12.9236C15.5332 12.5191 15.0732 12.4122 14.5765 12.8713C14.475 12.965 14.3321 13.0189 14.2017 13.0751C11.9447 14.0434 9.75106 13.9434 7.64251 12.6542C7.38324 12.4957 7.20987 12.5043 6.95528 12.6683C5.88851 13.3562 5.0076 14.223 4.32193 15.2881C3.24033 16.9693 2.86625 18.8161 3.04118 20.8088H12.539ZM33.5519 20.8018H42.9678C42.9811 20.7518 42.9935 20.7276 42.9935 20.7034C42.9959 20.4176 43.0014 20.1311 42.9974 19.8453C42.96 16.7702 41.6777 14.3714 39.113 12.6581C38.8702 12.4965 38.7007 12.4863 38.4602 12.6464C37.4395 13.325 36.3008 13.6584 35.0834 13.7068C33.6706 13.7631 32.3547 13.4257 31.1497 12.6714C31.0279 12.5957 30.8241 12.4879 30.7436 12.5363C30.272 12.819 29.826 13.1446 29.3379 13.4781C31.7604 15.3927 33.145 17.8119 33.5511 20.801L33.5519 20.8018ZM22.992 11.3736C25.5902 11.3806 27.7589 9.26136 27.7682 6.70636C27.7784 4.14979 25.6285 2.01334 23.031 2.00006C20.4492 1.98679 18.329 4.08654 18.3188 6.66731C18.3087 9.24965 20.411 11.3674 22.9912 11.3736H22.992ZM11.2966 11.3736C13.8784 11.3705 15.9838 9.25433 15.9752 6.67044C15.9674 4.1045 13.8682 2.00709 11.3028 2.00006C8.72022 1.99303 6.6062 4.1006 6.60464 6.68371C6.60307 9.26683 8.71397 11.3775 11.2966 11.3736ZM39.4832 6.6923C39.4863 4.10997 37.3762 1.99772 34.7936 2.00006C32.2274 2.00241 30.1251 4.09591 30.1126 6.66185C30.1001 9.24574 32.2017 11.3658 34.7827 11.3736C37.3653 11.3814 39.4809 9.27542 39.4832 6.6923ZM14.967 23.1882C15.2958 26.4303 18.2876 30.1637 22.9537 30.1941C27.5793 30.2246 30.76 26.5779 31.1247 23.1897H28.8397C28.0666 26.2687 25.5457 27.7781 23.3676 27.8312C20.1306 27.9108 18.1603 26.2101 17.2231 23.1882H14.967ZM19.744 23.178C20.222 24.6382 21.6948 25.6073 23.231 25.5034C24.6593 25.4074 26.1103 24.3157 26.3157 23.178H19.7448H19.744Z" fill="white"/>
<path fill-rule="evenodd" clip-rule="evenodd" d="M34.7836 11.3736C37.3662 11.3814 39.481 9.27458 39.4841 6.69224C39.4872 4.10913 37.3763 1.99766 34.7945 2C32.2283 2.00234 30.126 4.09585 30.1135 6.66179C30.101 9.2449 32.2025 11.3657 34.7836 11.3736ZM11.2976 11.3736C8.71498 11.3767 6.60409 9.266 6.60565 6.68366C6.60721 4.10133 8.72123 1.99377 11.3038 2.00001C13.8692 2.00626 15.9676 4.10446 15.9762 6.67039C15.984 9.2535 13.8786 11.3697 11.2976 11.3736ZM18.3205 6.66731C18.3104 9.24965 20.4127 11.3666 22.9929 11.3736C25.5911 11.3799 27.759 9.26136 27.7692 6.70636C27.7786 4.14979 25.6286 2.01334 23.032 2.00006C20.4502 1.98679 18.3299 4.08654 18.3205 6.66731ZM33.5532 20.8002C33.1464 17.8103 31.7625 15.3912 29.34 13.4772C29.4674 13.3902 29.5919 13.3038 29.7147 13.2184C30.0626 12.9768 30.3971 12.7444 30.7457 12.5355C30.8269 12.4871 31.0308 12.5949 31.1518 12.6706C32.3568 13.4249 33.6727 13.7623 35.0854 13.706C36.3029 13.6576 37.4416 13.3234 38.4622 12.6456C38.7028 12.4855 38.873 12.4957 39.1151 12.6573C41.6797 14.3698 42.9621 16.7694 42.9995 19.8444C43.0025 20.0589 43.0001 20.2738 42.9978 20.4884V20.4887C42.997 20.5601 42.9962 20.6314 42.9956 20.7026C42.9956 20.7177 42.9908 20.7328 42.9839 20.7542C42.9797 20.7671 42.9748 20.7822 42.9699 20.801H33.554L33.5532 20.8002ZM3.04132 20.8083H12.5384H12.54C12.7203 19.3668 13.1553 18.0144 13.8699 16.7587C14.5907 15.4922 15.5403 14.4185 16.7282 13.5009C16.6405 13.432 16.5558 13.3671 16.4737 13.3042L16.4737 13.3042L16.4737 13.3042L16.4736 13.3041C16.3048 13.1748 16.1469 13.0539 15.9972 12.9231C15.5341 12.5186 15.0741 12.4116 14.5774 12.8708C14.4889 12.9532 14.3671 13.0048 14.2503 13.0543L14.2026 13.0746C11.9457 14.0437 9.75198 13.9429 7.64343 12.6537C7.38415 12.4944 7.21078 12.503 6.95619 12.6678C5.88942 13.3557 5.00852 14.2225 4.32285 15.2876C3.24124 16.9688 2.86639 18.8148 3.04132 20.8083ZM14.9299 20.8117H31.1845C30.5175 16.5537 26.7893 13.4989 22.5456 13.7355C18.1911 13.9784 15.2649 17.5665 14.9299 20.8117Z" fill="url(#paint0_linear_1_9385)"/>
</g>
<g clip-path="url(#clip1_1_9385)">
<g filter="url(#filter0_bi_1_9385)">
<path d="M38.677 17.855C35.1722 17.855 33.7393 15.3764 35.482 12.3363C36.4889 10.5743 35.8887 8.32808 34.1266 7.32117L30.7767 5.40417C29.247 4.49408 27.2719 5.03626 26.3618 6.56599L26.1488 6.9339C24.4061 9.97398 21.5402 9.97398 19.7782 6.9339L19.5652 6.56599C18.6938 5.03626 16.7187 4.49408 15.189 5.40417L11.8391 7.32117C10.077 8.32808 9.47672 10.5936 10.4836 12.3557C12.2457 15.3764 10.8128 17.855 7.30799 17.855C5.29418 17.855 3.62891 19.5009 3.62891 21.5341V24.9421C3.62891 26.9559 5.27481 28.6211 7.30799 28.6211C10.8128 28.6211 12.2457 31.0997 10.4836 34.1398C9.47672 35.9019 10.077 38.148 11.8391 39.1549L15.189 41.0719C16.7187 41.982 18.6938 41.4398 19.6039 39.9101L19.8169 39.5422C21.5596 36.5021 24.4254 36.5021 26.1875 39.5422L26.4005 39.9101C27.3106 41.4398 29.2857 41.982 30.8154 41.0719L34.1653 39.1549C35.9274 38.148 36.5277 35.8825 35.5208 34.1398C33.7587 31.0997 35.1916 28.6211 38.6964 28.6211C40.7102 28.6211 42.3755 26.9752 42.3755 24.9421V21.5341C42.3561 19.5202 40.7102 17.855 38.677 17.855ZM22.9925 29.5312C19.5264 29.5312 16.6993 26.7041 16.6993 23.2381C16.6993 19.772 19.5264 16.9449 22.9925 16.9449C26.4586 16.9449 29.2857 19.772 29.2857 23.2381C29.2857 26.7041 26.4586 29.5312 22.9925 29.5312Z" fill="#0B2268"/>
<path d="M34.0179 7.51142L34.0178 7.51136L30.6679 5.59436L30.6646 5.59249C29.2435 4.74698 27.4017 5.24782 26.5507 6.677C26.5505 6.67734 26.5503 6.67768 26.5501 6.67803L26.3389 7.04287C26.3389 7.04293 26.3388 7.04298 26.3388 7.04304C25.4441 8.60375 24.2309 9.43309 22.9707 9.43309C21.7109 9.43309 20.493 8.60409 19.5886 7.04378L19.5885 7.04369L19.3755 6.67578L19.3747 6.67445C18.5633 5.24985 16.7239 4.74595 15.301 5.59249L15.2978 5.59439L15.2978 5.59436L11.9479 7.51136L11.9478 7.51142C10.2927 8.45721 9.72628 10.5876 10.6734 12.2461C11.5777 13.7969 11.6895 15.2591 11.0606 16.3477C10.4318 17.4362 9.10705 18.0741 7.30799 18.0741C5.41445 18.0741 3.84803 19.6226 3.84803 21.5341V24.9421C3.84803 26.8356 5.39658 28.402 7.30799 28.402C9.10708 28.402 10.432 29.0399 11.0608 30.131C11.6895 31.222 11.5777 32.6889 10.6735 34.2491C9.72651 35.9072 10.2921 38.0186 11.9478 38.9647L11.9479 38.9648L15.2978 40.8818L15.301 40.8836C16.7222 41.7291 18.5638 41.2283 19.4149 39.7993C19.4151 39.7989 19.4153 39.7985 19.4156 39.7981L19.6268 39.4332C20.5215 37.8724 21.7347 37.043 22.9949 37.043C24.2548 37.043 25.4727 37.872 26.3771 39.4323L26.3771 39.4324L26.5888 39.7981C26.5891 39.7985 26.5893 39.7989 26.5895 39.7993C27.4406 41.2283 29.2822 41.7291 30.7034 40.8836L30.7066 40.8817L30.7066 40.8818L34.0565 38.9648L34.0566 38.9647C35.7127 38.0184 36.2774 35.8877 35.3312 34.2496L34.0179 7.51142ZM34.0179 7.51142C35.6737 8.45759 36.2392 10.5693 35.2919 12.2274M34.0179 7.51142L35.2919 12.2274M35.2919 12.2274C34.3973 13.788 34.2909 15.2548 34.9221 16.3454M35.2919 12.2274L34.9221 16.3454M34.9221 16.3454C35.5532 17.4361 36.8778 18.0741 38.677 18.0741M34.9221 16.3454L38.677 18.0741M38.677 18.0741C40.5877 18.0741 42.1375 19.6399 42.1564 21.535V24.9421C42.1564 26.8535 40.5899 28.402 38.6964 28.402C36.8973 28.402 35.5724 29.0399 34.9436 30.131M38.677 18.0741L34.9436 30.131M34.9436 30.131C34.3149 31.2221 34.4267 32.6891 35.331 34.2494L34.9436 30.131ZM16.4802 23.2381C16.4802 26.8252 19.4054 29.7504 22.9925 29.7504C26.5796 29.7504 29.5048 26.8252 29.5048 23.2381C29.5048 19.6509 26.5796 16.7258 22.9925 16.7258C19.4054 16.7258 16.4802 19.6509 16.4802 23.2381Z" stroke="url(#paint1_linear_1_9385)" stroke-width="0.438249"/>
</g>
</g>
<defs>
<filter id="filter0_bi_1_9385" x="-4.64941" y="-3.31738" width="55.3032" height="53.1109" filterUnits="userSpaceOnUse" color-interpolation-filters="sRGB">
<feFlood flood-opacity="0" result="BackgroundImageFix"/>
<feGaussianBlur in="BackgroundImageFix" stdDeviation="4.13916"/>
<feComposite in2="SourceAlpha" operator="in" result="effect1_backgroundBlur_1_9385"/>
<feBlend mode="normal" in="SourceGraphic" in2="effect1_backgroundBlur_1_9385" result="shape"/>
<feColorMatrix in="SourceAlpha" type="matrix" values="0 0 0 0 0 0 0 0 0 0 0 0 0 0 0 0 0 0 127 0" result="hardAlpha"/>
<feOffset dy="1.37972"/>
<feGaussianBlur stdDeviation="2.75944"/>
<feComposite in2="hardAlpha" operator="arithmetic" k2="-1" k3="1"/>
<feColorMatrix type="matrix" values="0 0 0 0 1 0 0 0 0 1 0 0 0 0 1 0 0 0 0.4 0"/>
<feBlend mode="normal" in2="shape" result="effect2_innerShadow_1_9385"/>
</filter>
<linearGradient id="paint0_linear_1_9385" x1="23.0008" y1="20.8108" x2="23.0008" y2="2.88611" gradientUnits="userSpaceOnUse">
<stop stop-color="#3F70D8"/>
<stop offset="1" stop-color="#E2EEFE"/>
</linearGradient>
<linearGradient id="paint1_linear_1_9385" x1="23.0022" y1="4.96094" x2="23.0022" y2="41.5152" gradientUnits="userSpaceOnUse">
<stop stop-color="#D3E3FF"/>
<stop offset="1" stop-color="#B1CAF1" stop-opacity="0.15"/>
</linearGradient>
<clipPath id="clip0_1_9385">
<rect width="40" height="40" fill="white" transform="translate(3 2)"/>
</clipPath>
<clipPath id="clip1_1_9385">
<rect width="46" height="23" fill="white" transform="translate(0 23)"/>
</clipPath>
</defs>
</svg>
