<svg width="48" height="48" viewBox="0 0 48 48" fill="none" xmlns="http://www.w3.org/2000/svg">
<path d="M36.9408 33.66L37.7208 39.98C37.9208 41.64 36.1408 42.8 34.7208 41.94L27.8008 37.82C27.3208 37.54 27.2008 36.94 27.4608 36.46C28.4608 34.62 29.0008 32.54 29.0008 30.46C29.0008 23.14 22.7208 17.18 15.0008 17.18C13.4208 17.18 11.8808 17.42 10.4408 17.9C9.70076 18.14 8.98076 17.46 9.16076 16.7C10.9808 9.42 17.9808 4 26.3408 4C36.1008 4 44.0008 11.38 44.0008 20.48C44.0008 25.88 41.2208 30.66 36.9408 33.66Z" fill="url(#paint0_linear_1_9374)"/>
<g filter="url(#filter0_bi_1_9374)">
<path d="M26 30.4597C26 32.8397 25.12 35.0397 23.64 36.7797C21.66 39.1797 18.52 40.7197 15 40.7197L9.78 43.8197C8.9 44.3597 7.78 43.6197 7.9 42.5997L8.4 38.6597C5.72 36.7997 4 33.8197 4 30.4597C4 26.9397 5.88 23.8397 8.76 21.9997C10.54 20.8397 12.68 20.1797 15 20.1797C21.08 20.1797 26 24.7797 26 30.4597Z" fill="#0B2268"/>
<path d="M23.4731 36.6377L23.471 36.6402C21.5336 38.9885 18.4562 40.5006 15 40.5006H14.9398L14.8881 40.5313L9.66811 43.6313L9.6681 43.6313L9.66539 43.6329C8.9473 44.0736 8.01891 43.4706 8.11751 42.6262C8.11755 42.6259 8.11759 42.6256 8.11762 42.6253L8.61738 38.6873L8.63411 38.5554L8.52494 38.4797C5.89875 36.657 4.21912 33.7418 4.21912 30.4597C4.21912 27.0211 6.0552 23.9878 8.87797 22.1843L8.87798 22.1844L8.87964 22.1833C10.6238 21.0466 12.7222 20.3988 15 20.3988C20.9732 20.3988 25.7809 24.9144 25.7809 30.4597C25.7809 32.7843 24.9216 34.9347 23.4731 36.6377Z" stroke="url(#paint1_linear_1_9374)" stroke-width="0.438249"/>
</g>
<defs>
<filter id="filter0_bi_1_9374" x="-4.27832" y="11.9014" width="38.5566" height="40.3783" filterUnits="userSpaceOnUse" color-interpolation-filters="sRGB">
<feFlood flood-opacity="0" result="BackgroundImageFix"/>
<feGaussianBlur in="BackgroundImageFix" stdDeviation="4.13916"/>
<feComposite in2="SourceAlpha" operator="in" result="effect1_backgroundBlur_1_9374"/>
<feBlend mode="normal" in="SourceGraphic" in2="effect1_backgroundBlur_1_9374" result="shape"/>
<feColorMatrix in="SourceAlpha" type="matrix" values="0 0 0 0 0 0 0 0 0 0 0 0 0 0 0 0 0 0 127 0" result="hardAlpha"/>
<feOffset dy="1.37972"/>
<feGaussianBlur stdDeviation="2.75944"/>
<feComposite in2="hardAlpha" operator="arithmetic" k2="-1" k3="1"/>
<feColorMatrix type="matrix" values="0 0 0 0 1 0 0 0 0 1 0 0 0 0 1 0 0 0 0.4 0"/>
<feBlend mode="normal" in2="shape" result="effect2_innerShadow_1_9374"/>
</filter>
<linearGradient id="paint0_linear_1_9374" x1="16.7731" y1="42.2338" x2="23.9773" y2="11.5599" gradientUnits="userSpaceOnUse">
<stop stop-color="#3F70D8"/>
<stop offset="1" stop-color="#E2EEFE"/>
</linearGradient>
<linearGradient id="paint1_linear_1_9374" x1="15" y1="20.1797" x2="15" y2="44.0013" gradientUnits="userSpaceOnUse">
<stop stop-color="#D3E3FF"/>
<stop offset="1" stop-color="#B1CAF1" stop-opacity="0.15"/>
</linearGradient>
</defs>
</svg>
