<svg width="299" height="307" viewBox="0 0 299 307" fill="none" xmlns="http://www.w3.org/2000/svg">
<g filter="url(#filter0_b_1806_41940)">
<path d="M232.583 86.3858C231.535 86.236 230.487 86.236 229.439 86.3858C206.233 85.6372 187.818 66.6233 187.818 43.2677C187.818 19.463 207.131 0 231.086 0C254.89 0 274.353 19.3133 274.353 43.2677C274.204 66.6233 255.789 85.6372 232.583 86.3858Z" fill="url(#paint0_radial_1806_41940)"/>
<path d="M281.39 190.145C264.622 201.373 241.116 205.565 219.408 202.721C225.097 190.444 228.091 176.82 228.241 162.447C228.241 147.476 224.947 133.253 218.659 120.826C240.817 117.832 264.322 122.024 281.24 133.253C304.895 148.823 304.895 174.424 281.39 190.145Z" fill="url(#paint1_radial_1806_41940)"/>
<path d="M66.5485 86.3858C67.5965 86.236 68.6446 86.236 69.6926 86.3858C92.8984 85.6372 111.313 66.6233 111.313 43.2677C111.313 19.3133 92.0001 0 68.0457 0C44.241 0 24.9277 19.3133 24.9277 43.2677C24.9277 66.6233 43.3427 85.6372 66.5485 86.3858Z" fill="url(#paint2_radial_1806_41940)"/>
<path d="M68.1953 162.45C68.1953 176.972 71.3394 190.746 77.0285 203.173C55.9187 205.418 33.9105 200.927 17.7413 190.297C-5.91376 174.577 -5.91376 148.976 17.7413 133.256C33.7608 122.476 56.3678 118.134 77.6274 120.53C71.4891 133.106 68.1953 147.329 68.1953 162.45Z" fill="url(#paint3_radial_1806_41940)"/>
<path d="M151.587 207.655C150.389 207.505 149.042 207.505 147.694 207.655C120.147 206.757 98.1385 184.15 98.1385 156.303C98.2882 127.857 121.195 104.801 149.79 104.801C178.236 104.801 201.292 127.857 201.292 156.303C201.143 184.15 179.284 206.757 151.587 207.655Z" fill="url(#paint4_radial_1806_41940)"/>
<path d="M102.93 238.656C80.3231 253.777 80.3231 278.63 102.93 293.601C128.681 310.818 170.901 310.818 196.652 293.601C219.259 278.48 219.259 253.627 196.652 238.656C171.051 221.438 128.831 221.438 102.93 238.656Z" fill="url(#paint5_radial_1806_41940)"/>
<path d="M281.112 189.729L281.111 189.729C264.637 200.761 241.572 204.97 220.146 202.311C225.682 190.128 228.593 176.65 228.741 162.452V162.447C228.741 147.655 225.541 133.581 219.42 121.23C241.279 118.429 264.343 122.638 280.963 133.669L280.965 133.67C292.688 141.387 298.482 151.538 298.5 161.643C298.518 171.749 292.761 181.938 281.112 189.729ZM18.018 133.672L18.0204 133.67C33.7456 123.089 55.9069 118.738 76.869 120.95C70.8948 133.439 67.6953 147.511 67.6953 162.45C67.6953 176.799 70.7494 190.422 76.2862 202.746C55.4834 204.812 33.8981 200.32 18.0167 189.88C6.29327 182.088 0.5 171.9 0.5 161.776C0.5 151.653 6.29369 141.463 18.018 133.672ZM103.208 293.186L103.206 293.184C92.0087 285.769 86.4748 275.955 86.4748 266.185C86.4748 256.414 92.0091 246.562 103.208 239.072C116.059 230.529 132.987 226.243 149.903 226.243C166.82 226.243 183.672 230.529 196.373 239.071L196.376 239.072C207.573 246.488 213.107 256.302 213.107 266.072C213.107 275.843 207.573 285.695 196.374 293.186C183.598 301.728 166.708 306.014 149.791 306.014C132.874 306.014 115.984 301.728 103.208 293.186ZM232.61 85.8846C231.544 85.7364 230.478 85.7364 229.412 85.8846C206.497 85.1227 188.318 66.34 188.318 43.2677C188.318 19.738 207.409 0.5 231.086 0.5C254.614 0.5 273.852 19.5888 273.853 43.2645C273.706 66.3399 255.524 85.1227 232.61 85.8846ZM69.7195 85.8846C68.6537 85.7364 67.5874 85.7364 66.5217 85.8846C43.6067 85.1227 25.4277 66.34 25.4277 43.2677C25.4277 19.5883 44.5182 0.5 68.0457 0.5C91.724 0.5 110.813 19.5894 110.813 43.2677C110.813 66.34 92.6344 85.1227 69.7195 85.8846ZM200.792 156.3C200.644 183.868 179.017 206.245 151.609 207.154C150.389 207.005 149.03 207.006 147.675 207.154C120.414 206.247 98.6391 183.869 98.6385 156.304C98.7876 128.131 121.473 105.301 149.79 105.301C177.959 105.301 200.791 128.132 200.792 156.3Z" stroke="url(#paint6_linear_1806_41940)" stroke-opacity="0.65"/>
</g>
<defs>
<filter id="filter0_b_1806_41940" x="-38.2344" y="-38.2344" width="375.469" height="382.983" filterUnits="userSpaceOnUse" color-interpolation-filters="sRGB">
<feFlood flood-opacity="0" result="BackgroundImageFix"/>
<feGaussianBlur in="BackgroundImageFix" stdDeviation="19.1172"/>
<feComposite in2="SourceAlpha" operator="in" result="effect1_backgroundBlur_1806_41940"/>
<feBlend mode="normal" in="SourceGraphic" in2="effect1_backgroundBlur_1806_41940" result="shape"/>
</filter>
<radialGradient id="paint0_radial_1806_41940" cx="0" cy="0" r="1" gradientUnits="userSpaceOnUse" gradientTransform="translate(85.689 306.514) rotate(-72.1932) scale(321.937 504.66)">
<stop stop-color="#679FFA" stop-opacity="0.85"/>
<stop offset="1" stop-color="#679FFA" stop-opacity="0"/>
</radialGradient>
<radialGradient id="paint1_radial_1806_41940" cx="0" cy="0" r="1" gradientUnits="userSpaceOnUse" gradientTransform="translate(85.689 306.514) rotate(-72.1932) scale(321.937 504.66)">
<stop stop-color="#679FFA" stop-opacity="0.85"/>
<stop offset="1" stop-color="#679FFA" stop-opacity="0"/>
</radialGradient>
<radialGradient id="paint2_radial_1806_41940" cx="0" cy="0" r="1" gradientUnits="userSpaceOnUse" gradientTransform="translate(85.689 306.514) rotate(-72.1932) scale(321.937 504.66)">
<stop stop-color="#679FFA" stop-opacity="0.85"/>
<stop offset="1" stop-color="#679FFA" stop-opacity="0"/>
</radialGradient>
<radialGradient id="paint3_radial_1806_41940" cx="0" cy="0" r="1" gradientUnits="userSpaceOnUse" gradientTransform="translate(85.689 306.514) rotate(-72.1932) scale(321.937 504.66)">
<stop stop-color="#679FFA" stop-opacity="0.85"/>
<stop offset="1" stop-color="#679FFA" stop-opacity="0"/>
</radialGradient>
<radialGradient id="paint4_radial_1806_41940" cx="0" cy="0" r="1" gradientUnits="userSpaceOnUse" gradientTransform="translate(85.689 306.514) rotate(-72.1932) scale(321.937 504.66)">
<stop stop-color="#679FFA" stop-opacity="0.85"/>
<stop offset="1" stop-color="#679FFA" stop-opacity="0"/>
</radialGradient>
<radialGradient id="paint5_radial_1806_41940" cx="0" cy="0" r="1" gradientUnits="userSpaceOnUse" gradientTransform="translate(85.689 306.514) rotate(-72.1932) scale(321.937 504.66)">
<stop stop-color="#679FFA" stop-opacity="0.85"/>
<stop offset="1" stop-color="#679FFA" stop-opacity="0"/>
</radialGradient>
<linearGradient id="paint6_linear_1806_41940" x1="-9.04233" y1="-10.9195" x2="359.065" y2="156.353" gradientUnits="userSpaceOnUse">
<stop stop-color="#3C3D69"/>
<stop offset="1" stop-color="#2C2D54" stop-opacity="0"/>
</linearGradient>
</defs>
</svg>
