<svg width="33" height="33" viewBox="0 0 33 33" fill="none" xmlns="http://www.w3.org/2000/svg">
<path d="M16.5 0C13.2366 0 10.0465 0.967709 7.3331 2.78075C4.61969 4.5938 2.50485 7.17073 1.256 10.1857C0.00714574 13.2007 -0.319603 16.5183 0.317049 19.719C0.953702 22.9197 2.52518 25.8596 4.83275 28.1673C7.14031 30.4748 10.0803 32.0463 13.281 32.683C16.4817 33.3196 19.7993 32.9929 22.8142 31.744C25.8293 30.4951 28.4062 28.3803 30.2193 25.6669C32.0323 22.9535 33 19.7634 33 16.5C33 14.3332 32.5731 12.1876 31.744 10.1857C30.9149 8.18385 29.6995 6.36491 28.1673 4.83273C26.6351 3.30058 24.8162 2.08519 22.8142 1.25598C20.8124 0.426789 18.6668 0 16.5 0ZM16.5 31.35C13.563 31.35 10.6919 30.4791 8.24979 28.8473C5.80772 27.2156 3.90436 24.8964 2.7804 22.1829C1.65644 19.4693 1.36236 16.4835 1.93535 13.6029C2.50833 10.7223 3.92266 8.07627 5.99947 5.99947C8.07629 3.92266 10.7223 2.50833 13.6029 1.93533C16.4835 1.36236 19.4693 1.65644 22.1829 2.78038C24.8964 3.90435 27.2156 5.80772 28.8473 8.24979C30.4791 10.6919 31.35 13.563 31.35 16.5C31.3457 20.4371 29.7797 24.2118 26.9956 26.9956C24.2118 29.7797 20.4371 31.3457 16.5 31.35ZM15.5059 18.2282L11.5807 14.303L10.414 15.4696L15.5059 20.5613L22.8954 13.1734L21.7287 12.0069L15.5059 18.2282Z" fill="#E9EDF0"/>
</svg>
