<svg width="28" height="28" viewBox="0 0 28 28" fill="none" xmlns="http://www.w3.org/2000/svg">
<path fill-rule="evenodd" clip-rule="evenodd" d="M21.5005 27.8721H5.65946C2.53538 27.8721 0.00195312 25.3386 0.00195312 22.2146V6.37357C0.00195312 3.24949 2.53538 0.716064 5.65946 0.716064H21.5005C24.6257 0.716064 27.158 3.24949 27.158 6.37357V22.2146C27.158 25.3386 24.6257 27.8721 21.5005 27.8721ZM18.3956 22.0471C18.6389 22.2202 18.9512 22.2632 19.2307 22.1569C19.509 22.0516 19.715 21.8129 19.7772 21.5232C20.4323 18.4433 22.0232 10.645 22.6195 7.84339C22.6636 7.6318 22.589 7.41228 22.4238 7.27085C22.2574 7.13054 22.0266 7.08981 21.8218 7.16562C18.6593 8.33559 8.91818 11.9903 4.93643 13.4647C4.6841 13.5575 4.52003 13.8007 4.52796 14.0678C4.53701 14.3337 4.71692 14.5656 4.9749 14.6437C6.76041 15.1766 9.10487 15.92 9.10487 15.92C9.10487 15.92 10.199 19.2285 10.7704 20.91C10.8417 21.1215 11.0081 21.2879 11.2253 21.3445C11.4437 21.401 11.6745 21.3422 11.8374 21.1883C12.7551 20.3227 14.1729 18.9841 14.1729 18.9841C14.1729 18.9841 16.867 20.9597 18.3956 22.0471ZM10.0904 15.5025L11.3566 19.68L11.6383 17.0346C11.6383 17.0346 16.5309 12.6217 19.3212 10.1053C19.4027 10.0317 19.414 9.90837 19.3461 9.82125C19.2782 9.73412 19.1549 9.71376 19.0621 9.77259C15.8294 11.8376 10.0904 15.5025 10.0904 15.5025Z" fill="white"/>
</svg>
