<svg width="16" height="14" viewBox="0 0 16 14" fill="none" xmlns="http://www.w3.org/2000/svg">
<path d="M15.6232 2.24121C15.0507 2.49448 14.4435 2.66081 13.8217 2.73471C14.477 2.34278 14.9675 1.72597 15.2017 0.999213C14.5867 1.36521 13.9125 1.62171 13.2097 1.76046C12.7377 1.25539 12.112 0.920434 11.43 0.807654C10.7479 0.694864 10.0477 0.810584 9.43816 1.1368C8.82866 1.46302 8.34396 1.98147 8.05956 2.61155C7.77506 3.24164 7.70676 3.94804 7.86516 4.62096C6.61806 4.55845 5.39794 4.23435 4.28416 3.66971C3.17038 3.10506 2.18779 2.31249 1.40019 1.34346C1.12141 1.8223 0.974908 2.36663 0.975688 2.92071C0.975688 4.00821 1.52919 4.96896 2.37069 5.53142C1.8727 5.51582 1.38567 5.38132 0.950187 5.13922V5.17822C0.950337 5.90252 1.20097 6.60442 1.65958 7.16502C2.11819 7.72562 2.75656 8.11032 3.46644 8.25392C3.00416 8.37922 2.51942 8.39772 2.04894 8.30792C2.24909 8.93142 2.6392 9.47662 3.16464 9.86732C3.69008 10.258 4.32454 10.4745 4.97919 10.4867C4.32855 10.9977 3.58358 11.3754 2.78685 11.5983C1.99013 11.8212 1.15729 11.8849 0.335938 11.7857C1.76972 12.7078 3.43877 13.1973 5.14344 13.1957C10.9132 13.1957 14.0685 8.41592 14.0685 4.27071C14.0685 4.13571 14.0647 3.99921 14.0587 3.86571C14.6729 3.42183 15.2029 2.87197 15.624 2.24196L15.6232 2.24121Z" fill="#B6B9CE"/>
</svg>
