<svg width="40" height="40" viewBox="0 0 40 40" fill="none" xmlns="http://www.w3.org/2000/svg">
<rect width="40" height="40" rx="8" fill="#05143D"/>
<g clip-path="url(#clip0_16_5390)">
<path fill-rule="evenodd" clip-rule="evenodd" d="M27.2859 10C28.4159 10 29.3359 10.92 29.3359 12.06V30L27.1859 28.1L25.9759 26.98L24.6959 25.79L25.2259 27.64H13.8859C12.7559 27.64 11.8359 26.72 11.8359 25.58V12.06C11.8359 10.92 12.7559 10 13.8859 10L27.2859 10ZM23.4259 23.06C25.6359 22.99 26.4859 21.54 26.4859 21.54C26.4859 18.32 25.0459 15.71 25.0459 15.71C23.6059 14.63 22.2359 14.66 22.2359 14.66L22.0959 14.82C23.7959 15.34 24.5859 16.09 24.5859 16.09C23.5459 15.52 22.5259 15.24 21.5759 15.13C20.8559 15.05 20.1659 15.07 19.5559 15.15L19.3859 15.17C19.0359 15.2 18.1859 15.33 17.1159 15.8C16.7459 15.97 16.5259 16.09 16.5259 16.09C16.5259 16.09 17.3559 15.3 19.1559 14.78L19.0559 14.66C19.0559 14.66 17.6859 14.63 16.2459 15.71C16.2459 15.71 14.8059 18.32 14.8059 21.54C14.8059 21.54 15.6459 22.99 17.8559 23.06C17.8559 23.06 18.2259 22.61 18.5259 22.23C17.2559 21.85 16.7759 21.05 16.7759 21.05L17.0559 21.22L17.0959 21.25L17.1351 21.2725L17.1468 21.2775L17.1859 21.3C17.4359 21.44 17.6859 21.55 17.9159 21.64C18.3259 21.8 18.8159 21.96 19.3859 22.07C20.1359 22.21 21.0159 22.26 21.9759 22.08C22.4459 22 22.9259 21.86 23.4259 21.65C23.7759 21.52 24.1659 21.33 24.5759 21.06C24.5759 21.06 24.0759 21.88 22.7659 22.25C23.0659 22.63 23.4259 23.06 23.4259 23.06ZM18.7759 18.39C18.2059 18.39 17.7559 18.89 17.7559 19.5C17.7559 20.11 18.2159 20.61 18.7759 20.61C19.3459 20.61 19.7959 20.11 19.7959 19.5C19.8059 18.89 19.3459 18.39 18.7759 18.39ZM22.4259 18.39C21.8559 18.39 21.4059 18.89 21.4059 19.5C21.4059 20.11 21.8659 20.61 22.4259 20.61C22.9959 20.61 23.4459 20.11 23.4459 19.5C23.4459 18.89 22.9959 18.39 22.4259 18.39Z" fill="white"/>
</g>
<defs>
<clipPath id="clip0_16_5390">
<rect width="19" height="20" fill="white" transform="translate(11 10)"/>
</clipPath>
</defs>
</svg>
