<svg width="40" height="40" viewBox="0 0 40 40" fill="none" xmlns="http://www.w3.org/2000/svg">
<rect width="40" height="40" rx="8" fill="#05143D"/>
<g clip-path="url(#clip0_16_5403)">
<path fill-rule="evenodd" clip-rule="evenodd" d="M25.32 28.9826C25.5883 29.1726 25.9341 29.2201 26.2425 29.1035C26.5508 28.986 26.7775 28.7226 26.8458 28.4035C27.57 25.0001 29.3266 16.386 29.9858 13.2901C30.0358 13.0568 29.9525 12.8143 29.7691 12.6585C29.5858 12.5026 29.3316 12.4576 29.105 12.5418C25.6108 13.8351 14.85 17.8726 10.4516 19.5001C10.1725 19.6035 9.9908 19.8718 9.99997 20.166C10.01 20.461 10.2083 20.7168 10.4941 20.8026C12.4666 21.3926 15.0558 22.2135 15.0558 22.2135C15.0558 22.2135 16.2658 25.8676 16.8966 27.726C16.9758 27.9593 17.1583 28.1426 17.3991 28.206C17.6391 28.2685 17.8958 28.2026 18.075 28.0335C19.0883 27.0768 20.655 25.5976 20.655 25.5976C20.655 25.5976 23.6316 27.7801 25.32 28.9826ZM16.145 21.7518L17.5441 26.3668L17.855 23.4443C17.855 23.4443 23.2608 18.5685 26.3425 15.7893C26.4325 15.7076 26.445 15.571 26.37 15.4751C26.2958 15.3793 26.1591 15.3568 26.0566 15.4218C22.485 17.7026 16.145 21.7518 16.145 21.7518Z" fill="white"/>
</g>
<defs>
<clipPath id="clip0_16_5403">
<rect width="20" height="20" fill="white" transform="translate(10 10)"/>
</clipPath>
</defs>
</svg>
