<svg width="38" height="38" viewBox="0 0 38 38" fill="none" xmlns="http://www.w3.org/2000/svg">
<g clip-path="url(#clip0_100_17001)">
<rect x="5.28906" y="5.25781" width="27.4258" height="27.4258" rx="13.7129" fill="url(#paint0_linear_100_17001)"/>
<rect x="5.28906" y="5.25781" width="27.4258" height="27.4258" rx="13.7129" fill="#E2EEFE"/>
<path d="M19.0789 4.46484C19.0775 4.46336 19.0783 14.134 19.0789 18.9688" stroke="url(#paint1_linear_100_17001)" stroke-width="3" stroke-linecap="round"/>
<path d="M19.0789 20.7617C19.0775 20.7602 19.0783 30.4309 19.0789 35.2656" stroke="url(#paint2_linear_100_17001)" stroke-width="3" stroke-linecap="round"/>
<path d="M32.5629 11.5281C32.5635 11.526 24.0961 16.1978 19.8631 18.5336" stroke="url(#paint3_linear_100_17001)" stroke-width="3"/>
<path d="M18.2934 19.3992C18.2939 19.3971 9.8266 24.0689 5.59353 26.4047" stroke="url(#paint4_linear_100_17001)" stroke-width="3"/>
<path d="M5.59335 11.5281C5.59277 11.526 14.0601 16.1978 18.2932 18.5336" stroke="url(#paint5_linear_100_17001)" stroke-width="3"/>
<path d="M19.8629 19.3992C19.8623 19.3971 28.3297 24.0689 32.5627 26.4047" stroke="url(#paint6_linear_100_17001)" stroke-width="3"/>
<g filter="url(#filter0_bi_100_17001)">
<path d="M19.0029 22.9159C18.229 22.9159 17.4724 22.6864 16.8289 22.2565C16.1854 21.8265 15.6839 21.2154 15.3877 20.5003C15.0915 19.7853 15.014 18.9985 15.165 18.2395C15.316 17.4804 15.6887 16.7832 16.2359 16.2359C16.7832 15.6887 17.4804 15.316 18.2395 15.165C18.9985 15.014 19.7853 15.0915 20.5003 15.3877C21.2154 15.6839 21.8265 16.1854 22.2565 16.8289C22.6864 17.4724 22.9159 18.229 22.9159 19.0029C22.9147 20.0403 22.502 21.0349 21.7685 21.7685C21.0349 22.502 20.0403 22.9147 19.0029 22.9159Z" fill="#0B2268"/>
<path d="M16.9507 22.0743C17.5581 22.4802 18.2723 22.6968 19.0029 22.6968C19.9822 22.6956 20.921 22.306 21.6135 21.6135C22.306 20.921 22.6956 19.9822 22.6968 19.0029L16.9507 22.0743ZM16.9507 22.0743C16.3432 21.6684 15.8697 21.0915 15.5902 20.4165M16.9507 22.0743L15.5902 20.4165M15.5902 20.4165C15.3106 19.7415 15.2374 18.9988 15.3799 18.2822M15.5902 20.4165L15.3799 18.2822M15.3799 18.2822C15.5225 17.5657 15.8743 16.9075 16.3909 16.3909M15.3799 18.2822L16.3909 16.3909M16.3909 16.3909C16.9075 15.8743 17.5657 15.5225 18.2822 15.3799M16.3909 16.3909L18.2822 15.3799M18.2822 15.3799C18.9988 15.2374 19.7415 15.3106 20.4165 15.5902M18.2822 15.3799L20.4165 15.5902M20.4165 15.5902C21.0915 15.8697 21.6684 16.3432 22.0743 16.9507M20.4165 15.5902L22.0743 16.9507M22.0743 16.9507C22.4801 17.558 22.6968 18.2721 22.6968 19.0026L22.0743 16.9507Z" stroke="url(#paint7_linear_100_17001)" stroke-width="0.438249"/>
</g>
<g filter="url(#filter1_bi_100_17001)">
<path d="M31.5263 15.8651C33.6874 15.8651 35.4394 14.1132 35.4394 11.9521C35.4394 9.79099 33.6874 8.03906 31.5263 8.03906C29.3652 8.03906 27.6133 9.79099 27.6133 11.9521C27.6133 14.1132 29.3652 15.8651 31.5263 15.8651Z" fill="#0B2268"/>
<path d="M35.2202 11.9521C35.2202 13.9922 33.5664 15.646 31.5263 15.646C29.4862 15.646 27.8324 13.9922 27.8324 11.9521C27.8324 9.91201 29.4862 8.25819 31.5263 8.25819C33.5664 8.25819 35.2202 9.91201 35.2202 11.9521Z" stroke="url(#paint8_linear_100_17001)" stroke-width="0.438249"/>
</g>
<g filter="url(#filter2_bi_100_17001)">
<path d="M31.5263 29.955C33.6874 29.955 35.4394 28.2031 35.4394 26.0419C35.4394 23.8808 33.6874 22.1289 31.5263 22.1289C29.3652 22.1289 27.6133 23.8808 27.6133 26.0419C27.6133 28.2031 29.3652 29.955 31.5263 29.955Z" fill="#0B2268"/>
<path d="M35.2202 26.0419C35.2202 28.082 33.5664 29.7359 31.5263 29.7359C29.4862 29.7359 27.8324 28.082 27.8324 26.0419C27.8324 24.0019 29.4862 22.348 31.5263 22.348C33.5664 22.348 35.2202 24.0019 35.2202 26.0419Z" stroke="url(#paint9_linear_100_17001)" stroke-width="0.438249"/>
</g>
<g filter="url(#filter3_bi_100_17001)">
<path d="M19.0029 37.0019C21.164 37.0019 22.9159 35.2499 22.9159 33.0888C22.9159 30.9277 21.164 29.1758 19.0029 29.1758C16.8418 29.1758 15.0898 30.9277 15.0898 33.0888C15.0898 35.2499 16.8418 37.0019 19.0029 37.0019Z" fill="#0B2268"/>
<path d="M22.6968 33.0888C22.6968 35.1289 21.043 36.7827 19.0029 36.7827C16.9628 36.7827 15.309 35.1289 15.309 33.0888C15.309 31.0487 16.9628 29.3949 19.0029 29.3949C21.043 29.3949 22.6968 31.0487 22.6968 33.0888Z" stroke="url(#paint10_linear_100_17001)" stroke-width="0.438249"/>
</g>
<g filter="url(#filter4_bi_100_17001)">
<path d="M6.47554 29.955C8.63666 29.955 10.3886 28.2031 10.3886 26.0419C10.3886 23.8808 8.63666 22.1289 6.47554 22.1289C4.31443 22.1289 2.5625 23.8808 2.5625 26.0419C2.5625 28.2031 4.31443 29.955 6.47554 29.955Z" fill="#0B2268"/>
<path d="M10.1695 26.0419C10.1695 28.082 8.51564 29.7359 6.47554 29.7359C4.43545 29.7359 2.78162 28.082 2.78162 26.0419C2.78162 24.0019 4.43545 22.348 6.47554 22.348C8.51564 22.348 10.1695 24.0019 10.1695 26.0419Z" stroke="url(#paint11_linear_100_17001)" stroke-width="0.438249"/>
</g>
<g filter="url(#filter5_bi_100_17001)">
<path d="M6.47554 15.8651C8.63666 15.8651 10.3886 14.1132 10.3886 11.9521C10.3886 9.79099 8.63666 8.03906 6.47554 8.03906C4.31443 8.03906 2.5625 9.79099 2.5625 11.9521C2.5625 14.1132 4.31443 15.8651 6.47554 15.8651Z" fill="#0B2268"/>
<path d="M10.1695 11.9521C10.1695 13.9922 8.51564 15.646 6.47554 15.646C4.43545 15.646 2.78162 13.9922 2.78162 11.9521C2.78162 9.91201 4.43545 8.25819 6.47554 8.25819C8.51564 8.25819 10.1695 9.91201 10.1695 11.9521Z" stroke="url(#paint12_linear_100_17001)" stroke-width="0.438249"/>
</g>
<g filter="url(#filter6_bi_100_17001)">
<path d="M19.0029 8.82609C21.164 8.82609 22.9159 7.07416 22.9159 4.91304C22.9159 2.75193 21.164 1 19.0029 1C16.8418 1 15.0898 2.75193 15.0898 4.91304C15.0898 7.07416 16.8418 8.82609 19.0029 8.82609Z" fill="#0B2268"/>
<path d="M22.6968 4.91304C22.6968 6.95314 21.043 8.60696 19.0029 8.60696C16.9628 8.60696 15.309 6.95314 15.309 4.91304C15.309 2.87295 16.9628 1.21912 19.0029 1.21912C21.043 1.21912 22.6968 2.87295 22.6968 4.91304Z" stroke="url(#paint13_linear_100_17001)" stroke-width="0.438249"/>
</g>
</g>
<defs>
<filter id="filter0_bi_100_17001" x="6.81152" y="6.81152" width="24.3827" height="24.3827" filterUnits="userSpaceOnUse" color-interpolation-filters="sRGB">
<feFlood flood-opacity="0" result="BackgroundImageFix"/>
<feGaussianBlur in="BackgroundImageFix" stdDeviation="4.13916"/>
<feComposite in2="SourceAlpha" operator="in" result="effect1_backgroundBlur_100_17001"/>
<feBlend mode="normal" in="SourceGraphic" in2="effect1_backgroundBlur_100_17001" result="shape"/>
<feColorMatrix in="SourceAlpha" type="matrix" values="0 0 0 0 0 0 0 0 0 0 0 0 0 0 0 0 0 0 127 0" result="hardAlpha"/>
<feOffset dy="1.37972"/>
<feGaussianBlur stdDeviation="2.75944"/>
<feComposite in2="hardAlpha" operator="arithmetic" k2="-1" k3="1"/>
<feColorMatrix type="matrix" values="0 0 0 0 1 0 0 0 0 1 0 0 0 0 1 0 0 0 0.4 0"/>
<feBlend mode="normal" in2="shape" result="effect2_innerShadow_100_17001"/>
</filter>
<filter id="filter1_bi_100_17001" x="19.335" y="-0.239258" width="24.3827" height="24.3827" filterUnits="userSpaceOnUse" color-interpolation-filters="sRGB">
<feFlood flood-opacity="0" result="BackgroundImageFix"/>
<feGaussianBlur in="BackgroundImageFix" stdDeviation="4.13916"/>
<feComposite in2="SourceAlpha" operator="in" result="effect1_backgroundBlur_100_17001"/>
<feBlend mode="normal" in="SourceGraphic" in2="effect1_backgroundBlur_100_17001" result="shape"/>
<feColorMatrix in="SourceAlpha" type="matrix" values="0 0 0 0 0 0 0 0 0 0 0 0 0 0 0 0 0 0 127 0" result="hardAlpha"/>
<feOffset dy="1.37972"/>
<feGaussianBlur stdDeviation="2.75944"/>
<feComposite in2="hardAlpha" operator="arithmetic" k2="-1" k3="1"/>
<feColorMatrix type="matrix" values="0 0 0 0 1 0 0 0 0 1 0 0 0 0 1 0 0 0 0.4 0"/>
<feBlend mode="normal" in2="shape" result="effect2_innerShadow_100_17001"/>
</filter>
<filter id="filter2_bi_100_17001" x="19.335" y="13.8506" width="24.3827" height="24.3827" filterUnits="userSpaceOnUse" color-interpolation-filters="sRGB">
<feFlood flood-opacity="0" result="BackgroundImageFix"/>
<feGaussianBlur in="BackgroundImageFix" stdDeviation="4.13916"/>
<feComposite in2="SourceAlpha" operator="in" result="effect1_backgroundBlur_100_17001"/>
<feBlend mode="normal" in="SourceGraphic" in2="effect1_backgroundBlur_100_17001" result="shape"/>
<feColorMatrix in="SourceAlpha" type="matrix" values="0 0 0 0 0 0 0 0 0 0 0 0 0 0 0 0 0 0 127 0" result="hardAlpha"/>
<feOffset dy="1.37972"/>
<feGaussianBlur stdDeviation="2.75944"/>
<feComposite in2="hardAlpha" operator="arithmetic" k2="-1" k3="1"/>
<feColorMatrix type="matrix" values="0 0 0 0 1 0 0 0 0 1 0 0 0 0 1 0 0 0 0.4 0"/>
<feBlend mode="normal" in2="shape" result="effect2_innerShadow_100_17001"/>
</filter>
<filter id="filter3_bi_100_17001" x="6.81152" y="20.8975" width="24.3827" height="24.3827" filterUnits="userSpaceOnUse" color-interpolation-filters="sRGB">
<feFlood flood-opacity="0" result="BackgroundImageFix"/>
<feGaussianBlur in="BackgroundImageFix" stdDeviation="4.13916"/>
<feComposite in2="SourceAlpha" operator="in" result="effect1_backgroundBlur_100_17001"/>
<feBlend mode="normal" in="SourceGraphic" in2="effect1_backgroundBlur_100_17001" result="shape"/>
<feColorMatrix in="SourceAlpha" type="matrix" values="0 0 0 0 0 0 0 0 0 0 0 0 0 0 0 0 0 0 127 0" result="hardAlpha"/>
<feOffset dy="1.37972"/>
<feGaussianBlur stdDeviation="2.75944"/>
<feComposite in2="hardAlpha" operator="arithmetic" k2="-1" k3="1"/>
<feColorMatrix type="matrix" values="0 0 0 0 1 0 0 0 0 1 0 0 0 0 1 0 0 0 0.4 0"/>
<feBlend mode="normal" in2="shape" result="effect2_innerShadow_100_17001"/>
</filter>
<filter id="filter4_bi_100_17001" x="-5.71582" y="13.8506" width="24.3827" height="24.3827" filterUnits="userSpaceOnUse" color-interpolation-filters="sRGB">
<feFlood flood-opacity="0" result="BackgroundImageFix"/>
<feGaussianBlur in="BackgroundImageFix" stdDeviation="4.13916"/>
<feComposite in2="SourceAlpha" operator="in" result="effect1_backgroundBlur_100_17001"/>
<feBlend mode="normal" in="SourceGraphic" in2="effect1_backgroundBlur_100_17001" result="shape"/>
<feColorMatrix in="SourceAlpha" type="matrix" values="0 0 0 0 0 0 0 0 0 0 0 0 0 0 0 0 0 0 127 0" result="hardAlpha"/>
<feOffset dy="1.37972"/>
<feGaussianBlur stdDeviation="2.75944"/>
<feComposite in2="hardAlpha" operator="arithmetic" k2="-1" k3="1"/>
<feColorMatrix type="matrix" values="0 0 0 0 1 0 0 0 0 1 0 0 0 0 1 0 0 0 0.4 0"/>
<feBlend mode="normal" in2="shape" result="effect2_innerShadow_100_17001"/>
</filter>
<filter id="filter5_bi_100_17001" x="-5.71582" y="-0.239258" width="24.3827" height="24.3827" filterUnits="userSpaceOnUse" color-interpolation-filters="sRGB">
<feFlood flood-opacity="0" result="BackgroundImageFix"/>
<feGaussianBlur in="BackgroundImageFix" stdDeviation="4.13916"/>
<feComposite in2="SourceAlpha" operator="in" result="effect1_backgroundBlur_100_17001"/>
<feBlend mode="normal" in="SourceGraphic" in2="effect1_backgroundBlur_100_17001" result="shape"/>
<feColorMatrix in="SourceAlpha" type="matrix" values="0 0 0 0 0 0 0 0 0 0 0 0 0 0 0 0 0 0 127 0" result="hardAlpha"/>
<feOffset dy="1.37972"/>
<feGaussianBlur stdDeviation="2.75944"/>
<feComposite in2="hardAlpha" operator="arithmetic" k2="-1" k3="1"/>
<feColorMatrix type="matrix" values="0 0 0 0 1 0 0 0 0 1 0 0 0 0 1 0 0 0 0.4 0"/>
<feBlend mode="normal" in2="shape" result="effect2_innerShadow_100_17001"/>
</filter>
<filter id="filter6_bi_100_17001" x="6.81152" y="-7.27832" width="24.3827" height="24.3827" filterUnits="userSpaceOnUse" color-interpolation-filters="sRGB">
<feFlood flood-opacity="0" result="BackgroundImageFix"/>
<feGaussianBlur in="BackgroundImageFix" stdDeviation="4.13916"/>
<feComposite in2="SourceAlpha" operator="in" result="effect1_backgroundBlur_100_17001"/>
<feBlend mode="normal" in="SourceGraphic" in2="effect1_backgroundBlur_100_17001" result="shape"/>
<feColorMatrix in="SourceAlpha" type="matrix" values="0 0 0 0 0 0 0 0 0 0 0 0 0 0 0 0 0 0 127 0" result="hardAlpha"/>
<feOffset dy="1.37972"/>
<feGaussianBlur stdDeviation="2.75944"/>
<feComposite in2="hardAlpha" operator="arithmetic" k2="-1" k3="1"/>
<feColorMatrix type="matrix" values="0 0 0 0 1 0 0 0 0 1 0 0 0 0 1 0 0 0 0.4 0"/>
<feBlend mode="normal" in2="shape" result="effect2_innerShadow_100_17001"/>
</filter>
<linearGradient id="paint0_linear_100_17001" x1="6.63852" y1="32.6828" x2="35.7447" y2="22.9553" gradientUnits="userSpaceOnUse">
<stop stop-color="#3F70D8"/>
<stop offset="1" stop-color="#E2EEFE"/>
</linearGradient>
<linearGradient id="paint1_linear_100_17001" x1="18.7451" y1="15.5344" x2="18.7451" y2="8.70514" gradientUnits="userSpaceOnUse">
<stop stop-color="#3F70D8"/>
<stop offset="1" stop-color="#E2EEFE"/>
</linearGradient>
<linearGradient id="paint2_linear_100_17001" x1="19.0788" y1="22.0704" x2="19.0788" y2="31.2426" gradientUnits="userSpaceOnUse">
<stop stop-color="#3F70D8"/>
<stop offset="1" stop-color="#E2EEFE"/>
</linearGradient>
<linearGradient id="paint3_linear_100_17001" x1="21.1332" y1="18.0063" x2="29.0518" y2="13.9004" gradientUnits="userSpaceOnUse">
<stop stop-color="#3F70D8"/>
<stop offset="1" stop-color="#E2EEFE"/>
</linearGradient>
<linearGradient id="paint4_linear_100_17001" x1="17.1474" y1="20.0311" x2="9.11606" y2="24.4614" gradientUnits="userSpaceOnUse">
<stop stop-color="#3F70D8"/>
<stop offset="1" stop-color="#E2EEFE"/>
</linearGradient>
<linearGradient id="paint5_linear_100_17001" x1="17.023" y1="18.0063" x2="9.10443" y2="13.9004" gradientUnits="userSpaceOnUse">
<stop stop-color="#3F70D8"/>
<stop offset="1" stop-color="#E2EEFE"/>
</linearGradient>
<linearGradient id="paint6_linear_100_17001" x1="21.0088" y1="20.0311" x2="29.0402" y2="24.4614" gradientUnits="userSpaceOnUse">
<stop stop-color="#3F70D8"/>
<stop offset="1" stop-color="#E2EEFE"/>
</linearGradient>
<linearGradient id="paint7_linear_100_17001" x1="19.0029" y1="15.0898" x2="19.0029" y2="22.9159" gradientUnits="userSpaceOnUse">
<stop stop-color="#D3E3FF"/>
<stop offset="1" stop-color="#B1CAF1" stop-opacity="0.15"/>
</linearGradient>
<linearGradient id="paint8_linear_100_17001" x1="31.5263" y1="8.03906" x2="31.5263" y2="15.8651" gradientUnits="userSpaceOnUse">
<stop stop-color="#D3E3FF"/>
<stop offset="1" stop-color="#B1CAF1" stop-opacity="0.15"/>
</linearGradient>
<linearGradient id="paint9_linear_100_17001" x1="31.5263" y1="22.1289" x2="31.5263" y2="29.955" gradientUnits="userSpaceOnUse">
<stop stop-color="#D3E3FF"/>
<stop offset="1" stop-color="#B1CAF1" stop-opacity="0.15"/>
</linearGradient>
<linearGradient id="paint10_linear_100_17001" x1="19.0029" y1="29.1758" x2="19.0029" y2="37.0019" gradientUnits="userSpaceOnUse">
<stop stop-color="#D3E3FF"/>
<stop offset="1" stop-color="#B1CAF1" stop-opacity="0.15"/>
</linearGradient>
<linearGradient id="paint11_linear_100_17001" x1="6.47554" y1="22.1289" x2="6.47554" y2="29.955" gradientUnits="userSpaceOnUse">
<stop stop-color="#D3E3FF"/>
<stop offset="1" stop-color="#B1CAF1" stop-opacity="0.15"/>
</linearGradient>
<linearGradient id="paint12_linear_100_17001" x1="6.47554" y1="8.03906" x2="6.47554" y2="15.8651" gradientUnits="userSpaceOnUse">
<stop stop-color="#D3E3FF"/>
<stop offset="1" stop-color="#B1CAF1" stop-opacity="0.15"/>
</linearGradient>
<linearGradient id="paint13_linear_100_17001" x1="19.0029" y1="1" x2="19.0029" y2="8.82609" gradientUnits="userSpaceOnUse">
<stop stop-color="#D3E3FF"/>
<stop offset="1" stop-color="#B1CAF1" stop-opacity="0.15"/>
</linearGradient>
<clipPath id="clip0_100_17001">
<rect width="36" height="36" fill="white" transform="translate(1 1)"/>
</clipPath>
</defs>
</svg>
