<svg width="21" height="24" viewBox="0 0 21 24" fill="none" xmlns="http://www.w3.org/2000/svg">
<path fill-rule="evenodd" clip-rule="evenodd" d="M18.1823 1.13578C16.227 2.25573 12.6065 4.34775 11.6797 4.8931C10.7479 5.44142 10.2916 6.09964 10.1928 7.03767C10.1718 7.23748 10.1543 8.11336 10.1539 8.98401C10.1532 10.545 10.152 10.5696 10.064 10.7479C10.0149 10.8473 9.91664 10.9872 9.84559 11.0588C9.68505 11.2204 9.34457 11.3285 9.10767 11.293C8.9949 11.276 8.50574 11.0202 7.57504 10.4916C6.02512 9.61119 5.6877 9.43499 5.43486 9.37403C4.94554 9.25613 4.40864 9.2772 3.92487 9.43336C3.72163 9.499 2.56464 10.1446 0.900774 11.1209C0.084066 11.6002 0.0032196 11.6774 0.0029817 11.9792C0.00262485 12.368 -0.277382 12.1848 4.68115 15.0403C8.17704 17.0536 9.25148 17.6547 9.44604 17.7064C9.60503 17.7486 9.85927 17.7742 10.1388 17.7759C10.8562 17.7803 10.9589 17.7386 12.7623 16.7115C14.2047 15.89 14.3332 15.825 14.5529 15.805C14.7592 15.7863 14.8184 15.7981 15.0138 15.897C15.2415 16.0124 15.3804 16.1557 15.472 16.3699C15.5097 16.4582 15.5288 16.9739 15.5462 18.3738C15.5688 20.2001 15.5724 20.2675 15.6606 20.5367C15.7999 20.9615 15.9996 21.3106 16.2708 21.603C16.4972 21.8471 16.643 21.9419 18.0832 22.7809C20.103 23.9576 20.2423 24.0294 20.4346 23.9933C20.6275 23.9571 20.8466 23.762 20.9001 23.5788C20.9295 23.4781 20.9387 21.8416 20.9303 18.2349L20.9181 13.0362L20.8062 12.7187C20.6421 12.2533 20.484 12.0007 20.1477 11.6665C19.8324 11.3533 19.7439 11.297 17.767 10.155C17.2941 9.88176 16.8435 9.59186 16.7535 9.50297C16.4684 9.22117 16.4179 8.76193 16.6319 8.3964C16.7523 8.19079 16.7496 8.19265 17.766 7.6004C19.5807 6.54284 19.9115 6.3364 20.1192 6.13182C20.3969 5.85823 20.6836 5.39281 20.8103 5.00961L20.912 4.70241L20.915 2.57928C20.9167 1.41155 20.9044 0.406849 20.8876 0.346647C20.8395 0.174574 20.5669 -0.000277463 20.3472 3.30571e-07C20.181 0.000198755 19.9881 0.101395 18.1823 1.13578ZM15.5626 8.91182C15.6168 8.96607 15.6249 9.14977 15.6249 10.3233C15.6249 11.6955 15.6118 11.8268 15.4748 11.8249C15.4374 11.8244 14.8715 11.5139 14.2173 11.1349C13.1174 10.4977 13.0278 10.4376 13.0278 10.3377C13.0278 10.2377 13.1174 10.1776 14.2173 9.54043C14.8715 9.1614 15.4278 8.85091 15.4535 8.85039C15.4792 8.84987 15.5283 8.87753 15.5626 8.91182ZM12.8415 10.5242C12.9097 10.5924 12.9097 13.2974 12.8415 13.3656C12.8153 13.3918 12.7573 13.4128 12.7126 13.4123C12.6087 13.4111 10.3546 12.1069 10.2964 12.0143C10.2654 11.9651 10.265 11.9255 10.2947 11.8782C10.3518 11.7876 12.6105 10.4794 12.7126 10.4778C12.7573 10.4771 12.8153 10.498 12.8415 10.5242ZM15.5773 12.1116C15.6125 12.1468 15.6249 12.5184 15.6249 13.5374C15.6249 14.7374 15.6168 14.9236 15.5626 14.978C15.5283 15.0123 15.4866 15.0403 15.4699 15.0403C15.4532 15.0403 15.111 14.8509 14.7095 14.6193C14.3079 14.3877 13.7697 14.0797 13.5133 13.9347C13.0468 13.6709 12.9326 13.5522 13.0409 13.4438C13.1349 13.3497 15.3725 12.0702 15.4484 12.0672C15.4932 12.0654 15.5511 12.0854 15.5773 12.1116Z" fill="white"/>
</svg>
