<svg width="427" height="48" viewBox="0 0 427 48" fill="none" xmlns="http://www.w3.org/2000/svg">
<g filter="url(#filter0_b_1900_43024)">
<rect width="427" height="48" rx="24" fill="url(#paint0_radial_1900_43024)" fill-opacity="0.35"/>
<path d="M38.9092 30H36.6152L35.4814 26.792H30.5244L29.4346 30H27.1494L31.8691 17.3965H34.2246L38.9092 30ZM34.9277 25.0869L33.1787 20.0596C33.126 19.8955 33.0703 19.6318 33.0117 19.2686H32.9766C32.9238 19.6025 32.8652 19.8662 32.8008 20.0596L31.0693 25.0869H34.9277ZM39.7504 29.7188V27.8291C40.5121 28.4092 41.3529 28.6992 42.2729 28.6992C43.5033 28.6992 44.1186 28.3359 44.1186 27.6094C44.1186 27.4043 44.0658 27.2314 43.9604 27.0908C43.8549 26.9443 43.7113 26.8154 43.5297 26.7041C43.3539 26.5928 43.143 26.4932 42.8969 26.4053C42.6566 26.3174 42.3871 26.2178 42.0883 26.1064C41.7191 25.96 41.3852 25.8047 41.0863 25.6406C40.7934 25.4766 40.5473 25.292 40.3481 25.0869C40.1547 24.876 40.0082 24.6387 39.9086 24.375C39.809 24.1113 39.7592 23.8037 39.7592 23.4521C39.7592 23.0186 39.8617 22.6377 40.0668 22.3096C40.2719 21.9756 40.5473 21.6973 40.893 21.4746C41.2387 21.2461 41.6313 21.0762 42.0707 20.9648C42.5102 20.8477 42.9643 20.7891 43.433 20.7891C44.265 20.7891 45.0092 20.915 45.6654 21.167V22.9512C45.0326 22.5176 44.3061 22.3008 43.4858 22.3008C43.2279 22.3008 42.9936 22.3271 42.7826 22.3799C42.5775 22.4326 42.4018 22.5059 42.2553 22.5996C42.1088 22.6934 41.9945 22.8076 41.9125 22.9424C41.8305 23.0713 41.7895 23.2148 41.7895 23.373C41.7895 23.5664 41.8305 23.7305 41.9125 23.8652C41.9945 24 42.1147 24.1201 42.2729 24.2256C42.4369 24.3252 42.6303 24.4189 42.8529 24.5068C43.0815 24.5889 43.3422 24.6797 43.6352 24.7793C44.0219 24.9375 44.3676 25.0986 44.6723 25.2627C44.9828 25.4268 45.2465 25.6143 45.4633 25.8252C45.6801 26.0303 45.8471 26.2705 45.9643 26.5459C46.0815 26.8154 46.14 27.1377 46.14 27.5127C46.14 27.9697 46.0346 28.3682 45.8236 28.708C45.6127 29.0479 45.3315 29.3291 44.9799 29.5518C44.6283 29.7744 44.2211 29.9385 43.7582 30.0439C43.3012 30.1553 42.8178 30.2109 42.308 30.2109C41.3236 30.2109 40.4711 30.0469 39.7504 29.7188ZM52.7205 29.9033C52.3221 30.1025 51.7977 30.2021 51.1473 30.2021C49.4012 30.2021 48.5281 29.3643 48.5281 27.6885V22.5996H47.0252V21H48.5281V18.917L50.5672 18.3369V21H52.7205V22.5996H50.5672V27.0996C50.5672 27.6328 50.6639 28.0137 50.8572 28.2422C51.0506 28.4707 51.3729 28.585 51.824 28.585C52.1697 28.585 52.4686 28.4854 52.7205 28.2861V29.9033ZM61.885 26.0537H55.7502C55.7737 26.8857 56.0285 27.5273 56.5149 27.9785C57.0071 28.4297 57.6809 28.6553 58.5364 28.6553C59.4973 28.6553 60.3791 28.3682 61.1819 27.7939V29.4375C60.3615 29.9531 59.2776 30.2109 57.9299 30.2109C56.6057 30.2109 55.5656 29.8037 54.8098 28.9893C54.0598 28.1689 53.6848 27.0176 53.6848 25.5352C53.6848 24.1348 54.0979 22.9951 54.924 22.1162C55.7561 21.2314 56.7873 20.7891 58.0178 20.7891C59.2483 20.7891 60.2004 21.1846 60.8742 21.9756C61.5481 22.7666 61.885 23.8652 61.885 25.2715V26.0537ZM59.9162 24.6123C59.9104 23.8799 59.7375 23.3115 59.3977 22.9072C59.0578 22.4971 58.5891 22.292 57.9914 22.292C57.4055 22.292 56.9074 22.5059 56.4973 22.9336C56.093 23.3613 55.844 23.9209 55.7502 24.6123H59.9162ZM68.9401 22.9424C68.694 22.749 68.3395 22.6523 67.8766 22.6523C67.2731 22.6523 66.7692 22.9248 66.3649 23.4697C65.9606 24.0146 65.7584 24.7559 65.7584 25.6934V30H63.7194V21H65.7584V22.8545H65.7936C65.9928 22.2217 66.2975 21.7295 66.7076 21.3779C67.1237 21.0205 67.5866 20.8418 68.0963 20.8418C68.4655 20.8418 68.7467 20.8975 68.9401 21.0088V22.9424ZM71.3018 19.1104C70.9678 19.1104 70.6807 19.002 70.4405 18.7852C70.2061 18.5684 70.0889 18.293 70.0889 17.959C70.0889 17.625 70.2061 17.3467 70.4405 17.124C70.6807 16.9014 70.9678 16.79 71.3018 16.79C71.6475 16.79 71.9405 16.9014 72.1807 17.124C72.4209 17.3467 72.5411 17.625 72.5411 17.959C72.5411 18.2754 72.4209 18.5479 72.1807 18.7764C71.9405 18.999 71.6475 19.1104 71.3018 19.1104ZM72.3125 30H70.2735V21H72.3125V30ZM81.5209 21.8525L76.6606 28.4092H81.5034V30H73.8041V29.2354L78.77 22.5908H74.2788V21H81.5209V21.8525ZM96.5917 30H94.5526V25.0957C94.5526 24.1523 94.4178 23.4697 94.1483 23.0479C93.8846 22.626 93.4364 22.415 92.8036 22.415C92.2704 22.415 91.8163 22.6816 91.4413 23.2148C91.0721 23.748 90.8876 24.3867 90.8876 25.1309V30H88.8397V24.9287C88.8397 23.2529 88.2479 22.415 87.0643 22.415C86.5135 22.415 86.0594 22.667 85.702 23.1709C85.3504 23.6748 85.1747 24.3281 85.1747 25.1309V30H83.1356V21H85.1747V22.4238H85.2098C85.8602 21.334 86.8065 20.7891 88.0487 20.7891C88.6698 20.7891 89.2118 20.9619 89.6747 21.3076C90.1434 21.6475 90.4627 22.0957 90.6327 22.6523C91.3006 21.4102 92.2967 20.7891 93.621 20.7891C95.6014 20.7891 96.5917 22.0107 96.5917 24.4541V30ZM113.787 30H111.343L109.331 26.625C109.149 26.3145 108.97 26.0508 108.795 25.834C108.625 25.6113 108.449 25.4297 108.267 25.2891C108.091 25.1484 107.898 25.0459 107.687 24.9814C107.476 24.917 107.239 24.8848 106.975 24.8848H106.132V30H104.049V17.3965H108.197C108.789 17.3965 109.334 17.4668 109.832 17.6074C110.33 17.748 110.763 17.9619 111.132 18.249C111.502 18.5303 111.789 18.8848 111.994 19.3125C112.205 19.7344 112.31 20.2295 112.31 20.7979C112.31 21.2432 112.243 21.6533 112.108 22.0283C111.979 22.3975 111.792 22.7285 111.546 23.0215C111.305 23.3086 111.012 23.5547 110.667 23.7598C110.327 23.9648 109.943 24.123 109.515 24.2344V24.2695C109.744 24.3984 109.943 24.542 110.113 24.7002C110.283 24.8525 110.444 25.0107 110.596 25.1748C110.749 25.3389 110.898 25.5264 111.045 25.7373C111.197 25.9424 111.364 26.1826 111.546 26.458L113.787 30ZM106.132 19.0928V23.1885H107.872C108.194 23.1885 108.49 23.1387 108.759 23.0391C109.035 22.9395 109.272 22.7959 109.471 22.6084C109.671 22.4209 109.826 22.1924 109.937 21.9229C110.049 21.6533 110.104 21.3516 110.104 21.0176C110.104 20.4141 109.914 19.9424 109.533 19.6025C109.152 19.2627 108.604 19.0928 107.889 19.0928H106.132ZM122.072 26.0537H115.938C115.961 26.8857 116.216 27.5273 116.702 27.9785C117.194 28.4297 117.868 28.6553 118.724 28.6553C119.685 28.6553 120.566 28.3682 121.369 27.7939V29.4375C120.549 29.9531 119.465 30.2109 118.117 30.2109C116.793 30.2109 115.753 29.8037 114.997 28.9893C114.247 28.1689 113.872 27.0176 113.872 25.5352C113.872 24.1348 114.285 22.9951 115.111 22.1162C115.943 21.2314 116.975 20.7891 118.205 20.7891C119.436 20.7891 120.388 21.1846 121.062 21.9756C121.735 22.7666 122.072 23.8652 122.072 25.2715V26.0537ZM120.104 24.6123C120.098 23.8799 119.925 23.3115 119.585 22.9072C119.245 22.4971 118.776 22.292 118.179 22.292C117.593 22.292 117.095 22.5059 116.685 22.9336C116.28 23.3613 116.031 23.9209 115.938 24.6123H120.104ZM125.955 30H123.907V16.6758H125.955V30ZM135.418 30H133.44V28.5938H133.405C132.784 29.6719 131.873 30.2109 130.672 30.2109C129.787 30.2109 129.093 29.9707 128.589 29.4902C128.091 29.0098 127.842 28.374 127.842 27.583C127.842 25.8838 128.82 24.8936 130.777 24.6123L133.449 24.2344C133.449 22.9512 132.84 22.3096 131.621 22.3096C130.549 22.3096 129.582 22.6787 128.721 23.417V21.6328C129.67 21.0703 130.766 20.7891 132.008 20.7891C134.281 20.7891 135.418 21.9082 135.418 24.1465V30ZM133.449 25.5791L131.559 25.8428C130.974 25.9189 130.531 26.0625 130.232 26.2734C129.939 26.4785 129.793 26.8418 129.793 27.3633C129.793 27.7441 129.928 28.0576 130.197 28.3037C130.473 28.5439 130.839 28.6641 131.296 28.6641C131.917 28.6641 132.43 28.4473 132.834 28.0137C133.244 27.5742 133.449 27.0234 133.449 26.3613V25.5791ZM145.602 21L141.541 31.4414C140.698 33.3047 139.514 34.2363 137.991 34.2363C137.563 34.2363 137.205 34.1982 136.918 34.1221V32.4258C137.241 32.5312 137.534 32.584 137.797 32.584C138.559 32.584 139.127 32.209 139.502 31.459L140.109 29.9824L136.532 21H138.79L140.935 27.5391C140.958 27.6211 141.011 27.8379 141.093 28.1895H141.137C141.166 28.0547 141.219 27.8438 141.295 27.5566L143.545 21H145.602ZM154.336 26.0537H148.201C148.224 26.8857 148.479 27.5273 148.966 27.9785C149.458 28.4297 150.132 28.6553 150.987 28.6553C151.948 28.6553 152.83 28.3682 153.633 27.7939V29.4375C152.812 29.9531 151.728 30.2109 150.381 30.2109C149.056 30.2109 148.016 29.8037 147.26 28.9893C146.51 28.1689 146.135 27.0176 146.135 25.5352C146.135 24.1348 146.549 22.9951 147.375 22.1162C148.207 21.2314 149.238 20.7891 150.468 20.7891C151.699 20.7891 152.651 21.1846 153.325 21.9756C153.999 22.7666 154.336 23.8652 154.336 25.2715V26.0537ZM152.367 24.6123C152.361 23.8799 152.188 23.3115 151.848 22.9072C151.509 22.4971 151.04 22.292 150.442 22.292C149.856 22.292 149.358 22.5059 148.948 22.9336C148.544 23.3613 148.295 23.9209 148.201 24.6123H152.367ZM161.391 22.9424C161.145 22.749 160.79 22.6523 160.327 22.6523C159.724 22.6523 159.22 22.9248 158.816 23.4697C158.411 24.0146 158.209 24.7559 158.209 25.6934V30H156.17V21H158.209V22.8545H158.244C158.443 22.2217 158.748 21.7295 159.158 21.3779C159.574 21.0205 160.037 20.8418 160.547 20.8418C160.916 20.8418 161.197 20.8975 161.391 21.0088V22.9424ZM162.285 29.7188V27.8291C163.046 28.4092 163.887 28.6992 164.807 28.6992C166.038 28.6992 166.653 28.3359 166.653 27.6094C166.653 27.4043 166.6 27.2314 166.495 27.0908C166.389 26.9443 166.246 26.8154 166.064 26.7041C165.888 26.5928 165.677 26.4932 165.431 26.4053C165.191 26.3174 164.921 26.2178 164.623 26.1064C164.253 25.96 163.919 25.8047 163.621 25.6406C163.328 25.4766 163.082 25.292 162.882 25.0869C162.689 24.876 162.543 24.6387 162.443 24.375C162.343 24.1113 162.293 23.8037 162.293 23.4521C162.293 23.0186 162.396 22.6377 162.601 22.3096C162.806 21.9756 163.082 21.6973 163.427 21.4746C163.773 21.2461 164.166 21.0762 164.605 20.9648C165.044 20.8477 165.499 20.7891 165.967 20.7891C166.799 20.7891 167.543 20.915 168.2 21.167V22.9512C167.567 22.5176 166.84 22.3008 166.02 22.3008C165.762 22.3008 165.528 22.3271 165.317 22.3799C165.112 22.4326 164.936 22.5059 164.79 22.5996C164.643 22.6934 164.529 22.8076 164.447 22.9424C164.365 23.0713 164.324 23.2148 164.324 23.373C164.324 23.5664 164.365 23.7305 164.447 23.8652C164.529 24 164.649 24.1201 164.807 24.2256C164.971 24.3252 165.165 24.4189 165.387 24.5068C165.616 24.5889 165.876 24.6797 166.169 24.7793C166.556 24.9375 166.902 25.0986 167.207 25.2627C167.517 25.4268 167.781 25.6143 167.998 25.8252C168.214 26.0303 168.381 26.2705 168.499 26.5459C168.616 26.8154 168.674 27.1377 168.674 27.5127C168.674 27.9697 168.569 28.3682 168.358 28.708C168.147 29.0479 167.866 29.3291 167.514 29.5518C167.163 29.7744 166.755 29.9385 166.293 30.0439C165.835 30.1553 165.352 30.2109 164.842 30.2109C163.858 30.2109 163.005 30.0469 162.285 29.7188ZM182.266 30H180.288V28.5938H180.253C179.632 29.6719 178.721 30.2109 177.52 30.2109C176.635 30.2109 175.941 29.9707 175.437 29.4902C174.939 29.0098 174.69 28.374 174.69 27.583C174.69 25.8838 175.668 24.8936 177.625 24.6123L180.297 24.2344C180.297 22.9512 179.688 22.3096 178.469 22.3096C177.397 22.3096 176.43 22.6787 175.569 23.417V21.6328C176.518 21.0703 177.614 20.7891 178.856 20.7891C181.129 20.7891 182.266 21.9082 182.266 24.1465V30ZM180.297 25.5791L178.408 25.8428C177.822 25.9189 177.379 26.0625 177.08 26.2734C176.787 26.4785 176.641 26.8418 176.641 27.3633C176.641 27.7441 176.776 28.0576 177.045 28.3037C177.321 28.5439 177.687 28.6641 178.144 28.6641C178.765 28.6641 179.278 28.4473 179.682 28.0137C180.092 27.5742 180.297 27.0234 180.297 26.3613V25.5791ZM192.67 30H190.631V24.9287C190.631 23.2471 190.036 22.4062 188.846 22.4062C188.225 22.4062 187.713 22.6406 187.308 23.1094C186.904 23.5723 186.702 24.1582 186.702 24.8672V30H184.654V21H186.702V22.4941H186.737C187.411 21.3574 188.384 20.7891 189.655 20.7891C190.634 20.7891 191.381 21.1084 191.896 21.7471C192.412 22.3799 192.67 23.2969 192.67 24.498V30ZM203.24 30H201.201V28.4707H201.166C200.51 29.6309 199.499 30.2109 198.134 30.2109C197.027 30.2109 196.139 29.8096 195.471 29.0068C194.809 28.1982 194.478 27.0996 194.478 25.7109C194.478 24.2227 194.844 23.0303 195.576 22.1338C196.315 21.2373 197.296 20.7891 198.521 20.7891C199.734 20.7891 200.615 21.2754 201.166 22.248H201.201V16.6758H203.24V30ZM201.228 25.8867V24.709C201.228 24.0703 201.02 23.5283 200.604 23.083C200.188 22.6377 199.657 22.415 199.013 22.415C198.251 22.415 197.651 22.6992 197.211 23.2676C196.777 23.8359 196.561 24.624 196.561 25.6318C196.561 26.5459 196.769 27.2695 197.185 27.8027C197.607 28.3301 198.172 28.5938 198.881 28.5938C199.578 28.5938 200.144 28.3389 200.577 27.8291C201.011 27.3135 201.228 26.666 201.228 25.8867ZM219.662 29.4727C218.713 29.9648 217.532 30.2109 216.12 30.2109C214.292 30.2109 212.827 29.6338 211.726 28.4795C210.624 27.3252 210.073 25.8105 210.073 23.9355C210.073 21.9199 210.691 20.291 211.928 19.0488C213.17 17.8066 214.737 17.1855 216.63 17.1855C217.849 17.1855 218.859 17.3584 219.662 17.7041V19.7783C218.812 19.2744 217.875 19.0225 216.85 19.0225C215.484 19.0225 214.377 19.459 213.527 20.332C212.684 21.2051 212.262 22.3711 212.262 23.8301C212.262 25.2188 212.657 26.3262 213.448 27.1523C214.239 27.9727 215.279 28.3828 216.568 28.3828C217.758 28.3828 218.789 28.1016 219.662 27.5391V29.4727ZM223.764 30H221.716V16.6758H223.764V30ZM227.347 19.1104C227.013 19.1104 226.726 19.002 226.486 18.7852C226.252 18.5684 226.135 18.293 226.135 17.959C226.135 17.625 226.252 17.3467 226.486 17.124C226.726 16.9014 227.013 16.79 227.347 16.79C227.693 16.79 227.986 16.9014 228.226 17.124C228.467 17.3467 228.587 17.625 228.587 17.959C228.587 18.2754 228.467 18.5479 228.226 18.7764C227.986 18.999 227.693 19.1104 227.347 19.1104ZM228.358 30H226.319V21H228.358V30ZM238.542 26.0537H232.407C232.431 26.8857 232.686 27.5273 233.172 27.9785C233.664 28.4297 234.338 28.6553 235.194 28.6553C236.154 28.6553 237.036 28.3682 237.839 27.7939V29.4375C237.019 29.9531 235.935 30.2109 234.587 30.2109C233.263 30.2109 232.223 29.8037 231.467 28.9893C230.717 28.1689 230.342 27.0176 230.342 25.5352C230.342 24.1348 230.755 22.9951 231.581 22.1162C232.413 21.2314 233.445 20.7891 234.675 20.7891C235.905 20.7891 236.858 21.1846 237.531 21.9756C238.205 22.7666 238.542 23.8652 238.542 25.2715V26.0537ZM236.573 24.6123C236.568 23.8799 236.395 23.3115 236.055 22.9072C235.715 22.4971 235.246 22.292 234.649 22.292C234.063 22.292 233.565 22.5059 233.154 22.9336C232.75 23.3613 232.501 23.9209 232.407 24.6123H236.573ZM248.392 30H246.353V24.9287C246.353 23.2471 245.758 22.4062 244.569 22.4062C243.948 22.4062 243.435 22.6406 243.031 23.1094C242.627 23.5723 242.424 24.1582 242.424 24.8672V30H240.377V21H242.424V22.4941H242.46C243.133 21.3574 244.106 20.7891 245.378 20.7891C246.356 20.7891 247.103 21.1084 247.619 21.7471C248.134 22.3799 248.392 23.2969 248.392 24.498V30ZM255.526 29.9033C255.128 30.1025 254.604 30.2021 253.953 30.2021C252.207 30.2021 251.334 29.3643 251.334 27.6885V22.5996H249.831V21H251.334V18.917L253.373 18.3369V21H255.526V22.5996H253.373V27.0996C253.373 27.6328 253.47 28.0137 253.663 28.2422C253.856 28.4707 254.179 28.585 254.63 28.585C254.976 28.585 255.274 28.4854 255.526 28.2861V29.9033ZM266.015 30.2109C264.627 30.2109 263.516 29.792 262.684 28.9541C261.858 28.1104 261.445 26.9941 261.445 25.6055C261.445 24.0938 261.876 22.9131 262.737 22.0635C263.604 21.2139 264.77 20.7891 266.235 20.7891C267.641 20.7891 268.737 21.2021 269.522 22.0283C270.307 22.8545 270.7 24 270.7 25.4648C270.7 26.9004 270.275 28.0518 269.426 28.9189C268.582 29.7803 267.445 30.2109 266.015 30.2109ZM266.112 22.415C265.315 22.415 264.685 22.6934 264.222 23.25C263.76 23.8066 263.528 24.5742 263.528 25.5527C263.528 26.4961 263.763 27.2402 264.231 27.7852C264.7 28.3242 265.327 28.5938 266.112 28.5938C266.915 28.5938 267.53 28.3271 267.958 27.7939C268.391 27.2607 268.608 26.502 268.608 25.5176C268.608 24.5273 268.391 23.7627 267.958 23.2236C267.53 22.6846 266.915 22.415 266.112 22.415ZM277.465 18.3369C277.19 18.1787 276.876 18.0996 276.525 18.0996C275.534 18.0996 275.039 18.6592 275.039 19.7783V21H277.131V22.5996H275.048V30H273.009V22.5996H271.471V21H273.009V19.541C273.009 18.5918 273.32 17.8447 273.941 17.2998C274.562 16.749 275.338 16.4736 276.27 16.4736C276.774 16.4736 277.172 16.5293 277.465 16.6406V18.3369ZM283.562 18.3369C283.287 18.1787 282.973 18.0996 282.622 18.0996C281.631 18.0996 281.136 18.6592 281.136 19.7783V21H283.228V22.5996H281.145V30H279.106V22.5996H277.568V21H279.106V19.541C279.106 18.5918 279.417 17.8447 280.038 17.2998C280.659 16.749 281.435 16.4736 282.367 16.4736C282.871 16.4736 283.269 16.5293 283.562 16.6406V18.3369ZM288.482 25.834H283.683V24.3311H288.482V25.834ZM297.321 29.5869C296.6 30.0029 295.748 30.2109 294.763 30.2109C293.427 30.2109 292.349 29.7949 291.529 28.9629C290.708 28.125 290.298 27.041 290.298 25.7109C290.298 24.2285 290.738 23.0391 291.617 22.1426C292.501 21.2402 293.682 20.7891 295.159 20.7891C295.979 20.7891 296.703 20.9326 297.33 21.2197V23.1182C296.703 22.6494 296.035 22.415 295.326 22.415C294.464 22.415 293.758 22.708 293.207 23.2939C292.657 23.874 292.381 24.6357 292.381 25.5791C292.381 26.5107 292.639 27.2461 293.155 27.7852C293.676 28.3242 294.374 28.5938 295.247 28.5938C295.979 28.5938 296.67 28.333 297.321 27.8115V29.5869ZM307.241 30H305.202V25.0781C305.202 23.2969 304.607 22.4062 303.418 22.4062C302.82 22.4062 302.316 22.6641 301.906 23.1797C301.496 23.6953 301.291 24.3545 301.291 25.1572V30H299.243V16.6758H301.291V22.4941H301.326C302.006 21.3574 302.978 20.7891 304.244 20.7891C306.242 20.7891 307.241 22.0107 307.241 24.4541V30ZM316.52 30H314.542V28.5938H314.507C313.886 29.6719 312.975 30.2109 311.774 30.2109C310.889 30.2109 310.195 29.9707 309.691 29.4902C309.193 29.0098 308.944 28.374 308.944 27.583C308.944 25.8838 309.922 24.8936 311.879 24.6123L314.551 24.2344C314.551 22.9512 313.942 22.3096 312.723 22.3096C311.651 22.3096 310.684 22.6787 309.823 23.417V21.6328C310.772 21.0703 311.867 20.7891 313.11 20.7891C315.383 20.7891 316.52 21.9082 316.52 24.1465V30ZM314.551 25.5791L312.661 25.8428C312.075 25.9189 311.633 26.0625 311.334 26.2734C311.041 26.4785 310.895 26.8418 310.895 27.3633C310.895 27.7441 311.03 28.0576 311.299 28.3037C311.574 28.5439 311.941 28.6641 312.398 28.6641C313.019 28.6641 313.532 28.4473 313.936 28.0137C314.346 27.5742 314.551 27.0234 314.551 26.3613V25.5791ZM319.936 19.1104C319.602 19.1104 319.315 19.002 319.075 18.7852C318.841 18.5684 318.723 18.293 318.723 17.959C318.723 17.625 318.841 17.3467 319.075 17.124C319.315 16.9014 319.602 16.79 319.936 16.79C320.282 16.79 320.575 16.9014 320.815 17.124C321.055 17.3467 321.175 17.625 321.175 17.959C321.175 18.2754 321.055 18.5479 320.815 18.7764C320.575 18.999 320.282 19.1104 319.936 19.1104ZM320.947 30H318.908V21H320.947V30ZM331.526 30H329.487V24.9287C329.487 23.2471 328.893 22.4062 327.703 22.4062C327.082 22.4062 326.569 22.6406 326.165 23.1094C325.761 23.5723 325.559 24.1582 325.559 24.8672V30H323.511V21H325.559V22.4941H325.594C326.268 21.3574 327.24 20.7891 328.512 20.7891C329.49 20.7891 330.237 21.1084 330.753 21.7471C331.269 22.3799 331.526 23.2969 331.526 24.498V30ZM352.22 30H350.181V25.0957C350.181 24.1523 350.046 23.4697 349.776 23.0479C349.513 22.626 349.064 22.415 348.432 22.415C347.898 22.415 347.444 22.6816 347.069 23.2148C346.7 23.748 346.516 24.3867 346.516 25.1309V30H344.468V24.9287C344.468 23.2529 343.876 22.415 342.692 22.415C342.142 22.415 341.687 22.667 341.33 23.1709C340.978 23.6748 340.803 24.3281 340.803 25.1309V30H338.764V21H340.803V22.4238H340.838C341.488 21.334 342.434 20.7891 343.677 20.7891C344.298 20.7891 344.84 20.9619 345.303 21.3076C345.771 21.6475 346.091 22.0957 346.261 22.6523C346.929 21.4102 347.925 20.7891 349.249 20.7891C351.229 20.7891 352.22 22.0107 352.22 24.4541V30ZM358.589 30.2109C357.201 30.2109 356.09 29.792 355.258 28.9541C354.432 28.1104 354.019 26.9941 354.019 25.6055C354.019 24.0938 354.45 22.9131 355.311 22.0635C356.178 21.2139 357.344 20.7891 358.809 20.7891C360.215 20.7891 361.311 21.2021 362.096 22.0283C362.881 22.8545 363.274 24 363.274 25.4648C363.274 26.9004 362.849 28.0518 361.999 28.9189C361.156 29.7803 360.019 30.2109 358.589 30.2109ZM358.686 22.415C357.889 22.415 357.259 22.6934 356.796 23.25C356.333 23.8066 356.102 24.5742 356.102 25.5527C356.102 26.4961 356.336 27.2402 356.805 27.7852C357.274 28.3242 357.901 28.5938 358.686 28.5938C359.489 28.5938 360.104 28.3271 360.532 27.7939C360.965 27.2607 361.182 26.502 361.182 25.5176C361.182 24.5273 360.965 23.7627 360.532 23.2236C360.104 22.6846 359.489 22.415 358.686 22.415ZM373.431 30H371.392V28.4707H371.357C370.701 29.6309 369.69 30.2109 368.325 30.2109C367.217 30.2109 366.33 29.8096 365.662 29.0068C365 28.1982 364.669 27.0996 364.669 25.7109C364.669 24.2227 365.035 23.0303 365.767 22.1338C366.506 21.2373 367.487 20.7891 368.712 20.7891C369.925 20.7891 370.806 21.2754 371.357 22.248H371.392V16.6758H373.431V30ZM371.419 25.8867V24.709C371.419 24.0703 371.211 23.5283 370.795 23.083C370.379 22.6377 369.848 22.415 369.204 22.415C368.442 22.415 367.842 22.6992 367.402 23.2676C366.968 23.8359 366.752 24.624 366.752 25.6318C366.752 26.5459 366.96 27.2695 367.376 27.8027C367.798 28.3301 368.363 28.5938 369.072 28.5938C369.769 28.5938 370.335 28.3389 370.768 27.8291C371.202 27.3135 371.419 26.666 371.419 25.8867ZM383.835 30H381.796V28.5762H381.761C381.169 29.666 380.249 30.2109 379.001 30.2109C376.874 30.2109 375.811 28.9336 375.811 26.3789V21H377.85V26.168C377.85 27.7852 378.474 28.5938 379.722 28.5938C380.325 28.5938 380.82 28.3711 381.207 27.9258C381.6 27.4805 381.796 26.8975 381.796 26.1768V21H383.835V30ZM388.438 30H386.39V16.6758H388.438V30ZM398.613 26.0537H392.478C392.502 26.8857 392.757 27.5273 393.243 27.9785C393.735 28.4297 394.409 28.6553 395.265 28.6553C396.226 28.6553 397.107 28.3682 397.91 27.7939V29.4375C397.09 29.9531 396.006 30.2109 394.658 30.2109C393.334 30.2109 392.294 29.8037 391.538 28.9893C390.788 28.1689 390.413 27.0176 390.413 25.5352C390.413 24.1348 390.826 22.9951 391.652 22.1162C392.484 21.2314 393.516 20.7891 394.746 20.7891C395.977 20.7891 396.929 21.1846 397.602 21.9756C398.276 22.7666 398.613 23.8652 398.613 25.2715V26.0537ZM396.644 24.6123C396.639 23.8799 396.466 23.3115 396.126 22.9072C395.786 22.4971 395.317 22.292 394.72 22.292C394.134 22.292 393.636 22.5059 393.226 22.9336C392.821 23.3613 392.572 23.9209 392.478 24.6123H396.644Z" fill="white"/>
<rect x="0.33" y="0.33" width="426.34" height="47.34" rx="23.67" stroke="url(#paint1_linear_1900_43024)" stroke-opacity="0.65" stroke-width="0.66"/>
</g>
<defs>
<filter id="filter0_b_1900_43024" x="-12" y="-12" width="451" height="72" filterUnits="userSpaceOnUse" color-interpolation-filters="sRGB">
<feFlood flood-opacity="0" result="BackgroundImageFix"/>
<feGaussianBlur in="BackgroundImageFix" stdDeviation="6"/>
<feComposite in2="SourceAlpha" operator="in" result="effect1_backgroundBlur_1900_43024"/>
<feBlend mode="normal" in="SourceGraphic" in2="effect1_backgroundBlur_1900_43024" result="shape"/>
</filter>
<radialGradient id="paint0_radial_1900_43024" cx="0" cy="0" r="1" gradientUnits="userSpaceOnUse" gradientTransform="translate(3.84076 1.4281) rotate(6.21143) scale(419.068 144.26)">
<stop stop-color="#70A9FF" stop-opacity="0.4"/>
<stop offset="1" stop-color="white" stop-opacity="0"/>
</radialGradient>
<linearGradient id="paint1_linear_1900_43024" x1="-12.9133" y1="-1.70999" x2="21.9878" y2="142.919" gradientUnits="userSpaceOnUse">
<stop stop-color="white" stop-opacity="0.9"/>
<stop offset="1" stop-color="white" stop-opacity="0"/>
</linearGradient>
</defs>
</svg>
