<svg width="675" height="274" viewBox="0 0 675 274" fill="none" xmlns="http://www.w3.org/2000/svg">
<g filter="url(#filter0_bd_100_21318)">
<mask id="path-1-inside-1_100_21318" fill="white">
<path d="M234.447 147.77L230.705 139.344H206.352L202.61 147.77H192.248L210.67 107.375H226.733L245.155 147.77H234.447ZM209.864 131.439H227.251L218.557 111.818L209.864 131.439Z"/>
<path d="M256.708 133.92C257.015 135.844 258.262 137.479 260.45 138.825C262.638 140.133 265.804 140.787 269.949 140.787C273.058 140.787 275.764 140.46 278.067 139.806C280.369 139.152 281.521 138.152 281.521 136.805C281.521 135.151 279.583 133.901 275.706 133.054L260.853 129.65C252.831 127.803 248.821 124.148 248.821 118.686C248.821 114.685 250.701 111.684 254.462 109.683C258.224 107.683 262.945 106.683 268.625 106.683C274.689 106.683 279.679 107.837 283.593 110.145C287.547 112.415 289.754 115.646 290.214 119.84L280.312 120.244C279.966 118.628 278.757 117.243 276.685 116.089C274.651 114.935 271.83 114.358 268.222 114.358C265.612 114.358 263.463 114.685 261.774 115.339C260.124 115.993 259.298 116.897 259.298 118.051C259.298 119.667 261.16 120.898 264.883 121.744L278.642 124.745C283.133 125.745 286.472 127.091 288.66 128.784C290.886 130.477 291.999 132.862 291.999 135.94C291.999 140.133 290.022 143.268 286.069 145.346C282.154 147.423 276.781 148.462 269.949 148.462C255.326 148.462 247.612 143.711 246.806 134.209L256.708 133.92Z"/>
<path d="M293.688 115.973V107.375H338.651V115.973H321.437V147.77H310.959V115.973H293.688Z"/>
<path d="M345.158 147.77V107.375H385.17V115.569H355.636V123.36H378.837V131.092H355.636V139.575H386.321V147.77H345.158Z"/>
<path d="M427.463 147.77L413.474 132.939H404.493V147.77H394.015V107.375H422.224C426.945 107.375 430.822 108.471 433.854 110.664C436.886 112.857 438.402 116.127 438.402 120.474C438.402 124.322 437.25 127.245 434.948 129.246C432.645 131.208 429.478 132.381 425.448 132.766L440.762 147.77H427.463ZM404.493 115.742V125.033H421.706C423.625 125.033 425.141 124.649 426.254 123.879C427.367 123.071 427.924 121.936 427.924 120.474C427.924 118.974 427.348 117.82 426.197 117.012C425.084 116.166 423.587 115.742 421.706 115.742H404.493Z"/>
<path d="M446.694 147.77V107.375H457.172V147.77H446.694Z"/>
<path d="M478.498 139.171H508.204V147.77H463.414V140.499L492.257 115.973H465.372V107.375H507.398V114.646L478.498 139.171Z"/>
<path d="M558.191 107.375H576.499L576.441 147.77H566.424V112.857L552.665 147.77H538.445L524.685 112.857V147.77H514.61V107.375H532.975L545.698 141.883L558.191 107.375Z"/>
<path fill-rule="evenodd" clip-rule="evenodd" d="M161.934 91.9685C155.112 95.8818 142.48 103.192 139.246 105.097C135.996 107.013 134.403 109.313 134.059 112.59C133.985 113.289 133.924 116.349 133.923 119.391C133.92 124.845 133.916 124.931 133.609 125.554C133.438 125.902 133.095 126.391 132.847 126.641C132.287 127.206 131.099 127.583 130.273 127.459C129.879 127.4 128.173 126.506 124.925 124.659C119.518 121.583 118.34 120.967 117.458 120.754C115.751 120.342 113.878 120.416 112.19 120.961C111.481 121.191 107.444 123.446 101.639 126.858C98.7894 128.532 98.5073 128.802 98.5065 129.857C98.5053 131.215 97.5283 130.575 114.829 140.553C127.026 147.587 130.774 149.688 131.453 149.868C132.008 150.016 132.895 150.105 133.87 150.111C136.373 150.126 136.732 149.981 143.024 146.392C148.056 143.522 148.505 143.294 149.271 143.224C149.991 143.159 150.197 143.2 150.879 143.546C151.674 143.949 152.158 144.45 152.478 145.198C152.609 145.507 152.676 147.309 152.737 152.2C152.816 158.581 152.828 158.817 153.136 159.757C153.622 161.242 154.319 162.462 155.265 163.483C156.055 164.336 156.563 164.667 161.588 167.599C168.635 171.711 169.121 171.962 169.792 171.835C170.465 171.709 171.23 171.027 171.416 170.387C171.519 170.035 171.551 164.317 171.522 151.715L171.479 133.55L171.089 132.441C170.516 130.814 169.964 129.932 168.791 128.764C167.691 127.67 167.382 127.473 160.485 123.483C158.835 122.528 157.263 121.515 156.949 121.204C155.954 120.22 155.778 118.615 156.525 117.338C156.945 116.62 156.935 116.626 160.481 114.557C166.813 110.861 167.967 110.14 168.692 109.425C169.661 108.469 170.661 106.843 171.103 105.504L171.458 104.431L171.468 97.0123C171.474 92.9321 171.431 89.4216 171.373 89.2112C171.205 88.61 170.254 87.999 169.487 88C168.908 88.0007 168.235 88.3543 161.934 91.9685ZM152.794 119.139C152.983 119.328 153.011 119.97 153.011 124.071C153.011 128.865 152.965 129.324 152.488 129.318C152.357 129.316 150.383 128.231 148.1 126.907C144.262 124.68 143.95 124.47 143.95 124.121C143.95 123.772 144.262 123.562 148.1 121.335C150.383 120.011 152.324 118.926 152.413 118.924C152.503 118.922 152.674 119.019 152.794 119.139ZM143.3 124.773C143.538 125.011 143.538 134.462 143.3 134.701C143.208 134.792 143.006 134.866 142.85 134.864C142.488 134.86 134.623 130.303 134.42 129.979C134.312 129.808 134.31 129.669 134.414 129.504C134.614 129.187 142.494 124.616 142.85 124.611C143.006 124.608 143.208 124.681 143.3 124.773ZM152.845 130.319C152.968 130.442 153.011 131.741 153.011 135.301C153.011 139.494 152.983 140.145 152.794 140.335C152.674 140.455 152.529 140.553 152.47 140.553C152.412 140.553 151.218 139.891 149.817 139.081C148.416 138.272 146.538 137.196 145.644 136.69C144.016 135.768 143.618 135.353 143.995 134.974C144.324 134.645 152.131 130.175 152.396 130.164C152.552 130.158 152.754 130.228 152.845 130.319Z"/>
</mask>
<path d="M234.447 147.77L230.705 139.344H206.352L202.61 147.77H192.248L210.67 107.375H226.733L245.155 147.77H234.447ZM209.864 131.439H227.251L218.557 111.818L209.864 131.439Z" stroke="url(#paint0_linear_100_21318)" stroke-width="0.86972" shape-rendering="crispEdges" mask="url(#path-1-inside-1_100_21318)"/>
<path d="M256.708 133.92C257.015 135.844 258.262 137.479 260.45 138.825C262.638 140.133 265.804 140.787 269.949 140.787C273.058 140.787 275.764 140.46 278.067 139.806C280.369 139.152 281.521 138.152 281.521 136.805C281.521 135.151 279.583 133.901 275.706 133.054L260.853 129.65C252.831 127.803 248.821 124.148 248.821 118.686C248.821 114.685 250.701 111.684 254.462 109.683C258.224 107.683 262.945 106.683 268.625 106.683C274.689 106.683 279.679 107.837 283.593 110.145C287.547 112.415 289.754 115.646 290.214 119.84L280.312 120.244C279.966 118.628 278.757 117.243 276.685 116.089C274.651 114.935 271.83 114.358 268.222 114.358C265.612 114.358 263.463 114.685 261.774 115.339C260.124 115.993 259.298 116.897 259.298 118.051C259.298 119.667 261.16 120.898 264.883 121.744L278.642 124.745C283.133 125.745 286.472 127.091 288.66 128.784C290.886 130.477 291.999 132.862 291.999 135.94C291.999 140.133 290.022 143.268 286.069 145.346C282.154 147.423 276.781 148.462 269.949 148.462C255.326 148.462 247.612 143.711 246.806 134.209L256.708 133.92Z" stroke="url(#paint1_linear_100_21318)" stroke-width="0.86972" shape-rendering="crispEdges" mask="url(#path-1-inside-1_100_21318)"/>
<path d="M293.688 115.973V107.375H338.651V115.973H321.437V147.77H310.959V115.973H293.688Z" stroke="url(#paint2_linear_100_21318)" stroke-width="0.86972" shape-rendering="crispEdges" mask="url(#path-1-inside-1_100_21318)"/>
<path d="M345.158 147.77V107.375H385.17V115.569H355.636V123.36H378.837V131.092H355.636V139.575H386.321V147.77H345.158Z" stroke="url(#paint3_linear_100_21318)" stroke-width="0.86972" shape-rendering="crispEdges" mask="url(#path-1-inside-1_100_21318)"/>
<path d="M427.463 147.77L413.474 132.939H404.493V147.77H394.015V107.375H422.224C426.945 107.375 430.822 108.471 433.854 110.664C436.886 112.857 438.402 116.127 438.402 120.474C438.402 124.322 437.25 127.245 434.948 129.246C432.645 131.208 429.478 132.381 425.448 132.766L440.762 147.77H427.463ZM404.493 115.742V125.033H421.706C423.625 125.033 425.141 124.649 426.254 123.879C427.367 123.071 427.924 121.936 427.924 120.474C427.924 118.974 427.348 117.82 426.197 117.012C425.084 116.166 423.587 115.742 421.706 115.742H404.493Z" stroke="url(#paint4_linear_100_21318)" stroke-width="0.86972" shape-rendering="crispEdges" mask="url(#path-1-inside-1_100_21318)"/>
<path d="M446.694 147.77V107.375H457.172V147.77H446.694Z" stroke="url(#paint5_linear_100_21318)" stroke-width="0.86972" shape-rendering="crispEdges" mask="url(#path-1-inside-1_100_21318)"/>
<path d="M478.498 139.171H508.204V147.77H463.414V140.499L492.257 115.973H465.372V107.375H507.398V114.646L478.498 139.171Z" stroke="url(#paint6_linear_100_21318)" stroke-width="0.86972" shape-rendering="crispEdges" mask="url(#path-1-inside-1_100_21318)"/>
<path d="M558.191 107.375H576.499L576.441 147.77H566.424V112.857L552.665 147.77H538.445L524.685 112.857V147.77H514.61V107.375H532.975L545.698 141.883L558.191 107.375Z" stroke="url(#paint7_linear_100_21318)" stroke-width="0.86972" shape-rendering="crispEdges" mask="url(#path-1-inside-1_100_21318)"/>
<path fill-rule="evenodd" clip-rule="evenodd" d="M161.934 91.9685C155.112 95.8818 142.48 103.192 139.246 105.097C135.996 107.013 134.403 109.313 134.059 112.59C133.985 113.289 133.924 116.349 133.923 119.391C133.92 124.845 133.916 124.931 133.609 125.554C133.438 125.902 133.095 126.391 132.847 126.641C132.287 127.206 131.099 127.583 130.273 127.459C129.879 127.4 128.173 126.506 124.925 124.659C119.518 121.583 118.34 120.967 117.458 120.754C115.751 120.342 113.878 120.416 112.19 120.961C111.481 121.191 107.444 123.446 101.639 126.858C98.7894 128.532 98.5073 128.802 98.5065 129.857C98.5053 131.215 97.5283 130.575 114.829 140.553C127.026 147.587 130.774 149.688 131.453 149.868C132.008 150.016 132.895 150.105 133.87 150.111C136.373 150.126 136.732 149.981 143.024 146.392C148.056 143.522 148.505 143.294 149.271 143.224C149.991 143.159 150.197 143.2 150.879 143.546C151.674 143.949 152.158 144.45 152.478 145.198C152.609 145.507 152.676 147.309 152.737 152.2C152.816 158.581 152.828 158.817 153.136 159.757C153.622 161.242 154.319 162.462 155.265 163.483C156.055 164.336 156.563 164.667 161.588 167.599C168.635 171.711 169.121 171.962 169.792 171.835C170.465 171.709 171.23 171.027 171.416 170.387C171.519 170.035 171.551 164.317 171.522 151.715L171.479 133.55L171.089 132.441C170.516 130.814 169.964 129.932 168.791 128.764C167.691 127.67 167.382 127.473 160.485 123.483C158.835 122.528 157.263 121.515 156.949 121.204C155.954 120.22 155.778 118.615 156.525 117.338C156.945 116.62 156.935 116.626 160.481 114.557C166.813 110.861 167.967 110.14 168.692 109.425C169.661 108.469 170.661 106.843 171.103 105.504L171.458 104.431L171.468 97.0123C171.474 92.9321 171.431 89.4216 171.373 89.2112C171.205 88.61 170.254 87.999 169.487 88C168.908 88.0007 168.235 88.3543 161.934 91.9685ZM152.794 119.139C152.983 119.328 153.011 119.97 153.011 124.071C153.011 128.865 152.965 129.324 152.488 129.318C152.357 129.316 150.383 128.231 148.1 126.907C144.262 124.68 143.95 124.47 143.95 124.121C143.95 123.772 144.262 123.562 148.1 121.335C150.383 120.011 152.324 118.926 152.413 118.924C152.503 118.922 152.674 119.019 152.794 119.139ZM143.3 124.773C143.538 125.011 143.538 134.462 143.3 134.701C143.208 134.792 143.006 134.866 142.85 134.864C142.488 134.86 134.623 130.303 134.42 129.979C134.312 129.808 134.31 129.669 134.414 129.504C134.614 129.187 142.494 124.616 142.85 124.611C143.006 124.608 143.208 124.681 143.3 124.773ZM152.845 130.319C152.968 130.442 153.011 131.741 153.011 135.301C153.011 139.494 152.983 140.145 152.794 140.335C152.674 140.455 152.529 140.553 152.47 140.553C152.412 140.553 151.218 139.891 149.817 139.081C148.416 138.272 146.538 137.196 145.644 136.69C144.016 135.768 143.618 135.353 143.995 134.974C144.324 134.645 152.131 130.175 152.396 130.164C152.552 130.158 152.754 130.228 152.845 130.319Z" stroke="url(#paint8_linear_100_21318)" stroke-width="0.86972" shape-rendering="crispEdges" mask="url(#path-1-inside-1_100_21318)"/>
</g>
<defs>
<filter id="filter0_bd_100_21318" x="0.972092" y="-5.1896" width="673.051" height="278.907" filterUnits="userSpaceOnUse" color-interpolation-filters="sRGB">
<feFlood flood-opacity="0" result="BackgroundImageFix"/>
<feGaussianBlur in="BackgroundImageFix" stdDeviation="5.418"/>
<feComposite in2="SourceAlpha" operator="in" result="effect1_backgroundBlur_100_21318"/>
<feColorMatrix in="SourceAlpha" type="matrix" values="0 0 0 0 0 0 0 0 0 0 0 0 0 0 0 0 0 0 127 0" result="hardAlpha"/>
<feOffset dy="4.3344"/>
<feGaussianBlur stdDeviation="48.762"/>
<feComposite in2="hardAlpha" operator="out"/>
<feColorMatrix type="matrix" values="0 0 0 0 0 0 0 0 0 0.03825 0 0 0 0 0.1125 0 0 0 0.25 0"/>
<feBlend mode="normal" in2="effect1_backgroundBlur_100_21318" result="effect2_dropShadow_100_21318"/>
<feBlend mode="normal" in="SourceGraphic" in2="effect2_dropShadow_100_21318" result="shape"/>
</filter>
<linearGradient id="paint0_linear_100_21318" x1="415.334" y1="152.517" x2="414.965" y2="103.652" gradientUnits="userSpaceOnUse">
<stop stop-color="#B4C4FB"/>
<stop offset="1" stop-color="#274BC8" stop-opacity="0"/>
</linearGradient>
<linearGradient id="paint1_linear_100_21318" x1="415.334" y1="152.517" x2="414.965" y2="103.652" gradientUnits="userSpaceOnUse">
<stop stop-color="#B4C4FB"/>
<stop offset="1" stop-color="#274BC8" stop-opacity="0"/>
</linearGradient>
<linearGradient id="paint2_linear_100_21318" x1="415.334" y1="152.517" x2="414.965" y2="103.652" gradientUnits="userSpaceOnUse">
<stop stop-color="#B4C4FB"/>
<stop offset="1" stop-color="#274BC8" stop-opacity="0"/>
</linearGradient>
<linearGradient id="paint3_linear_100_21318" x1="415.334" y1="152.517" x2="414.965" y2="103.652" gradientUnits="userSpaceOnUse">
<stop stop-color="#B4C4FB"/>
<stop offset="1" stop-color="#274BC8" stop-opacity="0"/>
</linearGradient>
<linearGradient id="paint4_linear_100_21318" x1="415.334" y1="152.517" x2="414.965" y2="103.652" gradientUnits="userSpaceOnUse">
<stop stop-color="#B4C4FB"/>
<stop offset="1" stop-color="#274BC8" stop-opacity="0"/>
</linearGradient>
<linearGradient id="paint5_linear_100_21318" x1="415.334" y1="152.517" x2="414.965" y2="103.652" gradientUnits="userSpaceOnUse">
<stop stop-color="#B4C4FB"/>
<stop offset="1" stop-color="#274BC8" stop-opacity="0"/>
</linearGradient>
<linearGradient id="paint6_linear_100_21318" x1="415.334" y1="152.517" x2="414.965" y2="103.652" gradientUnits="userSpaceOnUse">
<stop stop-color="#B4C4FB"/>
<stop offset="1" stop-color="#274BC8" stop-opacity="0"/>
</linearGradient>
<linearGradient id="paint7_linear_100_21318" x1="415.334" y1="152.517" x2="414.965" y2="103.652" gradientUnits="userSpaceOnUse">
<stop stop-color="#B4C4FB"/>
<stop offset="1" stop-color="#274BC8" stop-opacity="0"/>
</linearGradient>
<linearGradient id="paint8_linear_100_21318" x1="415.334" y1="152.517" x2="414.965" y2="103.652" gradientUnits="userSpaceOnUse">
<stop stop-color="#B4C4FB"/>
<stop offset="1" stop-color="#274BC8" stop-opacity="0"/>
</linearGradient>
</defs>
</svg>
