<svg width="183" height="32" viewBox="0 0 183 32" fill="none" xmlns="http://www.w3.org/2000/svg">
<path d="M52.0449 22.8035L50.6122 19.5886H41.2888L39.8561 22.8035H35.8887L42.9418 7.38924H49.0913L56.1445 22.8035H52.0449ZM42.6333 16.5718H49.2897L45.9615 9.08482L42.6333 16.5718Z" fill="white"/>
<path d="M60.5674 17.5186C60.6849 18.2526 61.1625 18.8766 62.0001 19.3904C62.8376 19.8895 64.0499 20.1391 65.6368 20.1391C66.8271 20.1391 67.863 20.0143 68.7447 19.7647C69.6263 19.5152 70.0671 19.1335 70.0671 18.6197C70.0671 17.9884 69.3251 17.5113 67.841 17.1883L62.1543 15.8891C59.0833 15.1845 57.5477 13.7898 57.5477 11.7052C57.5477 10.1785 58.2677 9.03343 59.7078 8.27006C61.1478 7.50669 62.9552 7.125 65.1299 7.125C67.4516 7.125 69.3618 7.56541 70.8606 8.44622C72.3741 9.31236 73.219 10.5455 73.3953 12.1457L69.6043 12.2998C69.472 11.6832 69.0091 11.1547 68.2157 10.7143C67.4369 10.2739 66.3569 10.0537 64.9756 10.0537C63.9764 10.0537 63.1535 10.1785 62.507 10.4281C61.8752 10.6776 61.5592 11.0226 61.5592 11.463C61.5592 12.0796 62.2719 12.5494 63.6972 12.8723L68.9651 14.0174C70.6843 14.3991 71.9627 14.9129 72.8002 15.5588C73.6525 16.2047 74.0786 17.1149 74.0786 18.2893C74.0786 19.8895 73.3219 21.0859 71.8084 21.8787C70.3096 22.6714 68.2524 23.0678 65.6368 23.0678C60.0384 23.0678 57.0849 21.2548 56.7763 17.6287L60.5674 17.5186Z" fill="white"/>
<path d="M74.7252 10.6703V7.38924H91.9394V10.6703H85.3491V22.8035H81.3376V10.6703H74.7252Z" fill="white"/>
<path d="M94.4307 22.8035V7.38924H109.749V10.5161H98.4422V13.4889H107.325V16.4396H98.4422V19.6766H110.19V22.8035H94.4307Z" fill="white"/>
<path d="M125.941 22.8035L120.585 17.1443H117.147V22.8035H113.136V7.38924H117.147H123.936C125.743 7.38924 127.227 7.80763 128.388 8.64441C129.549 9.48118 130.129 10.729 130.129 12.3879C130.129 13.8559 129.688 14.9716 128.807 15.735C127.925 16.4837 126.713 16.9314 125.17 17.0782L131.033 22.8035H125.941ZM117.147 10.5822V14.1275H123.737C124.472 14.1275 125.052 13.9807 125.479 13.6871C125.905 13.3788 126.118 12.9457 126.118 12.3879C126.118 11.8153 125.897 11.3749 125.457 11.0667C125.03 10.7437 124.457 10.5822 123.737 10.5822H117.147Z" fill="white"/>
<path d="M133.304 22.8035V7.38924H137.316V22.8035H133.304Z" fill="white"/>
<path d="M145.48 19.5225H156.853V22.8035H139.705V20.029L150.748 10.6703H140.455V7.38924H156.545V10.1638L145.48 19.5225Z" fill="white"/>
<path d="M175.991 7.38924H183L182.978 22.8035H179.143V9.48118L173.875 22.8035H168.431L163.163 9.48118V22.8035H159.306V7.38924H166.337L171.208 20.5574L175.991 7.38924Z" fill="white"/>
<path fill-rule="evenodd" clip-rule="evenodd" d="M24.2873 1.51437C21.6755 3.00763 16.8394 5.797 15.6014 6.52413C14.3567 7.25523 13.7471 8.13285 13.6152 9.38356C13.5871 9.64997 13.5637 10.8178 13.5632 11.9787C13.5623 14.06 13.5607 14.0928 13.4431 14.3305C13.3776 14.4631 13.2463 14.6496 13.1514 14.745C12.937 14.9606 12.4822 15.1047 12.1657 15.0573C12.0151 15.0347 11.3617 14.6937 10.1185 13.9888C8.04816 12.8149 7.59744 12.58 7.2597 12.4987C6.60608 12.3415 5.88891 12.3696 5.24271 12.5778C4.97122 12.6653 3.42576 13.5261 1.20322 14.8279C0.112292 15.4669 0.00430063 15.5699 0.00398285 15.9722C0.00350619 16.4907 -0.370518 16.2464 6.25293 20.0537C10.9226 22.7381 12.3578 23.5396 12.6177 23.6086C12.8301 23.6649 13.1697 23.6989 13.5431 23.7012C14.5013 23.707 14.6385 23.6515 17.0475 22.282C18.9742 21.1867 19.1459 21.0999 19.4393 21.0733C19.7149 21.0484 19.7939 21.0641 20.0549 21.196C20.3591 21.3499 20.5447 21.541 20.667 21.8265C20.7174 21.9443 20.7429 22.6319 20.7661 24.4984C20.7963 26.9334 20.8011 27.0234 20.9189 27.3822C21.1049 27.9487 21.3717 28.4141 21.734 28.8039C22.0364 29.1295 22.2311 29.2558 24.1549 30.3745C26.8529 31.9435 27.039 32.0393 27.2958 31.9911C27.5535 31.9428 27.8461 31.6826 27.9176 31.4384C27.9569 31.3041 27.9692 29.1221 27.958 24.3133L27.9417 17.3816L27.7922 16.9583C27.573 16.3377 27.3618 16.001 26.9126 15.5554C26.4915 15.1377 26.3732 15.0627 23.7325 13.5399C23.1009 13.1757 22.4989 12.7891 22.3788 12.6706C21.9979 12.2949 21.9305 11.6826 22.2163 11.1952C22.3772 10.9211 22.3736 10.9235 23.7312 10.1339C26.1552 8.72378 26.5971 8.44853 26.8745 8.17576C27.2455 7.81098 27.6284 7.19041 27.7977 6.67949L27.9335 6.26989L27.9376 3.43903C27.9399 1.88207 27.9234 0.542466 27.9009 0.462196C27.8367 0.232765 27.4726 -0.000369951 27.1791 4.40761e-07C26.9572 0.000265006 26.6995 0.135193 24.2873 1.51437ZM20.788 11.8824C20.8604 11.9548 20.8712 12.1997 20.8712 13.7643C20.8712 15.594 20.8537 15.769 20.6707 15.7666C20.6208 15.7659 19.8649 15.3519 18.991 14.8465C17.5218 13.9969 17.4021 13.9168 17.4021 13.7835C17.4021 13.6503 17.5218 13.5702 18.991 12.7206C19.8649 12.2152 20.608 11.8012 20.6423 11.8005C20.6767 11.7998 20.7422 11.8367 20.788 11.8824ZM17.1532 14.0322C17.2443 14.1232 17.2443 17.7298 17.1532 17.8208C17.1182 17.8557 17.0407 17.8837 16.9811 17.883C16.8423 17.8815 13.8313 16.1426 13.7536 16.0191C13.7122 15.9535 13.7116 15.9007 13.7514 15.8376C13.8276 15.7168 16.8447 13.9725 16.9811 13.9704C17.0408 13.9695 17.1182 13.9973 17.1532 14.0322ZM20.8076 16.1488C20.8546 16.1957 20.8712 16.6912 20.8712 18.0499C20.8712 19.6499 20.8604 19.8982 20.788 19.9706C20.7422 20.0163 20.6865 20.0537 20.6642 20.0537C20.6419 20.0537 20.1848 19.8011 19.6484 19.4924C19.1121 19.1836 18.393 18.7729 18.0506 18.5796C17.4275 18.2279 17.2749 18.0696 17.4195 17.9251C17.5452 17.7996 20.5341 16.0936 20.6355 16.0896C20.6952 16.0872 20.7727 16.1138 20.8076 16.1488Z" fill="white"/>
</svg>
