<svg width="171" height="30" viewBox="0 0 171 30" fill="none" xmlns="http://www.w3.org/2000/svg">
<path d="M48.6357 21.3822L47.297 18.3682H38.585L37.2463 21.3822H33.5391L40.1297 6.93132H45.8759L52.4665 21.3822H48.6357ZM39.8413 15.5399H46.0613L42.9513 8.52092L39.8413 15.5399Z" fill="#020139"/>
<path d="M56.5993 16.4276C56.7092 17.1158 57.1554 17.7007 57.9381 18.1824C58.7207 18.6503 59.8535 18.8843 61.3364 18.8843C62.4485 18.8843 63.4165 18.7673 64.2403 18.5333C65.0642 18.2994 65.4761 17.9415 65.4761 17.4598C65.4761 16.868 64.7827 16.4207 63.3959 16.118L58.0822 14.9C55.2126 14.2393 53.7777 12.9319 53.7777 10.9776C53.7777 9.54625 54.4505 8.47275 55.7961 7.75709C57.1417 7.04143 58.8305 6.68359 60.8627 6.68359C63.0321 6.68359 64.817 7.09648 66.2175 7.92224C67.6318 8.73424 68.4213 9.89031 68.586 11.3905L65.0436 11.535C64.92 10.9569 64.4875 10.4615 63.7461 10.0486C63.0183 9.6357 62.0091 9.42926 60.7185 9.42926C59.7848 9.42926 59.0159 9.54625 58.4118 9.78021C57.8214 10.0142 57.5261 10.3376 57.5261 10.7505C57.5261 11.3285 58.1921 11.7689 59.5239 12.0717L64.4463 13.1452C66.0528 13.503 67.2473 13.9847 68.03 14.5903C68.8263 15.1959 69.2245 16.0491 69.2245 17.1502C69.2245 18.6503 68.5174 19.772 67.1032 20.5152C65.7026 21.2583 63.7804 21.6299 61.3364 21.6299C56.105 21.6299 53.3452 19.9302 53.0569 16.5308L56.5993 16.4276Z" fill="#020139"/>
<path d="M69.8287 10.0073V6.93132H85.914V10.0073H79.7558V21.3822H76.0074V10.0073H69.8287Z" fill="#020139"/>
<path d="M88.2419 21.3822V6.93132H102.556V9.86279H91.9903V12.6497H100.29V15.4161H91.9903V18.4507H102.968V21.3822H88.2419Z" fill="#020139"/>
<path d="M117.686 21.3822L112.681 16.0767H109.469V21.3822H105.72V6.93132H109.469H115.812C117.501 6.93132 118.888 7.32356 119.972 8.10804C121.057 8.89252 121.599 10.0623 121.599 11.6175C121.599 12.9938 121.187 14.0398 120.364 14.7554C119.54 15.4573 118.407 15.8771 116.965 16.0147L122.444 21.3822H117.686ZM109.469 9.92472V13.2484H115.627C116.313 13.2484 116.856 13.1108 117.254 12.8355C117.652 12.5465 117.851 12.1405 117.851 11.6175C117.851 11.0808 117.645 10.6679 117.233 10.3789C116.835 10.0761 116.299 9.92472 115.627 9.92472H109.469Z" fill="#020139"/>
<path d="M124.566 21.3822V6.93132H128.314V21.3822H124.566Z" fill="#020139"/>
<path d="M135.944 18.3062H146.571V21.3822H130.547V18.7811L140.866 10.0073H131.248V6.93132H146.283V9.53248L135.944 18.3062Z" fill="#020139"/>
<path d="M164.453 6.93132H171.003L170.982 21.3822H167.399V8.89252L162.476 21.3822H157.389L152.467 8.89252V21.3822H148.862V6.93132H155.433L159.984 19.2765L164.453 6.93132Z" fill="#020139"/>
<path fill-rule="evenodd" clip-rule="evenodd" d="M22.6945 1.41972C20.254 2.81966 15.735 5.43469 14.5782 6.11637C13.4152 6.80178 12.8456 7.62455 12.7223 8.79708C12.6961 9.04685 12.6742 10.1417 12.6737 11.23C12.6729 13.1812 12.6713 13.212 12.5615 13.4349C12.5003 13.5592 12.3776 13.734 12.2889 13.8235C12.0886 14.0256 11.6636 14.1606 11.3679 14.1162C11.2271 14.095 10.6166 13.7753 9.45491 13.1145C7.52036 12.014 7.0992 11.7937 6.78361 11.7175C6.17286 11.5702 5.50272 11.5965 4.89889 11.7917C4.64521 11.8737 3.2011 12.6807 1.12432 13.9011C0.104928 14.5002 0.0040186 14.5968 0.00372166 14.974C0.00327625 15.46 -0.34622 15.231 5.84286 18.8004C10.2063 21.317 11.5474 22.0684 11.7902 22.133C11.9887 22.1858 12.306 22.2177 12.6549 22.2198C13.5503 22.2253 13.6785 22.1733 15.9295 20.8894C17.7298 19.8626 17.8903 19.7812 18.1645 19.7562C18.422 19.7329 18.4958 19.7476 18.7397 19.8713C19.024 20.0155 19.1973 20.1947 19.3116 20.4624C19.3587 20.5728 19.3825 21.2174 19.4042 22.9673C19.4325 25.2501 19.4369 25.3344 19.547 25.6708C19.7208 26.2019 19.9702 26.6382 20.3086 27.0037C20.5912 27.3089 20.7732 27.4273 22.5708 28.4761C25.0919 29.947 25.2658 30.0368 25.5057 29.9917C25.7465 29.9464 26.02 29.7025 26.0868 29.4735C26.1235 29.3476 26.135 27.302 26.1245 22.7937L26.1093 16.2953L25.9696 15.8984C25.7647 15.3166 25.5674 15.0009 25.1477 14.5832C24.7542 14.1916 24.6436 14.1213 22.1761 12.6937C21.586 12.3522 21.0235 11.9898 20.9112 11.8787C20.5553 11.5265 20.4923 10.9524 20.7594 10.4955C20.9097 10.2385 20.9063 10.2408 22.1749 9.5005C24.44 8.17855 24.8528 7.9205 25.1121 7.66478C25.4587 7.32279 25.8165 6.74101 25.9748 6.26202L26.1016 5.87802L26.1055 3.22409C26.1076 1.76444 26.0921 0.508561 26.0712 0.433309C26.0111 0.218217 25.6709 -0.000346829 25.3967 4.13214e-07C25.1893 0.000248443 24.9485 0.126744 22.6945 1.41972ZM19.4247 11.1398C19.4924 11.2076 19.5025 11.4372 19.5025 12.9041C19.5025 14.6194 19.4861 14.7834 19.3151 14.7812C19.2685 14.7805 18.5621 14.3924 17.7456 13.9186C16.3727 13.1221 16.2609 13.047 16.2609 12.9221C16.2609 12.7971 16.3727 12.7221 17.7456 11.9255C18.5621 11.4518 19.2565 11.0636 19.2886 11.063C19.3207 11.0623 19.3819 11.0969 19.4247 11.1398ZM16.0283 13.1552C16.1134 13.2405 16.1134 16.6217 16.0283 16.707C15.9956 16.7398 15.9232 16.766 15.8674 16.7654C15.7378 16.7639 12.9243 15.1337 12.8516 15.0179C12.813 14.9564 12.8124 14.9069 12.8496 14.8478C12.9208 14.7345 15.74 13.0992 15.8674 13.0973C15.9233 13.0964 15.9956 13.1225 16.0283 13.1552ZM19.4431 15.1395C19.487 15.1835 19.5025 15.648 19.5025 16.9218C19.5025 18.4217 19.4924 18.6545 19.4247 18.7225C19.3819 18.7653 19.3299 18.8004 19.309 18.8004C19.2882 18.8004 18.8611 18.5636 18.3599 18.2741C17.8587 17.9847 17.1868 17.5996 16.8669 17.4184C16.2846 17.0887 16.142 16.9403 16.2772 16.8048C16.3945 16.6871 19.1875 15.0878 19.2822 15.084C19.338 15.0818 19.4104 15.1067 19.4431 15.1395Z" fill="#020139"/>
</svg>
