<svg width="187" height="60" viewBox="0 0 187 60" fill="none" xmlns="http://www.w3.org/2000/svg">
<g filter="url(#filter0_b_1983_43423)">
<rect width="187" height="60" rx="30" fill="url(#paint0_radial_1983_43423)" fill-opacity="0.35"/>
<path d="M36.9243 34H35.0127L34.0679 31.3267H29.937L29.0288 34H27.1245L31.0576 23.4971H33.0205L36.9243 34ZM33.6064 29.9058L32.1489 25.7163C32.105 25.5796 32.0586 25.3599 32.0098 25.0571H31.9805C31.9365 25.3354 31.8877 25.5552 31.834 25.7163L30.3911 29.9058H33.6064ZM37.6253 33.7656V32.1909C38.2601 32.6743 38.9608 32.916 39.7274 32.916C40.7528 32.916 41.2655 32.6133 41.2655 32.0078C41.2655 31.8369 41.2215 31.6929 41.1336 31.5757C41.0457 31.4536 40.9261 31.3462 40.7747 31.2534C40.6283 31.1606 40.4525 31.0776 40.2474 31.0044C40.0472 30.9312 39.8226 30.8481 39.5736 30.7554C39.266 30.6333 38.9876 30.5039 38.7386 30.3672C38.4945 30.2305 38.2894 30.0767 38.1234 29.9058C37.9622 29.73 37.8402 29.5322 37.7572 29.3125C37.6742 29.0928 37.6327 28.8364 37.6327 28.5435C37.6327 28.1821 37.7181 27.8647 37.889 27.5913C38.0599 27.313 38.2894 27.0811 38.5775 26.8955C38.8656 26.7051 39.1927 26.5635 39.5589 26.4707C39.9251 26.373 40.3036 26.3242 40.6942 26.3242C41.3875 26.3242 42.0077 26.4292 42.5545 26.6392V28.126C42.0272 27.7646 41.4217 27.584 40.7381 27.584C40.5233 27.584 40.328 27.606 40.1522 27.6499C39.9813 27.6938 39.8348 27.7549 39.7127 27.833C39.5907 27.9111 39.4954 28.0063 39.4271 28.1187C39.3587 28.2261 39.3246 28.3457 39.3246 28.4775C39.3246 28.6387 39.3587 28.7754 39.4271 28.8877C39.4954 29 39.5955 29.1001 39.7274 29.188C39.8641 29.271 40.0252 29.3491 40.2108 29.4224C40.4012 29.4907 40.6185 29.5664 40.8626 29.6494C41.1849 29.7812 41.473 29.9155 41.7269 30.0522C41.9857 30.189 42.2054 30.3452 42.3861 30.521C42.5667 30.6919 42.7059 30.8921 42.8036 31.1216C42.9012 31.3462 42.95 31.6147 42.95 31.9272C42.95 32.3081 42.8621 32.6401 42.6864 32.9233C42.5106 33.2065 42.2762 33.4409 41.9832 33.6265C41.6903 33.812 41.3509 33.9487 40.9652 34.0366C40.5843 34.1294 40.1815 34.1758 39.7567 34.1758C38.9364 34.1758 38.2259 34.0391 37.6253 33.7656ZM48.4338 33.9194C48.1017 34.0854 47.6647 34.1685 47.1227 34.1685C45.6677 34.1685 44.9401 33.4702 44.9401 32.0737V27.833H43.6877V26.5H44.9401V24.7642L46.6393 24.2808V26.5H48.4338V27.833H46.6393V31.583C46.6393 32.0273 46.7199 32.3447 46.881 32.5352C47.0422 32.7256 47.3107 32.8208 47.6867 32.8208C47.9748 32.8208 48.2238 32.7378 48.4338 32.5718V33.9194ZM56.0708 30.7114H50.9585C50.978 31.4048 51.1904 31.9395 51.5957 32.3154C52.0059 32.6914 52.5674 32.8794 53.2803 32.8794C54.0811 32.8794 54.8159 32.6401 55.4849 32.1616V33.5312C54.8013 33.9609 53.898 34.1758 52.7749 34.1758C51.6714 34.1758 50.8047 33.8364 50.1748 33.1577C49.5498 32.4741 49.2373 31.5146 49.2373 30.2793C49.2373 29.1123 49.5816 28.1626 50.27 27.4302C50.9634 26.6929 51.8228 26.3242 52.8482 26.3242C53.8736 26.3242 54.667 26.6538 55.2285 27.313C55.7901 27.9722 56.0708 28.8877 56.0708 30.0596V30.7114ZM54.4302 29.5103C54.4253 28.8999 54.2813 28.4263 53.9981 28.0894C53.7149 27.7476 53.3242 27.5767 52.8262 27.5767C52.3379 27.5767 51.9229 27.7549 51.5811 28.1113C51.2442 28.4678 51.0366 28.9341 50.9585 29.5103H54.4302ZM61.9501 28.1187C61.745 27.9575 61.4496 27.877 61.0638 27.877C60.5609 27.877 60.141 28.104 59.8041 28.5581C59.4671 29.0122 59.2987 29.6299 59.2987 30.4111V34H57.5995V26.5H59.2987V28.0454H59.328C59.494 27.5181 59.7479 27.1079 60.0897 26.8149C60.4364 26.5171 60.8221 26.3682 61.2469 26.3682C61.5546 26.3682 61.7889 26.4146 61.9501 26.5073V28.1187ZM63.9182 24.9253C63.6398 24.9253 63.4006 24.835 63.2004 24.6543C63.0051 24.4736 62.9074 24.2441 62.9074 23.9658C62.9074 23.6875 63.0051 23.4556 63.2004 23.27C63.4006 23.0845 63.6398 22.9917 63.9182 22.9917C64.2062 22.9917 64.4504 23.0845 64.6506 23.27C64.8508 23.4556 64.9509 23.6875 64.9509 23.9658C64.9509 24.2295 64.8508 24.4565 64.6506 24.647C64.4504 24.8325 64.2062 24.9253 63.9182 24.9253ZM64.7604 34H63.0612V26.5H64.7604V34ZM72.4341 27.2104L68.3838 32.6743H72.4195V34H66.0035V33.3628L70.1416 27.8257H66.399V26.5H72.4341V27.2104ZM84.993 34H83.2938V29.9131C83.2938 29.127 83.1815 28.5581 82.9569 28.2065C82.7372 27.855 82.3637 27.6792 81.8363 27.6792C81.392 27.6792 81.0136 27.9014 80.7011 28.3457C80.3934 28.79 80.2396 29.3223 80.2396 29.9424V34H78.5331V29.7739C78.5331 28.3774 78.0399 27.6792 77.0536 27.6792C76.5946 27.6792 76.2162 27.8892 75.9183 28.3091C75.6254 28.729 75.4789 29.2734 75.4789 29.9424V34H73.7797V26.5H75.4789V27.6865H75.5082C76.0502 26.7783 76.8387 26.3242 77.8739 26.3242C78.3915 26.3242 78.8431 26.4683 79.2289 26.7563C79.6195 27.0396 79.8856 27.4131 80.0272 27.877C80.5839 26.8418 81.4139 26.3242 82.5175 26.3242C84.1679 26.3242 84.993 27.3423 84.993 29.3784V34ZM98.5313 33.5605C97.7403 33.9707 96.7564 34.1758 95.5796 34.1758C94.0562 34.1758 92.8355 33.6948 91.9175 32.7329C90.9996 31.771 90.5406 30.5088 90.5406 28.9463C90.5406 27.2666 91.0557 25.9092 92.086 24.874C93.1212 23.8389 94.4273 23.3213 96.0045 23.3213C97.0201 23.3213 97.8624 23.4653 98.5313 23.7534V25.4819C97.8233 25.062 97.042 24.8521 96.1876 24.8521C95.0499 24.8521 94.127 25.2158 93.419 25.9434C92.7159 26.6709 92.3643 27.6426 92.3643 28.8584C92.3643 30.0156 92.6939 30.9385 93.3531 31.627C94.0123 32.3105 94.879 32.6523 95.9532 32.6523C96.9444 32.6523 97.8038 32.418 98.5313 31.9492V33.5605ZM103.568 34.1758C102.411 34.1758 101.486 33.8267 100.792 33.1284C100.104 32.4253 99.7597 31.4951 99.7597 30.3379C99.7597 29.0781 100.119 28.0942 100.836 27.3862C101.559 26.6782 102.531 26.3242 103.751 26.3242C104.923 26.3242 105.836 26.6685 106.491 27.3569C107.145 28.0454 107.472 29 107.472 30.2207C107.472 31.417 107.118 32.3765 106.41 33.0991C105.707 33.8169 104.76 34.1758 103.568 34.1758ZM103.649 27.6792C102.985 27.6792 102.46 27.9111 102.074 28.375C101.688 28.8389 101.496 29.4785 101.496 30.2939C101.496 31.0801 101.691 31.7002 102.081 32.1543C102.472 32.6035 102.995 32.8281 103.649 32.8281C104.318 32.8281 104.83 32.606 105.187 32.1616C105.548 31.7173 105.729 31.085 105.729 30.2646C105.729 29.4395 105.548 28.8022 105.187 28.353C104.83 27.9038 104.318 27.6792 103.649 27.6792ZM115.798 34H114.098V29.7739C114.098 28.3726 113.603 27.6719 112.612 27.6719C112.094 27.6719 111.667 27.8672 111.33 28.2578C110.993 28.6436 110.824 29.1318 110.824 29.7227V34H109.118V26.5H110.824V27.7451H110.854C111.415 26.7979 112.226 26.3242 113.285 26.3242C114.101 26.3242 114.723 26.5903 115.153 27.1226C115.583 27.6499 115.798 28.4141 115.798 29.415V34ZM124.467 34H122.768V29.7739C122.768 28.3726 122.273 27.6719 121.281 27.6719C120.764 27.6719 120.337 27.8672 120 28.2578C119.663 28.6436 119.494 29.1318 119.494 29.7227V34H117.788V26.5H119.494V27.7451H119.524C120.085 26.7979 120.896 26.3242 121.955 26.3242C122.771 26.3242 123.393 26.5903 123.823 27.1226C124.253 27.6499 124.467 28.4141 124.467 29.415V34ZM132.808 30.7114H127.695C127.715 31.4048 127.927 31.9395 128.332 32.3154C128.743 32.6914 129.304 32.8794 130.017 32.8794C130.818 32.8794 131.553 32.6401 132.222 32.1616V33.5312C131.538 33.9609 130.635 34.1758 129.512 34.1758C128.408 34.1758 127.541 33.8364 126.912 33.1577C126.287 32.4741 125.974 31.5146 125.974 30.2793C125.974 29.1123 126.318 28.1626 127.007 27.4302C127.7 26.6929 128.559 26.3242 129.585 26.3242C130.61 26.3242 131.404 26.6538 131.965 27.313C132.527 27.9722 132.808 28.8877 132.808 30.0596V30.7114ZM131.167 29.5103C131.162 28.8999 131.018 28.4263 130.735 28.0894C130.452 27.7476 130.061 27.5767 129.563 27.5767C129.075 27.5767 128.66 27.7549 128.318 28.1113C127.981 28.4678 127.773 28.9341 127.695 29.5103H131.167ZM139.705 33.6558C139.104 34.0024 138.394 34.1758 137.573 34.1758C136.46 34.1758 135.562 33.8291 134.878 33.1357C134.195 32.4375 133.853 31.5342 133.853 30.4258C133.853 29.1904 134.219 28.1992 134.951 27.4521C135.689 26.7002 136.673 26.3242 137.903 26.3242C138.587 26.3242 139.19 26.4438 139.712 26.6831V28.2651C139.19 27.8745 138.633 27.6792 138.042 27.6792C137.324 27.6792 136.736 27.9233 136.277 28.4116C135.818 28.895 135.589 29.5298 135.589 30.3159C135.589 31.0923 135.803 31.7051 136.233 32.1543C136.668 32.6035 137.249 32.8281 137.976 32.8281C138.587 32.8281 139.163 32.6108 139.705 32.1763V33.6558ZM145.262 33.9194C144.93 34.0854 144.493 34.1685 143.951 34.1685C142.496 34.1685 141.768 33.4702 141.768 32.0737V27.833H140.516V26.5H141.768V24.7642L143.467 24.2808V26.5H145.262V27.833H143.467V31.583C143.467 32.0273 143.548 32.3447 143.709 32.5352C143.87 32.7256 144.139 32.8208 144.515 32.8208C144.803 32.8208 145.052 32.7378 145.262 32.5718V33.9194ZM149.874 34.1758C148.717 34.1758 147.791 33.8267 147.098 33.1284C146.41 32.4253 146.065 31.4951 146.065 30.3379C146.065 29.0781 146.424 28.0942 147.142 27.3862C147.865 26.6782 148.836 26.3242 150.057 26.3242C151.229 26.3242 152.142 26.6685 152.796 27.3569C153.451 28.0454 153.778 29 153.778 30.2207C153.778 31.417 153.424 32.3765 152.716 33.0991C152.013 33.8169 151.065 34.1758 149.874 34.1758ZM149.955 27.6792C149.29 27.6792 148.766 27.9111 148.38 28.375C147.994 28.8389 147.801 29.4785 147.801 30.2939C147.801 31.0801 147.997 31.7002 148.387 32.1543C148.778 32.6035 149.3 32.8281 149.955 32.8281C150.623 32.8281 151.136 32.606 151.493 32.1616C151.854 31.7173 152.035 31.085 152.035 30.2646C152.035 29.4395 151.854 28.8022 151.493 28.353C151.136 27.9038 150.623 27.6792 149.955 27.6792ZM159.774 28.1187C159.569 27.9575 159.274 27.877 158.888 27.877C158.385 27.877 157.965 28.104 157.628 28.5581C157.291 29.0122 157.123 29.6299 157.123 30.4111V34H155.424V26.5H157.123V28.0454H157.152C157.318 27.5181 157.572 27.1079 157.914 26.8149C158.261 26.5171 158.646 26.3682 159.071 26.3682C159.379 26.3682 159.613 26.4146 159.774 26.5073V28.1187Z" fill="white"/>
<rect x="0.33" y="0.33" width="186.34" height="59.34" rx="29.67" stroke="url(#paint1_linear_1983_43423)" stroke-opacity="0.65" stroke-width="0.66"/>
</g>
<defs>
<filter id="filter0_b_1983_43423" x="-12" y="-12" width="211" height="84" filterUnits="userSpaceOnUse" color-interpolation-filters="sRGB">
<feFlood flood-opacity="0" result="BackgroundImageFix"/>
<feGaussianBlur in="BackgroundImageFix" stdDeviation="6"/>
<feComposite in2="SourceAlpha" operator="in" result="effect1_backgroundBlur_1983_43423"/>
<feBlend mode="normal" in="SourceGraphic" in2="effect1_backgroundBlur_1983_43423" result="shape"/>
</filter>
<radialGradient id="paint0_radial_1983_43423" cx="0" cy="0" r="1" gradientUnits="userSpaceOnUse" gradientTransform="translate(1.68202 1.78512) rotate(17.2574) scale(191.049 173.224)">
<stop stop-color="#70A9FF" stop-opacity="0.4"/>
<stop offset="1" stop-color="white" stop-opacity="0"/>
</radialGradient>
<linearGradient id="paint1_linear_1983_43423" x1="-5.65524" y1="-2.13749" x2="83.7179" y2="127.619" gradientUnits="userSpaceOnUse">
<stop stop-color="white" stop-opacity="0.9"/>
<stop offset="1" stop-color="white" stop-opacity="0"/>
</linearGradient>
</defs>
</svg>
