<svg width="48" height="82" viewBox="0 0 48 82" fill="none" xmlns="http://www.w3.org/2000/svg">
<g filter="url(#filter0_b_2340_44592)">
<rect width="48" height="48" rx="12" fill="url(#paint0_radial_2340_44592)" fill-opacity="0.65"/>
<rect x="0.496929" y="0.496929" width="47.0061" height="47.0061" rx="11.5031" stroke="url(#paint1_linear_2340_44592)" stroke-opacity="0.65" stroke-width="0.993857"/>
</g>
<path d="M35 24.9131C35 25.1894 34.8871 25.4656 34.6451 25.6837C34.1773 26.1054 33.4029 26.1054 32.9351 25.6837L23.998 17.6282L15.0609 25.6837C14.593 26.1054 13.8187 26.1054 13.3509 25.6837C12.883 25.2621 12.883 24.5641 13.3509 24.1424L23.143 15.3163C23.6108 14.8946 24.3852 14.8946 24.853 15.3163L34.6451 24.1424C34.8871 24.3605 35 24.6368 35 24.9131Z" fill="white"/>
<path d="M35 31.9131C35 32.1894 34.8871 32.4656 34.6451 32.6837C34.1773 33.1054 33.4029 33.1054 32.9351 32.6837L23.998 24.6282L15.0609 32.6837C14.593 33.1054 13.8187 33.1054 13.3509 32.6837C12.883 32.2621 12.883 31.5641 13.3509 31.1424L23.143 22.3163C23.6108 21.8946 24.3852 21.8946 24.853 22.3163L34.6451 31.1424C34.8871 31.3605 35 31.6368 35 31.9131Z" fill="white"/>
<path d="M12.2988 63V54.5977H14.9648C15.7773 54.5977 16.4199 54.7754 16.8926 55.1309C17.3691 55.4863 17.6074 55.9492 17.6074 56.5195C17.6074 56.9961 17.4727 57.4102 17.2031 57.7617C16.9336 58.1133 16.5605 58.3633 16.084 58.5117V58.5352C16.6621 58.6016 17.123 58.8164 17.4668 59.1797C17.8145 59.5391 17.9883 60.0078 17.9883 60.5859C17.9883 61.3047 17.7051 61.8867 17.1387 62.332C16.5723 62.7773 15.8574 63 14.9941 63H12.2988ZM13.6875 55.7168V58.1074H14.5898C15.0742 58.1074 15.4531 57.9941 15.7266 57.7676C16.0039 57.5371 16.1426 57.2129 16.1426 56.7949C16.1426 56.0762 15.6621 55.7168 14.7012 55.7168H13.6875ZM13.6875 59.2266V61.8867H14.877C15.3965 61.8867 15.7969 61.7676 16.0781 61.5293C16.3633 61.2871 16.5059 60.9551 16.5059 60.5332C16.5059 59.6621 15.9023 59.2266 14.6953 59.2266H13.6875ZM24.0059 63H22.6875V62.0625H22.6641C22.25 62.7812 21.6426 63.1406 20.8418 63.1406C20.252 63.1406 19.7891 62.9805 19.4531 62.6602C19.1211 62.3398 18.9551 61.916 18.9551 61.3887C18.9551 60.2559 19.6074 59.5957 20.9121 59.4082L22.6934 59.1562C22.6934 58.3008 22.2871 57.873 21.4746 57.873C20.7598 57.873 20.1152 58.1191 19.541 58.6113V57.4219C20.1738 57.0469 20.9043 56.8594 21.7324 56.8594C23.248 56.8594 24.0059 57.6055 24.0059 59.0977V63ZM22.6934 60.0527L21.4336 60.2285C21.043 60.2793 20.748 60.375 20.5488 60.5156C20.3535 60.6523 20.2559 60.8945 20.2559 61.2422C20.2559 61.4961 20.3457 61.7051 20.5254 61.8691C20.709 62.0293 20.9531 62.1094 21.2578 62.1094C21.6719 62.1094 22.0137 61.9648 22.2832 61.6758C22.5566 61.3828 22.6934 61.0156 22.6934 60.5742V60.0527ZM29.9648 62.7246C29.4844 63.002 28.916 63.1406 28.2598 63.1406C27.3691 63.1406 26.6504 62.8633 26.1035 62.3086C25.5566 61.75 25.2832 61.0273 25.2832 60.1406C25.2832 59.1523 25.5762 58.3594 26.1621 57.7617C26.752 57.1602 27.5391 56.8594 28.5234 56.8594C29.0703 56.8594 29.5527 56.9551 29.9707 57.1465V58.4121C29.5527 58.0996 29.1074 57.9434 28.6348 57.9434C28.0605 57.9434 27.5898 58.1387 27.2227 58.5293C26.8555 58.916 26.6719 59.4238 26.6719 60.0527C26.6719 60.6738 26.8438 61.1641 27.1875 61.5234C27.5352 61.8828 28 62.0625 28.582 62.0625C29.0703 62.0625 29.5312 61.8887 29.9648 61.541V62.7246ZM36.7617 63H35.0391L32.707 60.1172H32.6836V63H31.3184V54.1172H32.6836V59.748H32.707L34.9102 57H36.5449L34.0664 59.8945L36.7617 63ZM11.3438 74.9355C11.0781 75.0684 10.7285 75.1348 10.2949 75.1348C9.13086 75.1348 8.54883 74.5762 8.54883 73.459V70.0664H7.54688V69H8.54883V67.6113L9.9082 67.2246V69H11.3438V70.0664H9.9082V73.0664C9.9082 73.4219 9.97266 73.6758 10.1016 73.8281C10.2305 73.9805 10.4453 74.0566 10.7461 74.0566C10.9766 74.0566 11.1758 73.9902 11.3438 73.8574V74.9355ZM15.1055 75.1406C14.1797 75.1406 13.4395 74.8613 12.8848 74.3027C12.334 73.7402 12.0586 72.9961 12.0586 72.0703C12.0586 71.0625 12.3457 70.2754 12.9199 69.709C13.498 69.1426 14.2754 68.8594 15.252 68.8594C16.1895 68.8594 16.9199 69.1348 17.4434 69.6855C17.9668 70.2363 18.2285 71 18.2285 71.9766C18.2285 72.9336 17.9453 73.7012 17.3789 74.2793C16.8164 74.8535 16.0586 75.1406 15.1055 75.1406ZM15.1699 69.9434C14.6387 69.9434 14.2188 70.1289 13.9102 70.5C13.6016 70.8711 13.4473 71.3828 13.4473 72.0352C13.4473 72.6641 13.6035 73.1602 13.916 73.5234C14.2285 73.8828 14.6465 74.0625 15.1699 74.0625C15.7051 74.0625 16.1152 73.8848 16.4004 73.5293C16.6895 73.1738 16.834 72.668 16.834 72.0117C16.834 71.3516 16.6895 70.8418 16.4004 70.4824C16.1152 70.123 15.7051 69.9434 15.1699 69.9434ZM26.0859 74.9355C25.8203 75.0684 25.4707 75.1348 25.0371 75.1348C23.873 75.1348 23.291 74.5762 23.291 73.459V70.0664H22.2891V69H23.291V67.6113L24.6504 67.2246V69H26.0859V70.0664H24.6504V73.0664C24.6504 73.4219 24.7148 73.6758 24.8438 73.8281C24.9727 73.9805 25.1875 74.0566 25.4883 74.0566C25.7188 74.0566 25.918 73.9902 26.0859 73.8574V74.9355ZM29.8477 75.1406C28.9219 75.1406 28.1816 74.8613 27.627 74.3027C27.0762 73.7402 26.8008 72.9961 26.8008 72.0703C26.8008 71.0625 27.0879 70.2754 27.6621 69.709C28.2402 69.1426 29.0176 68.8594 29.9941 68.8594C30.9316 68.8594 31.6621 69.1348 32.1855 69.6855C32.709 70.2363 32.9707 71 32.9707 71.9766C32.9707 72.9336 32.6875 73.7012 32.1211 74.2793C31.5586 74.8535 30.8008 75.1406 29.8477 75.1406ZM29.9121 69.9434C29.3809 69.9434 28.9609 70.1289 28.6523 70.5C28.3438 70.8711 28.1895 71.3828 28.1895 72.0352C28.1895 72.6641 28.3457 73.1602 28.6582 73.5234C28.9707 73.8828 29.3887 74.0625 29.9121 74.0625C30.4473 74.0625 30.8574 73.8848 31.1426 73.5293C31.4316 73.1738 31.5762 72.668 31.5762 72.0117C31.5762 71.3516 31.4316 70.8418 31.1426 70.4824C30.8574 70.123 30.4473 69.9434 29.9121 69.9434ZM35.7422 74.1152H35.7188V77.7598H34.3594V69H35.7188V70.0547H35.7422C36.207 69.2578 36.8867 68.8594 37.7812 68.8594C38.543 68.8594 39.1367 69.127 39.5625 69.6621C39.9883 70.1973 40.2012 70.916 40.2012 71.8184C40.2012 72.8184 39.9609 73.6191 39.4805 74.2207C39 74.8223 38.3438 75.123 37.5117 75.123C36.7461 75.123 36.1562 74.7871 35.7422 74.1152ZM35.707 71.748V72.4922C35.707 72.9297 35.8457 73.3008 36.123 73.6055C36.4043 73.9102 36.7598 74.0625 37.1895 74.0625C37.6934 74.0625 38.0879 73.8672 38.373 73.4766C38.6621 73.082 38.8066 72.5332 38.8066 71.8301C38.8066 71.2402 38.6719 70.7793 38.4023 70.4473C38.1367 70.1113 37.7754 69.9434 37.3184 69.9434C36.834 69.9434 36.4434 70.1152 36.1465 70.459C35.8535 70.8027 35.707 71.2324 35.707 71.748Z" fill="white"/>
<defs>
<filter id="filter0_b_2340_44592" x="-10.2361" y="-10.2361" width="68.4722" height="68.4722" filterUnits="userSpaceOnUse" color-interpolation-filters="sRGB">
<feFlood flood-opacity="0" result="BackgroundImageFix"/>
<feGaussianBlur in="BackgroundImageFix" stdDeviation="5.11806"/>
<feComposite in2="SourceAlpha" operator="in" result="effect1_backgroundBlur_2340_44592"/>
<feBlend mode="normal" in="SourceGraphic" in2="effect1_backgroundBlur_2340_44592" result="shape"/>
</filter>
<radialGradient id="paint0_radial_2340_44592" cx="0" cy="0" r="1" gradientUnits="userSpaceOnUse" gradientTransform="translate(0.431748 1.4281) rotate(44.0741) scale(65.1853 104.255)">
<stop stop-color="#70A9FF" stop-opacity="0.4"/>
<stop offset="1" stop-color="white" stop-opacity="0"/>
</radialGradient>
<linearGradient id="paint1_linear_2340_44592" x1="-1.45161" y1="-1.70999" x2="57.1322" y2="25.5803" gradientUnits="userSpaceOnUse">
<stop stop-color="white" stop-opacity="0.9"/>
<stop offset="1" stop-color="white" stop-opacity="0"/>
</linearGradient>
</defs>
</svg>
