<svg width="78" height="78" viewBox="0 0 78 78" fill="none" xmlns="http://www.w3.org/2000/svg">
<path d="M49.8605 78C48.8815 78 47.9749 77.4558 47.5035 76.6214C47.0321 75.787 47.0321 74.7349 47.5398 73.9005L51.3473 67.5516C52.1088 66.2456 53.7769 65.8465 55.0823 66.6084C56.3877 67.3702 56.7866 69.0391 56.0251 70.3451L55.046 71.9777C65.0544 69.6195 72.5607 60.6223 72.5607 49.8837C72.5607 48.3963 73.7936 47.1628 75.2803 47.1628C76.7671 47.1628 78 48.3963 78 49.8837C77.9637 65.3749 65.3445 78 49.8605 78Z" fill="#182456"/>
<path d="M2.71967 30.8372C1.23291 30.8372 0 29.6037 0 28.1163C0 12.6251 12.6192 0 28.1032 0C29.0823 0 29.9888 0.544186 30.4603 1.3786C30.9317 2.21302 30.9317 3.26512 30.424 4.09954L26.6165 10.4847C25.855 11.7544 24.1869 12.1898 22.8815 11.3916C21.6123 10.6298 21.1771 8.96093 21.9749 7.65488L22.954 6.02233C12.9093 8.38047 5.43933 17.3777 5.43933 28.1163C5.43933 29.6037 4.20642 30.8372 2.71967 30.8372Z" fill="#182456"/>
<path d="M34.159 45.7116L22.7727 39.5805C21.576 38.9274 20.1255 38.9274 18.9289 39.5805L7.54254 45.7116C6.70851 46.147 6.20084 47.054 6.20084 48.0335C6.20084 49.013 6.70851 49.92 7.54254 50.3553L18.9289 56.4865C19.5453 56.813 20.198 56.9581 20.8508 56.9581C21.5035 56.9581 22.1562 56.813 22.7727 56.4865L34.159 50.3553C34.993 49.92 35.5007 49.013 35.5007 48.0335C35.5007 47.054 34.9568 46.1833 34.159 45.7116Z" fill="#182456"/>
<path d="M17.0432 58.627L6.45467 53.3302C5.6569 52.9312 4.71409 52.9674 3.91632 53.4391C3.19107 53.9107 2.71967 54.7451 2.71967 55.6521V65.6651C2.71967 67.4065 3.66248 68.9665 5.22176 69.7284L15.8103 75.0251C16.1729 75.1702 16.5718 75.2791 16.9707 75.2791C17.4421 75.2791 17.9135 75.134 18.3487 74.88C19.1102 74.4084 19.5816 73.574 19.5816 72.667V62.654C19.5816 60.9488 18.6025 59.3888 17.0432 58.627Z" fill="#182456"/>
<path d="M37.749 53.4391C36.9874 52.9674 36.0446 52.9312 35.2106 53.3302L24.622 58.627C23.0628 59.3888 22.1199 60.9488 22.1199 62.6902V72.7033C22.1199 73.6102 22.5914 74.4447 23.3529 74.9163C23.788 75.134 24.2594 75.2791 24.7308 75.2791C25.1297 75.2791 25.5286 75.1702 25.8912 74.9888L36.4798 69.6921C38.0391 68.9302 38.9819 67.3702 38.9819 65.6288V55.6158C38.9819 54.7451 38.5105 53.9107 37.749 53.4391Z" fill="#182456"/>
<path d="M70.4212 9.36L59.0349 3.22884C57.8382 2.57581 56.3877 2.57581 55.1911 3.22884L43.8047 9.36C42.9707 9.79535 42.463 10.7023 42.463 11.6819C42.463 12.6614 42.9707 13.5684 43.8047 14.0037L55.1911 20.1349C55.8075 20.4614 56.4603 20.6065 57.113 20.6065C57.7657 20.6065 58.4184 20.4614 59.0349 20.1349L70.4212 14.0037C71.2552 13.5684 71.7629 12.6614 71.7629 11.6819C71.7629 10.666 71.219 9.79535 70.4212 9.36Z" fill="#182456"/>
<path d="M53.3054 22.2391L42.7169 16.9423C41.9191 16.5433 40.9763 16.5795 40.1785 17.0512C39.4533 17.5228 38.9819 18.3572 38.9819 19.2642V29.2772C38.9819 31.0186 39.9247 32.5786 41.484 33.3405L52.0725 38.6372C52.4351 38.8186 52.834 38.9274 53.2329 38.9274C53.7043 38.9274 54.1757 38.7823 54.6109 38.5284C55.3724 38.0567 55.8438 37.2223 55.8438 36.3154V26.3023C55.8438 24.5609 54.8647 23.0009 53.3054 22.2391Z" fill="#182456"/>
<path d="M74.0112 17.0512C73.2496 16.5795 72.3068 16.5433 71.4728 16.9423L60.8842 22.2391C59.325 23.0009 58.3821 24.5609 58.3821 26.3023V36.3154C58.3821 37.2223 58.8536 38.0567 59.6151 38.5284C60.0502 38.7823 60.5216 38.9274 60.993 38.9274C61.3919 38.9274 61.7908 38.8186 62.1534 38.6372L72.742 33.3405C74.3012 32.5423 75.2441 30.9823 75.2441 29.2772V19.2642C75.2441 18.3572 74.7727 17.5228 74.0112 17.0512Z" fill="#182456"/>
<path d="M47.7714 74.0414L47.7723 74.0399L51.5798 67.6911L51.5815 67.6882C52.264 66.5176 53.7634 66.1526 54.9456 66.8426C56.1151 67.5251 56.4803 69.0242 55.7918 70.2069C55.7915 70.2074 55.7912 70.208 55.7909 70.2085L54.8135 71.8382L54.4832 72.3889L55.1082 72.2416C65.2355 69.8555 72.8318 60.7518 72.8318 49.8837C72.8318 48.5459 73.9435 47.4339 75.2803 47.4339C76.617 47.4339 77.7285 48.5456 77.7288 49.8831C77.6929 65.2252 65.1945 77.7288 49.8605 77.7288C48.981 77.7288 48.1637 77.2388 47.7396 76.488C47.3151 75.7367 47.3162 74.7896 47.7714 74.0414ZM30.1923 3.95859L30.1911 3.96066L26.3839 10.3452C26.3839 10.3453 26.3838 10.3454 26.3837 10.3455C25.699 11.487 24.1986 11.8791 23.0229 11.1603L23.021 11.1591C21.8799 10.4741 21.4877 8.97274 22.2063 7.79624L22.2074 7.79435L23.1865 6.16179L23.5164 5.61176L22.892 5.75835C12.7279 8.14453 5.16817 17.2487 5.16817 28.1163C5.16817 29.4541 4.05654 30.5661 2.71967 30.5661C1.38279 30.5661 0.271158 29.4541 0.271158 28.1163C0.271158 12.7748 12.7691 0.271158 28.1032 0.271158C28.9828 0.271158 29.8 0.761184 30.2242 1.51198C30.6486 2.26331 30.6476 3.2104 30.1923 3.95859ZM22.6428 39.8185L22.6441 39.8192L34.0256 45.9478C34.7438 46.3744 35.2295 47.1579 35.2295 48.0335C35.2295 48.9227 34.7689 49.7311 34.0335 50.1149L34.0304 50.1166L22.6457 56.2469C22.6456 56.247 22.6454 56.2471 22.6452 56.2472C22.0707 56.5513 21.4622 56.687 20.8508 56.687C20.2393 56.687 19.6309 56.5513 19.0564 56.2472C19.0562 56.2471 19.056 56.247 19.0558 56.2469L7.67111 50.1166L7.66801 50.115C6.93259 49.7311 6.47199 48.9227 6.47199 48.0335C6.47199 47.1443 6.93259 46.3359 7.66802 45.952L7.67109 45.9504L19.0574 39.8192L19.0588 39.8185C20.1745 39.2096 21.5271 39.2096 22.6428 39.8185ZM16.9219 58.8695L16.9242 58.8706C18.3918 59.5877 19.3104 61.054 19.3104 62.654V72.667C19.3104 73.4782 18.8894 74.2248 18.2088 74.6477C17.8086 74.8806 17.3851 75.0079 16.9707 75.0079C16.6225 75.0079 16.2633 74.9133 15.9214 74.7775L5.34307 69.4858L5.3408 69.4847C3.87784 68.7699 2.99082 67.3066 2.99082 65.6651V55.6521C2.99082 54.8404 3.41244 54.0925 4.05932 53.6695C4.77907 53.2462 5.62203 53.2169 6.33336 53.5727L16.9219 58.8695ZM24.7411 58.8706L24.7433 58.8695L35.3276 53.5748C35.3284 53.5745 35.3291 53.5741 35.3298 53.5738C36.0846 53.2135 36.9282 53.2497 37.6062 53.6696C38.2903 54.0933 38.7107 54.8418 38.7107 55.6158V65.6288C38.7107 67.2703 37.8237 68.7337 36.3607 69.4484L36.3585 69.4496L25.7699 74.7463C25.4385 74.9121 25.0809 75.0079 24.7308 75.0079C24.3177 75.0079 23.8923 74.8814 23.4853 74.6793C22.8091 74.2556 22.3911 73.5115 22.3911 72.7033V62.6902C22.3911 61.0488 23.2781 59.5854 24.7411 58.8706ZM58.905 3.46686L58.9063 3.46758L70.2913 9.59802C70.2915 9.59814 70.2917 9.59826 70.292 9.59838C71.0015 9.9859 71.4917 10.7646 71.4917 11.6819C71.4917 12.571 71.0312 13.3795 70.2957 13.7633L70.2926 13.765L58.908 19.8953C58.9077 19.8954 58.9075 19.8955 58.9073 19.8956C58.3329 20.1997 57.7244 20.3354 57.113 20.3354C56.5016 20.3354 55.8932 20.1998 55.3189 19.8957C55.3186 19.8956 55.3183 19.8954 55.318 19.8953L43.9333 13.765L43.9302 13.7633C43.1948 13.3795 42.7342 12.571 42.7342 11.6819C42.7342 10.7927 43.1948 9.98426 43.9302 9.6004L43.9333 9.59875L55.3196 3.46759L55.321 3.46686C56.4367 2.85802 57.7893 2.85802 58.905 3.46686ZM53.1841 22.4816L53.1864 22.4827C54.6529 23.1992 55.5726 24.6649 55.5726 26.3023V36.3154C55.5726 37.1265 55.1517 37.8731 54.4711 38.296C54.0709 38.5289 53.6473 38.6563 53.2329 38.6563C52.8828 38.6563 52.5252 38.5605 52.1938 38.3947L41.6053 33.0979L41.603 33.0968C40.14 32.382 39.253 30.9187 39.253 29.2772V19.2642C39.253 18.4525 39.6746 17.7046 40.3215 17.2816C41.0413 16.8583 41.8842 16.829 42.5956 17.1848L53.1841 22.4816ZM61.0033 22.4827L61.0055 22.4816L71.5898 17.1869C71.5905 17.1866 71.5912 17.1863 71.5919 17.186C72.3467 16.8256 73.1903 16.8618 73.8684 17.2817C74.5507 17.7043 74.9729 18.4518 74.9729 19.2642V29.2772C74.9729 30.8799 74.0878 32.3466 72.6194 33.0986C72.619 33.0988 72.6187 33.0989 72.6184 33.0991L62.0321 38.3947C61.7007 38.5605 61.3431 38.6563 60.993 38.6563C60.5786 38.6563 60.155 38.5289 59.7548 38.296C59.0743 37.8731 58.6533 37.1265 58.6533 36.3154V26.3023C58.6533 24.6609 59.5403 23.1975 61.0033 22.4827Z" stroke="url(#paint0_linear_2006_43034)" stroke-opacity="0.65" stroke-width="0.542316"/>
<defs>
<linearGradient id="paint0_linear_2006_43034" x1="-2.35887" y1="-2.77874" x2="92.8398" y2="41.568" gradientUnits="userSpaceOnUse">
<stop stop-color="white" stop-opacity="0.9"/>
<stop offset="1" stop-color="white" stop-opacity="0"/>
</linearGradient>
</defs>
</svg>
