<svg width="81" height="78" viewBox="0 0 81 78" fill="none" xmlns="http://www.w3.org/2000/svg">
<path d="M68.1428 18.7736C66.5138 10.5849 60.4148 7 51.9291 7H18.6683C8.66731 7 2 11.9811 2 23.6038V43.0377C2 51.4151 5.4473 56.3207 11.1297 58.434C11.9631 58.7358 12.8723 59 13.8193 59.1509C15.3346 59.4906 16.9636 59.6415 18.6683 59.6415H51.967C61.9679 59.6415 68.6353 54.6604 68.6353 43.0377V23.6038C68.6353 21.8302 68.4837 20.2453 68.1428 18.7736ZM16.4711 39C16.4711 40.5472 15.1831 41.8302 13.6299 41.8302C12.0767 41.8302 10.7887 40.5472 10.7887 39V27.6792C10.7887 26.1321 12.0767 24.8491 13.6299 24.8491C15.1831 24.8491 16.4711 26.1321 16.4711 27.6792V39ZM35.2987 43.3019C29.7678 43.3019 25.2977 38.8491 25.2977 33.3396C25.2977 27.8302 29.7678 23.3774 35.2987 23.3774C40.8295 23.3774 45.2997 27.8302 45.2997 33.3396C45.2997 38.8491 40.8295 43.3019 35.2987 43.3019ZM59.7708 39C59.7708 40.5472 58.4828 41.8302 56.9296 41.8302C55.3764 41.8302 54.0884 40.5472 54.0884 39V27.6792C54.0884 26.1321 55.3764 24.8491 56.9296 24.8491C58.4828 24.8491 59.7708 26.1321 59.7708 27.6792V39Z" fill="#182456"/>
<path d="M80 34.9245V54.3585C80 65.9811 73.3327 71 63.2938 71H30.033C27.1918 71 24.6537 70.5849 22.4565 69.7547C20.6761 69.1132 19.1229 68.1698 17.8728 66.9623C17.1909 66.3208 17.7212 65.3019 18.6683 65.3019H51.9291C65.9456 65.3019 74.2797 57 74.2797 43.0755V23.6038C74.2797 22.6981 75.3026 22.1321 75.9466 22.8113C78.5226 25.5283 80 29.4906 80 34.9245Z" fill="#182456"/>
<path d="M67.8768 18.8265L67.8767 18.8265L67.8786 18.8348C68.2139 20.2818 68.3641 21.8455 68.3641 23.6038V43.0377C68.3641 48.7971 66.7136 52.8663 63.8674 55.499C61.0173 58.1353 56.9261 59.3703 51.967 59.3703H18.6683C16.9791 59.3703 15.3706 59.2207 13.8786 58.8863L13.8704 58.8845L13.862 58.8832C12.9367 58.7357 12.0448 58.477 11.2229 58.1793C8.43262 57.1414 6.20135 55.423 4.66446 52.9421C3.12551 50.4579 2.27116 47.1902 2.27116 43.0377V23.6038C2.27116 17.8444 3.92167 13.7752 6.7679 11.1425C9.61796 8.50622 13.7091 7.27116 18.6683 7.27116H51.9291C56.1365 7.27116 59.7234 8.16019 62.4535 10.0394C65.1776 11.9145 67.0744 14.7929 67.8768 18.8265ZM22.5524 69.5011L22.5524 69.501L22.5484 69.4996C20.8004 68.8698 19.2811 67.9456 18.0612 66.7672L18.0586 66.7648C17.8081 66.5291 17.7877 66.2441 17.9027 66.0118C18.0216 65.7715 18.2953 65.573 18.6683 65.573H51.9291C58.9908 65.573 64.6538 63.4807 68.5519 59.6026C72.4501 55.7243 74.5509 50.092 74.5509 43.0755V23.6038C74.5509 23.2559 74.7466 22.9801 74.9939 22.8552C75.232 22.735 75.5168 22.7521 75.7498 22.9979C78.266 25.6518 79.7288 29.5402 79.7288 34.9245V54.3585C79.7288 60.1178 78.0783 64.1967 75.2272 66.8388C72.3723 69.4845 68.2717 70.7288 63.2938 70.7288H30.033C27.2177 70.7288 24.7131 70.3175 22.5524 69.5011ZM13.6299 42.1013C15.3319 42.1013 16.7423 40.6979 16.7423 39V27.6792C16.7423 25.9813 15.3319 24.5779 13.6299 24.5779C11.928 24.5779 10.5176 25.9813 10.5176 27.6792V39C10.5176 40.6979 11.928 42.1013 13.6299 42.1013ZM25.0266 33.3396C25.0266 38.9998 29.6191 43.573 35.2987 43.573C40.9783 43.573 45.5708 38.9998 45.5708 33.3396C45.5708 27.6794 40.9783 23.1062 35.2987 23.1062C29.6191 23.1062 25.0266 27.6794 25.0266 33.3396ZM56.9296 42.1013C58.6315 42.1013 60.0419 40.6979 60.0419 39V27.6792C60.0419 25.9813 58.6315 24.5779 56.9296 24.5779C55.2276 24.5779 53.8172 25.9813 53.8172 27.6792V39C53.8172 40.6979 55.2276 42.1013 56.9296 42.1013Z" stroke="url(#paint0_linear_2006_43039)" stroke-opacity="0.65" stroke-width="0.542316"/>
<defs>
<linearGradient id="paint0_linear_2006_43039" x1="-0.358869" y1="4.72001" x2="87.2573" y2="54.4628" gradientUnits="userSpaceOnUse">
<stop stop-color="white" stop-opacity="0.9"/>
<stop offset="1" stop-color="white" stop-opacity="0"/>
</linearGradient>
</defs>
</svg>
