<svg width="30" height="30" viewBox="0 0 30 30" fill="none" xmlns="http://www.w3.org/2000/svg">
<path d="M20.0001 5.3125C20.0001 6.8625 18.7376 8.125 17.1876 8.125H12.8126C12.0376 8.125 11.3376 7.8125 10.8251 7.3C10.3126 6.7875 10.0001 6.0875 10.0001 5.3125C10.0001 3.7625 11.2626 2.5 12.8126 2.5H17.1876C17.9626 2.5 18.6626 2.8125 19.1751 3.325C19.6876 3.8375 20.0001 4.5375 20.0001 5.3125Z" fill="#B6B9CE"/>
<path d="M23.5375 6.28495C23.25 6.04745 22.925 5.85995 22.575 5.72245C22.2125 5.58495 21.85 5.87245 21.775 6.24745C21.35 8.38495 19.4625 9.99745 17.1875 9.99745H12.8125C11.5625 9.99745 10.3875 9.50995 9.5 8.62245C8.85 7.97245 8.4 7.14745 8.225 6.25995C8.15 5.88495 7.775 5.58495 7.4125 5.73495C5.9625 6.32245 5 7.64745 5 10.31V22.4975C5 26.2475 7.2375 27.4975 10 27.4975H20C22.7625 27.4975 25 26.2475 25 22.4975V10.31C25 8.27245 24.4375 7.02245 23.5375 6.28495ZM10 15.31H15C15.5125 15.31 15.9375 15.735 15.9375 16.2475C15.9375 16.76 15.5125 17.185 15 17.185H10C9.4875 17.185 9.0625 16.76 9.0625 16.2475C9.0625 15.735 9.4875 15.31 10 15.31ZM20 22.185H10C9.4875 22.185 9.0625 21.76 9.0625 21.2475C9.0625 20.735 9.4875 20.31 10 20.31H20C20.5125 20.31 20.9375 20.735 20.9375 21.2475C20.9375 21.76 20.5125 22.185 20 22.185Z" fill="#B6B9CE"/>
</svg>
