<svg width="38" height="38" viewBox="0 0 38 38" fill="none" xmlns="http://www.w3.org/2000/svg">
<path d="M25.3306 6.729C25.3306 8.69234 23.7314 10.2915 21.7681 10.2915H16.2264C15.2448 10.2915 14.3581 9.89567 13.7089 9.2465C13.0598 8.59734 12.6639 7.71067 12.6639 6.729C12.6639 4.76567 14.2631 3.1665 16.2264 3.1665H21.7681C22.7498 3.1665 23.6364 3.56234 24.2856 4.2115C24.9348 4.86067 25.3306 5.74734 25.3306 6.729Z" fill="white"/>
<path d="M29.8166 7.96185C29.4525 7.66102 29.0408 7.42352 28.5975 7.24935C28.1383 7.07518 27.6791 7.43935 27.5841 7.91435C27.0458 10.6218 24.655 12.6643 21.7733 12.6643H16.2316C14.6483 12.6643 13.16 12.0468 12.0358 10.9227C11.2125 10.0993 10.6425 9.05435 10.4208 7.93018C10.3258 7.45518 9.85082 7.07518 9.39165 7.26518C7.55498 8.00935 6.33582 9.68768 6.33582 13.0602V28.4977C6.33582 33.2477 9.16998 34.831 12.6691 34.831H25.3358C28.835 34.831 31.6691 33.2477 31.6691 28.4977V13.0602C31.6691 10.4793 30.9566 8.89602 29.8166 7.96185ZM12.6691 19.3935H19.0025C19.6516 19.3935 20.19 19.9318 20.19 20.581C20.19 21.2302 19.6516 21.7685 19.0025 21.7685H12.6691C12.02 21.7685 11.4816 21.2302 11.4816 20.581C11.4816 19.9318 12.02 19.3935 12.6691 19.3935ZM25.3358 28.1019H12.6691C12.02 28.1019 11.4816 27.5635 11.4816 26.9143C11.4816 26.2652 12.02 25.7268 12.6691 25.7268H25.3358C25.985 25.7268 26.5233 26.2652 26.5233 26.9143C26.5233 27.5635 25.985 28.1019 25.3358 28.1019Z" fill="white"/>
</svg>
