<svg width="80" height="80" viewBox="0 0 80 80" fill="none" xmlns="http://www.w3.org/2000/svg">
<g clip-path="url(#clip0_16_1024)">
<g filter="url(#filter0_b_16_1024)">
<circle cx="40" cy="40" r="40" fill="url(#paint0_radial_16_1024)" fill-opacity="0.65"/>
<circle cx="40" cy="40" r="39.7509" stroke="url(#paint1_linear_16_1024)" stroke-opacity="0.36" stroke-width="0.498113"/>
</g>
<path d="M31.413 48.9867C31.413 48.9867 31.3997 48.9867 31.3864 48.9867L27.9863 48.9733C27.4397 48.9733 26.9863 48.52 26.9863 47.9733C26.9863 47.4266 27.4397 46.9733 27.9863 46.9733L31.3864 46.9867H31.3997C32.2663 46.9867 33.0797 46.56 33.5597 45.8267L42.0797 33.0533C42.933 31.7733 44.3597 31 45.9063 31C45.9063 31 45.9197 31 45.933 31L51.9997 31.0267C52.5463 31.0267 52.9997 31.48 52.9997 32.0267C52.9997 32.5734 52.5463 33.0267 51.9997 33.0267L45.933 33H45.9197C45.053 33 44.2397 33.4267 43.7597 34.16L35.2397 46.9334C34.3863 48.2267 32.9597 48.9867 31.413 48.9867Z" fill="white"/>
<path d="M49.3326 51.6399C49.0793 51.6399 48.8259 51.5466 48.6259 51.3466C48.2393 50.9599 48.2393 50.3199 48.6259 49.9332L51.2926 47.2666C51.6793 46.8799 52.3193 46.8799 52.7059 47.2666C53.0926 47.6532 53.0926 48.2932 52.7059 48.6799L50.0393 51.3466C49.8393 51.5466 49.5859 51.6399 49.3326 51.6399Z" fill="white"/>
<path d="M35.8534 36.5067C35.5467 36.5067 35.24 36.36 35.04 36.0933L33.6 34.0933C33.1067 33.4133 32.2933 33.0133 31.48 33.0133L28 33.0267C27.3867 33.0133 27 32.5867 27 32.0267C27 31.48 27.44 31.0267 28 31.0267L31.48 31.0133C31.4933 31.0133 31.4933 31.0133 31.5067 31.0133C32.9867 31.0133 34.3733 31.7333 35.24 32.92L36.68 34.92C37 35.3733 36.9067 35.9866 36.4533 36.32C36.2667 36.44 36.0667 36.5067 35.8534 36.5067Z" fill="white"/>
<path d="M45.76 48.9999C44.3467 48.9999 42.9867 48.3332 42.12 47.2132L40.4933 45.1199C40.16 44.6799 40.24 44.0532 40.6667 43.7199C41.1067 43.3865 41.7333 43.4666 42.0666 43.8932L43.6933 45.9866C44.1866 46.6266 44.9733 46.9466 45.76 46.9999L51.9866 46.9732C52.5333 46.9732 52.9866 47.4132 52.9866 47.9732C52.9866 48.5199 52.5466 48.9732 51.9866 48.9732L45.76 48.9999C45.76 48.9999 45.7733 48.9999 45.76 48.9999Z" fill="white"/>
<path d="M51.9993 33.0267C51.7459 33.0267 51.4926 32.9333 51.2926 32.7333L48.6259 30.0666C48.2393 29.6799 48.2393 29.0399 48.6259 28.6533C49.0126 28.2666 49.6526 28.2666 50.0393 28.6533L52.7059 31.3199C53.0926 31.7066 53.0926 32.3466 52.7059 32.7333C52.5059 32.9333 52.2526 33.0267 51.9993 33.0267Z" fill="white"/>
<path d="M5.71401 18.6632C5.71401 18.6632 5.71401 22.3203 9.37115 22.3203M5.71401 18.6632C5.71401 22.3203 2.05686 22.3203 2.05686 22.3203M5.71401 18.6632V17.7489M9.37115 22.3203C9.37115 22.3203 5.71401 22.3203 5.71401 25.9774M9.37115 22.3203H10.2854M2.05686 22.3203C5.71401 22.3203 5.71401 25.9774 5.71401 25.9774M2.05686 22.3203H1.14258M5.71401 25.9774V26.8917" stroke="white" stroke-width="1.14286" stroke-linecap="round" stroke-linejoin="round"/>
<path d="M67.6825 8.3351C67.6825 8.3351 67.6825 11.078 70.4253 11.078M67.6825 8.3351C67.6825 11.078 64.9396 11.078 64.9396 11.078M67.6825 8.3351V7.64938M70.4253 11.078C70.4253 11.078 67.6825 11.078 67.6825 13.8208M70.4253 11.078H71.111M64.9396 11.078C67.6825 11.078 67.6825 13.8208 67.6825 13.8208M64.9396 11.078H64.2539M67.6825 13.8208V14.5065" stroke="#207BC4" stroke-width="0.857143" stroke-linecap="round" stroke-linejoin="round"/>
<path d="M71.4283 60.6729C71.4283 60.6729 71.4283 62.5015 73.2569 62.5015M71.4283 60.6729C71.4283 62.5015 69.5997 62.5015 69.5997 62.5015M71.4283 60.6729V60.2158M73.2569 62.5015C73.2569 62.5015 71.4283 62.5015 71.4283 64.33M73.2569 62.5015H73.714M69.5997 62.5015C71.4283 62.5015 71.4283 64.33 71.4283 64.33M69.5997 62.5015H69.1426M71.4283 64.33V64.7872" stroke="white" stroke-width="0.571429" stroke-linecap="round" stroke-linejoin="round"/>
</g>
<defs>
<filter id="filter0_b_16_1024" x="-5.13026" y="-5.13026" width="90.2605" height="90.2605" filterUnits="userSpaceOnUse" color-interpolation-filters="sRGB">
<feFlood flood-opacity="0" result="BackgroundImageFix"/>
<feGaussianBlur in="BackgroundImageFix" stdDeviation="2.56513"/>
<feComposite in2="SourceAlpha" operator="in" result="effect1_backgroundBlur_16_1024"/>
<feBlend mode="normal" in="SourceGraphic" in2="effect1_backgroundBlur_16_1024" result="shape"/>
</filter>
<radialGradient id="paint0_radial_16_1024" cx="0" cy="0" r="1" gradientUnits="userSpaceOnUse" gradientTransform="translate(40 43.3962) rotate(126.637) scale(38.5577 43.2368)">
<stop stop-color="#0F1565"/>
<stop offset="1" stop-color="#1A24B0"/>
</radialGradient>
<linearGradient id="paint1_linear_16_1024" x1="-2.41935" y1="-2.84999" x2="95.2203" y2="42.6338" gradientUnits="userSpaceOnUse">
<stop stop-color="white" stop-opacity="0.9"/>
<stop offset="1" stop-color="white" stop-opacity="0"/>
</linearGradient>
<clipPath id="clip0_16_1024">
<rect width="80" height="80" fill="white"/>
</clipPath>
</defs>
</svg>
