<svg width="423" height="37" viewBox="0 0 423 37" fill="none" xmlns="http://www.w3.org/2000/svg">
<g clip-path="url(#clip0_30_2549)">
<path opacity="0.5" d="M178.554 12.5898C178.819 12.4749 179.088 12.7434 178.973 13.008L176.615 18.4359C176.58 18.5166 176.58 18.6084 176.615 18.6891L178.973 24.117C179.088 24.3816 178.819 24.6501 178.554 24.5352L173.127 22.1778C173.046 22.1427 172.954 22.1427 172.873 22.1778L167.446 24.5352C167.181 24.6501 166.912 24.3816 167.027 24.117L169.385 18.6891C169.42 18.6084 169.42 18.5166 169.385 18.4359L167.027 13.008C166.912 12.7434 167.181 12.4749 167.446 12.5898L172.873 14.9472C172.954 14.9823 173.046 14.9823 173.127 14.9472L178.554 12.5898Z" fill="#1C3AD5"/>
</g>
<path d="M195.945 25.1094V23.5625C196.122 23.7188 196.333 23.8594 196.578 23.9844C196.828 24.1094 197.089 24.2161 197.359 24.3047C197.635 24.388 197.911 24.4531 198.188 24.5C198.464 24.5469 198.719 24.5703 198.953 24.5703C199.76 24.5703 200.362 24.4219 200.758 24.125C201.159 23.8229 201.359 23.3906 201.359 22.8281C201.359 22.526 201.292 22.263 201.156 22.0391C201.026 21.8151 200.844 21.612 200.609 21.4297C200.375 21.2422 200.096 21.0651 199.773 20.8984C199.456 20.7266 199.112 20.5469 198.742 20.3594C198.352 20.1615 197.987 19.9609 197.648 19.7578C197.31 19.5547 197.016 19.3307 196.766 19.0859C196.516 18.8411 196.318 18.5651 196.172 18.2578C196.031 17.9453 195.961 17.5807 195.961 17.1641C195.961 16.6536 196.073 16.2109 196.297 15.8359C196.521 15.4557 196.815 15.1432 197.18 14.8984C197.544 14.6536 197.958 14.4714 198.422 14.3516C198.891 14.2318 199.367 14.1719 199.852 14.1719C200.956 14.1719 201.76 14.3047 202.266 14.5703V16.0469C201.604 15.5885 200.755 15.3594 199.719 15.3594C199.432 15.3594 199.146 15.3906 198.859 15.4531C198.573 15.5104 198.318 15.6068 198.094 15.7422C197.87 15.8776 197.688 16.0521 197.547 16.2656C197.406 16.4792 197.336 16.7396 197.336 17.0469C197.336 17.3333 197.388 17.5807 197.492 17.7891C197.602 17.9974 197.76 18.1875 197.969 18.3594C198.177 18.5312 198.43 18.6979 198.727 18.8594C199.029 19.0208 199.375 19.1979 199.766 19.3906C200.167 19.5885 200.547 19.7969 200.906 20.0156C201.266 20.2344 201.581 20.4766 201.852 20.7422C202.122 21.0078 202.336 21.3021 202.492 21.625C202.654 21.9479 202.734 22.3177 202.734 22.7344C202.734 23.2865 202.625 23.7552 202.406 24.1406C202.193 24.5208 201.901 24.8307 201.531 25.0703C201.167 25.3099 200.745 25.4818 200.266 25.5859C199.786 25.6953 199.281 25.75 198.75 25.75C198.573 25.75 198.354 25.7344 198.094 25.7031C197.833 25.6771 197.568 25.6354 197.297 25.5781C197.026 25.526 196.768 25.4609 196.523 25.3828C196.284 25.2995 196.091 25.2083 195.945 25.1094ZM211.067 21.8828H205.418C205.439 22.7734 205.679 23.4609 206.137 23.9453C206.595 24.4297 207.225 24.6719 208.028 24.6719C208.929 24.6719 209.757 24.375 210.512 23.7812V24.9844C209.809 25.4948 208.879 25.75 207.723 25.75C206.593 25.75 205.705 25.388 205.059 24.6641C204.413 23.9349 204.09 22.9115 204.09 21.5938C204.09 20.349 204.442 19.3359 205.145 18.5547C205.853 17.7682 206.731 17.375 207.778 17.375C208.824 17.375 209.634 17.7135 210.207 18.3906C210.78 19.0677 211.067 20.0078 211.067 21.2109V21.8828ZM209.754 20.7969C209.749 20.0573 209.569 19.4818 209.215 19.0703C208.866 18.6589 208.379 18.4531 207.754 18.4531C207.15 18.4531 206.637 18.6693 206.215 19.1016C205.793 19.5339 205.533 20.099 205.434 20.7969H209.754ZM218.305 25.1953C217.69 25.5651 216.961 25.75 216.118 25.75C214.977 25.75 214.055 25.3802 213.352 24.6406C212.654 23.8958 212.305 22.9323 212.305 21.75C212.305 20.4323 212.683 19.375 213.438 18.5781C214.193 17.776 215.201 17.375 216.461 17.375C217.164 17.375 217.784 17.5052 218.321 17.7656V19.0781C217.727 18.6615 217.091 18.4531 216.414 18.4531C215.597 18.4531 214.925 18.7474 214.399 19.3359C213.878 19.9193 213.618 20.6875 213.618 21.6406C213.618 22.5781 213.862 23.3177 214.352 23.8594C214.847 24.401 215.508 24.6719 216.336 24.6719C217.034 24.6719 217.69 24.4401 218.305 23.9766V25.1953ZM226.551 25.5625H225.27V24.2969H225.239C224.708 25.2656 223.885 25.75 222.77 25.75C220.864 25.75 219.911 24.6146 219.911 22.3438V17.5625H221.184V22.1406C221.184 23.8281 221.83 24.6719 223.122 24.6719C223.747 24.6719 224.26 24.4427 224.661 23.9844C225.067 23.5208 225.27 22.9167 225.27 22.1719V17.5625H226.551V25.5625ZM233.157 18.8594C232.933 18.6875 232.61 18.6016 232.188 18.6016C231.641 18.6016 231.183 18.8594 230.813 19.375C230.449 19.8906 230.266 20.5938 230.266 21.4844V25.5625H228.985V17.5625H230.266V19.2109H230.298C230.48 18.6484 230.758 18.2109 231.133 17.8984C231.508 17.5807 231.928 17.4219 232.391 17.4219C232.725 17.4219 232.98 17.4583 233.157 17.5312V18.8594ZM240.817 21.8828H235.169C235.19 22.7734 235.429 23.4609 235.888 23.9453C236.346 24.4297 236.976 24.6719 237.778 24.6719C238.679 24.6719 239.507 24.375 240.263 23.7812V24.9844C239.559 25.4948 238.63 25.75 237.473 25.75C236.343 25.75 235.455 25.388 234.809 24.6641C234.164 23.9349 233.841 22.9115 233.841 21.5938C233.841 20.349 234.192 19.3359 234.895 18.5547C235.604 17.7682 236.481 17.375 237.528 17.375C238.575 17.375 239.385 17.7135 239.958 18.3906C240.531 19.0677 240.817 20.0078 240.817 21.2109V21.8828ZM239.505 20.7969C239.499 20.0573 239.32 19.4818 238.966 19.0703C238.617 18.6589 238.13 18.4531 237.505 18.4531C236.901 18.4531 236.388 18.6693 235.966 19.1016C235.544 19.5339 235.283 20.099 235.184 20.7969H239.505ZM247.005 25.5625V14.3594H250.193C251.161 14.3594 251.929 14.5964 252.497 15.0703C253.065 15.5443 253.349 16.1615 253.349 16.9219C253.349 17.5573 253.177 18.1094 252.833 18.5781C252.489 19.0469 252.015 19.3802 251.411 19.5781V19.6094C252.166 19.6979 252.771 19.9844 253.224 20.4688C253.677 20.9479 253.903 21.5729 253.903 22.3438C253.903 23.3021 253.56 24.0781 252.872 24.6719C252.185 25.2656 251.318 25.5625 250.271 25.5625H247.005ZM248.318 15.5469V19.1641H249.661C250.38 19.1641 250.945 18.9922 251.357 18.6484C251.768 18.2995 251.974 17.8099 251.974 17.1797C251.974 16.0911 251.258 15.5469 249.825 15.5469H248.318ZM248.318 20.3438V24.375H250.099C250.87 24.375 251.466 24.1927 251.888 23.8281C252.315 23.4635 252.528 22.9635 252.528 22.3281C252.528 21.0052 251.627 20.3438 249.825 20.3438H248.318ZM257.126 25.5625H255.845V13.7188H257.126V25.5625ZM262.904 25.75C261.721 25.75 260.776 25.3776 260.068 24.6328C259.365 23.8828 259.013 22.8906 259.013 21.6562C259.013 20.3125 259.38 19.263 260.115 18.5078C260.849 17.7526 261.841 17.375 263.091 17.375C264.284 17.375 265.214 17.7422 265.88 18.4766C266.552 19.2109 266.888 20.2292 266.888 21.5312C266.888 22.8073 266.526 23.8307 265.802 24.6016C265.083 25.3672 264.117 25.75 262.904 25.75ZM262.998 18.4531C262.175 18.4531 261.524 18.7344 261.044 19.2969C260.565 19.8542 260.326 20.625 260.326 21.6094C260.326 22.5573 260.568 23.3047 261.052 23.8516C261.537 24.3984 262.185 24.6719 262.998 24.6719C263.826 24.6719 264.461 24.4036 264.904 23.8672C265.352 23.3307 265.576 22.5677 265.576 21.5781C265.576 20.5781 265.352 19.8073 264.904 19.2656C264.461 18.724 263.826 18.4531 262.998 18.4531ZM274.228 25.1953C273.614 25.5651 272.884 25.75 272.041 25.75C270.9 25.75 269.978 25.3802 269.275 24.6406C268.577 23.8958 268.228 22.9323 268.228 21.75C268.228 20.4323 268.606 19.375 269.361 18.5781C270.116 17.776 271.124 17.375 272.384 17.375C273.088 17.375 273.707 17.5052 274.244 17.7656V19.0781C273.65 18.6615 273.015 18.4531 272.338 18.4531C271.52 18.4531 270.848 18.7474 270.322 19.3359C269.801 19.9193 269.541 20.6875 269.541 21.6406C269.541 22.5781 269.785 23.3177 270.275 23.8594C270.77 24.401 271.431 24.6719 272.259 24.6719C272.957 24.6719 273.614 24.4401 274.228 23.9766V25.1953ZM282.646 25.5625H280.849L277.318 21.7188H277.287V25.5625H276.006V13.7188H277.287V21.2266H277.318L280.677 17.5625H282.357L278.646 21.4219L282.646 25.5625ZM289.252 25.1953C288.637 25.5651 287.908 25.75 287.064 25.75C285.924 25.75 285.002 25.3802 284.299 24.6406C283.601 23.8958 283.252 22.9323 283.252 21.75C283.252 20.4323 283.629 19.375 284.385 18.5781C285.14 17.776 286.148 17.375 287.408 17.375C288.111 17.375 288.731 17.5052 289.268 17.7656V19.0781C288.674 18.6615 288.038 18.4531 287.361 18.4531C286.544 18.4531 285.872 18.7474 285.346 19.3359C284.825 19.9193 284.564 20.6875 284.564 21.6406C284.564 22.5781 284.809 23.3177 285.299 23.8594C285.794 24.401 286.455 24.6719 287.283 24.6719C287.981 24.6719 288.637 24.4401 289.252 23.9766V25.1953ZM297.67 25.5625H296.389V20.9531C296.389 19.2865 295.769 18.4531 294.529 18.4531C293.904 18.4531 293.378 18.6953 292.951 19.1797C292.524 19.6589 292.311 20.276 292.311 21.0312V25.5625H291.029V13.7188H292.311V18.8906H292.342C292.956 17.8802 293.831 17.375 294.967 17.375C296.769 17.375 297.67 18.4609 297.67 20.6328V25.5625ZM305.658 25.5625H304.377V24.3125H304.346C303.789 25.2708 302.968 25.75 301.885 25.75C301.088 25.75 300.463 25.5391 300.01 25.1172C299.562 24.6953 299.338 24.1354 299.338 23.4375C299.338 21.9427 300.218 21.0729 301.979 20.8281L304.377 20.4922C304.377 19.1328 303.828 18.4531 302.729 18.4531C301.765 18.4531 300.895 18.7812 300.119 19.4375V18.125C300.906 17.625 301.812 17.375 302.838 17.375C304.718 17.375 305.658 18.3698 305.658 20.3594V25.5625ZM304.377 21.5156L302.448 21.7812C301.854 21.8646 301.406 22.013 301.104 22.2266C300.802 22.4349 300.651 22.8073 300.651 23.3438C300.651 23.7344 300.789 24.0547 301.065 24.3047C301.346 24.5495 301.718 24.6719 302.182 24.6719C302.817 24.6719 303.341 24.4505 303.752 24.0078C304.169 23.5599 304.377 22.9948 304.377 22.3125V21.5156ZM308.569 15.5312C308.34 15.5312 308.144 15.4531 307.983 15.2969C307.821 15.1406 307.741 14.9427 307.741 14.7031C307.741 14.4635 307.821 14.2656 307.983 14.1094C308.144 13.9479 308.34 13.8672 308.569 13.8672C308.803 13.8672 309.001 13.9479 309.162 14.1094C309.329 14.2656 309.412 14.4635 309.412 14.7031C309.412 14.9323 309.329 15.1276 309.162 15.2891C309.001 15.4505 308.803 15.5312 308.569 15.5312ZM309.194 25.5625H307.912V17.5625H309.194V25.5625ZM318.268 25.5625H316.987V21C316.987 19.3021 316.367 18.4531 315.128 18.4531C314.487 18.4531 313.956 18.6953 313.534 19.1797C313.117 19.6589 312.909 20.2656 312.909 21V25.5625H311.628V17.5625H312.909V18.8906H312.94C313.544 17.8802 314.419 17.375 315.565 17.375C316.44 17.375 317.109 17.6589 317.573 18.2266C318.036 18.7891 318.268 19.6042 318.268 20.6719V25.5625ZM324.409 25.1094V23.5625C324.586 23.7188 324.797 23.8594 325.042 23.9844C325.292 24.1094 325.552 24.2161 325.823 24.3047C326.099 24.388 326.375 24.4531 326.651 24.5C326.927 24.5469 327.182 24.5703 327.417 24.5703C328.224 24.5703 328.826 24.4219 329.222 24.125C329.623 23.8229 329.823 23.3906 329.823 22.8281C329.823 22.526 329.755 22.263 329.62 22.0391C329.49 21.8151 329.307 21.612 329.073 21.4297C328.839 21.2422 328.56 21.0651 328.237 20.8984C327.919 20.7266 327.576 20.5469 327.206 20.3594C326.815 20.1615 326.451 19.9609 326.112 19.7578C325.774 19.5547 325.479 19.3307 325.229 19.0859C324.979 18.8411 324.781 18.5651 324.636 18.2578C324.495 17.9453 324.425 17.5807 324.425 17.1641C324.425 16.6536 324.537 16.2109 324.761 15.8359C324.985 15.4557 325.279 15.1432 325.643 14.8984C326.008 14.6536 326.422 14.4714 326.886 14.3516C327.354 14.2318 327.831 14.1719 328.315 14.1719C329.419 14.1719 330.224 14.3047 330.729 14.5703V16.0469C330.068 15.5885 329.219 15.3594 328.182 15.3594C327.896 15.3594 327.61 15.3906 327.323 15.4531C327.037 15.5104 326.781 15.6068 326.557 15.7422C326.334 15.8776 326.151 16.0521 326.011 16.2656C325.87 16.4792 325.8 16.7396 325.8 17.0469C325.8 17.3333 325.852 17.5807 325.956 17.7891C326.065 17.9974 326.224 18.1875 326.432 18.3594C326.641 18.5312 326.893 18.6979 327.19 18.8594C327.492 19.0208 327.839 19.1979 328.229 19.3906C328.63 19.5885 329.011 19.7969 329.37 20.0156C329.729 20.2344 330.044 20.4766 330.315 20.7422C330.586 21.0078 330.8 21.3021 330.956 21.625C331.117 21.9479 331.198 22.3177 331.198 22.7344C331.198 23.2865 331.089 23.7552 330.87 24.1406C330.656 24.5208 330.365 24.8307 329.995 25.0703C329.63 25.3099 329.209 25.4818 328.729 25.5859C328.25 25.6953 327.745 25.75 327.214 25.75C327.037 25.75 326.818 25.7344 326.557 25.7031C326.297 25.6771 326.031 25.6354 325.761 25.5781C325.49 25.526 325.232 25.4609 324.987 25.3828C324.748 25.2995 324.555 25.2083 324.409 25.1094ZM336.444 25.75C335.262 25.75 334.317 25.3776 333.608 24.6328C332.905 23.8828 332.554 22.8906 332.554 21.6562C332.554 20.3125 332.921 19.263 333.655 18.5078C334.39 17.7526 335.382 17.375 336.632 17.375C337.825 17.375 338.754 17.7422 339.421 18.4766C340.093 19.2109 340.429 20.2292 340.429 21.5312C340.429 22.8073 340.067 23.8307 339.343 24.6016C338.624 25.3672 337.658 25.75 336.444 25.75ZM336.538 18.4531C335.715 18.4531 335.064 18.7344 334.585 19.2969C334.106 19.8542 333.866 20.625 333.866 21.6094C333.866 22.5573 334.108 23.3047 334.593 23.8516C335.077 24.3984 335.726 24.6719 336.538 24.6719C337.366 24.6719 338.002 24.4036 338.444 23.8672C338.892 23.3307 339.116 22.5677 339.116 21.5781C339.116 20.5781 338.892 19.8073 338.444 19.2656C338.002 18.724 337.366 18.4531 336.538 18.4531ZM343.597 25.5625H342.316V13.7188H343.597V25.5625ZM352.499 25.5625H351.218V24.2969H351.187C350.656 25.2656 349.833 25.75 348.718 25.75C346.812 25.75 345.859 24.6146 345.859 22.3438V17.5625H347.132V22.1406C347.132 23.8281 347.778 24.6719 349.07 24.6719C349.695 24.6719 350.208 24.4427 350.609 23.9844C351.015 23.5208 351.218 22.9167 351.218 22.1719V17.5625H352.499V25.5625ZM358.644 25.4844C358.342 25.651 357.944 25.7344 357.449 25.7344C356.048 25.7344 355.347 24.9531 355.347 23.3906V18.6562H353.972V17.5625H355.347V15.6094L356.628 15.1953V17.5625H358.644V18.6562H356.628V23.1641C356.628 23.7005 356.72 24.0833 356.902 24.3125C357.084 24.5417 357.386 24.6562 357.808 24.6562C358.131 24.6562 358.41 24.5677 358.644 24.3906V25.4844ZM360.851 15.5312C360.622 15.5312 360.427 15.4531 360.265 15.2969C360.104 15.1406 360.023 14.9427 360.023 14.7031C360.023 14.4635 360.104 14.2656 360.265 14.1094C360.427 13.9479 360.622 13.8672 360.851 13.8672C361.086 13.8672 361.284 13.9479 361.445 14.1094C361.612 14.2656 361.695 14.4635 361.695 14.7031C361.695 14.9323 361.612 15.1276 361.445 15.2891C361.284 15.4505 361.086 15.5312 360.851 15.5312ZM361.476 25.5625H360.195V17.5625H361.476V25.5625ZM367.254 25.75C366.071 25.75 365.126 25.3776 364.418 24.6328C363.715 23.8828 363.363 22.8906 363.363 21.6562C363.363 20.3125 363.73 19.263 364.465 18.5078C365.199 17.7526 366.191 17.375 367.441 17.375C368.634 17.375 369.564 17.7422 370.23 18.4766C370.902 19.2109 371.238 20.2292 371.238 21.5312C371.238 22.8073 370.876 23.8307 370.152 24.6016C369.433 25.3672 368.467 25.75 367.254 25.75ZM367.348 18.4531C366.525 18.4531 365.874 18.7344 365.394 19.2969C364.915 19.8542 364.676 20.625 364.676 21.6094C364.676 22.5573 364.918 23.3047 365.402 23.8516C365.887 24.3984 366.535 24.6719 367.348 24.6719C368.176 24.6719 368.811 24.4036 369.254 23.8672C369.702 23.3307 369.926 22.5677 369.926 21.5781C369.926 20.5781 369.702 19.8073 369.254 19.2656C368.811 18.724 368.176 18.4531 367.348 18.4531ZM379.766 25.5625H378.484V21C378.484 19.3021 377.865 18.4531 376.625 18.4531C375.984 18.4531 375.453 18.6953 375.031 19.1797C374.615 19.6589 374.406 20.2656 374.406 21V25.5625H373.125V17.5625H374.406V18.8906H374.438C375.042 17.8802 375.917 17.375 377.062 17.375C377.938 17.375 378.607 17.6589 379.07 18.2266C379.534 18.7891 379.766 19.6042 379.766 20.6719V25.5625ZM381.543 25.2734V23.8984C382.241 24.4141 383.009 24.6719 383.848 24.6719C384.973 24.6719 385.535 24.2969 385.535 23.5469C385.535 23.3333 385.486 23.1536 385.387 23.0078C385.293 22.8568 385.163 22.724 384.996 22.6094C384.835 22.4948 384.642 22.3932 384.418 22.3047C384.199 22.2109 383.962 22.1146 383.707 22.0156C383.353 21.875 383.041 21.7344 382.77 21.5938C382.504 21.4479 382.28 21.2865 382.098 21.1094C381.921 20.9271 381.785 20.7214 381.692 20.4922C381.603 20.263 381.559 19.9948 381.559 19.6875C381.559 19.3125 381.645 18.9818 381.817 18.6953C381.988 18.4036 382.218 18.1615 382.504 17.9688C382.791 17.7708 383.116 17.6224 383.481 17.5234C383.85 17.4245 384.231 17.375 384.621 17.375C385.314 17.375 385.934 17.4948 386.481 17.7344V19.0312C385.892 18.6458 385.215 18.4531 384.449 18.4531C384.21 18.4531 383.994 18.4818 383.801 18.5391C383.608 18.5911 383.442 18.6667 383.301 18.7656C383.166 18.8646 383.059 18.9844 382.981 19.125C382.908 19.2604 382.871 19.4115 382.871 19.5781C382.871 19.7865 382.908 19.9609 382.981 20.1016C383.059 20.2422 383.171 20.3672 383.317 20.4766C383.462 20.5859 383.639 20.6849 383.848 20.7734C384.056 20.862 384.293 20.9583 384.559 21.0625C384.913 21.1979 385.231 21.3385 385.512 21.4844C385.793 21.625 386.033 21.7865 386.231 21.9688C386.429 22.1458 386.58 22.3516 386.684 22.5859C386.793 22.8203 386.848 23.099 386.848 23.4219C386.848 23.8177 386.759 24.1615 386.582 24.4531C386.41 24.7448 386.179 24.987 385.887 25.1797C385.595 25.3724 385.259 25.5156 384.879 25.6094C384.499 25.7031 384.1 25.75 383.684 25.75C382.861 25.75 382.147 25.5911 381.543 25.2734Z" fill="white"/>
<path d="M41.4378 23.9928L40.2971 21.4278H32.8738L31.7331 23.9928H28.5742L34.1899 11.6952H39.0862L44.7019 23.9928H41.4378ZM33.9443 19.021H39.2441L36.5942 13.0479L33.9443 19.021Z" fill="white"/>
<path d="M48.2234 19.7765C48.317 20.362 48.6972 20.8598 49.3641 21.2697C50.0309 21.6679 50.9961 21.867 52.2597 21.867C53.2073 21.867 54.0322 21.7675 54.7341 21.5684C55.4361 21.3693 55.7871 21.0648 55.7871 20.6548C55.7871 20.1512 55.1962 19.7706 54.0146 19.5129L49.4869 18.4764C47.0417 17.9142 45.8191 16.8016 45.8191 15.1385C45.8191 13.9205 46.3924 13.0069 47.539 12.3979C48.6855 11.7889 50.1245 11.4844 51.8561 11.4844C53.7046 11.4844 55.2255 11.8357 56.4188 12.5385C57.6239 13.2295 58.2966 14.2133 58.437 15.4899L55.4185 15.6128C55.3132 15.1209 54.9447 14.6993 54.3129 14.348C53.6929 13.9966 52.833 13.8209 51.7332 13.8209C50.9377 13.8209 50.2825 13.9205 49.7677 14.1196C49.2646 14.3187 49.0131 14.5939 49.0131 14.9453C49.0131 15.4372 49.5805 15.8119 50.7154 16.0696L54.9096 16.9831C56.2784 17.2877 57.2963 17.6976 57.9632 18.2129C58.6417 18.7282 58.981 19.4544 58.981 20.3913C58.981 21.6679 58.3785 22.6225 57.1735 23.2549C55.9801 23.8874 54.3422 24.2036 52.2597 24.2036C47.8022 24.2036 45.4506 22.7571 45.2049 19.8643L48.2234 19.7765Z" fill="white"/>
<path d="M59.4958 14.3128V11.6952H73.2017V14.3128H67.9545V23.9928H64.7606V14.3128H59.4958Z" fill="white"/>
<path d="M75.1853 23.9928V11.6952H87.382V14.1898H78.3793V16.5615H85.4516V18.9156H78.3793V21.4981H87.733V23.9928H75.1853Z" fill="white"/>
<path d="M100.274 23.9928L96.0097 19.4778H93.2721V23.9928H90.0781V11.6952H93.2721H98.6772C100.116 11.6952 101.298 12.029 102.222 12.6966C103.146 13.3641 103.609 14.3597 103.609 15.6831C103.609 16.8543 103.258 17.7444 102.556 18.3534C101.854 18.9508 100.888 19.308 99.66 19.4251L104.328 23.9928H100.274ZM93.2721 14.2425V17.071H98.5193C99.1042 17.071 99.5664 16.9539 99.9057 16.7196C100.245 16.4737 100.415 16.1282 100.415 15.6831C100.415 15.2263 100.239 14.875 99.8881 14.629C99.5488 14.3714 99.0925 14.2425 98.5193 14.2425H93.2721Z" fill="white"/>
<path d="M106.136 23.9928V11.6952H109.33V23.9928H106.136Z" fill="white"/>
<path d="M115.831 21.3751H124.886V23.9928H111.233V21.7792L120.025 14.3128H111.83V11.6952H124.641V13.9088L115.831 21.3751Z" fill="white"/>
<path d="M140.124 11.6952H145.704L145.687 23.9928H142.633V13.3641L138.439 23.9928H134.104L129.91 13.3641V23.9928H126.839V11.6952H132.437L136.315 22.2008L140.124 11.6952Z" fill="white"/>
<path fill-rule="evenodd" clip-rule="evenodd" d="M19.3375 7.00505C17.258 8.19638 13.4075 10.4217 12.4218 11.0019C11.4308 11.5851 10.9455 12.2853 10.8404 13.2831C10.8181 13.4957 10.7994 14.4274 10.799 15.3535C10.7983 17.014 10.797 17.0401 10.7034 17.2298C10.6512 17.3356 10.5467 17.4844 10.4711 17.5605C10.3004 17.7325 9.93829 17.8474 9.68633 17.8096C9.5664 17.7916 9.04616 17.5195 8.05633 16.9572C6.40794 16.0207 6.04908 15.8332 5.78017 15.7684C5.25976 15.643 4.68875 15.6654 4.17424 15.8315C3.95808 15.9013 2.72759 16.5881 0.958006 17.6266C0.0894072 18.1364 0.00342416 18.2186 0.00317114 18.5396C0.00279162 18.9532 -0.295006 18.7583 4.97857 21.7958C8.69658 23.9374 9.83928 24.5769 10.0462 24.6319C10.2153 24.6768 10.4857 24.7039 10.783 24.7057C11.5459 24.7104 11.6552 24.6661 13.5732 23.5736C15.1072 22.6997 15.2439 22.6305 15.4776 22.6093C15.697 22.5894 15.7599 22.6019 15.9677 22.7071C16.2099 22.8299 16.3576 22.9823 16.455 23.2102C16.4952 23.3041 16.5154 23.8527 16.5339 25.3418C16.558 27.2844 16.5618 27.3562 16.6556 27.6425C16.8037 28.0944 17.0162 28.4658 17.3046 28.7768C17.5453 29.0365 17.7004 29.1373 19.2321 30.0298C21.3803 31.2815 21.5284 31.3579 21.7329 31.3195C21.9381 31.2809 22.1711 31.0734 22.228 30.8785C22.2593 30.7714 22.2691 29.0306 22.2601 25.1941L22.2472 19.664L22.1281 19.3263C21.9536 18.8312 21.7854 18.5625 21.4278 18.207C21.0925 17.8738 20.9983 17.814 18.8958 16.5991C18.3929 16.3085 17.9136 16.0001 17.818 15.9055C17.5147 15.6058 17.461 15.1173 17.6886 14.7284C17.8167 14.5097 17.8138 14.5117 18.8947 13.8817C20.8248 12.7567 21.1766 12.5371 21.3974 12.3195C21.6928 12.0285 21.9977 11.5334 22.1325 11.1258L22.2407 10.799L22.2439 8.54055C22.2457 7.29839 22.2326 6.22966 22.2147 6.16562C22.1635 5.98258 21.8737 5.79658 21.64 5.79688C21.4633 5.79709 21.2581 5.90473 19.3375 7.00505ZM16.5514 15.2767C16.609 15.3344 16.6176 15.5298 16.6176 16.7781C16.6176 18.2378 16.6037 18.3774 16.458 18.3755C16.4182 18.3749 15.8164 18.0447 15.1206 17.6415C13.9508 16.9636 13.8555 16.8998 13.8555 16.7934C13.8555 16.6871 13.9508 16.6232 15.1206 15.9454C15.8164 15.5422 16.408 15.2119 16.4354 15.2114C16.4627 15.2108 16.5149 15.2402 16.5514 15.2767ZM13.6573 16.9918C13.7299 17.0645 13.7299 19.9418 13.6573 20.0144C13.6295 20.0422 13.5678 20.0646 13.5203 20.064C13.4098 20.0628 11.0125 18.6755 10.9506 18.577C10.9177 18.5246 10.9172 18.4825 10.9488 18.4322C11.0096 18.3358 13.4118 16.9442 13.5203 16.9425C13.5679 16.9418 13.6295 16.964 13.6573 16.9918ZM16.567 18.6804C16.6044 18.7179 16.6176 19.1132 16.6176 20.1971C16.6176 21.4736 16.6091 21.6717 16.5514 21.7295C16.5149 21.766 16.4706 21.7958 16.4528 21.7958C16.435 21.7958 16.0711 21.5943 15.6441 21.348C15.217 21.1017 14.6445 20.7739 14.3719 20.6198C13.8757 20.3392 13.7543 20.2129 13.8694 20.0976C13.9694 19.9975 16.3493 18.6364 16.43 18.6332C16.4775 18.6313 16.5392 18.6526 16.567 18.6804Z" fill="white"/>
<defs>
<clipPath id="clip0_30_2549">
<rect width="12" height="12" fill="white" transform="translate(167 12.5625)"/>
</clipPath>
</defs>
</svg>
