<svg width="86" height="86" viewBox="0 0 86 86" fill="none" xmlns="http://www.w3.org/2000/svg">
<path d="M43.0013 81.5207C21.7521 81.5207 4.48047 64.249 4.48047 42.9998C4.48047 21.7507 21.7521 4.479 43.0013 4.479C64.2505 4.479 81.5221 21.7507 81.5221 42.9998C81.5221 64.249 64.2505 81.5207 43.0013 81.5207ZM43.0013 9.854C24.7263 9.854 9.85547 24.7248 9.85547 42.9998C9.85547 61.2748 24.7263 76.1457 43.0013 76.1457C61.2763 76.1457 76.1471 61.2748 76.1471 42.9998C76.1471 24.7248 61.2763 9.854 43.0013 9.854Z" fill="white"/>
<path d="M37.9131 55.8286C37.1965 55.8286 36.5156 55.5419 36.014 55.0402L25.8731 44.8994C24.834 43.8602 24.834 42.1402 25.8731 41.1011C26.9123 40.0619 28.6323 40.0619 29.6715 41.1011L37.9131 49.3427L56.3315 30.9244C57.3706 29.8852 59.0906 29.8852 60.1298 30.9244C61.169 31.9636 61.169 33.6836 60.1298 34.7227L39.8123 55.0402C39.3106 55.5419 38.6298 55.8286 37.9131 55.8286Z" fill="white"/>
</svg>
