<svg width="86" height="86" viewBox="0 0 86 86" fill="none" xmlns="http://www.w3.org/2000/svg">
<path d="M42.5213 81.5207C21.2722 81.5207 4.00049 64.249 4.00049 42.9998C4.00049 21.7507 21.2722 4.479 42.5213 4.479C63.7705 4.479 81.0422 21.7507 81.0422 42.9998C81.0422 64.249 63.7705 81.5207 42.5213 81.5207ZM42.5213 9.854C24.2463 9.854 9.37549 24.7248 9.37549 42.9998C9.37549 61.2748 24.2463 76.1457 42.5213 76.1457C60.7963 76.1457 75.6672 61.2748 75.6672 42.9998C75.6672 24.7248 60.7963 9.854 42.5213 9.854Z" fill="#EB3333"/>
<path d="M32.6795 55.8284C31.9987 55.8284 31.3179 55.5775 30.7804 55.04C29.7412 54.0009 29.7412 52.2809 30.7804 51.2417L51.062 30.96C52.1012 29.9209 53.8212 29.9209 54.8604 30.96C55.8995 31.9992 55.8995 33.7192 54.8604 34.7584L34.5787 55.04C34.077 55.5775 33.3604 55.8284 32.6795 55.8284Z" fill="#EB3333"/>
<path d="M52.9612 55.8284C52.2804 55.8284 51.5995 55.5775 51.062 55.04L30.7804 34.7584C29.7412 33.7192 29.7412 31.9992 30.7804 30.96C31.8195 29.9209 33.5395 29.9209 34.5787 30.96L54.8604 51.2417C55.8995 52.2809 55.8995 54.0009 54.8604 55.04C54.3229 55.5775 53.642 55.8284 52.9612 55.8284Z" fill="#EB3333"/>
</svg>
