<svg width="1669" height="1669" viewBox="0 0 1669 1669" fill="none" xmlns="http://www.w3.org/2000/svg">
<g clip-path="url(#clip0_92_3359)">
<g filter="url(#filter0_b_92_3359)">
<path d="M949.472 337.118C973.361 333.785 1001.18 338.389 1026.82 348.543C1052.46 358.696 1075.89 374.382 1091.02 393.165L1152.95 470.041C1183.33 507.749 1232.17 569.371 1261.94 607.557L1322.64 685.407C1337.47 704.429 1347.39 730.82 1351.42 758.104C1355.45 785.389 1353.58 813.52 1344.88 836.016L1309.27 928.086C1291.8 973.248 1262.85 1046.35 1244.67 1091.23L1207.6 1182.72C1198.54 1205.08 1180.64 1226.87 1159.03 1244C1137.41 1261.13 1112.12 1273.57 1088.28 1277.29L990.743 1292.48C942.898 1299.93 865.112 1311.42 817.155 1318.11L719.385 1331.75C695.496 1335.09 667.681 1330.48 642.038 1320.33C616.395 1310.17 592.967 1294.49 577.836 1275.71L515.906 1198.83C485.529 1161.12 436.691 1099.5 406.917 1061.31L346.218 983.463C331.387 964.441 321.467 938.05 317.438 910.766C313.41 883.482 315.28 855.35 323.981 832.854L359.593 740.784C377.06 695.623 406.007 622.516 424.191 577.638L461.261 486.146C470.319 463.791 488.214 442.004 509.829 424.874C531.444 407.743 556.741 395.297 580.574 391.584L678.115 376.389C725.96 368.936 803.745 357.452 851.702 350.76L949.472 337.118Z" stroke="url(#paint0_linear_92_3359)" stroke-opacity="0.65" stroke-width="0.85685"/>
</g>
<g opacity="0.78">
<path d="M1330.87 873.426C1320.99 898.962 1309.66 928.245 1309.66 928.245C1292.19 973.406 1263.25 1046.51 1245.06 1091.39L1207.99 1182.89C1189.81 1227.77 1136.2 1270.26 1088.35 1277.71C1088.35 1277.71 1080.8 1278.89 1069.89 1280.58" stroke="url(#paint1_linear_92_3359)" stroke-width="1.2"/>
<g filter="url(#filter1_d_92_3359)">
<g filter="url(#filter2_f_92_3359)">
<circle cx="1070.07" cy="1281.08" r="7.86329" transform="rotate(-70.0474 1070.07 1281.08)" fill="url(#paint2_radial_92_3359)"/>
</g>
<g style="mix-blend-mode:lighten" filter="url(#filter3_f_92_3359)">
<circle cx="1070.07" cy="1281.07" r="4.32932" transform="rotate(-70.0474 1070.07 1281.07)" fill="#E4F9FF"/>
</g>
<g filter="url(#filter4_f_92_3359)">
<circle cx="1070.07" cy="1281.08" r="2.23514" transform="rotate(-70.0474 1070.07 1281.08)" fill="white"/>
</g>
</g>
</g>
<g filter="url(#filter5_b_92_3359)">
<path d="M1041.36 119.694C1062.89 116.69 1087.96 120.839 1111.08 129.992C1134.19 139.144 1155.3 153.281 1168.94 170.209L1317.82 355.025C1345.21 389.021 1389.24 444.577 1416.09 479.004L1562.01 666.164C1575.38 683.306 1584.32 707.092 1587.95 731.685C1591.58 756.278 1589.9 781.633 1582.05 801.907L1496.44 1023.25C1480.69 1063.97 1454.59 1129.88 1438.2 1170.34L1349.08 1390.29C1340.92 1410.44 1324.79 1430.08 1305.31 1445.52C1285.82 1460.96 1263.02 1472.18 1241.54 1475.52L1007.05 1512.05C963.912 1518.77 893.783 1529.12 850.547 1535.16L615.499 1567.95C593.97 1570.96 568.901 1566.81 545.787 1557.66C522.672 1548.5 501.558 1534.37 487.921 1517.44L339.038 1332.62C311.651 1298.63 267.62 1243.07 240.777 1208.64L94.8501 1021.48C81.4844 1004.34 72.5429 980.556 68.9118 955.963C65.2807 931.37 66.9669 906.015 74.8083 885.742L160.422 664.397C176.17 623.681 202.267 557.771 218.661 517.31L307.782 297.354C315.945 277.208 332.073 257.572 351.556 242.131C371.039 226.689 393.84 215.472 415.318 212.126L649.815 175.597C692.95 168.878 763.079 158.524 806.315 152.491L1041.36 119.694Z" stroke="url(#paint3_linear_92_3359)" stroke-opacity="0.65" stroke-width="0.85685"/>
</g>
<g filter="url(#filter6_b_92_3359)">
<path d="M847.494 861L1344.99 712M847.494 861L427.994 566M847.494 861C841.094 861 491.994 892.666 318.494 909M847.494 861L1225.99 1149" stroke="url(#paint4_linear_92_3359)" stroke-width="0.85685"/>
</g>
<g filter="url(#filter7_b_92_3359)">
<path d="M847.494 861L1098.5 127" stroke="url(#paint5_linear_92_3359)" stroke-width="0.85685"/>
</g>
<path d="M1363.91 561.08C1434.27 563.046 1489.8 621.772 1487.83 692.135C1485.87 762.497 1427.14 818.029 1356.78 816.062C1286.42 814.095 1230.88 755.37 1232.85 685.007C1234.82 614.645 1293.54 559.113 1363.91 561.08Z" fill="#00051B"/>
<rect width="124.089" height="124.089" rx="62.0447" transform="matrix(-1 0 0 1 1422.22 625.894)" fill="#071CFF" fill-opacity="0.08"/>
<path d="M1357.87 661.299C1359.2 660.544 1361.21 660.544 1362.54 661.299L1376.06 669.008C1376.86 669.463 1377.3 670.141 1377.37 670.841H1377.39V709.589C1377.37 710.352 1376.93 711.11 1376.06 711.605L1362.54 719.314C1361.21 720.069 1359.2 720.069 1357.87 719.314L1344.35 711.605C1343.49 711.113 1343.07 710.349 1343.05 709.589C1343.05 709.514 1343.05 709.451 1343.05 709.4L1343.05 671.089C1343.05 671.047 1343.05 671.006 1343.05 670.964L1343.05 670.841L1343.06 670.841C1343.12 670.133 1343.54 669.472 1344.35 669.008L1357.87 661.299ZM1375.26 692.458L1362.54 699.71C1361.21 700.466 1359.2 700.466 1357.87 699.71L1345.18 692.474V709.512L1357.87 716.71C1358.59 717.123 1359.33 717.526 1360.06 717.578L1360.21 717.583C1360.96 717.586 1361.7 717.17 1362.45 716.777L1375.26 709.45V692.458ZM1340.85 708.746C1340.85 710.23 1341.01 711.206 1341.33 711.894C1341.59 712.464 1341.99 712.899 1342.71 713.429L1342.75 713.459C1342.91 713.574 1343.08 713.695 1343.3 713.836L1343.55 714.002L1344.31 714.502L1343.21 716.468L1342.35 715.907L1342.21 715.812C1341.96 715.646 1341.75 715.504 1341.56 715.364C1339.51 713.869 1338.74 712.24 1338.73 708.849L1338.73 708.746H1340.85ZM1359.14 682.072C1359.04 682.109 1358.95 682.151 1358.87 682.199L1345.35 689.908C1345.33 689.916 1345.32 689.924 1345.31 689.932L1345.29 689.939L1345.32 689.952L1345.35 689.97L1358.87 697.679C1358.95 697.727 1359.04 697.769 1359.14 697.805V682.072ZM1361.27 682.072V697.805C1361.37 697.769 1361.46 697.727 1361.55 697.679L1375.07 689.97C1375.08 689.962 1375.09 689.954 1375.11 689.946L1375.12 689.939L1375.1 689.926L1375.07 689.908L1361.55 682.199C1361.46 682.151 1361.37 682.109 1361.27 682.072ZM1375.26 673.589L1363.13 680.504L1375.26 687.42V673.589ZM1345.18 673.605V687.403L1357.28 680.504L1345.18 673.605ZM1361.55 663.33C1360.84 662.93 1359.57 662.93 1358.87 663.33L1345.35 671.039C1345.33 671.047 1345.32 671.055 1345.31 671.063L1345.29 671.07L1345.32 671.083L1345.35 671.101L1358.87 678.81C1359.57 679.211 1360.84 679.211 1361.55 678.81L1375.07 671.101C1375.08 671.093 1375.09 671.085 1375.11 671.077L1375.12 671.07L1375.1 671.057L1375.07 671.039L1361.55 663.33ZM1377.26 664.176L1378.12 664.736L1378.26 664.832C1378.51 664.997 1378.72 665.14 1378.91 665.28C1380.96 666.774 1381.73 668.404 1381.74 671.794L1381.74 671.897H1379.62C1379.62 670.413 1379.46 669.437 1379.14 668.75C1378.87 668.18 1378.48 667.744 1377.76 667.214L1377.72 667.184C1377.56 667.069 1377.39 666.949 1377.17 666.807L1376.92 666.642L1376.16 666.141L1377.26 664.176Z" fill="#071CFF"/>
<g filter="url(#filter8_b_92_3359)">
<path d="M1363.89 561.508C1434.02 563.468 1489.37 621.997 1487.4 692.123C1485.44 762.249 1426.92 817.594 1356.79 815.634C1286.66 813.674 1231.32 755.145 1233.28 685.019C1235.24 614.893 1293.77 559.547 1363.89 561.508Z" stroke="url(#paint6_linear_92_3359)" stroke-opacity="0.65" stroke-width="0.85685"/>
</g>
<g opacity="0.78">
<path d="M1285.81 792.058C1252.72 768.165 1231.62 728.846 1232.85 685.01C1233.99 644.104 1254.32 608.21 1284.97 585.712" fill="#00051B"/>
<g filter="url(#filter9_b_92_3359)">
<mask id="path-14-inside-1_92_3359" fill="white">
<path d="M1285.81 792.058C1252.72 768.165 1231.62 728.846 1232.85 685.01C1233.99 644.104 1254.32 608.21 1284.97 585.712"/>
</mask>
<path d="M1285.1 793.031C1285.64 793.418 1286.39 793.297 1286.78 792.76C1287.17 792.223 1287.05 791.473 1286.51 791.085L1285.1 793.031ZM1285.68 586.679C1286.21 586.287 1286.33 585.536 1285.93 585.002C1285.54 584.468 1284.79 584.353 1284.26 584.745L1285.68 586.679ZM1286.51 791.085C1253.73 767.415 1232.84 728.465 1234.05 685.044L1231.65 684.977C1230.41 729.227 1251.71 768.916 1285.1 793.031L1286.51 791.085ZM1234.05 685.044C1235.18 644.524 1255.32 608.968 1285.68 586.679L1284.26 584.745C1253.33 607.452 1232.8 643.684 1231.65 684.977L1234.05 685.044Z" fill="url(#paint7_linear_92_3359)" mask="url(#path-14-inside-1_92_3359)"/>
</g>
</g>
<path d="M425.461 474.251C469.871 475.492 504.921 512.558 503.68 556.969C502.438 601.379 465.373 636.429 420.962 635.188C376.551 633.947 341.501 596.881 342.743 552.47C343.984 508.059 381.05 473.009 425.461 474.251Z" fill="#00051B"/>
<rect x="373.043" y="504.811" width="99.8984" height="99.8984" rx="49.9492" fill="#8247E5" fill-opacity="0.12"/>
<path d="M432.996 548.15C432.323 547.764 431.463 547.764 430.701 548.15L425.34 551.327L421.699 553.346L416.437 556.512C415.764 556.899 414.903 556.899 414.142 556.512L410.027 554.008C409.354 553.622 408.88 552.85 408.88 551.989V547.179C408.88 546.407 409.266 545.646 410.027 545.16L414.142 542.755C414.815 542.369 415.675 542.369 416.437 542.755L420.552 545.259C421.225 545.646 421.699 546.418 421.699 547.278V550.456L425.34 548.337V545.072C425.34 544.3 424.954 543.538 424.192 543.053L416.536 538.53C415.863 538.144 415.002 538.144 414.241 538.53L406.397 543.152C405.636 543.538 405.25 544.311 405.25 545.072V554.107C405.25 554.88 405.636 555.641 406.397 556.126L414.153 560.649C414.826 561.036 415.686 561.036 416.448 560.649L421.71 557.571L425.351 555.453L430.613 552.375C431.286 551.989 432.147 551.989 432.908 552.375L437.023 554.78C437.696 555.166 438.17 555.939 438.17 556.799V561.609C438.17 562.382 437.784 563.143 437.023 563.628L433.007 566.033C432.334 566.419 431.474 566.419 430.712 566.033L426.586 563.628C425.913 563.242 425.439 562.47 425.439 561.609V558.531L421.798 560.649V563.827C421.798 564.599 422.184 565.36 422.946 565.846L430.701 570.369C431.374 570.755 432.235 570.755 432.996 570.369L440.752 565.846C441.425 565.46 441.899 564.687 441.899 563.827V554.692C441.899 553.92 441.513 553.159 440.752 552.673L432.996 548.15Z" fill="#6A54FF"/>
<g filter="url(#filter10_b_92_3359)">
<path d="M425.449 474.679C469.623 475.914 504.486 512.783 503.252 556.957C502.017 601.131 465.148 635.995 420.974 634.76C376.8 633.525 341.936 596.656 343.171 552.482C344.406 508.308 381.275 473.444 425.449 474.679Z" stroke="url(#paint8_linear_92_3359)" stroke-opacity="0.65" stroke-width="0.85685"/>
</g>
<path d="M321.83 777.577C390.611 779.499 444.895 836.906 442.972 905.687C441.05 974.468 383.643 1028.75 314.862 1026.83C246.081 1024.91 191.797 967.501 193.719 898.719C195.642 829.938 253.048 775.654 321.83 777.577Z" fill="#00051B"/>
<g filter="url(#filter11_b_92_3359)">
<path d="M321.818 778.005C390.362 779.921 444.46 837.13 442.544 905.675C440.628 974.22 383.419 1028.32 314.874 1026.4C246.329 1024.49 192.231 967.276 194.148 898.731C196.064 830.186 253.273 776.089 321.818 778.005Z" stroke="url(#paint9_linear_92_3359)" stroke-opacity="0.65" stroke-width="0.85685"/>
</g>
<g filter="url(#filter12_b_92_3359)">
<path d="M269.493 787.482C285.532 780.633 303.266 777.058 321.829 777.577C390.611 779.499 444.895 836.906 442.972 905.687C442.49 922.921 438.525 939.244 431.771 954.002" stroke="url(#paint10_linear_92_3359)" stroke-width="1.2" stroke-linecap="round"/>
</g>
<path d="M1105.34 73.5971C1136.88 74.4788 1161.77 100.804 1160.89 132.345C1160.01 163.887 1133.69 188.78 1102.14 187.898C1070.6 187.017 1045.71 160.692 1046.59 129.15C1047.47 97.6087 1073.8 72.7154 1105.34 73.5971Z" fill="#00051B"/>
<rect width="58.2285" height="58.2285" rx="29.1143" transform="matrix(-1 0 0 1 1132.86 101.634)" fill="#FE0420" fill-opacity="0.12"/>
<path d="M1092.14 140.095C1090.3 140.095 1088.8 139.61 1087.63 138.641C1086.48 137.654 1085.9 136.252 1085.9 134.435C1085.9 134.054 1085.94 133.586 1086.01 133.033C1086.21 131.786 1086.5 130.289 1086.87 128.541C1087.92 123.781 1090.62 121.401 1094.98 121.401C1096.16 121.401 1097.23 121.626 1098.17 122.076C1099.11 122.509 1099.85 123.166 1100.38 124.049C1100.92 124.915 1101.19 125.953 1101.19 127.165C1101.19 127.528 1101.15 127.987 1101.08 128.541C1100.85 130.081 1100.57 131.579 1100.25 133.033C1099.71 135.404 1098.78 137.178 1097.45 138.355C1096.13 139.515 1094.35 140.095 1092.14 140.095ZM1092.46 136.356C1093.32 136.356 1094.05 136.07 1094.65 135.499C1095.27 134.928 1095.71 134.054 1095.97 132.877C1096.33 131.25 1096.6 129.83 1096.78 128.619C1096.84 128.255 1096.87 127.883 1096.87 127.502C1096.87 125.927 1096.14 125.14 1094.68 125.14C1093.82 125.14 1093.08 125.425 1092.46 125.996C1091.86 126.568 1091.43 127.442 1091.17 128.619C1090.89 129.778 1090.61 131.198 1090.33 132.877C1090.27 133.223 1090.24 133.586 1090.24 133.967C1090.24 135.56 1090.98 136.356 1092.46 136.356Z" fill="#FE0420"/>
<path d="M1103.46 140.095C1103.26 140.095 1103.1 140.032 1102.99 139.908C1102.9 139.765 1102.87 139.605 1102.91 139.427L1106.7 122.069C1106.74 121.873 1106.84 121.712 1107 121.588C1107.17 121.463 1107.34 121.401 1107.52 121.401H1114.83C1116.86 121.401 1118.49 121.81 1119.72 122.629C1120.97 123.448 1121.59 124.632 1121.59 126.181C1121.59 126.626 1121.53 127.089 1121.42 127.57C1120.97 129.617 1120.04 131.131 1118.65 132.11C1117.28 133.089 1115.39 133.579 1112.99 133.579H1109.28L1108.02 139.427C1107.98 139.623 1107.88 139.783 1107.72 139.908C1107.55 140.032 1107.38 140.095 1107.2 140.095H1103.46ZM1113.18 129.893C1113.95 129.893 1114.62 129.688 1115.19 129.279C1115.77 128.87 1116.16 128.282 1116.34 127.516C1116.4 127.214 1116.42 126.947 1116.42 126.715C1116.42 126.199 1116.27 125.807 1115.96 125.54C1115.65 125.255 1115.12 125.113 1114.36 125.113H1111.07L1110.02 129.893H1113.18Z" fill="#FE0420"/>
<g filter="url(#filter13_b_92_3359)">
<path d="M1105.33 74.0254C1136.63 74.9005 1161.34 101.028 1160.46 132.333C1159.59 163.638 1133.46 188.345 1102.16 187.47C1070.85 186.595 1046.15 160.467 1047.02 129.162C1047.9 97.8572 1074.02 73.1503 1105.33 74.0254Z" stroke="url(#paint11_linear_92_3359)" stroke-opacity="0.65" stroke-width="0.85685"/>
</g>
<path d="M1222.07 1053.62C1270.56 1054.98 1308.83 1095.45 1307.47 1143.94C1306.11 1192.43 1265.64 1230.7 1217.15 1229.34C1168.66 1227.98 1130.4 1187.51 1131.75 1139.02C1133.11 1090.53 1173.58 1052.27 1222.07 1053.62Z" fill="#00051B"/>
<rect x="1170.71" y="1092.58" width="97.7969" height="97.7969" rx="48.8984" fill="#FFB800" fill-opacity="0.08"/>
<path d="M1211.81 1127.59L1207.45 1124.96L1219.61 1117.53L1231.77 1124.96L1227.41 1127.59L1219.61 1123.04L1211.81 1127.59ZM1234.98 1132.14V1137.65L1239.33 1135.02V1129.51L1234.98 1126.87L1230.62 1129.51L1234.98 1132.14ZM1215.25 1129.51L1219.61 1132.14L1223.97 1129.51L1219.61 1126.87L1215.25 1129.51ZM1231.77 1134.06L1227.41 1131.42L1219.61 1135.97L1211.81 1131.42L1207.45 1134.06V1139.56L1215.25 1144.11V1153.45L1219.61 1156.09L1223.97 1153.45V1144.11L1231.77 1139.56V1134.06ZM1234.98 1150.82L1227.41 1155.37V1160.88L1239.56 1153.45V1138.85L1234.98 1141.48V1150.82ZM1227.41 1151.54L1231.77 1148.9V1143.4L1227.41 1146.03V1151.54ZM1215.25 1157.28V1162.79L1219.61 1165.43L1223.97 1162.79V1157.28L1219.61 1159.92L1215.25 1157.28ZM1199.65 1135.02L1204.01 1137.65V1132.14L1208.6 1129.51L1204.24 1126.87L1199.65 1129.51V1135.02ZM1204.24 1141.48L1199.88 1138.85V1153.45L1212.04 1160.88V1155.37L1204.24 1150.82C1204.24 1150.82 1204.24 1141.48 1204.24 1141.48ZM1211.81 1146.03L1207.45 1143.4V1148.9L1211.81 1151.54C1211.81 1151.54 1211.81 1146.03 1211.81 1146.03Z" fill="#FFB800"/>
<g filter="url(#filter14_b_92_3359)">
<path d="M1222.05 1054.05C1270.31 1055.4 1308.39 1095.67 1307.04 1143.92C1305.69 1192.18 1265.42 1230.26 1217.17 1228.91C1168.91 1227.56 1130.83 1187.29 1132.18 1139.04C1133.53 1090.78 1173.8 1052.7 1222.05 1054.05Z" stroke="url(#paint12_linear_92_3359)" stroke-opacity="0.65" stroke-width="0.85685"/>
</g>
<path d="M88.9484 854.127C112.68 792.258 161.157 665.871 161.157 665.871C176.794 625.113 202.708 559.128 218.99 518.62L307.498 298.417C323.78 257.909 372.008 219.466 415.127 212.626" stroke="url(#paint13_linear_92_3359)" stroke-width="1.2"/>
</g>
<g filter="url(#filter15_d_92_3359)">
<g filter="url(#filter16_f_92_3359)">
<circle cx="1285.07" cy="587.074" r="7.86329" transform="rotate(-70.0474 1285.07 587.074)" fill="url(#paint14_radial_92_3359)"/>
</g>
<g style="mix-blend-mode:lighten" filter="url(#filter17_f_92_3359)">
<circle cx="1285.07" cy="587.073" r="4.32932" transform="rotate(-70.0474 1285.07 587.073)" fill="#E4F9FF"/>
</g>
<g filter="url(#filter18_f_92_3359)">
<circle cx="1285.07" cy="587.077" r="2.23514" transform="rotate(-70.0474 1285.07 587.077)" fill="white"/>
</g>
</g>
<g filter="url(#filter19_b_92_3359)">
<circle cx="849.5" cy="860.5" r="237.98" stroke="url(#paint15_linear_92_3359)" stroke-opacity="0.65" stroke-width="1.04075"/>
</g>
<g filter="url(#filter20_b_92_3359)">
<circle cx="849.478" cy="863.58" r="188.391" stroke="url(#paint16_linear_92_3359)" stroke-opacity="0.65" stroke-width="0.85685"/>
</g>
<g filter="url(#filter21_b_92_3359)">
<circle cx="696.674" cy="754.672" r="20.6718" fill="url(#paint17_radial_92_3359)" fill-opacity="0.35"/>
<circle cx="696.674" cy="754.672" r="20.2858" stroke="url(#paint18_linear_92_3359)" stroke-opacity="0.65" stroke-width="0.772046"/>
</g>
<path d="M696.671 760.342C697.627 760.342 698.401 759.568 698.401 758.612C698.401 757.657 697.627 756.882 696.671 756.882C695.716 756.882 694.941 757.657 694.941 758.612C694.941 759.568 695.716 760.342 696.671 760.342Z" fill="#3CD65E"/>
<path d="M703.337 752.043V750.716C703.337 747.85 702.647 744.051 696.672 744.051C690.697 744.051 690.007 747.85 690.007 750.716V752.043C687.035 752.414 686.059 753.921 686.059 757.625V759.599C686.059 763.951 687.385 765.277 691.737 765.277H701.607C705.959 765.277 707.285 763.951 707.285 759.599V757.625C707.285 753.921 706.309 752.414 703.337 752.043ZM696.672 761.818C694.9 761.818 693.467 760.374 693.467 758.612C693.467 756.84 694.91 755.407 696.672 755.407C698.434 755.407 699.877 756.85 699.877 758.612C699.877 760.385 698.444 761.818 696.672 761.818ZM691.737 751.947C691.652 751.947 691.578 751.947 691.493 751.947V750.716C691.493 747.606 692.374 745.537 696.672 745.537C700.97 745.537 701.851 747.606 701.851 750.716V751.958C701.766 751.958 701.692 751.958 701.607 751.958H691.737V751.947Z" fill="#3CD65E"/>
<g filter="url(#filter22_b_92_3359)">
<circle cx="660.672" cy="880.672" r="20.6718" fill="url(#paint19_radial_92_3359)" fill-opacity="0.35"/>
<circle cx="660.672" cy="880.672" r="20.2858" stroke="url(#paint20_linear_92_3359)" stroke-opacity="0.65" stroke-width="0.772046"/>
</g>
<path d="M660.669 886.342C661.625 886.342 662.399 885.568 662.399 884.612C662.399 883.657 661.625 882.882 660.669 882.882C659.714 882.882 658.939 883.657 658.939 884.612C658.939 885.568 659.714 886.342 660.669 886.342Z" fill="#3CD65E"/>
<path d="M667.335 878.043V876.716C667.335 873.85 666.645 870.051 660.67 870.051C654.695 870.051 654.005 873.85 654.005 876.716V878.043C651.033 878.414 650.057 879.921 650.057 883.625V885.599C650.057 889.951 651.383 891.277 655.735 891.277H665.605C669.957 891.277 671.283 889.951 671.283 885.599V883.625C671.283 879.921 670.307 878.414 667.335 878.043ZM660.67 887.818C658.898 887.818 657.465 886.374 657.465 884.612C657.465 882.84 658.908 881.407 660.67 881.407C662.432 881.407 663.875 882.85 663.875 884.612C663.875 886.385 662.442 887.818 660.67 887.818ZM655.735 877.947C655.65 877.947 655.576 877.947 655.491 877.947V876.716C655.491 873.606 656.372 871.537 660.67 871.537C664.968 871.537 665.849 873.606 665.849 876.716V877.958C665.764 877.958 665.69 877.958 665.605 877.958H655.735V877.947Z" fill="#3CD65E"/>
<g filter="url(#filter23_bd_92_3359)">
<circle cx="847" cy="860" r="105" fill="url(#paint21_radial_92_3359)" fill-opacity="0.65" shape-rendering="crispEdges"/>
<circle cx="847" cy="860" r="104.608" stroke="url(#paint22_linear_92_3359)" stroke-opacity="0.65" stroke-width="0.784691" shape-rendering="crispEdges"/>
</g>
<g filter="url(#filter24_d_92_3359)">
<rect x="776.115" y="789.116" width="141.769" height="141.769" rx="70.8846" fill="#023898"/>
<rect x="776.115" y="789.116" width="141.769" height="141.769" rx="70.8846" fill="url(#paint23_radial_92_3359)" fill-opacity="0.7"/>
<rect x="776.115" y="789.116" width="141.769" height="141.769" rx="70.8846" fill="url(#paint24_radial_92_3359)"/>
</g>
<g filter="url(#filter25_d_92_3359)">
<path fill-rule="evenodd" clip-rule="evenodd" d="M867.719 819.161C860.376 823.371 846.779 831.235 843.298 833.285C839.799 835.346 838.085 837.82 837.714 841.346C837.635 842.098 837.569 845.39 837.568 848.663C837.565 854.53 837.561 854.623 837.23 855.293C837.046 855.667 836.677 856.193 836.41 856.462C835.807 857.07 834.528 857.476 833.639 857.342C833.215 857.278 831.378 856.317 827.883 854.33C822.062 851.02 820.794 850.358 819.845 850.129C818.007 849.686 815.991 849.765 814.174 850.352C813.411 850.599 809.065 853.025 802.817 856.695C799.749 858.497 799.446 858.787 799.445 859.922C799.443 861.383 798.392 860.695 817.014 871.429C830.143 878.996 834.179 881.256 834.909 881.451C835.506 881.609 836.461 881.705 837.511 881.712C840.205 881.728 840.591 881.572 847.364 877.711C852.781 874.623 853.264 874.378 854.089 874.303C854.864 874.233 855.086 874.277 855.82 874.649C856.675 875.083 857.197 875.622 857.541 876.427C857.682 876.759 857.754 878.697 857.819 883.959C857.904 890.824 857.918 891.078 858.249 892.09C858.772 893.687 859.522 894.999 860.54 896.098C861.391 897.016 861.938 897.372 867.347 900.526C874.933 904.949 875.456 905.219 876.178 905.083C876.903 904.947 877.725 904.214 877.926 903.525C878.037 903.147 878.071 896.995 878.04 883.437L877.994 863.895L877.574 862.702C876.957 860.952 876.364 860.003 875.101 858.747C873.917 857.569 873.584 857.358 866.16 853.064C864.384 852.037 862.691 850.948 862.354 850.614C861.283 849.554 861.093 847.828 861.897 846.454C862.349 845.681 862.339 845.688 866.156 843.462C872.971 839.486 874.214 838.71 874.994 837.941C876.037 836.913 877.113 835.163 877.589 833.723L877.971 832.568L877.983 824.587C877.989 820.198 877.943 816.421 877.879 816.195C877.699 815.548 876.675 814.891 875.85 814.892C875.226 814.892 874.502 815.273 867.719 819.161ZM857.881 848.391C858.084 848.595 858.115 849.286 858.115 853.697C858.115 858.855 858.065 859.349 857.551 859.342C857.411 859.34 855.285 858.173 852.828 856.748C848.698 854.353 848.361 854.127 848.361 853.751C848.361 853.375 848.698 853.15 852.828 850.754C855.285 849.33 857.375 848.162 857.471 848.161C857.568 848.159 857.752 848.263 857.881 848.391ZM847.661 854.452C847.917 854.709 847.917 864.877 847.661 865.133C847.563 865.232 847.345 865.311 847.177 865.309C846.787 865.304 838.322 860.402 838.103 860.054C837.987 859.869 837.985 859.72 838.097 859.542C838.311 859.202 846.794 854.284 847.177 854.278C847.345 854.275 847.563 854.354 847.661 854.452ZM857.936 860.419C858.068 860.552 858.115 861.949 858.115 865.779C858.115 870.29 858.084 870.99 857.881 871.194C857.752 871.323 857.595 871.429 857.533 871.429C857.47 871.429 856.185 870.716 854.677 869.846C853.169 868.976 851.147 867.817 850.185 867.273C848.432 866.281 848.003 865.835 848.41 865.427C848.763 865.074 857.167 860.264 857.452 860.253C857.62 860.246 857.838 860.321 857.936 860.419Z" fill="white"/>
</g>
<g filter="url(#filter26_d_92_3359)">
<g filter="url(#filter27_f_92_3359)">
<circle cx="414.075" cy="212.075" r="7.86329" transform="rotate(-70.0474 414.075 212.075)" fill="url(#paint25_radial_92_3359)"/>
</g>
<g style="mix-blend-mode:lighten" filter="url(#filter28_f_92_3359)">
<circle cx="414.074" cy="212.073" r="4.32932" transform="rotate(-70.0474 414.074 212.073)" fill="#E4F9FF"/>
</g>
<g filter="url(#filter29_f_92_3359)">
<circle cx="414.075" cy="212.077" r="2.23514" transform="rotate(-70.0474 414.075 212.077)" fill="white"/>
</g>
</g>
<g filter="url(#filter30_b_92_3359)">
<circle cx="907.672" cy="686.672" r="20.6718" fill="url(#paint26_radial_92_3359)" fill-opacity="0.35"/>
<circle cx="907.672" cy="686.672" r="20.2858" stroke="url(#paint27_linear_92_3359)" stroke-opacity="0.65" stroke-width="0.772046"/>
</g>
<path d="M907.669 692.342C908.625 692.342 909.399 691.568 909.399 690.612C909.399 689.657 908.625 688.882 907.669 688.882C906.714 688.882 905.939 689.657 905.939 690.612C905.939 691.568 906.714 692.342 907.669 692.342Z" fill="#3CD65E"/>
<path d="M914.335 684.043V682.716C914.335 679.85 913.645 676.051 907.67 676.051C901.695 676.051 901.005 679.85 901.005 682.716V684.043C898.033 684.414 897.057 685.921 897.057 689.625V691.599C897.057 695.951 898.383 697.277 902.735 697.277H912.605C916.957 697.277 918.283 695.951 918.283 691.599V689.625C918.283 685.921 917.307 684.414 914.335 684.043ZM907.67 693.818C905.898 693.818 904.465 692.374 904.465 690.612C904.465 688.84 905.908 687.407 907.67 687.407C909.432 687.407 910.875 688.85 910.875 690.612C910.875 692.385 909.442 693.818 907.67 693.818ZM902.735 683.947C902.65 683.947 902.576 683.947 902.491 683.947V682.716C902.491 679.606 903.372 677.537 907.67 677.537C911.968 677.537 912.849 679.606 912.849 682.716V683.958C912.764 683.958 912.69 683.958 912.605 683.958H902.735V683.947Z" fill="#3CD65E"/>
<g filter="url(#filter31_b_92_3359)">
<circle cx="1027.67" cy="809.672" r="20.6718" fill="url(#paint28_radial_92_3359)" fill-opacity="0.35"/>
<circle cx="1027.67" cy="809.672" r="20.2858" stroke="url(#paint29_linear_92_3359)" stroke-opacity="0.65" stroke-width="0.772046"/>
</g>
<path d="M1027.67 815.342C1028.62 815.342 1029.4 814.568 1029.4 813.612C1029.4 812.657 1028.62 811.882 1027.67 811.882C1026.71 811.882 1025.94 812.657 1025.94 813.612C1025.94 814.568 1026.71 815.342 1027.67 815.342Z" fill="#3CD65E"/>
<path d="M1034.34 807.043V805.716C1034.34 802.85 1033.65 799.051 1027.67 799.051C1021.69 799.051 1021 802.85 1021 805.716V807.043C1018.03 807.414 1017.06 808.921 1017.06 812.625V814.599C1017.06 818.951 1018.38 820.277 1022.73 820.277H1032.61C1036.96 820.277 1038.28 818.951 1038.28 814.599V812.625C1038.28 808.921 1037.31 807.414 1034.34 807.043ZM1027.67 816.818C1025.9 816.818 1024.46 815.374 1024.46 813.612C1024.46 811.84 1025.91 810.407 1027.67 810.407C1029.43 810.407 1030.88 811.85 1030.88 813.612C1030.88 815.385 1029.44 816.818 1027.67 816.818ZM1022.73 806.947C1022.65 806.947 1022.58 806.947 1022.49 806.947V805.716C1022.49 802.606 1023.37 800.537 1027.67 800.537C1031.97 800.537 1032.85 802.606 1032.85 805.716V806.958C1032.76 806.958 1032.69 806.958 1032.61 806.958H1022.73V806.947Z" fill="#3CD65E"/>
<g filter="url(#filter32_b_92_3359)">
<circle cx="1000.67" cy="976.672" r="20.6718" fill="url(#paint30_radial_92_3359)" fill-opacity="0.35"/>
<circle cx="1000.67" cy="976.672" r="20.2858" stroke="url(#paint31_linear_92_3359)" stroke-opacity="0.65" stroke-width="0.772046"/>
</g>
<path d="M1000.67 982.342C1001.62 982.342 1002.4 981.568 1002.4 980.612C1002.4 979.657 1001.62 978.882 1000.67 978.882C999.714 978.882 998.939 979.657 998.939 980.612C998.939 981.568 999.714 982.342 1000.67 982.342Z" fill="#3CD65E"/>
<path d="M1007.34 974.043V972.716C1007.34 969.85 1006.65 966.051 1000.67 966.051C994.695 966.051 994.005 969.85 994.005 972.716V974.043C991.033 974.414 990.057 975.921 990.057 979.625V981.599C990.057 985.951 991.383 987.277 995.735 987.277H1005.61C1009.96 987.277 1011.28 985.951 1011.28 981.599V979.625C1011.28 975.921 1010.31 974.414 1007.34 974.043ZM1000.67 983.818C998.898 983.818 997.465 982.374 997.465 980.612C997.465 978.84 998.908 977.407 1000.67 977.407C1002.43 977.407 1003.88 978.85 1003.88 980.612C1003.88 982.385 1002.44 983.818 1000.67 983.818ZM995.735 973.947C995.65 973.947 995.576 973.947 995.491 973.947V972.716C995.491 969.606 996.372 967.537 1000.67 967.537C1004.97 967.537 1005.85 969.606 1005.85 972.716V973.958C1005.76 973.958 1005.69 973.958 1005.61 973.958H995.735V973.947Z" fill="#3CD65E"/>
<g filter="url(#filter33_d_92_3359)">
<g filter="url(#filter34_f_92_3359)">
<circle cx="270.075" cy="788.075" r="7.86329" transform="rotate(-70.0474 270.075 788.075)" fill="url(#paint32_radial_92_3359)"/>
</g>
<g style="mix-blend-mode:lighten" filter="url(#filter35_f_92_3359)">
<circle cx="270.074" cy="788.073" r="4.32932" transform="rotate(-70.0474 270.074 788.073)" fill="#E4F9FF"/>
</g>
<g filter="url(#filter36_f_92_3359)">
<circle cx="270.075" cy="788.077" r="2.23514" transform="rotate(-70.0474 270.075 788.077)" fill="white"/>
</g>
</g>
<g filter="url(#filter37_b_92_3359)">
<path d="M664 731.5L428 566" stroke="url(#paint33_linear_92_3359)" stroke-width="1.2" stroke-linecap="round"/>
</g>
<g filter="url(#filter38_d_92_3359)">
<g filter="url(#filter39_f_92_3359)">
<circle cx="664.075" cy="731.075" r="7.86329" transform="rotate(-70.0474 664.075 731.075)" fill="url(#paint34_radial_92_3359)"/>
</g>
<g style="mix-blend-mode:lighten" filter="url(#filter40_f_92_3359)">
<circle cx="664.074" cy="731.073" r="4.32932" transform="rotate(-70.0474 664.074 731.073)" fill="#E4F9FF"/>
</g>
<g filter="url(#filter41_f_92_3359)">
<circle cx="664.075" cy="731.077" r="2.23514" transform="rotate(-70.0474 664.075 731.077)" fill="white"/>
</g>
</g>
<rect x="251" y="835" width="135" height="135" rx="67.5" fill="#29BCC8" fill-opacity="0.12"/>
<path d="M309.818 891.692C309.842 891.678 309.867 891.666 309.893 891.658C310.175 891.529 310.457 891.407 310.739 891.298V885.814C310.74 885.335 310.548 884.875 310.205 884.536C309.862 884.196 309.396 884.005 308.91 884.004H301.322V899.745C303.175 896.211 306.162 893.379 309.818 891.692V891.692Z" fill="#2AC8CE"/>
<path d="M317.569 901.263H319.261C319.845 901.263 320.423 901.15 320.962 900.93C321.502 900.71 321.992 900.388 322.404 899.981C322.817 899.574 323.144 899.091 323.367 898.56C323.591 898.028 323.705 897.459 323.705 896.884V892.192C322.79 892.037 318.608 891.95 317.638 891.95C313.503 891.947 309.522 893.491 306.497 896.269C303.472 899.047 301.63 902.853 301.342 906.918C301.315 907.291 301.301 907.664 301.301 908.044C301.301 908.423 301.314 908.796 301.342 909.169V919.174C301.342 919.411 301.389 919.645 301.481 919.864C301.573 920.083 301.708 920.282 301.878 920.449C302.048 920.617 302.249 920.749 302.472 920.84C302.694 920.931 302.932 920.977 303.172 920.977H310.759V907.955C310.763 906.178 311.482 904.475 312.759 903.221C314.036 901.966 315.766 901.262 317.569 901.264V901.263Z" fill="#2AC8CE"/>
<path d="M327.15 913.299C327.126 913.313 327.101 913.324 327.075 913.333C326.793 913.462 326.51 913.584 326.229 913.692V919.177C326.228 919.656 326.42 920.116 326.763 920.455C327.106 920.794 327.572 920.986 328.058 920.987H335.64V905.245C333.788 908.778 330.803 911.609 327.15 913.299V913.299Z" fill="#2AC8CE"/>
<path d="M335.654 895.809V885.803C335.654 885.566 335.607 885.332 335.515 885.113C335.423 884.894 335.289 884.695 335.119 884.528C334.949 884.36 334.747 884.228 334.525 884.137C334.303 884.046 334.065 884 333.825 884H326.237V897.023C326.234 898.799 325.515 900.501 324.24 901.755C322.964 903.009 321.236 903.713 319.434 903.713H317.735C317.151 903.713 316.573 903.826 316.034 904.046C315.494 904.266 315.004 904.589 314.592 904.995C314.179 905.402 313.852 905.885 313.628 906.417C313.405 906.948 313.291 907.518 313.291 908.093V912.785C314.206 912.94 318.388 913.027 319.358 913.027C319.468 913.027 319.571 913.027 319.681 913.021C321.956 912.982 324.197 912.472 326.258 911.522L326.299 911.502C328.935 910.288 331.194 908.4 332.84 906.035C334.486 903.669 335.46 900.913 335.66 898.052C335.687 897.679 335.701 897.306 335.701 896.927C335.696 896.555 335.682 896.182 335.654 895.809Z" fill="#2AC8CE"/>
<defs>
<filter id="filter0_b_92_3359" x="273.471" y="294.105" width="1121.92" height="1080.66" filterUnits="userSpaceOnUse" color-interpolation-filters="sRGB">
<feFlood flood-opacity="0" result="BackgroundImageFix"/>
<feGaussianBlur in="BackgroundImageFix" stdDeviation="20.7559"/>
<feComposite in2="SourceAlpha" operator="in" result="effect1_backgroundBlur_92_3359"/>
<feBlend mode="normal" in="SourceGraphic" in2="effect1_backgroundBlur_92_3359" result="shape"/>
</filter>
<filter id="filter1_d_92_3359" x="1054.03" y="1265.04" width="32.0651" height="32.0651" filterUnits="userSpaceOnUse" color-interpolation-filters="sRGB">
<feFlood flood-opacity="0" result="BackgroundImageFix"/>
<feColorMatrix in="SourceAlpha" type="matrix" values="0 0 0 0 0 0 0 0 0 0 0 0 0 0 0 0 0 0 127 0" result="hardAlpha"/>
<feOffset/>
<feGaussianBlur stdDeviation="4.08365"/>
<feColorMatrix type="matrix" values="0 0 0 0 0.491667 0 0 0 0 0.953833 0 0 0 0 0.983333 0 0 0 0.25 0"/>
<feBlend mode="normal" in2="BackgroundImageFix" result="effect1_dropShadow_92_3359"/>
<feBlend mode="normal" in="SourceGraphic" in2="effect1_dropShadow_92_3359" result="shape"/>
</filter>
<filter id="filter2_f_92_3359" x="1054.03" y="1265.04" width="32.0651" height="32.0651" filterUnits="userSpaceOnUse" color-interpolation-filters="sRGB">
<feFlood flood-opacity="0" result="BackgroundImageFix"/>
<feBlend mode="normal" in="SourceGraphic" in2="BackgroundImageFix" result="shape"/>
<feGaussianBlur stdDeviation="4.08365" result="effect1_foregroundBlur_92_3359"/>
</filter>
<filter id="filter3_f_92_3359" x="1057.57" y="1268.58" width="24.9947" height="24.9952" filterUnits="userSpaceOnUse" color-interpolation-filters="sRGB">
<feFlood flood-opacity="0" result="BackgroundImageFix"/>
<feBlend mode="normal" in="SourceGraphic" in2="BackgroundImageFix" result="shape"/>
<feGaussianBlur stdDeviation="4.08365" result="effect1_foregroundBlur_92_3359"/>
</filter>
<filter id="filter4_f_92_3359" x="1065.79" y="1276.8" width="8.55435" height="8.55533" filterUnits="userSpaceOnUse" color-interpolation-filters="sRGB">
<feFlood flood-opacity="0" result="BackgroundImageFix"/>
<feBlend mode="normal" in="SourceGraphic" in2="BackgroundImageFix" result="shape"/>
<feGaussianBlur stdDeviation="1.02091" result="effect1_foregroundBlur_92_3359"/>
</filter>
<filter id="filter5_b_92_3359" x="25.1445" y="76.7871" width="1606.57" height="1534.07" filterUnits="userSpaceOnUse" color-interpolation-filters="sRGB">
<feFlood flood-opacity="0" result="BackgroundImageFix"/>
<feGaussianBlur in="BackgroundImageFix" stdDeviation="20.7559"/>
<feComposite in2="SourceAlpha" operator="in" result="effect1_backgroundBlur_92_3359"/>
<feBlend mode="normal" in="SourceGraphic" in2="effect1_backgroundBlur_92_3359" result="shape"/>
</filter>
<filter id="filter6_b_92_3359" x="276.941" y="524.137" width="1109.69" height="666.715" filterUnits="userSpaceOnUse" color-interpolation-filters="sRGB">
<feFlood flood-opacity="0" result="BackgroundImageFix"/>
<feGaussianBlur in="BackgroundImageFix" stdDeviation="20.7559"/>
<feComposite in2="SourceAlpha" operator="in" result="effect1_backgroundBlur_92_3359"/>
<feBlend mode="normal" in="SourceGraphic" in2="effect1_backgroundBlur_92_3359" result="shape"/>
</filter>
<filter id="filter7_b_92_3359" x="805.576" y="85.3491" width="334.836" height="817.301" filterUnits="userSpaceOnUse" color-interpolation-filters="sRGB">
<feFlood flood-opacity="0" result="BackgroundImageFix"/>
<feGaussianBlur in="BackgroundImageFix" stdDeviation="20.7559"/>
<feComposite in2="SourceAlpha" operator="in" result="effect1_backgroundBlur_92_3359"/>
<feBlend mode="normal" in="SourceGraphic" in2="effect1_backgroundBlur_92_3359" result="shape"/>
</filter>
<filter id="filter8_b_92_3359" x="1191.29" y="519.517" width="338.108" height="338.108" filterUnits="userSpaceOnUse" color-interpolation-filters="sRGB">
<feFlood flood-opacity="0" result="BackgroundImageFix"/>
<feGaussianBlur in="BackgroundImageFix" stdDeviation="20.7559"/>
<feComposite in2="SourceAlpha" operator="in" result="effect1_backgroundBlur_92_3359"/>
<feBlend mode="normal" in="SourceGraphic" in2="effect1_backgroundBlur_92_3359" result="shape"/>
</filter>
<filter id="filter9_b_92_3359" x="1191.29" y="544.2" width="136.031" height="289.369" filterUnits="userSpaceOnUse" color-interpolation-filters="sRGB">
<feFlood flood-opacity="0" result="BackgroundImageFix"/>
<feGaussianBlur in="BackgroundImageFix" stdDeviation="20.7559"/>
<feComposite in2="SourceAlpha" operator="in" result="effect1_backgroundBlur_92_3359"/>
<feBlend mode="normal" in="SourceGraphic" in2="effect1_backgroundBlur_92_3359" result="shape"/>
</filter>
<filter id="filter10_b_92_3359" x="301.199" y="432.707" width="244.024" height="244.025" filterUnits="userSpaceOnUse" color-interpolation-filters="sRGB">
<feFlood flood-opacity="0" result="BackgroundImageFix"/>
<feGaussianBlur in="BackgroundImageFix" stdDeviation="20.7559"/>
<feComposite in2="SourceAlpha" operator="in" result="effect1_backgroundBlur_92_3359"/>
<feBlend mode="normal" in="SourceGraphic" in2="effect1_backgroundBlur_92_3359" result="shape"/>
</filter>
<filter id="filter11_b_92_3359" x="152.158" y="736.015" width="332.375" height="332.376" filterUnits="userSpaceOnUse" color-interpolation-filters="sRGB">
<feFlood flood-opacity="0" result="BackgroundImageFix"/>
<feGaussianBlur in="BackgroundImageFix" stdDeviation="20.7559"/>
<feComposite in2="SourceAlpha" operator="in" result="effect1_backgroundBlur_92_3359"/>
<feBlend mode="normal" in="SourceGraphic" in2="effect1_backgroundBlur_92_3359" result="shape"/>
</filter>
<filter id="filter12_b_92_3359" x="227.381" y="735.415" width="257.752" height="260.698" filterUnits="userSpaceOnUse" color-interpolation-filters="sRGB">
<feFlood flood-opacity="0" result="BackgroundImageFix"/>
<feGaussianBlur in="BackgroundImageFix" stdDeviation="20.7559"/>
<feComposite in2="SourceAlpha" operator="in" result="effect1_backgroundBlur_92_3359"/>
<feBlend mode="normal" in="SourceGraphic" in2="effect1_backgroundBlur_92_3359" result="shape"/>
</filter>
<filter id="filter13_b_92_3359" x="1005.06" y="32.0624" width="197.371" height="197.37" filterUnits="userSpaceOnUse" color-interpolation-filters="sRGB">
<feFlood flood-opacity="0" result="BackgroundImageFix"/>
<feGaussianBlur in="BackgroundImageFix" stdDeviation="20.7559"/>
<feComposite in2="SourceAlpha" operator="in" result="effect1_backgroundBlur_92_3359"/>
<feBlend mode="normal" in="SourceGraphic" in2="effect1_backgroundBlur_92_3359" result="shape"/>
</filter>
<filter id="filter14_b_92_3359" x="1090.21" y="1012.07" width="258.811" height="258.812" filterUnits="userSpaceOnUse" color-interpolation-filters="sRGB">
<feFlood flood-opacity="0" result="BackgroundImageFix"/>
<feGaussianBlur in="BackgroundImageFix" stdDeviation="20.7559"/>
<feComposite in2="SourceAlpha" operator="in" result="effect1_backgroundBlur_92_3359"/>
<feBlend mode="normal" in="SourceGraphic" in2="effect1_backgroundBlur_92_3359" result="shape"/>
</filter>
<filter id="filter15_d_92_3359" x="1269.04" y="571.042" width="32.0651" height="32.0651" filterUnits="userSpaceOnUse" color-interpolation-filters="sRGB">
<feFlood flood-opacity="0" result="BackgroundImageFix"/>
<feColorMatrix in="SourceAlpha" type="matrix" values="0 0 0 0 0 0 0 0 0 0 0 0 0 0 0 0 0 0 127 0" result="hardAlpha"/>
<feOffset/>
<feGaussianBlur stdDeviation="4.08365"/>
<feColorMatrix type="matrix" values="0 0 0 0 0.491667 0 0 0 0 0.953833 0 0 0 0 0.983333 0 0 0 0.25 0"/>
<feBlend mode="normal" in2="BackgroundImageFix" result="effect1_dropShadow_92_3359"/>
<feBlend mode="normal" in="SourceGraphic" in2="effect1_dropShadow_92_3359" result="shape"/>
</filter>
<filter id="filter16_f_92_3359" x="1269.04" y="571.042" width="32.0651" height="32.0651" filterUnits="userSpaceOnUse" color-interpolation-filters="sRGB">
<feFlood flood-opacity="0" result="BackgroundImageFix"/>
<feBlend mode="normal" in="SourceGraphic" in2="BackgroundImageFix" result="shape"/>
<feGaussianBlur stdDeviation="4.08365" result="effect1_foregroundBlur_92_3359"/>
</filter>
<filter id="filter17_f_92_3359" x="1272.58" y="574.575" width="24.9947" height="24.9952" filterUnits="userSpaceOnUse" color-interpolation-filters="sRGB">
<feFlood flood-opacity="0" result="BackgroundImageFix"/>
<feBlend mode="normal" in="SourceGraphic" in2="BackgroundImageFix" result="shape"/>
<feGaussianBlur stdDeviation="4.08365" result="effect1_foregroundBlur_92_3359"/>
</filter>
<filter id="filter18_f_92_3359" x="1280.8" y="582.799" width="8.55435" height="8.55533" filterUnits="userSpaceOnUse" color-interpolation-filters="sRGB">
<feFlood flood-opacity="0" result="BackgroundImageFix"/>
<feBlend mode="normal" in="SourceGraphic" in2="BackgroundImageFix" result="shape"/>
<feGaussianBlur stdDeviation="1.02091" result="effect1_foregroundBlur_92_3359"/>
</filter>
<filter id="filter19_b_92_3359" x="603" y="614" width="493" height="493" filterUnits="userSpaceOnUse" color-interpolation-filters="sRGB">
<feFlood flood-opacity="0" result="BackgroundImageFix"/>
<feGaussianBlur in="BackgroundImageFix" stdDeviation="4"/>
<feComposite in2="SourceAlpha" operator="in" result="effect1_backgroundBlur_92_3359"/>
<feBlend mode="normal" in="SourceGraphic" in2="effect1_backgroundBlur_92_3359" result="shape"/>
</filter>
<filter id="filter20_b_92_3359" x="619.146" y="633.248" width="460.662" height="460.662" filterUnits="userSpaceOnUse" color-interpolation-filters="sRGB">
<feFlood flood-opacity="0" result="BackgroundImageFix"/>
<feGaussianBlur in="BackgroundImageFix" stdDeviation="20.7559"/>
<feComposite in2="SourceAlpha" operator="in" result="effect1_backgroundBlur_92_3359"/>
<feBlend mode="normal" in="SourceGraphic" in2="effect1_backgroundBlur_92_3359" result="shape"/>
</filter>
<filter id="filter21_b_92_3359" x="664.601" y="722.599" width="64.1465" height="64.1465" filterUnits="userSpaceOnUse" color-interpolation-filters="sRGB">
<feFlood flood-opacity="0" result="BackgroundImageFix"/>
<feGaussianBlur in="BackgroundImageFix" stdDeviation="5.70068"/>
<feComposite in2="SourceAlpha" operator="in" result="effect1_backgroundBlur_92_3359"/>
<feBlend mode="normal" in="SourceGraphic" in2="effect1_backgroundBlur_92_3359" result="shape"/>
</filter>
<filter id="filter22_b_92_3359" x="628.599" y="848.599" width="64.1465" height="64.1465" filterUnits="userSpaceOnUse" color-interpolation-filters="sRGB">
<feFlood flood-opacity="0" result="BackgroundImageFix"/>
<feGaussianBlur in="BackgroundImageFix" stdDeviation="5.70068"/>
<feComposite in2="SourceAlpha" operator="in" result="effect1_backgroundBlur_92_3359"/>
<feBlend mode="normal" in="SourceGraphic" in2="effect1_backgroundBlur_92_3359" result="shape"/>
</filter>
<filter id="filter23_bd_92_3359" x="634.997" y="652.752" width="424.007" height="424.007" filterUnits="userSpaceOnUse" color-interpolation-filters="sRGB">
<feFlood flood-opacity="0" result="BackgroundImageFix"/>
<feGaussianBlur in="BackgroundImageFix" stdDeviation="5.94463"/>
<feComposite in2="SourceAlpha" operator="in" result="effect1_backgroundBlur_92_3359"/>
<feColorMatrix in="SourceAlpha" type="matrix" values="0 0 0 0 0 0 0 0 0 0 0 0 0 0 0 0 0 0 127 0" result="hardAlpha"/>
<feOffset dy="4.7557"/>
<feGaussianBlur stdDeviation="53.5016"/>
<feComposite in2="hardAlpha" operator="out"/>
<feColorMatrix type="matrix" values="0 0 0 0 0 0 0 0 0 0.03825 0 0 0 0 0.1125 0 0 0 0.25 0"/>
<feBlend mode="normal" in2="effect1_backgroundBlur_92_3359" result="effect2_dropShadow_92_3359"/>
<feBlend mode="normal" in="SourceGraphic" in2="effect2_dropShadow_92_3359" result="shape"/>
</filter>
<filter id="filter24_d_92_3359" x="701.364" y="758.184" width="301.582" height="301.582" filterUnits="userSpaceOnUse" color-interpolation-filters="sRGB">
<feFlood flood-opacity="0" result="BackgroundImageFix"/>
<feColorMatrix in="SourceAlpha" type="matrix" values="0 0 0 0 0 0 0 0 0 0 0 0 0 0 0 0 0 0 127 0" result="hardAlpha"/>
<feOffset dx="5.15525" dy="48.9748"/>
<feGaussianBlur stdDeviation="39.9532"/>
<feColorMatrix type="matrix" values="0 0 0 0 0 0 0 0 0 0 0 0 0 0 0 0 0 0 0.5 0"/>
<feBlend mode="normal" in2="BackgroundImageFix" result="effect1_dropShadow_92_3359"/>
<feBlend mode="normal" in="SourceGraphic" in2="effect1_dropShadow_92_3359" result="shape"/>
</filter>
<filter id="filter25_d_92_3359" x="796.856" y="814.892" width="83.7724" height="95.372" filterUnits="userSpaceOnUse" color-interpolation-filters="sRGB">
<feFlood flood-opacity="0" result="BackgroundImageFix"/>
<feColorMatrix in="SourceAlpha" type="matrix" values="0 0 0 0 0 0 0 0 0 0 0 0 0 0 0 0 0 0 127 0" result="hardAlpha"/>
<feOffset dy="2.57762"/>
<feGaussianBlur stdDeviation="1.28881"/>
<feComposite in2="hardAlpha" operator="out"/>
<feColorMatrix type="matrix" values="0 0 0 0 0.00197917 0 0 0 0 0.172267 0 0 0 0 0.475 0 0 0 0.35 0"/>
<feBlend mode="normal" in2="BackgroundImageFix" result="effect1_dropShadow_92_3359"/>
<feBlend mode="normal" in="SourceGraphic" in2="effect1_dropShadow_92_3359" result="shape"/>
</filter>
<filter id="filter26_d_92_3359" x="398.042" y="196.042" width="32.0651" height="32.0651" filterUnits="userSpaceOnUse" color-interpolation-filters="sRGB">
<feFlood flood-opacity="0" result="BackgroundImageFix"/>
<feColorMatrix in="SourceAlpha" type="matrix" values="0 0 0 0 0 0 0 0 0 0 0 0 0 0 0 0 0 0 127 0" result="hardAlpha"/>
<feOffset/>
<feGaussianBlur stdDeviation="4.08365"/>
<feColorMatrix type="matrix" values="0 0 0 0 0.491667 0 0 0 0 0.953833 0 0 0 0 0.983333 0 0 0 0.25 0"/>
<feBlend mode="normal" in2="BackgroundImageFix" result="effect1_dropShadow_92_3359"/>
<feBlend mode="normal" in="SourceGraphic" in2="effect1_dropShadow_92_3359" result="shape"/>
</filter>
<filter id="filter27_f_92_3359" x="398.042" y="196.042" width="32.0651" height="32.0651" filterUnits="userSpaceOnUse" color-interpolation-filters="sRGB">
<feFlood flood-opacity="0" result="BackgroundImageFix"/>
<feBlend mode="normal" in="SourceGraphic" in2="BackgroundImageFix" result="shape"/>
<feGaussianBlur stdDeviation="4.08365" result="effect1_foregroundBlur_92_3359"/>
</filter>
<filter id="filter28_f_92_3359" x="401.577" y="199.576" width="24.9947" height="24.9952" filterUnits="userSpaceOnUse" color-interpolation-filters="sRGB">
<feFlood flood-opacity="0" result="BackgroundImageFix"/>
<feBlend mode="normal" in="SourceGraphic" in2="BackgroundImageFix" result="shape"/>
<feGaussianBlur stdDeviation="4.08365" result="effect1_foregroundBlur_92_3359"/>
</filter>
<filter id="filter29_f_92_3359" x="409.798" y="207.799" width="8.55435" height="8.55533" filterUnits="userSpaceOnUse" color-interpolation-filters="sRGB">
<feFlood flood-opacity="0" result="BackgroundImageFix"/>
<feBlend mode="normal" in="SourceGraphic" in2="BackgroundImageFix" result="shape"/>
<feGaussianBlur stdDeviation="1.02091" result="effect1_foregroundBlur_92_3359"/>
</filter>
<filter id="filter30_b_92_3359" x="875.599" y="654.599" width="64.1465" height="64.1465" filterUnits="userSpaceOnUse" color-interpolation-filters="sRGB">
<feFlood flood-opacity="0" result="BackgroundImageFix"/>
<feGaussianBlur in="BackgroundImageFix" stdDeviation="5.70068"/>
<feComposite in2="SourceAlpha" operator="in" result="effect1_backgroundBlur_92_3359"/>
<feBlend mode="normal" in="SourceGraphic" in2="effect1_backgroundBlur_92_3359" result="shape"/>
</filter>
<filter id="filter31_b_92_3359" x="995.599" y="777.599" width="64.1465" height="64.1465" filterUnits="userSpaceOnUse" color-interpolation-filters="sRGB">
<feFlood flood-opacity="0" result="BackgroundImageFix"/>
<feGaussianBlur in="BackgroundImageFix" stdDeviation="5.70068"/>
<feComposite in2="SourceAlpha" operator="in" result="effect1_backgroundBlur_92_3359"/>
<feBlend mode="normal" in="SourceGraphic" in2="effect1_backgroundBlur_92_3359" result="shape"/>
</filter>
<filter id="filter32_b_92_3359" x="968.599" y="944.599" width="64.1465" height="64.1465" filterUnits="userSpaceOnUse" color-interpolation-filters="sRGB">
<feFlood flood-opacity="0" result="BackgroundImageFix"/>
<feGaussianBlur in="BackgroundImageFix" stdDeviation="5.70068"/>
<feComposite in2="SourceAlpha" operator="in" result="effect1_backgroundBlur_92_3359"/>
<feBlend mode="normal" in="SourceGraphic" in2="effect1_backgroundBlur_92_3359" result="shape"/>
</filter>
<filter id="filter33_d_92_3359" x="254.042" y="772.042" width="32.0651" height="32.0651" filterUnits="userSpaceOnUse" color-interpolation-filters="sRGB">
<feFlood flood-opacity="0" result="BackgroundImageFix"/>
<feColorMatrix in="SourceAlpha" type="matrix" values="0 0 0 0 0 0 0 0 0 0 0 0 0 0 0 0 0 0 127 0" result="hardAlpha"/>
<feOffset/>
<feGaussianBlur stdDeviation="4.08365"/>
<feColorMatrix type="matrix" values="0 0 0 0 0.491667 0 0 0 0 0.953833 0 0 0 0 0.983333 0 0 0 0.25 0"/>
<feBlend mode="normal" in2="BackgroundImageFix" result="effect1_dropShadow_92_3359"/>
<feBlend mode="normal" in="SourceGraphic" in2="effect1_dropShadow_92_3359" result="shape"/>
</filter>
<filter id="filter34_f_92_3359" x="254.042" y="772.042" width="32.0651" height="32.0651" filterUnits="userSpaceOnUse" color-interpolation-filters="sRGB">
<feFlood flood-opacity="0" result="BackgroundImageFix"/>
<feBlend mode="normal" in="SourceGraphic" in2="BackgroundImageFix" result="shape"/>
<feGaussianBlur stdDeviation="4.08365" result="effect1_foregroundBlur_92_3359"/>
</filter>
<filter id="filter35_f_92_3359" x="257.577" y="775.576" width="24.9947" height="24.9952" filterUnits="userSpaceOnUse" color-interpolation-filters="sRGB">
<feFlood flood-opacity="0" result="BackgroundImageFix"/>
<feBlend mode="normal" in="SourceGraphic" in2="BackgroundImageFix" result="shape"/>
<feGaussianBlur stdDeviation="4.08365" result="effect1_foregroundBlur_92_3359"/>
</filter>
<filter id="filter36_f_92_3359" x="265.798" y="783.799" width="8.55435" height="8.55533" filterUnits="userSpaceOnUse" color-interpolation-filters="sRGB">
<feFlood flood-opacity="0" result="BackgroundImageFix"/>
<feBlend mode="normal" in="SourceGraphic" in2="BackgroundImageFix" result="shape"/>
<feGaussianBlur stdDeviation="1.02091" result="effect1_foregroundBlur_92_3359"/>
</filter>
<filter id="filter37_b_92_3359" x="385.889" y="523.888" width="320.223" height="249.724" filterUnits="userSpaceOnUse" color-interpolation-filters="sRGB">
<feFlood flood-opacity="0" result="BackgroundImageFix"/>
<feGaussianBlur in="BackgroundImageFix" stdDeviation="20.7559"/>
<feComposite in2="SourceAlpha" operator="in" result="effect1_backgroundBlur_92_3359"/>
<feBlend mode="normal" in="SourceGraphic" in2="effect1_backgroundBlur_92_3359" result="shape"/>
</filter>
<filter id="filter38_d_92_3359" x="648.042" y="715.042" width="32.0651" height="32.0651" filterUnits="userSpaceOnUse" color-interpolation-filters="sRGB">
<feFlood flood-opacity="0" result="BackgroundImageFix"/>
<feColorMatrix in="SourceAlpha" type="matrix" values="0 0 0 0 0 0 0 0 0 0 0 0 0 0 0 0 0 0 127 0" result="hardAlpha"/>
<feOffset/>
<feGaussianBlur stdDeviation="4.08365"/>
<feColorMatrix type="matrix" values="0 0 0 0 0.491667 0 0 0 0 0.953833 0 0 0 0 0.983333 0 0 0 0.25 0"/>
<feBlend mode="normal" in2="BackgroundImageFix" result="effect1_dropShadow_92_3359"/>
<feBlend mode="normal" in="SourceGraphic" in2="effect1_dropShadow_92_3359" result="shape"/>
</filter>
<filter id="filter39_f_92_3359" x="648.042" y="715.042" width="32.0651" height="32.0651" filterUnits="userSpaceOnUse" color-interpolation-filters="sRGB">
<feFlood flood-opacity="0" result="BackgroundImageFix"/>
<feBlend mode="normal" in="SourceGraphic" in2="BackgroundImageFix" result="shape"/>
<feGaussianBlur stdDeviation="4.08365" result="effect1_foregroundBlur_92_3359"/>
</filter>
<filter id="filter40_f_92_3359" x="651.577" y="718.576" width="24.9947" height="24.9952" filterUnits="userSpaceOnUse" color-interpolation-filters="sRGB">
<feFlood flood-opacity="0" result="BackgroundImageFix"/>
<feBlend mode="normal" in="SourceGraphic" in2="BackgroundImageFix" result="shape"/>
<feGaussianBlur stdDeviation="4.08365" result="effect1_foregroundBlur_92_3359"/>
</filter>
<filter id="filter41_f_92_3359" x="659.798" y="726.799" width="8.55435" height="8.55533" filterUnits="userSpaceOnUse" color-interpolation-filters="sRGB">
<feFlood flood-opacity="0" result="BackgroundImageFix"/>
<feBlend mode="normal" in="SourceGraphic" in2="BackgroundImageFix" result="shape"/>
<feGaussianBlur stdDeviation="1.02091" result="effect1_foregroundBlur_92_3359"/>
</filter>
<linearGradient id="paint0_linear_92_3359" x1="687.387" y1="261.963" x2="1666.01" y2="1153.41" gradientUnits="userSpaceOnUse">
<stop stop-color="#537FD2"/>
<stop offset="0.902547" stop-color="#537FD2" stop-opacity="0"/>
</linearGradient>
<linearGradient id="paint1_linear_92_3359" x1="1081.43" y1="1269" x2="997.734" y2="1183.98" gradientUnits="userSpaceOnUse">
<stop stop-color="#87B1FF"/>
<stop offset="0.902547" stop-color="#3C7FFF" stop-opacity="0"/>
</linearGradient>
<radialGradient id="paint2_radial_92_3359" cx="0" cy="0" r="1" gradientUnits="userSpaceOnUse" gradientTransform="translate(1070.07 1281.08) rotate(90) scale(10.62 7.86329)">
<stop stop-color="#CAFFF9"/>
<stop offset="1" stop-color="#557AFF" stop-opacity="0"/>
</radialGradient>
<linearGradient id="paint3_linear_92_3359" x1="620.788" y1="6.3109" x2="2043.48" y2="1287.2" gradientUnits="userSpaceOnUse">
<stop stop-color="#537FD2"/>
<stop offset="0.902547" stop-color="#537FD2" stop-opacity="0"/>
</linearGradient>
<linearGradient id="paint4_linear_92_3359" x1="1257.99" y1="893.5" x2="390.494" y2="686.499" gradientUnits="userSpaceOnUse">
<stop stop-color="#1E315C" stop-opacity="0"/>
<stop offset="0.5625" stop-color="#375593"/>
<stop offset="0.934267" stop-color="#1E315C" stop-opacity="0"/>
</linearGradient>
<linearGradient id="paint5_linear_92_3359" x1="881.995" y1="891" x2="1098" y2="173" gradientUnits="userSpaceOnUse">
<stop stop-color="#1E315C" stop-opacity="0"/>
<stop offset="0.461561" stop-color="#375593"/>
<stop offset="0.609375" stop-color="#1E315C" stop-opacity="0"/>
<stop offset="0.822917" stop-color="#1E315C" stop-opacity="0"/>
<stop offset="1" stop-color="#375593"/>
</linearGradient>
<linearGradient id="paint6_linear_92_3359" x1="1270.67" y1="569.424" x2="1589.8" y2="712.53" gradientUnits="userSpaceOnUse">
<stop stop-color="#537FD2"/>
<stop offset="0.902547" stop-color="#537FD2" stop-opacity="0"/>
</linearGradient>
<linearGradient id="paint7_linear_92_3359" x1="1291.93" y1="587.502" x2="1357.19" y2="607.986" gradientUnits="userSpaceOnUse">
<stop stop-color="#87B1FF"/>
<stop offset="0.902547" stop-color="#3C7FFF" stop-opacity="0"/>
</linearGradient>
<linearGradient id="paint8_linear_92_3359" x1="366.612" y1="479.518" x2="568.039" y2="569.841" gradientUnits="userSpaceOnUse">
<stop stop-color="#537FD2"/>
<stop offset="0.902547" stop-color="#537FD2" stop-opacity="0"/>
</linearGradient>
<linearGradient id="paint9_linear_92_3359" x1="230.687" y1="785.733" x2="542.65" y2="925.623" gradientUnits="userSpaceOnUse">
<stop stop-color="#537FD2"/>
<stop offset="0.902547" stop-color="#537FD2" stop-opacity="0"/>
</linearGradient>
<linearGradient id="paint10_linear_92_3359" x1="447.695" y1="782.435" x2="549.677" y2="897.417" gradientUnits="userSpaceOnUse">
<stop stop-color="#87B1FF"/>
<stop offset="0.902547" stop-color="#3C7FFF" stop-opacity="0"/>
</linearGradient>
<linearGradient id="paint11_linear_92_3359" x1="1063.54" y1="77.3376" x2="1206.6" y2="141.488" gradientUnits="userSpaceOnUse">
<stop stop-color="#537FD2"/>
<stop offset="0.902547" stop-color="#537FD2" stop-opacity="0"/>
</linearGradient>
<linearGradient id="paint12_linear_92_3359" x1="1157.81" y1="1059.37" x2="1377.74" y2="1157.99" gradientUnits="userSpaceOnUse">
<stop stop-color="#537FD2"/>
<stop offset="0.902547" stop-color="#537FD2" stop-opacity="0"/>
</linearGradient>
<linearGradient id="paint13_linear_92_3359" x1="375.878" y1="235.986" x2="523.675" y2="357.232" gradientUnits="userSpaceOnUse">
<stop stop-color="#87B1FF"/>
<stop offset="0.902547" stop-color="#3C7FFF" stop-opacity="0"/>
</linearGradient>
<radialGradient id="paint14_radial_92_3359" cx="0" cy="0" r="1" gradientUnits="userSpaceOnUse" gradientTransform="translate(1285.07 587.074) rotate(90) scale(10.62 7.86329)">
<stop stop-color="#CAFFF9"/>
<stop offset="1" stop-color="#557AFF" stop-opacity="0"/>
</radialGradient>
<linearGradient id="paint15_linear_92_3359" x1="596.575" y1="605.007" x2="1102.01" y2="857.389" gradientUnits="userSpaceOnUse">
<stop stop-color="#315193"/>
<stop offset="1" stop-color="#315193" stop-opacity="0"/>
</linearGradient>
<linearGradient id="paint16_linear_92_3359" x1="711.841" y1="690.966" x2="1190.04" y2="889.543" gradientUnits="userSpaceOnUse">
<stop stop-color="#537FD2"/>
<stop offset="0.902547" stop-color="#537FD2" stop-opacity="0"/>
</linearGradient>
<radialGradient id="paint17_radial_92_3359" cx="0" cy="0" r="1" gradientUnits="userSpaceOnUse" gradientTransform="translate(676.374 735.23) rotate(44.0741) scale(56.1457 89.797)">
<stop stop-color="#70A9FF" stop-opacity="0.4"/>
<stop offset="1" stop-color="white" stop-opacity="0"/>
</radialGradient>
<linearGradient id="paint18_linear_92_3359" x1="674.752" y1="732.527" x2="725.211" y2="756.033" gradientUnits="userSpaceOnUse">
<stop stop-color="#304B84"/>
<stop offset="1" stop-color="#304B84" stop-opacity="0"/>
</linearGradient>
<radialGradient id="paint19_radial_92_3359" cx="0" cy="0" r="1" gradientUnits="userSpaceOnUse" gradientTransform="translate(640.372 861.23) rotate(44.0741) scale(56.1457 89.797)">
<stop stop-color="#70A9FF" stop-opacity="0.4"/>
<stop offset="1" stop-color="white" stop-opacity="0"/>
</radialGradient>
<linearGradient id="paint20_linear_92_3359" x1="638.75" y1="858.527" x2="689.209" y2="882.033" gradientUnits="userSpaceOnUse">
<stop stop-color="#304B84"/>
<stop offset="1" stop-color="#304B84" stop-opacity="0"/>
</linearGradient>
<radialGradient id="paint21_radial_92_3359" cx="0" cy="0" r="1" gradientUnits="userSpaceOnUse" gradientTransform="translate(743.889 761.248) rotate(44.0741) scale(285.186 456.114)">
<stop stop-color="#2A3B80" stop-opacity="0.85"/>
<stop offset="1" stop-color="#1E307A" stop-opacity="0.35"/>
</radialGradient>
<linearGradient id="paint22_linear_92_3359" x1="769" y1="780" x2="985.414" y2="881.45" gradientUnits="userSpaceOnUse">
<stop stop-color="#34518E"/>
<stop offset="1" stop-color="#34518E" stop-opacity="0"/>
</linearGradient>
<radialGradient id="paint23_radial_92_3359" cx="0" cy="0" r="1" gradientUnits="userSpaceOnUse" gradientTransform="translate(813.527 818.651) rotate(51.0441) scale(119.008 119.008)">
<stop stop-color="white" stop-opacity="0.59"/>
<stop offset="0.697917" stop-color="white" stop-opacity="0"/>
<stop offset="1" stop-color="white" stop-opacity="0"/>
</radialGradient>
<radialGradient id="paint24_radial_92_3359" cx="0" cy="0" r="1" gradientUnits="userSpaceOnUse" gradientTransform="translate(898.464 913.164) rotate(-93.6705) scale(121.343 135.242)">
<stop stop-opacity="0.23"/>
<stop offset="0.861815" stop-opacity="0"/>
</radialGradient>
<radialGradient id="paint25_radial_92_3359" cx="0" cy="0" r="1" gradientUnits="userSpaceOnUse" gradientTransform="translate(414.075 212.075) rotate(90) scale(10.62 7.86329)">
<stop stop-color="#CAFFF9"/>
<stop offset="1" stop-color="#557AFF" stop-opacity="0"/>
</radialGradient>
<radialGradient id="paint26_radial_92_3359" cx="0" cy="0" r="1" gradientUnits="userSpaceOnUse" gradientTransform="translate(887.372 667.23) rotate(44.0741) scale(56.1457 89.797)">
<stop stop-color="#70A9FF" stop-opacity="0.4"/>
<stop offset="1" stop-color="white" stop-opacity="0"/>
</radialGradient>
<linearGradient id="paint27_linear_92_3359" x1="885.75" y1="664.527" x2="936.209" y2="688.033" gradientUnits="userSpaceOnUse">
<stop stop-color="#304B84"/>
<stop offset="1" stop-color="#304B84" stop-opacity="0"/>
</linearGradient>
<radialGradient id="paint28_radial_92_3359" cx="0" cy="0" r="1" gradientUnits="userSpaceOnUse" gradientTransform="translate(1007.37 790.23) rotate(44.0741) scale(56.1457 89.797)">
<stop stop-color="#70A9FF" stop-opacity="0.4"/>
<stop offset="1" stop-color="white" stop-opacity="0"/>
</radialGradient>
<linearGradient id="paint29_linear_92_3359" x1="1005.75" y1="787.527" x2="1056.21" y2="811.033" gradientUnits="userSpaceOnUse">
<stop stop-color="#304B84"/>
<stop offset="1" stop-color="#304B84" stop-opacity="0"/>
</linearGradient>
<radialGradient id="paint30_radial_92_3359" cx="0" cy="0" r="1" gradientUnits="userSpaceOnUse" gradientTransform="translate(980.372 957.23) rotate(44.0741) scale(56.1457 89.797)">
<stop stop-color="#70A9FF" stop-opacity="0.4"/>
<stop offset="1" stop-color="white" stop-opacity="0"/>
</radialGradient>
<linearGradient id="paint31_linear_92_3359" x1="978.75" y1="954.527" x2="1029.21" y2="978.033" gradientUnits="userSpaceOnUse">
<stop stop-color="#304B84"/>
<stop offset="1" stop-color="#304B84" stop-opacity="0"/>
</linearGradient>
<radialGradient id="paint32_radial_92_3359" cx="0" cy="0" r="1" gradientUnits="userSpaceOnUse" gradientTransform="translate(270.075 788.075) rotate(90) scale(10.62 7.86329)">
<stop stop-color="#CAFFF9"/>
<stop offset="1" stop-color="#557AFF" stop-opacity="0"/>
</radialGradient>
<linearGradient id="paint33_linear_92_3359" x1="681.001" y1="746.5" x2="466.527" y2="663.741" gradientUnits="userSpaceOnUse">
<stop stop-color="#87B1FF"/>
<stop offset="0.902547" stop-color="#3C7FFF" stop-opacity="0"/>
</linearGradient>
<radialGradient id="paint34_radial_92_3359" cx="0" cy="0" r="1" gradientUnits="userSpaceOnUse" gradientTransform="translate(664.075 731.075) rotate(90) scale(10.62 7.86329)">
<stop stop-color="#CAFFF9"/>
<stop offset="1" stop-color="#557AFF" stop-opacity="0"/>
</radialGradient>
<clipPath id="clip0_92_3359">
<rect width="1624.12" height="1624.12" fill="white" transform="translate(45.3828) rotate(1.60123)"/>
</clipPath>
</defs>
</svg>
