<svg width="78" height="78" viewBox="0 0 78 78" fill="none" xmlns="http://www.w3.org/2000/svg">
<path d="M50.7 52.65C50.7 66.651 39.351 78 25.35 78C11.349 78 0 66.651 0 52.65C0 38.649 11.349 27.3 25.35 27.3C26.013 27.3 26.715 27.339 27.378 27.378C39.741 28.353 49.647 38.259 50.622 50.622C50.661 51.285 50.7 51.987 50.7 52.65Z" fill="#182456"/>
<path d="M78 25.35C78 38.064 68.64 48.555 56.472 50.388V50.154C55.263 35.022 42.978 22.737 27.729 21.528H27.612C29.445 9.36 39.936 0 52.65 0C66.651 0 78 11.349 78 25.35Z" fill="#182456"/>
<path d="M14.001 0H3.9C1.755 0 0 1.755 0 3.9V14.001C0 17.472 4.212 19.227 6.669 16.77L16.77 6.669C19.188 4.212 17.472 0 14.001 0Z" fill="#182456"/>
<path d="M63.999 78H74.1C76.245 78 78 76.245 78 74.1V63.999C78 60.528 73.788 58.773 71.331 61.23L61.23 71.331C58.812 73.788 60.528 78 63.999 78Z" fill="#182456"/>
<path d="M56.7374 50.0719C55.4946 34.8926 43.2059 22.5702 27.9266 21.2722C29.8643 9.37911 40.1759 0.271158 52.65 0.271158C66.5012 0.271158 77.7288 11.4988 77.7288 25.35C77.7288 37.8208 68.6258 48.1302 56.7374 50.0719ZM50.4288 52.65C50.4288 66.5012 39.2012 77.7288 25.35 77.7288C11.4988 77.7288 0.271158 66.5012 0.271158 52.65C0.271158 38.7988 11.4988 27.5712 25.35 27.5712C26.003 27.5712 26.6965 27.6095 27.3593 27.6485C39.5872 28.6142 49.3857 38.4126 50.3515 50.6405C50.3904 51.3034 50.4288 51.9969 50.4288 52.65ZM3.9 0.271158H14.001C17.2258 0.271158 18.8294 4.18857 16.5775 6.47806C16.5772 6.47831 16.577 6.47856 16.5767 6.4788L6.47726 16.5783C4.19197 18.8636 0.271158 17.2317 0.271158 14.001V3.9C0.271158 1.90476 1.90476 0.271158 3.9 0.271158ZM74.1 77.7288H63.999C60.7743 77.7288 59.1707 73.8117 61.4223 71.5221C61.4226 71.5218 61.423 71.5215 61.4233 71.5212L71.5227 61.4217C73.808 59.1364 77.7288 60.7683 77.7288 63.999V74.1C77.7288 76.0952 76.0952 77.7288 74.1 77.7288Z" stroke="url(#paint0_linear_2006_43030)" stroke-opacity="0.65" stroke-width="0.542316"/>
<defs>
<linearGradient id="paint0_linear_2006_43030" x1="-2.35887" y1="-2.77874" x2="92.8398" y2="41.568" gradientUnits="userSpaceOnUse">
<stop stop-color="white" stop-opacity="0.9"/>
<stop offset="1" stop-color="white" stop-opacity="0"/>
</linearGradient>
</defs>
</svg>
