<svg width="70" height="70" viewBox="0 0 70 70" fill="none" xmlns="http://www.w3.org/2000/svg">
<g filter="url(#filter0_b_28_2167)">
<rect width="70" height="70" rx="35" fill="url(#paint0_radial_28_2167)" fill-opacity="0.35"/>
<path d="M25.9673 50V45.5682L36.3224 35.9801C37.2031 35.1278 37.9418 34.3608 38.5384 33.679C39.1444 32.9972 39.6037 32.3295 39.9162 31.6761C40.2287 31.0133 40.3849 30.2983 40.3849 29.5312C40.3849 28.679 40.1908 27.9451 39.8026 27.3295C39.4143 26.7045 38.884 26.2263 38.2116 25.8949C37.5393 25.554 36.777 25.3835 35.9247 25.3835C35.0346 25.3835 34.258 25.5634 33.5952 25.9233C32.9323 26.2831 32.4209 26.7992 32.0611 27.4716C31.7012 28.1439 31.5213 28.9441 31.5213 29.8722H25.6832C25.6832 27.9687 26.1141 26.3163 26.9759 24.9148C27.8376 23.5133 29.045 22.429 30.598 21.6619C32.151 20.8949 33.9408 20.5114 35.9673 20.5114C38.0507 20.5114 39.8641 20.8807 41.4077 21.6193C42.9607 22.3485 44.1681 23.3617 45.0298 24.6591C45.8916 25.9564 46.3224 27.4432 46.3224 29.1193C46.3224 30.2178 46.1046 31.3021 45.669 32.3722C45.2429 33.4422 44.4806 34.6307 43.3821 35.9375C42.2836 37.2348 40.7353 38.7926 38.7372 40.6108L34.4901 44.7727V44.9716H46.706V50H25.9673Z" fill="url(#paint1_linear_28_2167)"/>
<rect x="0.33" y="0.33" width="69.34" height="69.34" rx="34.67" stroke="url(#paint2_linear_28_2167)" stroke-opacity="0.65" stroke-width="0.66"/>
</g>
<defs>
<filter id="filter0_b_28_2167" x="-6.7976" y="-6.7976" width="83.5952" height="83.5952" filterUnits="userSpaceOnUse" color-interpolation-filters="sRGB">
<feFlood flood-opacity="0" result="BackgroundImageFix"/>
<feGaussianBlur in="BackgroundImageFix" stdDeviation="3.3988"/>
<feComposite in2="SourceAlpha" operator="in" result="effect1_backgroundBlur_28_2167"/>
<feBlend mode="normal" in="SourceGraphic" in2="effect1_backgroundBlur_28_2167" result="shape"/>
</filter>
<radialGradient id="paint0_radial_28_2167" cx="0" cy="0" r="1" gradientUnits="userSpaceOnUse" gradientTransform="translate(0.629633 2.08264) rotate(44.0741) scale(95.0619 152.038)">
<stop stop-color="#70A9FF" stop-opacity="0.4"/>
<stop offset="1" stop-color="white" stop-opacity="0"/>
</radialGradient>
<linearGradient id="paint1_linear_28_2167" x1="23.6094" y1="10" x2="62.0337" y2="40.5686" gradientUnits="userSpaceOnUse">
<stop stop-color="white"/>
<stop offset="1" stop-color="white" stop-opacity="0"/>
</linearGradient>
<linearGradient id="paint2_linear_28_2167" x1="-2.11693" y1="-2.49374" x2="83.3178" y2="37.3046" gradientUnits="userSpaceOnUse">
<stop stop-color="white" stop-opacity="0.9"/>
<stop offset="1" stop-color="white" stop-opacity="0"/>
</linearGradient>
</defs>
</svg>
