<svg width="109" height="109" viewBox="0 0 109 109" fill="none" xmlns="http://www.w3.org/2000/svg">
<g filter="url(#filter0_b_61_807)">
<rect width="109" height="109" rx="24" fill="url(#paint0_radial_61_807)" fill-opacity="0.35"/>
<rect x="0.33" y="0.33" width="108.34" height="108.34" rx="23.67" stroke="url(#paint1_linear_61_807)" stroke-opacity="0.65" stroke-width="0.66"/>
</g>
<rect x="30" y="30" width="49" height="49" rx="12.7037" fill="#29BCC8" fill-opacity="0.12"/>
<path d="M48.0014 46.4087C48.0192 46.3981 48.0381 46.3896 48.0579 46.3833C48.2688 46.2868 48.48 46.1955 48.691 46.1144V42.0106C48.6915 41.6521 48.5476 41.3081 48.2909 41.0541C48.0341 40.8002 47.6856 40.6571 47.3218 40.6562H41.6445V52.4348C43.031 49.7901 45.2659 47.6714 48.0014 46.4087Z" fill="#2AC8CE"/>
<path d="M53.8021 53.5781H55.0682C55.5049 53.5783 55.9374 53.4937 56.3409 53.329C56.7444 53.1644 57.111 52.9231 57.4198 52.6187C57.7286 52.3144 57.9735 51.9531 58.1405 51.5555C58.3076 51.1578 58.3935 50.7316 58.3933 50.3012V46.791C57.7086 46.6744 54.5791 46.6094 53.8535 46.6094C50.7596 46.6075 47.7803 47.7626 45.5171 49.8415C43.2538 51.9203 41.8753 54.7681 41.6598 57.8097C41.6394 58.0886 41.6289 58.3676 41.6289 58.6518C41.6289 58.9359 41.6391 59.2149 41.6598 59.4938V66.9801C41.6598 67.1573 41.6951 67.3328 41.7639 67.4965C41.8327 67.6603 41.9335 67.809 42.0607 67.9343C42.1878 68.0597 42.3388 68.159 42.5049 68.2268C42.6711 68.2946 42.8492 68.3295 43.029 68.3294H48.7063V58.5856C48.7091 57.2559 49.2474 55.9817 50.2028 55.043C51.1583 54.1042 52.4529 53.5776 53.8021 53.5789V53.5781Z" fill="#2AC8CE"/>
<path d="M60.9689 62.581C60.9511 62.5916 60.9321 62.6001 60.9124 62.6065C60.7014 62.7027 60.4903 62.7942 60.2793 62.8753V66.9791C60.2788 67.3376 60.4227 67.6816 60.6794 67.9356C60.9361 68.1895 61.2847 68.3327 61.6484 68.3335H67.3216V56.5547C65.9355 59.1983 63.7023 61.3168 60.9689 62.581Z" fill="#2AC8CE"/>
<path d="M67.3333 49.4928V42.0055C67.3333 41.8283 67.298 41.6528 67.2292 41.4891C67.1604 41.3254 67.0596 41.1766 66.9324 41.0513C66.8053 40.926 66.6543 40.8266 66.4882 40.7588C66.322 40.691 66.1439 40.6562 65.9641 40.6563H60.2868V50.4011C60.2841 51.7298 59.7465 53.0031 58.792 53.9416C57.8376 54.88 56.5444 55.407 55.1961 55.4067H53.9247C53.4879 55.4065 53.0554 55.4912 52.6518 55.6558C52.2483 55.8205 51.8816 56.0619 51.5728 56.3664C51.264 56.6708 51.0191 57.0322 50.8521 57.4299C50.6851 57.8277 50.5993 58.2539 50.5996 58.6844V62.1946C51.2843 62.3112 54.4138 62.3762 55.1394 62.3762C55.2213 62.3762 55.2989 62.3762 55.3813 62.3712C57.0832 62.3426 58.7599 61.9606 60.302 61.2502L60.3329 61.235C62.3056 60.3262 63.9954 58.9136 65.2271 57.1439C66.4588 55.3742 67.1874 53.3118 67.3373 51.1709C67.3578 50.892 67.3683 50.6128 67.3683 50.3288C67.3642 50.0507 67.3537 49.7717 67.3333 49.4928Z" fill="#2AC8CE"/>
<defs>
<filter id="filter0_b_61_807" x="-12" y="-12" width="133" height="133" filterUnits="userSpaceOnUse" color-interpolation-filters="sRGB">
<feFlood flood-opacity="0" result="BackgroundImageFix"/>
<feGaussianBlur in="BackgroundImageFix" stdDeviation="6"/>
<feComposite in2="SourceAlpha" operator="in" result="effect1_backgroundBlur_61_807"/>
<feBlend mode="normal" in="SourceGraphic" in2="effect1_backgroundBlur_61_807" result="shape"/>
</filter>
<radialGradient id="paint0_radial_61_807" cx="0" cy="0" r="1" gradientUnits="userSpaceOnUse" gradientTransform="translate(54.5 5.54736e-06) rotate(84.7625) scale(128.773 205.954)">
<stop stop-color="#70A9FF" stop-opacity="0.4"/>
<stop offset="1" stop-color="white" stop-opacity="0"/>
</radialGradient>
<linearGradient id="paint1_linear_61_807" x1="47.5539" y1="-3.3391e-06" x2="85.1087" y2="100.123" gradientUnits="userSpaceOnUse">
<stop stop-color="white" stop-opacity="0.9"/>
<stop offset="1" stop-color="white" stop-opacity="0"/>
</linearGradient>
</defs>
</svg>
