<svg width="109" height="109" viewBox="0 0 109 109" fill="none" xmlns="http://www.w3.org/2000/svg">
<g filter="url(#filter0_b_61_810)">
<rect width="109" height="109" rx="24" fill="url(#paint0_radial_61_810)" fill-opacity="0.35"/>
<rect x="0.33" y="0.33" width="108.34" height="108.34" rx="23.67" stroke="url(#paint1_linear_61_810)" stroke-opacity="0.65" stroke-width="0.66"/>
</g>
<rect x="30" y="30" width="49" height="49" rx="12.7037" fill="#24A1EE" fill-opacity="0.12"/>
<path d="M55.666 59.4716L59.826 65.7853L63.6688 63.6317L58.2057 55.3047L55.666 59.4716Z" fill="#24A2EE"/>
<path d="M67.6588 61.166L67.656 59.379L61.822 50.0647L59.6562 53.8288L65.2883 63.1655L67.3257 61.9559C67.4243 61.874 67.505 61.7716 67.5624 61.6555C67.6198 61.5394 67.6527 61.4122 67.659 61.2822L67.6588 61.166Z" fill="#24A2EE"/>
<path d="M42.3242 62.7948L45.098 64.4875L54.3283 48.8103L52.7618 48.7674C51.4271 48.7474 49.9893 49.1148 49.3294 50.2558L44.0878 58.86L42.3252 61.7295V62.7957L42.3242 62.7948Z" fill="#24A2EE"/>
<path d="M61.0037 48.7666L56.5067 48.7825L46.332 65.1157L49.8883 67.1077L50.8553 65.512L61.0037 48.7666Z" fill="#24A2EE"/>
<path d="M69 49.3032C68.9801 48.8712 68.8513 48.4504 68.6248 48.077C68.3982 47.7037 68.0807 47.3889 67.6996 47.1599L56.8869 41.176C56.5009 40.9935 56.0765 40.8986 55.6464 40.8986C55.2163 40.8986 54.792 40.9935 54.406 41.176C54.3157 41.2198 43.8908 47.0383 43.8908 47.0383C43.7459 47.1053 43.6074 47.1841 43.4767 47.2741C43.1382 47.5058 42.8587 47.8082 42.6591 48.1588C42.4594 48.5093 42.345 48.8988 42.3242 49.2981V61.691L44.181 58.9443L44.1667 49.3825C44.1754 49.2514 44.2142 49.1238 44.2803 49.0088C44.3464 48.8939 44.4382 48.7945 44.549 48.7178C44.5981 48.6839 55.201 42.7777 55.2347 42.7614C55.3617 42.702 55.5009 42.6708 55.642 42.6701C55.7832 42.6695 55.9227 42.6994 56.0502 42.7577L66.7231 48.6659C66.8474 48.7418 66.9509 48.8454 67.0248 48.968C67.0988 49.0905 67.141 49.2284 67.1479 49.3699V61.2153C67.1453 61.3381 67.1155 61.459 67.0605 61.5698C67.0054 61.6807 66.9265 61.7789 66.8288 61.858L64.7585 63.0119L63.6914 63.6075L59.8753 65.7358L56.0052 67.8943C55.7912 67.9669 55.5572 67.9625 55.3463 67.8817L50.7677 65.3474L49.8324 66.8739L53.9473 69.1537C54.0835 69.2281 54.2047 69.2942 54.3042 69.348C54.4583 69.4302 54.5633 69.4867 54.6002 69.5039C54.9445 69.6491 55.3167 69.7228 55.6925 69.7202C56.0372 69.7207 56.379 69.6588 56.6999 69.5378L67.9405 63.2733C68.2577 63.036 68.5168 62.7345 68.6998 62.3903C68.8828 62.0461 68.9851 61.6674 68.9996 61.281L69 49.3032Z" fill="#24A2EE"/>
<defs>
<filter id="filter0_b_61_810" x="-12" y="-12" width="133" height="133" filterUnits="userSpaceOnUse" color-interpolation-filters="sRGB">
<feFlood flood-opacity="0" result="BackgroundImageFix"/>
<feGaussianBlur in="BackgroundImageFix" stdDeviation="6"/>
<feComposite in2="SourceAlpha" operator="in" result="effect1_backgroundBlur_61_810"/>
<feBlend mode="normal" in="SourceGraphic" in2="effect1_backgroundBlur_61_810" result="shape"/>
</filter>
<radialGradient id="paint0_radial_61_810" cx="0" cy="0" r="1" gradientUnits="userSpaceOnUse" gradientTransform="translate(54.5 5.54736e-06) rotate(84.7625) scale(128.773 205.954)">
<stop stop-color="#70A9FF" stop-opacity="0.4"/>
<stop offset="1" stop-color="white" stop-opacity="0"/>
</radialGradient>
<linearGradient id="paint1_linear_61_810" x1="47.5539" y1="-3.3391e-06" x2="85.1087" y2="100.123" gradientUnits="userSpaceOnUse">
<stop stop-color="white" stop-opacity="0.9"/>
<stop offset="1" stop-color="white" stop-opacity="0"/>
</linearGradient>
</defs>
</svg>
