<svg width="110" height="109" viewBox="0 0 110 109" fill="none" xmlns="http://www.w3.org/2000/svg">
<g filter="url(#filter0_b_61_811)">
<rect width="110" height="109" rx="24" fill="url(#paint0_radial_61_811)" fill-opacity="0.35"/>
<rect x="0.33" y="0.33" width="109.34" height="108.34" rx="23.67" stroke="url(#paint1_linear_61_811)" stroke-opacity="0.65" stroke-width="0.66"/>
</g>
<rect x="30" y="30" width="49" height="49" rx="12.7037" fill="#3243FE" fill-opacity="0.18"/>
<path d="M53.4051 41.1514C54.02 40.8037 54.9557 40.8037 55.5706 41.1514L61.8451 44.6992C62.2154 44.9086 62.4188 45.2207 62.4552 45.5428H62.4612V63.3761C62.453 63.7275 62.2477 64.0765 61.8451 64.3042L55.5706 67.8521C54.9557 68.1998 54.02 68.1998 53.4051 67.8521L47.1306 64.3042C46.7296 64.0775 46.5372 63.726 46.5277 63.3761C46.5267 63.3417 46.5266 63.313 46.5275 63.2892L46.5275 45.6573C46.5269 45.638 46.5268 45.6187 46.5273 45.5995L46.5277 45.5428L46.5305 45.5428C46.5584 45.2171 46.7525 44.9131 47.1306 44.6992L53.4051 41.1514ZM61.4734 55.4919L55.5706 58.8296C54.9557 59.1773 54.02 59.1773 53.4051 58.8296L47.5152 55.4994V63.3408L53.4051 66.6536C53.7377 66.844 54.0829 67.0294 54.4204 67.053L54.4878 67.0554C54.8396 67.0567 55.181 66.8655 55.5273 66.6845L61.4734 63.3123V55.4919ZM45.5071 62.9884C45.5071 63.6715 45.5813 64.1207 45.7286 64.4372C45.8507 64.6994 46.0338 64.8997 46.3683 65.1437L46.3874 65.1575C46.4607 65.2104 46.5416 65.2659 46.64 65.331L46.7561 65.4072L47.1125 65.6375L46.6013 66.5422L46.2024 66.2842L46.1354 66.2402C46.02 66.1639 45.9244 66.0986 45.8353 66.0341C44.8821 65.3461 44.5267 64.5962 44.5196 63.0359L44.5195 62.9884H45.5071ZM53.9939 50.712C53.9482 50.7288 53.9054 50.7483 53.8664 50.7703L47.5919 54.3182C47.5853 54.3219 47.579 54.3256 47.5731 54.3292L47.5677 54.3325L47.5776 54.3386L47.5919 54.3469L53.8664 57.8947C53.9054 57.9168 53.9482 57.9362 53.9939 57.953V50.712ZM54.9818 50.712V57.953C55.0275 57.9362 55.0703 57.9168 55.1093 57.8947L61.3838 54.3469C61.3904 54.3432 61.3967 54.3395 61.4026 54.3358L61.408 54.3325L61.3981 54.3265L61.3838 54.3182L55.1093 50.7703C55.0703 50.7483 55.0275 50.7288 54.9818 50.712ZM61.4734 46.8078L55.8449 49.9905L61.4734 53.1731V46.8078ZM47.5152 46.8153V53.1657L53.1307 49.9905L47.5152 46.8153ZM55.1093 42.0863C54.783 41.9018 54.1927 41.9018 53.8664 42.0863L47.5919 45.6342C47.5853 45.6379 47.579 45.6416 47.5731 45.6452L47.5677 45.6485L47.5776 45.6545L47.5919 45.6629L53.8664 49.2107C54.1927 49.3952 54.783 49.3952 55.1093 49.2107L61.3838 45.6629C61.3904 45.6591 61.3967 45.6555 61.4026 45.6518L61.408 45.6485L61.3981 45.6425L61.3838 45.6342L55.1093 42.0863ZM62.4007 42.4754L62.7996 42.7333L62.8667 42.7773C62.982 42.8536 63.0776 42.919 63.1668 42.9834C64.1199 43.6713 64.4754 44.4214 64.4823 45.9816L64.4825 46.0291H63.4949C63.4949 45.3459 63.4207 44.8968 63.2734 44.5804C63.1514 44.3182 62.9682 44.1178 62.6338 43.8739L62.6147 43.8601C62.5413 43.8071 62.4604 43.7516 62.362 43.6864L62.246 43.6103L61.8896 43.38L62.4007 42.4754Z" fill="#071CFE"/>
<defs>
<filter id="filter0_b_61_811" x="-12" y="-12" width="134" height="133" filterUnits="userSpaceOnUse" color-interpolation-filters="sRGB">
<feFlood flood-opacity="0" result="BackgroundImageFix"/>
<feGaussianBlur in="BackgroundImageFix" stdDeviation="6"/>
<feComposite in2="SourceAlpha" operator="in" result="effect1_backgroundBlur_61_811"/>
<feBlend mode="normal" in="SourceGraphic" in2="effect1_backgroundBlur_61_811" result="shape"/>
</filter>
<radialGradient id="paint0_radial_61_811" cx="0" cy="0" r="1" gradientUnits="userSpaceOnUse" gradientTransform="translate(55 5.54736e-06) rotate(84.7147) scale(128.783 207.827)">
<stop stop-color="#70A9FF" stop-opacity="0.4"/>
<stop offset="1" stop-color="white" stop-opacity="0"/>
</radialGradient>
<linearGradient id="paint1_linear_61_811" x1="47.9902" y1="-3.3391e-06" x2="85.2868" y2="100.347" gradientUnits="userSpaceOnUse">
<stop stop-color="white" stop-opacity="0.9"/>
<stop offset="1" stop-color="white" stop-opacity="0"/>
</linearGradient>
</defs>
</svg>
