<svg width="109" height="109" viewBox="0 0 109 109" fill="none" xmlns="http://www.w3.org/2000/svg">
<g filter="url(#filter0_b_61_792)">
<rect width="109" height="109" rx="24" transform="matrix(-1 0 0 1 109 0)" fill="url(#paint0_radial_61_792)" fill-opacity="0.35"/>
<rect x="-0.33" y="0.33" width="108.34" height="108.34" rx="23.67" transform="matrix(-1 0 0 1 108.34 0)" stroke="url(#paint1_linear_61_792)" stroke-opacity="0.65" stroke-width="0.66"/>
</g>
<rect width="49" height="49" rx="12.7037" transform="matrix(-1 0 0 1 79 30)" fill="#70D44B" fill-opacity="0.12"/>
<path d="M55 43.6801C55.4541 43.6786 55.8996 43.8044 56.286 44.043C56.6724 44.2817 56.9842 44.6238 57.1862 45.0306L64.0609 58.7806C64.2474 59.1533 64.3355 59.5675 64.3168 59.9839C64.2982 60.4002 64.1734 60.8049 63.9544 61.1594C63.7353 61.5139 63.4292 61.8066 63.0653 62.0095C62.7013 62.2125 62.2914 62.319 61.8747 62.319H48.1253C47.7086 62.319 47.2987 62.2125 46.9347 62.0095C46.5708 61.8066 46.2647 61.5139 46.0456 61.1594C45.8266 60.8049 45.7018 60.4002 45.6832 59.9839C45.6645 59.5675 45.7526 59.1533 45.9391 58.7806L52.8138 45.0306C53.0158 44.6238 53.3276 44.2817 53.714 44.043C54.1004 43.8044 54.5459 43.6786 55 43.6801ZM55 41.9995C54.234 41.9994 53.4832 42.2126 52.8316 42.6152C52.1799 43.0178 51.6533 43.5939 51.3106 44.279L44.4359 58.029C44.1212 58.6579 43.9726 59.3568 44.0041 60.0594C44.0357 60.7619 44.2463 61.4447 44.6159 62.043C44.9856 62.6412 45.5021 63.135 46.1163 63.4774C46.7305 63.8199 47.4221 63.9996 48.1253 63.9995H61.8747C62.5779 63.9996 63.2695 63.8199 63.8837 63.4774C64.4979 63.135 65.0144 62.6412 65.3841 62.043C65.7537 61.4447 65.9643 60.7619 65.9959 60.0594C66.0274 59.3568 65.8788 58.6579 65.5641 58.029L58.6894 44.279C58.3467 43.5939 57.8201 43.0178 57.1684 42.6152C56.5168 42.2126 55.766 41.9994 55 41.9995Z" fill="#70D44B"/>
<defs>
<filter id="filter0_b_61_792" x="-12" y="-12" width="133" height="133" filterUnits="userSpaceOnUse" color-interpolation-filters="sRGB">
<feFlood flood-opacity="0" result="BackgroundImageFix"/>
<feGaussianBlur in="BackgroundImageFix" stdDeviation="6"/>
<feComposite in2="SourceAlpha" operator="in" result="effect1_backgroundBlur_61_792"/>
<feBlend mode="normal" in="SourceGraphic" in2="effect1_backgroundBlur_61_792" result="shape"/>
</filter>
<radialGradient id="paint0_radial_61_792" cx="0" cy="0" r="1" gradientUnits="userSpaceOnUse" gradientTransform="translate(54.5 5.54736e-06) rotate(84.7625) scale(128.773 205.954)">
<stop stop-color="#70A9FF" stop-opacity="0.4"/>
<stop offset="1" stop-color="white" stop-opacity="0"/>
</radialGradient>
<linearGradient id="paint1_linear_61_792" x1="47.5539" y1="-3.3391e-06" x2="85.1087" y2="100.123" gradientUnits="userSpaceOnUse">
<stop stop-color="white" stop-opacity="0.9"/>
<stop offset="1" stop-color="white" stop-opacity="0"/>
</linearGradient>
</defs>
</svg>
