<svg width="109" height="109" viewBox="0 0 109 109" fill="none" xmlns="http://www.w3.org/2000/svg">
<g filter="url(#filter0_b_61_778)">
<rect width="109" height="109" rx="24" transform="matrix(-1 0 0 1 109 0)" fill="url(#paint0_radial_61_778)" fill-opacity="0.35"/>
<rect x="-0.33" y="0.33" width="108.34" height="108.34" rx="23.67" transform="matrix(-1 0 0 1 108.34 0)" stroke="url(#paint1_linear_61_778)" stroke-opacity="0.65" stroke-width="0.66"/>
</g>
<rect width="49" height="49" rx="12.7037" transform="matrix(-1 0 0 1 79 30)" fill="#541BFC" fill-opacity="0.12"/>
<path fill-rule="evenodd" clip-rule="evenodd" d="M57.325 43.3973C57.5396 43.1285 57.8644 42.9815 58.2001 43.0013L62.657 43.2632C62.9963 43.2832 63.3057 43.471 63.4889 43.7682C63.6721 44.0654 63.7068 44.4358 63.5822 44.764L62.2512 48.2703L65.8685 55.0839C65.983 55.2996 66.0244 55.549 65.9861 55.7921C65.9429 56.0664 65.9066 56.4027 65.8641 56.7962L65.8628 56.8083C65.8213 57.1933 65.7745 57.6244 65.7119 58.0328C65.6504 58.4341 65.5662 58.8662 65.4354 59.2448C65.3221 59.5725 65.0931 60.1101 64.5906 60.4132C64.3189 60.5771 63.9628 60.6893 63.6783 60.7691C63.3627 60.8575 63.0003 60.9411 62.647 61.0184C62.4557 61.0602 62.2694 61.0999 62.0914 61.1379C61.7741 61.2055 61.483 61.2676 61.2357 61.3264L60.4865 62.7409C60.4067 62.8915 60.294 63.0206 60.1574 63.1178C58.8427 64.0537 56.7392 65.0325 54.6342 65.7651C52.5425 66.493 50.2765 67.0387 48.6399 66.9973C48.2918 66.9885 47.9701 66.8025 47.7795 66.4999C46.9181 65.1319 46.1592 62.6659 45.6713 60.4082C45.4221 59.2549 45.2326 58.1048 45.134 57.1062C45.0396 56.1488 45.014 55.2013 45.169 54.5256C45.183 54.4646 45.202 54.4049 45.2258 54.3472C45.2467 54.2965 45.2711 54.237 45.2982 54.1707C45.4014 53.9185 45.5451 53.5674 45.6964 53.2218C45.8015 52.9816 45.924 52.7116 46.0515 52.4618L45.0519 49.2703C44.9299 48.8805 45.0267 48.4526 45.3032 48.1601L48.0783 45.2247C48.2774 45.0141 48.5497 44.8955 48.8339 44.8955H56.1289L57.325 43.3973ZM58.6142 45.2279L57.4417 46.6965C57.2406 46.9485 56.9418 47.0943 56.6265 47.0943H49.2783L47.2644 49.2245L48.2124 52.2513C48.3143 52.5765 48.2646 52.9324 48.078 53.2141C47.9763 53.3678 47.8122 53.7022 47.6243 54.1314C47.4853 54.4492 47.3559 54.7652 47.2529 55.0168C47.2395 55.0495 47.2265 55.0812 47.2141 55.1117C47.1617 55.4253 47.1559 56.023 47.2407 56.8821C47.3289 57.7763 47.5025 58.8388 47.7376 59.9268C48.1482 61.8269 48.7151 63.6586 49.2697 64.7845C50.5132 64.6995 52.2186 64.2867 53.9612 63.6802C55.8583 63.02 57.6475 62.1838 58.7563 61.4444L59.6015 59.8489C59.7368 59.5934 59.9644 59.4042 60.2341 59.3229C60.6252 59.205 61.2025 59.0822 61.7448 58.9668C61.9049 58.9327 62.062 58.8993 62.2103 58.8668C62.5564 58.7911 62.8708 58.7179 63.1264 58.6463C63.2488 58.612 63.3476 58.5808 63.4234 58.5533C63.4292 58.5384 63.4355 58.5214 63.4422 58.502C63.5061 58.3172 63.5658 58.0444 63.6205 57.6873C63.6742 57.3372 63.7159 56.9562 63.7583 56.5635L63.7632 56.5178C63.7881 56.2874 63.8137 56.0495 63.8424 55.8223L60.1562 48.8789C60.0039 48.5921 59.9827 48.2497 60.0984 47.945L61.0749 45.3726L58.6142 45.2279ZM63.3837 58.6396C63.3836 58.6395 63.3848 58.6376 63.3871 58.6341C63.3849 58.638 63.3837 58.6398 63.3837 58.6396Z" fill="#541BFC"/>
<defs>
<filter id="filter0_b_61_778" x="-12" y="-12" width="133" height="133" filterUnits="userSpaceOnUse" color-interpolation-filters="sRGB">
<feFlood flood-opacity="0" result="BackgroundImageFix"/>
<feGaussianBlur in="BackgroundImageFix" stdDeviation="6"/>
<feComposite in2="SourceAlpha" operator="in" result="effect1_backgroundBlur_61_778"/>
<feBlend mode="normal" in="SourceGraphic" in2="effect1_backgroundBlur_61_778" result="shape"/>
</filter>
<radialGradient id="paint0_radial_61_778" cx="0" cy="0" r="1" gradientUnits="userSpaceOnUse" gradientTransform="translate(54.5 5.54736e-06) rotate(84.7625) scale(128.773 205.954)">
<stop stop-color="#70A9FF" stop-opacity="0.4"/>
<stop offset="1" stop-color="white" stop-opacity="0"/>
</radialGradient>
<linearGradient id="paint1_linear_61_778" x1="47.5539" y1="-3.3391e-06" x2="85.1087" y2="100.123" gradientUnits="userSpaceOnUse">
<stop stop-color="white" stop-opacity="0.9"/>
<stop offset="1" stop-color="white" stop-opacity="0"/>
</linearGradient>
</defs>
</svg>
