<svg width="80" height="80" viewBox="0 0 80 80" fill="none" xmlns="http://www.w3.org/2000/svg">
<g clip-path="url(#clip0_16_1003)">
<g filter="url(#filter0_b_16_1003)">
<circle cx="40" cy="40" r="40" fill="url(#paint0_radial_16_1003)" fill-opacity="0.65"/>
<circle cx="40" cy="40" r="39.75" stroke="url(#paint1_linear_16_1003)" stroke-opacity="0.36" stroke-width="0.500062"/>
</g>
<path d="M5.71401 18.6632C5.71401 18.6632 5.71401 22.3203 9.37115 22.3203M5.71401 18.6632C5.71401 22.3203 2.05686 22.3203 2.05686 22.3203M5.71401 18.6632V17.7489M9.37115 22.3203C9.37115 22.3203 5.71401 22.3203 5.71401 25.9774M9.37115 22.3203H10.2854M2.05686 22.3203C5.71401 22.3203 5.71401 25.9774 5.71401 25.9774M2.05686 22.3203H1.14258M5.71401 25.9774V26.8917" stroke="white" stroke-width="1.14733" stroke-linecap="round" stroke-linejoin="round"/>
<path d="M67.6998 8.34108C67.6998 8.34108 67.6998 11.0947 70.4534 11.0947M67.6998 8.34108C67.6998 11.0947 64.9462 11.0947 64.9462 11.0947M67.6998 8.34108V7.65268M70.4534 11.0947C70.4534 11.0947 67.6998 11.0947 67.6998 13.8483M70.4534 11.0947H71.1418M64.9462 11.0947C67.6998 11.0947 67.6998 13.8483 67.6998 13.8483M64.9462 11.0947H64.2578M67.6998 13.8483V14.5367" stroke="#207BC4" stroke-width="0.860496" stroke-linecap="round" stroke-linejoin="round"/>
<path d="M71.4411 60.6769C71.4411 60.6769 71.4411 62.5126 73.2769 62.5126M71.4411 60.6769C71.4411 62.5126 69.6054 62.5126 69.6054 62.5126M71.4411 60.6769V60.218M73.2769 62.5126C73.2769 62.5126 71.4411 62.5126 71.4411 64.3483M73.2769 62.5126H73.7358M69.6054 62.5126C71.4411 62.5126 71.4411 64.3483 71.4411 64.3483M69.6054 62.5126H69.1465M71.4411 64.3483V64.8073" stroke="white" stroke-width="0.573664" stroke-linecap="round" stroke-linejoin="round"/>
<path d="M31.6 34.6V31.7C31.6 26.9005 33 23 40 23C47 23 48.4 26.9005 48.4 31.7V34.6M43.5 43.3C43.5 45.302 41.933 46.925 40 46.925C38.067 46.925 36.5 45.302 36.5 43.3C36.5 41.298 38.067 39.675 40 39.675C41.933 39.675 43.5 41.298 43.5 43.3ZM47 52H33C27.4 52 26 50.55 26 44.75V41.85C26 36.05 27.4 34.6 33 34.6H47C52.6 34.6 54 36.05 54 41.85V44.75C54 50.55 52.6 52 47 52Z" stroke="white" stroke-width="1.62106" stroke-linecap="round" stroke-linejoin="round"/>
</g>
<defs>
<filter id="filter0_b_16_1003" x="-5.15033" y="-5.15033" width="90.3007" height="90.3007" filterUnits="userSpaceOnUse" color-interpolation-filters="sRGB">
<feFlood flood-opacity="0" result="BackgroundImageFix"/>
<feGaussianBlur in="BackgroundImageFix" stdDeviation="2.57517"/>
<feComposite in2="SourceAlpha" operator="in" result="effect1_backgroundBlur_16_1003"/>
<feBlend mode="normal" in="SourceGraphic" in2="effect1_backgroundBlur_16_1003" result="shape"/>
</filter>
<radialGradient id="paint0_radial_16_1003" cx="0" cy="0" r="1" gradientUnits="userSpaceOnUse" gradientTransform="translate(40 43.3962) rotate(126.637) scale(38.5577 43.2368)">
<stop stop-color="#0F1565"/>
<stop offset="1" stop-color="#1A24B0"/>
</radialGradient>
<linearGradient id="paint1_linear_16_1003" x1="-2.41935" y1="-2.84999" x2="95.2203" y2="42.6338" gradientUnits="userSpaceOnUse">
<stop stop-color="white" stop-opacity="0.9"/>
<stop offset="1" stop-color="white" stop-opacity="0"/>
</linearGradient>
<clipPath id="clip0_16_1003">
<rect width="80" height="80" fill="white"/>
</clipPath>
</defs>
</svg>
