<svg width="156" height="177" viewBox="0 0 156 177" fill="none" xmlns="http://www.w3.org/2000/svg">
<ellipse cx="1.41559" cy="19.4124" rx="1.41559" ry="19.4124" transform="matrix(0.703575 -0.71062 -0.707107 -0.707107 130.282 42.7648)" fill="url(#paint0_radial_77_2447)"/>
<g filter="url(#filter0_f_77_2447)">
<ellipse cx="117.552" cy="28.0327" rx="9.14104" ry="0.383095" transform="rotate(45 117.552 28.0327)" fill="#4566E8"/>
</g>
<g filter="url(#filter1_f_77_2447)">
<ellipse cx="117.552" cy="28.0321" rx="7.00899" ry="0.293743" transform="rotate(45 117.552 28.0321)" fill="#2D43FF"/>
</g>
<g filter="url(#filter2_f_77_2447)">
<ellipse cx="117.552" cy="28.0329" rx="3.51002" ry="0.147369" transform="rotate(45 117.552 28.0329)" fill="white"/>
</g>
<ellipse cx="1.4195" cy="19.3588" rx="1.4195" ry="19.3588" transform="matrix(0.710601 0.703595 0.707107 -0.707107 102.854 40.7218)" fill="url(#paint1_radial_77_2447)"/>
<g filter="url(#filter3_f_77_2447)">
<ellipse cx="117.552" cy="28.0331" rx="9.11584" ry="0.384154" transform="rotate(135 117.552 28.0331)" fill="#4566E8"/>
</g>
<g filter="url(#filter4_f_77_2447)">
<ellipse cx="117.553" cy="28.0337" rx="6.98967" ry="0.294274" transform="rotate(135 117.553 28.0337)" fill="#2D43FF"/>
</g>
<ellipse cx="117.554" cy="28.0338" rx="5.10589" ry="0.294274" transform="rotate(135 117.554 28.0338)" fill="#2D43FF"/>
<ellipse cx="117.554" cy="28.0338" rx="5.10589" ry="0.294274" transform="rotate(45 117.554 28.0338)" fill="#2D43FF"/>
<g filter="url(#filter5_f_77_2447)">
<ellipse cx="117.553" cy="28.0332" rx="3.50034" ry="0.147369" transform="rotate(135 117.553 28.0332)" fill="white"/>
</g>
<ellipse cx="117.553" cy="28.0332" rx="3.50034" ry="0.147369" transform="rotate(135 117.553 28.0332)" fill="white"/>
<ellipse cx="117.553" cy="28.0327" rx="3.51002" ry="0.147369" transform="rotate(45 117.553 28.0327)" fill="white"/>
<path d="M118.456 27.321C118.408 27.2409 118.438 27.2833 118.369 27.2142C118.309 27.1538 118.342 27.1776 118.273 27.1333L118.265 27.1393C117.842 27.4598 117.258 27.4573 116.838 27.1333C116.771 27.177 116.792 27.1526 116.733 27.2119C116.666 27.2786 116.675 27.244 116.628 27.3211L116.64 27.3373C116.959 27.7559 116.954 28.3376 116.628 28.7506C116.672 28.8197 116.675 28.7877 116.735 28.8481C116.682 28.8444 116.758 28.903 116.838 28.951C117.264 28.64 117.848 28.6379 118.273 28.951C118.35 28.9041 118.305 28.917 118.371 28.8503C118.431 28.791 118.413 28.8184 118.456 28.7506C118.141 28.3398 118.132 27.771 118.435 27.3507L118.456 27.321Z" fill="white"/>
<ellipse cx="1.41559" cy="19.4124" rx="1.41559" ry="19.4124" transform="matrix(0.703575 -0.71062 -0.707107 -0.707107 40.2822 66.4997)" fill="url(#paint2_radial_77_2447)"/>
<g filter="url(#filter6_f_77_2447)">
<ellipse cx="27.5522" cy="51.7675" rx="9.14104" ry="0.383095" transform="rotate(45 27.5522 51.7675)" fill="#4566E8"/>
</g>
<g filter="url(#filter7_f_77_2447)">
<ellipse cx="27.5521" cy="51.767" rx="7.00899" ry="0.293743" transform="rotate(45 27.5521 51.767)" fill="#2D43FF"/>
</g>
<g filter="url(#filter8_f_77_2447)">
<ellipse cx="27.5516" cy="51.7678" rx="3.51002" ry="0.147369" transform="rotate(45 27.5516 51.7678)" fill="white"/>
</g>
<ellipse cx="1.4195" cy="19.3588" rx="1.4195" ry="19.3588" transform="matrix(0.710601 0.703595 0.707107 -0.707107 12.8545 64.4567)" fill="url(#paint3_radial_77_2447)"/>
<g filter="url(#filter9_f_77_2447)">
<ellipse cx="27.552" cy="51.7679" rx="9.11584" ry="0.384154" transform="rotate(135 27.552 51.7679)" fill="#4566E8"/>
</g>
<g filter="url(#filter10_f_77_2447)">
<ellipse cx="27.5526" cy="51.7686" rx="6.98967" ry="0.294274" transform="rotate(135 27.5526 51.7686)" fill="#2D43FF"/>
</g>
<ellipse cx="27.5536" cy="51.7687" rx="5.10589" ry="0.294274" transform="rotate(135 27.5536 51.7687)" fill="#2D43FF"/>
<ellipse cx="27.5537" cy="51.7687" rx="5.10589" ry="0.294274" transform="rotate(45 27.5537 51.7687)" fill="#2D43FF"/>
<g filter="url(#filter11_f_77_2447)">
<ellipse cx="27.5525" cy="51.7681" rx="3.50034" ry="0.147369" transform="rotate(135 27.5525 51.7681)" fill="white"/>
</g>
<ellipse cx="27.5525" cy="51.7681" rx="3.50034" ry="0.147369" transform="rotate(135 27.5525 51.7681)" fill="white"/>
<ellipse cx="27.5526" cy="51.7676" rx="3.51002" ry="0.147369" transform="rotate(45 27.5526 51.7676)" fill="white"/>
<path d="M28.4562 51.0559C28.4082 50.9757 28.4383 51.0181 28.3692 50.949C28.3088 50.8887 28.3416 50.9125 28.2726 50.8682L28.2647 50.8742C27.8425 51.1946 27.2578 51.1922 26.8383 50.8682C26.7705 50.9119 26.7924 50.8875 26.7331 50.9468C26.6664 51.0135 26.6748 50.9788 26.6279 51.056L26.6402 51.0721C26.9595 51.4907 26.9544 52.0725 26.6279 52.4855C26.6722 52.5545 26.6749 52.5226 26.7353 52.583C26.6825 52.5793 26.7581 52.6379 26.8383 52.6859C27.2645 52.3749 27.8479 52.3728 28.2726 52.6859C28.3497 52.639 28.3048 52.6519 28.3715 52.5852C28.4308 52.5259 28.4125 52.5532 28.4562 52.4855C28.1411 52.0746 28.1324 51.5058 28.4349 51.0856L28.4562 51.0559Z" fill="white"/>
<ellipse cx="1.41559" cy="19.4124" rx="1.41559" ry="19.4124" transform="matrix(0.703575 -0.71062 -0.707107 -0.707107 140.282 163.285)" fill="url(#paint4_radial_77_2447)"/>
<g filter="url(#filter12_f_77_2447)">
<ellipse cx="127.552" cy="148.552" rx="9.14104" ry="0.383095" transform="rotate(45 127.552 148.552)" fill="#4566E8"/>
</g>
<g filter="url(#filter13_f_77_2447)">
<ellipse cx="127.552" cy="148.552" rx="7.00899" ry="0.293743" transform="rotate(45 127.552 148.552)" fill="#2D43FF"/>
</g>
<g filter="url(#filter14_f_77_2447)">
<ellipse cx="127.552" cy="148.553" rx="3.51002" ry="0.147369" transform="rotate(45 127.552 148.553)" fill="white"/>
</g>
<ellipse cx="1.4195" cy="19.3588" rx="1.4195" ry="19.3588" transform="matrix(0.710601 0.703595 0.707107 -0.707107 112.854 161.242)" fill="url(#paint5_radial_77_2447)"/>
<g filter="url(#filter15_f_77_2447)">
<ellipse cx="127.552" cy="148.553" rx="9.11584" ry="0.384154" transform="rotate(135 127.552 148.553)" fill="#4566E8"/>
</g>
<g filter="url(#filter16_f_77_2447)">
<ellipse cx="127.553" cy="148.554" rx="6.98967" ry="0.294274" transform="rotate(135 127.553 148.554)" fill="#2D43FF"/>
</g>
<ellipse cx="127.554" cy="148.554" rx="5.10589" ry="0.294274" transform="rotate(135 127.554 148.554)" fill="#2D43FF"/>
<ellipse cx="127.554" cy="148.554" rx="5.10589" ry="0.294274" transform="rotate(45 127.554 148.554)" fill="#2D43FF"/>
<g filter="url(#filter17_f_77_2447)">
<ellipse cx="127.553" cy="148.553" rx="3.50034" ry="0.147369" transform="rotate(135 127.553 148.553)" fill="white"/>
</g>
<ellipse cx="127.553" cy="148.553" rx="3.50034" ry="0.147369" transform="rotate(135 127.553 148.553)" fill="white"/>
<ellipse cx="127.553" cy="148.552" rx="3.51002" ry="0.147369" transform="rotate(45 127.553 148.552)" fill="white"/>
<path d="M128.456 147.841C128.408 147.761 128.438 147.803 128.369 147.734C128.309 147.674 128.342 147.697 128.273 147.653L128.265 147.659C127.842 147.98 127.258 147.977 126.838 147.653C126.771 147.697 126.792 147.672 126.733 147.732C126.666 147.798 126.675 147.764 126.628 147.841L126.64 147.857C126.959 148.276 126.954 148.857 126.628 149.27C126.672 149.339 126.675 149.307 126.735 149.368C126.682 149.364 126.758 149.423 126.838 149.471C127.264 149.16 127.848 149.158 128.273 149.471C128.35 149.424 128.305 149.437 128.371 149.37C128.431 149.311 128.413 149.338 128.456 149.27C128.141 148.86 128.132 148.291 128.435 147.87L128.456 147.841Z" fill="white"/>
<defs>
<filter id="filter0_f_77_2447" x="109.083" y="19.5632" width="16.9385" height="16.9389" filterUnits="userSpaceOnUse" color-interpolation-filters="sRGB">
<feFlood flood-opacity="0" result="BackgroundImageFix"/>
<feBlend mode="normal" in="SourceGraphic" in2="BackgroundImageFix" result="shape"/>
<feGaussianBlur stdDeviation="1" result="effect1_foregroundBlur_77_2447"/>
</filter>
<filter id="filter1_f_77_2447" x="111.592" y="22.0716" width="11.9209" height="11.9211" filterUnits="userSpaceOnUse" color-interpolation-filters="sRGB">
<feFlood flood-opacity="0" result="BackgroundImageFix"/>
<feBlend mode="normal" in="SourceGraphic" in2="BackgroundImageFix" result="shape"/>
<feGaussianBlur stdDeviation="0.5" result="effect1_foregroundBlur_77_2447"/>
</filter>
<filter id="filter2_f_77_2447" x="114.267" y="24.7488" width="6.56875" height="6.56835" filterUnits="userSpaceOnUse" color-interpolation-filters="sRGB">
<feFlood flood-opacity="0" result="BackgroundImageFix"/>
<feBlend mode="normal" in="SourceGraphic" in2="BackgroundImageFix" result="shape"/>
<feGaussianBlur stdDeviation="0.4" result="effect1_foregroundBlur_77_2447"/>
</filter>
<filter id="filter3_f_77_2447" x="109.101" y="19.5814" width="16.9033" height="16.9034" filterUnits="userSpaceOnUse" color-interpolation-filters="sRGB">
<feFlood flood-opacity="0" result="BackgroundImageFix"/>
<feBlend mode="normal" in="SourceGraphic" in2="BackgroundImageFix" result="shape"/>
<feGaussianBlur stdDeviation="1" result="effect1_foregroundBlur_77_2447"/>
</filter>
<filter id="filter4_f_77_2447" x="111.605" y="22.0868" width="11.8936" height="11.8938" filterUnits="userSpaceOnUse" color-interpolation-filters="sRGB">
<feFlood flood-opacity="0" result="BackgroundImageFix"/>
<feBlend mode="normal" in="SourceGraphic" in2="BackgroundImageFix" result="shape"/>
<feGaussianBlur stdDeviation="0.5" result="effect1_foregroundBlur_77_2447"/>
</filter>
<filter id="filter5_f_77_2447" x="114.275" y="24.7559" width="6.55508" height="6.55471" filterUnits="userSpaceOnUse" color-interpolation-filters="sRGB">
<feFlood flood-opacity="0" result="BackgroundImageFix"/>
<feBlend mode="normal" in="SourceGraphic" in2="BackgroundImageFix" result="shape"/>
<feGaussianBlur stdDeviation="0.4" result="effect1_foregroundBlur_77_2447"/>
</filter>
<filter id="filter6_f_77_2447" x="19.083" y="43.2981" width="16.9385" height="16.9389" filterUnits="userSpaceOnUse" color-interpolation-filters="sRGB">
<feFlood flood-opacity="0" result="BackgroundImageFix"/>
<feBlend mode="normal" in="SourceGraphic" in2="BackgroundImageFix" result="shape"/>
<feGaussianBlur stdDeviation="1" result="effect1_foregroundBlur_77_2447"/>
</filter>
<filter id="filter7_f_77_2447" x="21.5918" y="45.8065" width="11.9209" height="11.9211" filterUnits="userSpaceOnUse" color-interpolation-filters="sRGB">
<feFlood flood-opacity="0" result="BackgroundImageFix"/>
<feBlend mode="normal" in="SourceGraphic" in2="BackgroundImageFix" result="shape"/>
<feGaussianBlur stdDeviation="0.5" result="effect1_foregroundBlur_77_2447"/>
</filter>
<filter id="filter8_f_77_2447" x="24.2674" y="48.4836" width="6.56875" height="6.56835" filterUnits="userSpaceOnUse" color-interpolation-filters="sRGB">
<feFlood flood-opacity="0" result="BackgroundImageFix"/>
<feBlend mode="normal" in="SourceGraphic" in2="BackgroundImageFix" result="shape"/>
<feGaussianBlur stdDeviation="0.4" result="effect1_foregroundBlur_77_2447"/>
</filter>
<filter id="filter9_f_77_2447" x="19.1006" y="43.3162" width="16.9033" height="16.9034" filterUnits="userSpaceOnUse" color-interpolation-filters="sRGB">
<feFlood flood-opacity="0" result="BackgroundImageFix"/>
<feBlend mode="normal" in="SourceGraphic" in2="BackgroundImageFix" result="shape"/>
<feGaussianBlur stdDeviation="1" result="effect1_foregroundBlur_77_2447"/>
</filter>
<filter id="filter10_f_77_2447" x="21.6055" y="45.8217" width="11.8936" height="11.8938" filterUnits="userSpaceOnUse" color-interpolation-filters="sRGB">
<feFlood flood-opacity="0" result="BackgroundImageFix"/>
<feBlend mode="normal" in="SourceGraphic" in2="BackgroundImageFix" result="shape"/>
<feGaussianBlur stdDeviation="0.5" result="effect1_foregroundBlur_77_2447"/>
</filter>
<filter id="filter11_f_77_2447" x="24.2752" y="48.4907" width="6.55508" height="6.55471" filterUnits="userSpaceOnUse" color-interpolation-filters="sRGB">
<feFlood flood-opacity="0" result="BackgroundImageFix"/>
<feBlend mode="normal" in="SourceGraphic" in2="BackgroundImageFix" result="shape"/>
<feGaussianBlur stdDeviation="0.4" result="effect1_foregroundBlur_77_2447"/>
</filter>
<filter id="filter12_f_77_2447" x="119.083" y="140.083" width="16.9385" height="16.9389" filterUnits="userSpaceOnUse" color-interpolation-filters="sRGB">
<feFlood flood-opacity="0" result="BackgroundImageFix"/>
<feBlend mode="normal" in="SourceGraphic" in2="BackgroundImageFix" result="shape"/>
<feGaussianBlur stdDeviation="1" result="effect1_foregroundBlur_77_2447"/>
</filter>
<filter id="filter13_f_77_2447" x="121.592" y="142.591" width="11.9209" height="11.9211" filterUnits="userSpaceOnUse" color-interpolation-filters="sRGB">
<feFlood flood-opacity="0" result="BackgroundImageFix"/>
<feBlend mode="normal" in="SourceGraphic" in2="BackgroundImageFix" result="shape"/>
<feGaussianBlur stdDeviation="0.5" result="effect1_foregroundBlur_77_2447"/>
</filter>
<filter id="filter14_f_77_2447" x="124.267" y="145.269" width="6.56875" height="6.56838" filterUnits="userSpaceOnUse" color-interpolation-filters="sRGB">
<feFlood flood-opacity="0" result="BackgroundImageFix"/>
<feBlend mode="normal" in="SourceGraphic" in2="BackgroundImageFix" result="shape"/>
<feGaussianBlur stdDeviation="0.4" result="effect1_foregroundBlur_77_2447"/>
</filter>
<filter id="filter15_f_77_2447" x="119.101" y="140.101" width="16.9033" height="16.9034" filterUnits="userSpaceOnUse" color-interpolation-filters="sRGB">
<feFlood flood-opacity="0" result="BackgroundImageFix"/>
<feBlend mode="normal" in="SourceGraphic" in2="BackgroundImageFix" result="shape"/>
<feGaussianBlur stdDeviation="1" result="effect1_foregroundBlur_77_2447"/>
</filter>
<filter id="filter16_f_77_2447" x="121.605" y="142.607" width="11.8936" height="11.8938" filterUnits="userSpaceOnUse" color-interpolation-filters="sRGB">
<feFlood flood-opacity="0" result="BackgroundImageFix"/>
<feBlend mode="normal" in="SourceGraphic" in2="BackgroundImageFix" result="shape"/>
<feGaussianBlur stdDeviation="0.5" result="effect1_foregroundBlur_77_2447"/>
</filter>
<filter id="filter17_f_77_2447" x="124.275" y="145.276" width="6.55508" height="6.55471" filterUnits="userSpaceOnUse" color-interpolation-filters="sRGB">
<feFlood flood-opacity="0" result="BackgroundImageFix"/>
<feBlend mode="normal" in="SourceGraphic" in2="BackgroundImageFix" result="shape"/>
<feGaussianBlur stdDeviation="0.4" result="effect1_foregroundBlur_77_2447"/>
</filter>
<radialGradient id="paint0_radial_77_2447" cx="0" cy="0" r="1" gradientUnits="userSpaceOnUse" gradientTransform="translate(1.41559 19.4124) rotate(90) scale(19.4124 1.41559)">
<stop offset="0.0364583" stop-color="#0071FF"/>
<stop offset="1" stop-color="#0071FF" stop-opacity="0"/>
</radialGradient>
<radialGradient id="paint1_radial_77_2447" cx="0" cy="0" r="1" gradientUnits="userSpaceOnUse" gradientTransform="translate(1.4195 19.3588) rotate(90) scale(19.3588 1.4195)">
<stop offset="0.0364583" stop-color="#0071FF"/>
<stop offset="1" stop-color="#0071FF" stop-opacity="0"/>
</radialGradient>
<radialGradient id="paint2_radial_77_2447" cx="0" cy="0" r="1" gradientUnits="userSpaceOnUse" gradientTransform="translate(1.41559 19.4124) rotate(90) scale(19.4124 1.41559)">
<stop offset="0.0364583" stop-color="#0071FF"/>
<stop offset="1" stop-color="#0071FF" stop-opacity="0"/>
</radialGradient>
<radialGradient id="paint3_radial_77_2447" cx="0" cy="0" r="1" gradientUnits="userSpaceOnUse" gradientTransform="translate(1.4195 19.3588) rotate(90) scale(19.3588 1.4195)">
<stop offset="0.0364583" stop-color="#0071FF"/>
<stop offset="1" stop-color="#0071FF" stop-opacity="0"/>
</radialGradient>
<radialGradient id="paint4_radial_77_2447" cx="0" cy="0" r="1" gradientUnits="userSpaceOnUse" gradientTransform="translate(1.41559 19.4124) rotate(90) scale(19.4124 1.41559)">
<stop offset="0.0364583" stop-color="#0071FF"/>
<stop offset="1" stop-color="#0071FF" stop-opacity="0"/>
</radialGradient>
<radialGradient id="paint5_radial_77_2447" cx="0" cy="0" r="1" gradientUnits="userSpaceOnUse" gradientTransform="translate(1.4195 19.3588) rotate(90) scale(19.3588 1.4195)">
<stop offset="0.0364583" stop-color="#0071FF"/>
<stop offset="1" stop-color="#0071FF" stop-opacity="0"/>
</radialGradient>
</defs>
</svg>
