<svg width="66" height="66" viewBox="0 0 66 66" fill="none" xmlns="http://www.w3.org/2000/svg">
<g clip-path="url(#clip0_100_21374)">
<path d="M61.6714 54.5031H58.8037V47.3339C58.8037 46.9536 58.6525 46.589 58.3836 46.3201L49.4182 37.7033C49.1478 37.4421 48.7856 37.2976 48.4097 37.3008C48.0337 37.3041 47.6741 37.4549 47.4082 37.7207C47.1424 37.9866 46.9916 38.3462 46.9883 38.7222C46.9851 39.0981 47.1296 39.4603 47.3908 39.7307L55.936 47.9275V54.5031H53.0683C52.6881 54.5031 52.3234 54.6542 52.0545 54.9231C51.7856 55.192 51.6345 55.5567 51.6345 55.9369V64.54C51.6345 64.9203 51.7856 65.285 52.0545 65.5539C52.3234 65.8228 52.6881 65.9739 53.0683 65.9739H61.6714C62.0517 65.9739 62.4164 65.8228 62.6853 65.5539C62.9542 65.285 63.1053 64.9203 63.1053 64.54V55.9369C63.1053 55.5567 62.9542 55.192 62.6853 54.9231C62.4164 54.6542 62.0517 54.5031 61.6714 54.5031Z" fill="url(#paint0_linear_100_21374)"/>
<path d="M17.9372 40.1487C18.1984 39.8783 18.3429 39.5161 18.3397 39.1401C18.3364 38.7642 18.1856 38.4046 17.9197 38.1387C17.6539 37.8729 17.2943 37.7221 16.9183 37.7188C16.5424 37.7155 16.1802 37.8601 15.9098 38.1212L7.61229 46.3209C7.34337 46.5898 7.19225 46.9544 7.19217 47.3347V54.5039H4.32447C3.94419 54.5039 3.57949 54.655 3.31059 54.9239C3.04169 55.1928 2.89063 55.5575 2.89062 55.9378V64.5409C2.89063 64.9211 3.04169 65.2859 3.31059 65.5548C3.57949 65.8236 3.94419 65.9747 4.32447 65.9747H12.9276C13.3078 65.9747 13.6725 65.8236 13.9414 65.5548C14.2103 65.2859 14.3614 64.9211 14.3614 64.5409V55.9378C14.3614 55.5575 14.2103 55.1928 13.9414 54.9239C13.6725 54.655 13.3078 54.5039 12.9276 54.5039H10.0599V47.9283L17.9372 40.1487Z" fill="url(#paint1_linear_100_21374)"/>
<path d="M34.431 54.7122V51.6409C34.431 51.2606 34.2799 50.8959 34.011 50.627C33.7421 50.3581 33.3774 50.207 32.9971 50.207C32.6168 50.207 32.2521 50.3581 31.9832 50.627C31.7143 50.8959 31.5633 51.2606 31.5633 51.6409V54.7122C30.2116 55.0612 29.0337 55.8911 28.2502 57.0465C27.4668 58.2019 27.1315 59.6033 27.3074 60.9881C27.4833 62.373 28.1583 63.6461 29.2057 64.5689C30.2531 65.4917 31.6012 66.0008 32.9971 66.0008C34.3931 66.0008 35.7411 65.4917 36.7886 64.5689C37.836 63.6461 38.5109 62.373 38.6868 60.9881C38.8627 59.6033 38.5275 58.2019 37.744 57.0465C36.9606 55.8911 35.7826 55.0612 34.431 54.7122Z" fill="url(#paint2_linear_100_21374)"/>
<path d="M4.37077 11.4971L7.23846 11.4971L7.23846 18.6663C7.23854 19.0466 7.38966 19.4112 7.65858 19.6801L18.1364 29.6678C18.4069 29.929 18.7691 30.0735 19.145 30.0703C19.521 30.067 19.8806 29.9162 20.1464 29.6503C20.4123 29.3845 20.5631 29.0249 20.5664 28.6489C20.5696 28.273 20.4251 27.9108 20.1639 27.6404L10.1062 18.0727L10.1062 11.4971L12.9739 11.4971C13.3541 11.4971 13.7188 11.346 13.9877 11.0771C14.2566 10.8082 14.4077 10.4435 14.4077 10.0632L14.4077 1.46016C14.4077 1.07988 14.2566 0.715172 13.9877 0.446274C13.7188 0.177376 13.3541 0.0263098 12.9739 0.0263098L4.37077 0.0263096C3.99049 0.0263096 3.62578 0.177375 3.35688 0.446273C3.08798 0.715171 2.93692 1.07988 2.93692 1.46016L2.93691 10.0632C2.93691 10.4435 3.08798 10.8082 3.35688 11.0771C3.62577 11.346 3.99049 11.4971 4.37077 11.4971Z" fill="url(#paint3_linear_100_21374)"/>
<path d="M46.2545 28.0779C45.9933 28.3483 45.8488 28.7105 45.852 29.0864C45.8553 29.4624 46.0061 29.822 46.272 30.0878C46.5378 30.3537 46.8974 30.5045 47.2734 30.5078C47.6493 30.511 48.0115 30.3665 48.282 30.1053L58.4307 19.6792C58.6996 19.4103 58.8507 19.0457 58.8508 18.6654L58.8508 11.4962L61.7185 11.4962C62.0988 11.4962 62.4635 11.3451 62.7324 11.0762C63.0013 10.8073 63.1523 10.4426 63.1523 10.0623L63.1523 1.45925C63.1523 1.07897 63.0013 0.714262 62.7324 0.445364C62.4635 0.176466 62.0988 0.0254001 61.7185 0.0254001L53.1154 0.0253999C52.7351 0.0253999 52.3704 0.176466 52.1015 0.445364C51.8326 0.714262 51.6816 1.07897 51.6816 1.45925L51.6816 10.0623C51.6816 10.4426 51.8326 10.8073 52.1015 11.0762C52.3704 11.3451 52.7351 11.4962 53.1154 11.4962L55.9831 11.4962L55.9831 18.0718L46.2545 28.0779Z" fill="url(#paint4_linear_100_21374)"/>
<path d="M31.612 11.2866L31.612 13.2146C31.612 13.5949 31.7631 13.9596 32.032 14.2285C32.3009 14.4974 32.6656 14.6484 33.0458 14.6484C33.4261 14.6484 33.7908 14.4974 34.0597 14.2285C34.3286 13.9596 34.4797 13.5949 34.4797 13.2146L34.4797 11.2866C35.8313 10.9376 37.0093 10.1076 37.7927 8.95223C38.5762 7.79687 38.9114 6.39543 38.7355 5.0106C38.5596 3.62577 37.8847 2.35262 36.8373 1.42982C35.7898 0.507007 34.4418 -0.00211344 33.0458 -0.00211348C31.6499 -0.00211351 30.3018 0.507006 29.2544 1.42982C28.207 2.35262 27.5321 3.62577 27.3562 5.0106C27.1803 6.39543 27.5155 7.79687 28.2989 8.95223C29.0824 10.1076 30.2604 10.9376 31.612 11.2866Z" fill="url(#paint5_linear_100_21374)"/>
<g filter="url(#filter0_b_100_21374)">
<mask id="path-7-inside-1_100_21374" fill="white">
<path fill-rule="evenodd" clip-rule="evenodd" d="M13.6406 32.2637C13.6406 21.5525 22.3337 12.8594 33.0449 12.8594C43.7561 12.8594 52.4492 21.5525 52.4492 32.2637C52.4492 42.9748 43.7561 51.668 33.0449 51.668C22.3337 51.668 13.6406 42.9748 13.6406 32.2637ZM37.896 42.7032C42.1649 42.7032 43.4844 41.3837 43.4844 37.1147V35.1743C43.4844 31.8562 42.6889 30.3232 40.3215 29.7993V28.3828C40.3215 26.5782 40.3215 21.1062 33.0449 21.1062C25.7683 21.1062 25.7683 26.5782 25.7683 28.3828V29.7993C23.401 30.3232 22.6054 31.8562 22.6054 35.1743V37.1147C22.6054 41.3837 23.9249 42.7032 28.1938 42.7032H37.896ZM33.0417 24.0195C29.3743 24.0195 28.6758 25.5525 28.6758 28.3855V29.5886H37.4077V28.3855C37.4077 25.5525 36.7092 24.0195 33.0417 24.0195ZM33.0407 38.2768C34.2196 38.2768 35.1752 37.3211 35.1752 36.1423C35.1752 34.9634 34.2196 34.0078 33.0407 34.0078C31.8619 34.0078 30.9062 34.9634 30.9062 36.1423C30.9062 37.3211 31.8619 38.2768 33.0407 38.2768Z"/>
</mask>
<path fill-rule="evenodd" clip-rule="evenodd" d="M13.6406 32.2637C13.6406 21.5525 22.3337 12.8594 33.0449 12.8594C43.7561 12.8594 52.4492 21.5525 52.4492 32.2637C52.4492 42.9748 43.7561 51.668 33.0449 51.668C22.3337 51.668 13.6406 42.9748 13.6406 32.2637ZM37.896 42.7032C42.1649 42.7032 43.4844 41.3837 43.4844 37.1147V35.1743C43.4844 31.8562 42.6889 30.3232 40.3215 29.7993V28.3828C40.3215 26.5782 40.3215 21.1062 33.0449 21.1062C25.7683 21.1062 25.7683 26.5782 25.7683 28.3828V29.7993C23.401 30.3232 22.6054 31.8562 22.6054 35.1743V37.1147C22.6054 41.3837 23.9249 42.7032 28.1938 42.7032H37.896ZM33.0417 24.0195C29.3743 24.0195 28.6758 25.5525 28.6758 28.3855V29.5886H37.4077V28.3855C37.4077 25.5525 36.7092 24.0195 33.0417 24.0195ZM33.0407 38.2768C34.2196 38.2768 35.1752 37.3211 35.1752 36.1423C35.1752 34.9634 34.2196 34.0078 33.0407 34.0078C31.8619 34.0078 30.9062 34.9634 30.9062 36.1423C30.9062 37.3211 31.8619 38.2768 33.0407 38.2768Z" fill="#0B2268"/>
<path d="M40.3215 29.7993H39.6863V30.3094L40.1843 30.4196L40.3215 29.7993ZM25.7683 29.7993L25.9056 30.4196L26.4036 30.3094V29.7993H25.7683ZM28.6758 29.5886H28.0405V30.2238H28.6758V29.5886ZM37.4077 29.5886V30.2238H38.043V29.5886H37.4077ZM33.0449 12.2241C21.9829 12.2241 13.0054 21.2016 13.0054 32.2637H14.2759C14.2759 21.9034 22.6846 13.4946 33.0449 13.4946V12.2241ZM53.0845 32.2637C53.0845 21.2016 44.1069 12.2241 33.0449 12.2241V13.4946C43.4052 13.4946 51.8139 21.9034 51.8139 32.2637H53.0845ZM33.0449 52.3032C44.1069 52.3032 53.0845 43.3257 53.0845 32.2637H51.8139C51.8139 42.624 43.4052 51.0327 33.0449 51.0327V52.3032ZM13.0054 32.2637C13.0054 43.3257 21.9829 52.3032 33.0449 52.3032V51.0327C22.6846 51.0327 14.2759 42.624 14.2759 32.2637H13.0054ZM42.8492 37.1147C42.8492 39.2249 42.513 40.3895 41.8419 41.0606C41.1708 41.7317 40.0062 42.0679 37.896 42.0679V43.3385C40.0548 43.3385 41.6844 43.0149 42.7403 41.959C43.7961 40.9032 44.1197 39.2735 44.1197 37.1147H42.8492ZM42.8492 35.1743V37.1147H44.1197V35.1743H42.8492ZM40.1843 30.4196C41.2412 30.6535 41.8555 31.0846 42.2395 31.7548C42.6491 32.4696 42.8492 33.5435 42.8492 35.1743H44.1197C44.1197 33.487 43.9219 32.1353 43.3419 31.1231C42.7363 30.0664 41.7691 29.4691 40.4588 29.1791L40.1843 30.4196ZM39.6863 28.3828V29.7993H40.9568V28.3828H39.6863ZM33.0449 21.7415C36.4952 21.7415 38.0823 23.0197 38.8602 24.3827C39.6767 25.8132 39.6863 27.4722 39.6863 28.3828H40.9568C40.9568 27.4889 40.9663 25.5095 39.9637 23.7529C38.9225 21.9287 36.8712 20.4709 33.0449 20.4709V21.7415ZM26.4036 28.3828C26.4036 27.4722 26.4131 25.8132 27.2296 24.3827C28.0076 23.0197 29.5946 21.7415 33.0449 21.7415V20.4709C29.2186 20.4709 27.1674 21.9287 26.1262 23.7529C25.1235 25.5095 25.133 27.4889 25.133 28.3828H26.4036ZM26.4036 29.7993V28.3828H25.133V29.7993H26.4036ZM23.2407 35.1743C23.2407 33.5435 23.4407 32.4696 23.8503 31.7548C24.2343 31.0846 24.8486 30.6535 25.9056 30.4196L25.631 29.1791C24.3207 29.4691 23.3535 30.0664 22.7479 31.1231C22.1679 32.1353 21.9701 33.487 21.9701 35.1743H23.2407ZM23.2407 37.1147V35.1743H21.9701V37.1147H23.2407ZM28.1938 42.0679C26.0837 42.0679 24.9191 41.7317 24.248 41.0606C23.5769 40.3895 23.2407 39.2249 23.2407 37.1147H21.9701C21.9701 39.2735 22.2937 40.9032 23.3496 41.959C24.4054 43.0149 26.0351 43.3385 28.1938 43.3385V42.0679ZM37.896 42.0679H28.1938V43.3385H37.896V42.0679ZM29.3111 28.3855C29.3111 26.9807 29.4949 26.102 29.9655 25.554C30.4156 25.0297 31.2696 24.6548 33.0417 24.6548V23.3843C31.1465 23.3843 29.8175 23.7759 29.0015 24.7263C28.2059 25.653 28.0405 26.9572 28.0405 28.3855H29.3111ZM29.3111 29.5886V28.3855H28.0405V29.5886H29.3111ZM37.4077 28.9533H28.6758V30.2238H37.4077V28.9533ZM36.7724 28.3855V29.5886H38.043V28.3855H36.7724ZM33.0417 24.6548C34.8139 24.6548 35.6679 25.0297 36.118 25.554C36.5886 26.102 36.7724 26.9807 36.7724 28.3855H38.043C38.043 26.9572 37.8776 25.653 37.082 24.7263C36.266 23.7759 34.937 23.3843 33.0417 23.3843V24.6548ZM34.5399 36.1423C34.5399 36.9703 33.8687 37.6415 33.0407 37.6415V38.912C34.5704 38.912 35.8105 37.672 35.8105 36.1423H34.5399ZM33.0407 34.6431C33.8687 34.6431 34.5399 35.3143 34.5399 36.1423H35.8105C35.8105 34.6126 34.5704 33.3725 33.0407 33.3725V34.6431ZM31.5415 36.1423C31.5415 35.3143 32.2127 34.6431 33.0407 34.6431V33.3725C31.511 33.3725 30.271 34.6126 30.271 36.1423H31.5415ZM33.0407 37.6415C32.2127 37.6415 31.5415 36.9703 31.5415 36.1423H30.271C30.271 37.672 31.511 38.912 33.0407 38.912V37.6415Z" fill="url(#paint6_linear_100_21374)" mask="url(#path-7-inside-1_100_21374)"/>
</g>
</g>
<defs>
<filter id="filter0_b_100_21374" x="9.79049" y="9.00924" width="46.5089" height="46.5089" filterUnits="userSpaceOnUse" color-interpolation-filters="sRGB">
<feFlood flood-opacity="0" result="BackgroundImageFix"/>
<feGaussianBlur in="BackgroundImageFix" stdDeviation="1.92507"/>
<feComposite in2="SourceAlpha" operator="in" result="effect1_backgroundBlur_100_21374"/>
<feBlend mode="normal" in="SourceGraphic" in2="effect1_backgroundBlur_100_21374" result="shape"/>
</filter>
<linearGradient id="paint0_linear_100_21374" x1="50.943" y1="65.9758" x2="59.4148" y2="42.8991" gradientUnits="userSpaceOnUse">
<stop stop-color="#3F70D8"/>
<stop offset="1" stop-color="#E2EEFE"/>
</linearGradient>
<linearGradient id="paint1_linear_100_21374" x1="6.68149" y1="65.9766" x2="15.2066" y2="43.3883" gradientUnits="userSpaceOnUse">
<stop stop-color="#3F70D8"/>
<stop offset="1" stop-color="#E2EEFE"/>
</linearGradient>
<linearGradient id="paint2_linear_100_21374" x1="30.0764" y1="66.0019" x2="33.8685" y2="52.655" gradientUnits="userSpaceOnUse">
<stop stop-color="#3F70D8"/>
<stop offset="1" stop-color="#E2EEFE"/>
</linearGradient>
<linearGradient id="paint3_linear_100_21374" x1="15.0999" y1="0.0242347" x2="6.62819" y2="23.1009" gradientUnits="userSpaceOnUse">
<stop stop-color="#3F70D8"/>
<stop offset="1" stop-color="#E2EEFE"/>
</linearGradient>
<linearGradient id="paint4_linear_100_21374" x1="59.3615" y1="0.0234432" x2="50.8364" y2="22.6117" gradientUnits="userSpaceOnUse">
<stop stop-color="#3F70D8"/>
<stop offset="1" stop-color="#E2EEFE"/>
</linearGradient>
<linearGradient id="paint5_linear_100_21374" x1="35.9666" y1="-0.00188159" x2="32.1745" y2="13.345" gradientUnits="userSpaceOnUse">
<stop stop-color="#3F70D8"/>
<stop offset="1" stop-color="#E2EEFE"/>
</linearGradient>
<linearGradient id="paint6_linear_100_21374" x1="33.0449" y1="12.8594" x2="33.0449" y2="51.668" gradientUnits="userSpaceOnUse">
<stop stop-color="#D3E3FF"/>
<stop offset="1" stop-color="#B1CAF1" stop-opacity="0.15"/>
</linearGradient>
<clipPath id="clip0_100_21374">
<rect width="66" height="66" fill="white"/>
</clipPath>
</defs>
</svg>
