<svg width="80" height="80" viewBox="0 0 80 80" fill="none" xmlns="http://www.w3.org/2000/svg">
<g clip-path="url(#clip0_16_1035)">
<g filter="url(#filter0_b_16_1035)">
<circle cx="40" cy="40" r="40" fill="url(#paint0_radial_16_1035)" fill-opacity="0.65"/>
<circle cx="40" cy="40" r="39.75" stroke="url(#paint1_linear_16_1035)" stroke-opacity="0.36" stroke-width="0.499936"/>
</g>
<g filter="url(#filter1_ddd_16_1035)">
<path d="M13.3709 15.293C9.71378 15.293 9.71378 11.6359 9.71378 11.6359C9.71378 15.293 6.05664 15.293 6.05664 15.293C9.71378 15.293 9.71378 18.9501 9.71378 18.9501C9.71378 15.293 13.3709 15.293 13.3709 15.293Z" fill="white"/>
</g>
<path d="M9.71401 11.6374C9.71401 11.6374 9.71401 15.2945 13.3711 15.2945M9.71401 11.6374C9.71401 15.2945 6.05686 15.2945 6.05686 15.2945M9.71401 11.6374V10.7231M13.3711 15.2945C13.3711 15.2945 9.71401 15.2945 9.71401 18.9517M13.3711 15.2945H14.2854M6.05686 15.2945C9.71401 15.2945 9.71401 18.9517 9.71401 18.9517M6.05686 15.2945H5.14258M9.71401 18.9517V19.8659" stroke="white" stroke-width="1.14704" stroke-linecap="round" stroke-linejoin="round"/>
<path d="M35.9993 53.3335H43.9993C50.666 53.3335 53.3327 50.6669 53.3327 44.0002V36.0002C53.3327 29.3335 50.666 26.6669 43.9993 26.6669H35.9993C29.3327 26.6669 26.666 29.3335 26.666 36.0002V44.0002C26.666 50.6669 29.3327 53.3335 35.9993 53.3335Z" stroke="white" stroke-width="2.08307" stroke-linecap="round" stroke-linejoin="round"/>
<path d="M48 32L32 48" stroke="white" stroke-width="2.08307" stroke-linecap="round" stroke-linejoin="round"/>
<path d="M47.9993 37.3333V32H42.666" stroke="white" stroke-width="2.08307" stroke-linecap="round" stroke-linejoin="round"/>
<path d="M32 42.6669V48.0002H37.3333" stroke="white" stroke-width="2.08307" stroke-linecap="round" stroke-linejoin="round"/>
<path d="M67.697 8.34069C67.697 8.34069 67.697 11.0936 70.4499 11.0936M67.697 8.34069C67.697 11.0936 64.9441 11.0936 64.9441 11.0936M67.697 8.34069V7.65247M70.4499 11.0936C70.4499 11.0936 67.697 11.0936 67.697 13.8465M70.4499 11.0936H71.1381M64.9441 11.0936C67.697 11.0936 67.697 13.8465 67.697 13.8465M64.9441 11.0936H64.2559M67.697 13.8465V14.5347" stroke="#207BC4" stroke-width="0.860279" stroke-linecap="round" stroke-linejoin="round"/>
<path d="M71.4386 60.6766C71.4386 60.6766 71.4386 62.5119 73.2739 62.5119M71.4386 60.6766C71.4386 62.5119 69.6033 62.5119 69.6033 62.5119M71.4386 60.6766V60.2178M73.2739 62.5119C73.2739 62.5119 71.4386 62.5119 71.4386 64.3471M73.2739 62.5119H73.7327M69.6033 62.5119C71.4386 62.5119 71.4386 64.3471 71.4386 64.3471M69.6033 62.5119H69.1445M71.4386 64.3471V64.806" stroke="white" stroke-width="0.573519" stroke-linecap="round" stroke-linejoin="round"/>
</g>
<defs>
<filter id="filter0_b_16_1035" x="-5.14903" y="-5.14903" width="90.2981" height="90.2981" filterUnits="userSpaceOnUse" color-interpolation-filters="sRGB">
<feFlood flood-opacity="0" result="BackgroundImageFix"/>
<feGaussianBlur in="BackgroundImageFix" stdDeviation="2.57452"/>
<feComposite in2="SourceAlpha" operator="in" result="effect1_backgroundBlur_16_1035"/>
<feBlend mode="normal" in="SourceGraphic" in2="effect1_backgroundBlur_16_1035" result="shape"/>
</filter>
<filter id="filter1_ddd_16_1035" x="-0.418165" y="5.16106" width="20.2641" height="20.2639" filterUnits="userSpaceOnUse" color-interpolation-filters="sRGB">
<feFlood flood-opacity="0" result="BackgroundImageFix"/>
<feColorMatrix in="SourceAlpha" type="matrix" values="0 0 0 0 0 0 0 0 0 0 0 0 0 0 0 0 0 0 127 0" result="hardAlpha"/>
<feOffset/>
<feGaussianBlur stdDeviation="0.462486"/>
<feColorMatrix type="matrix" values="0 0 0 0 1 0 0 0 0 1 0 0 0 0 1 0 0 0 1 0"/>
<feBlend mode="normal" in2="BackgroundImageFix" result="effect1_dropShadow_16_1035"/>
<feColorMatrix in="SourceAlpha" type="matrix" values="0 0 0 0 0 0 0 0 0 0 0 0 0 0 0 0 0 0 127 0" result="hardAlpha"/>
<feOffset/>
<feGaussianBlur stdDeviation="0.924972"/>
<feColorMatrix type="matrix" values="0 0 0 0 1 0 0 0 0 1 0 0 0 0 1 0 0 0 1 0"/>
<feBlend mode="normal" in2="effect1_dropShadow_16_1035" result="effect2_dropShadow_16_1035"/>
<feColorMatrix in="SourceAlpha" type="matrix" values="0 0 0 0 0 0 0 0 0 0 0 0 0 0 0 0 0 0 127 0" result="hardAlpha"/>
<feOffset/>
<feGaussianBlur stdDeviation="3.2374"/>
<feColorMatrix type="matrix" values="0 0 0 0 1 0 0 0 0 1 0 0 0 0 1 0 0 0 1 0"/>
<feBlend mode="normal" in2="effect2_dropShadow_16_1035" result="effect3_dropShadow_16_1035"/>
<feBlend mode="normal" in="SourceGraphic" in2="effect3_dropShadow_16_1035" result="shape"/>
</filter>
<radialGradient id="paint0_radial_16_1035" cx="0" cy="0" r="1" gradientUnits="userSpaceOnUse" gradientTransform="translate(40 43.3962) rotate(126.637) scale(38.5577 43.2368)">
<stop stop-color="#0F1565"/>
<stop offset="1" stop-color="#1A24B0"/>
</radialGradient>
<linearGradient id="paint1_linear_16_1035" x1="-2.41935" y1="-2.84999" x2="95.2203" y2="42.6338" gradientUnits="userSpaceOnUse">
<stop stop-color="white" stop-opacity="0.9"/>
<stop offset="1" stop-color="white" stop-opacity="0"/>
</linearGradient>
<clipPath id="clip0_16_1035">
<rect width="80" height="80" fill="white"/>
</clipPath>
</defs>
</svg>
