<svg width="155" height="167" viewBox="0 0 155 167" fill="none" xmlns="http://www.w3.org/2000/svg">
<ellipse cx="1.41559" cy="19.4124" rx="1.41559" ry="19.4124" transform="matrix(0.703575 -0.71062 -0.707107 -0.707107 139.282 42.695)" fill="url(#paint0_radial_77_2448)"/>
<g filter="url(#filter0_f_77_2448)">
<ellipse cx="126.552" cy="27.9629" rx="9.14104" ry="0.383095" transform="rotate(45 126.552 27.9629)" fill="#4566E8"/>
</g>
<g filter="url(#filter1_f_77_2448)">
<ellipse cx="126.552" cy="27.9623" rx="7.00899" ry="0.293743" transform="rotate(45 126.552 27.9623)" fill="#2D43FF"/>
</g>
<g filter="url(#filter2_f_77_2448)">
<ellipse cx="126.552" cy="27.9631" rx="3.51002" ry="0.147369" transform="rotate(45 126.552 27.9631)" fill="white"/>
</g>
<ellipse cx="1.4195" cy="19.3588" rx="1.4195" ry="19.3588" transform="matrix(0.710601 0.703595 0.707107 -0.707107 111.854 40.652)" fill="url(#paint1_radial_77_2448)"/>
<g filter="url(#filter3_f_77_2448)">
<ellipse cx="126.552" cy="27.9632" rx="9.11584" ry="0.384154" transform="rotate(135 126.552 27.9632)" fill="#4566E8"/>
</g>
<g filter="url(#filter4_f_77_2448)">
<ellipse cx="126.553" cy="27.9639" rx="6.98967" ry="0.294274" transform="rotate(135 126.553 27.9639)" fill="#2D43FF"/>
</g>
<ellipse cx="126.554" cy="27.964" rx="5.10589" ry="0.294274" transform="rotate(135 126.554 27.964)" fill="#2D43FF"/>
<ellipse cx="126.554" cy="27.964" rx="5.10589" ry="0.294274" transform="rotate(45 126.554 27.964)" fill="#2D43FF"/>
<g filter="url(#filter5_f_77_2448)">
<ellipse cx="126.553" cy="27.9634" rx="3.50034" ry="0.147369" transform="rotate(135 126.553 27.9634)" fill="white"/>
</g>
<ellipse cx="126.553" cy="27.9634" rx="3.50034" ry="0.147369" transform="rotate(135 126.553 27.9634)" fill="white"/>
<ellipse cx="126.553" cy="27.9629" rx="3.51002" ry="0.147369" transform="rotate(45 126.553 27.9629)" fill="white"/>
<path d="M127.456 27.2512C127.408 27.1711 127.438 27.2135 127.369 27.1444C127.309 27.084 127.342 27.1078 127.273 27.0635L127.265 27.0695C126.842 27.39 126.258 27.3875 125.838 27.0635C125.771 27.1072 125.792 27.0828 125.733 27.1421C125.666 27.2088 125.675 27.1741 125.628 27.2513L125.64 27.2674C125.959 27.686 125.954 28.2678 125.628 28.6808C125.672 28.7498 125.675 28.7179 125.735 28.7783C125.682 28.7746 125.758 28.8332 125.838 28.8812C126.264 28.5702 126.848 28.5681 127.273 28.8812C127.35 28.8343 127.305 28.8472 127.371 28.7805C127.431 28.7212 127.413 28.7485 127.456 28.6808C127.141 28.2699 127.132 27.7011 127.435 27.2809L127.456 27.2512Z" fill="white"/>
<ellipse cx="1.41559" cy="19.4124" rx="1.41559" ry="19.4124" transform="matrix(0.703575 -0.71062 -0.707107 -0.707107 40.7295 80.3618)" fill="url(#paint2_radial_77_2448)"/>
<g filter="url(#filter6_f_77_2448)">
<ellipse cx="27.9994" cy="65.6296" rx="9.14104" ry="0.383095" transform="rotate(45 27.9994 65.6296)" fill="#4566E8"/>
</g>
<g filter="url(#filter7_f_77_2448)">
<ellipse cx="27.9994" cy="65.6291" rx="7.00899" ry="0.293743" transform="rotate(45 27.9994 65.6291)" fill="#2D43FF"/>
</g>
<g filter="url(#filter8_f_77_2448)">
<ellipse cx="27.9988" cy="65.6299" rx="3.51002" ry="0.147369" transform="rotate(45 27.9988 65.6299)" fill="white"/>
</g>
<ellipse cx="1.4195" cy="19.3588" rx="1.4195" ry="19.3588" transform="matrix(0.710601 0.703595 0.707107 -0.707107 13.3018 78.3188)" fill="url(#paint3_radial_77_2448)"/>
<g filter="url(#filter9_f_77_2448)">
<ellipse cx="27.9993" cy="65.63" rx="9.11584" ry="0.384154" transform="rotate(135 27.9993 65.63)" fill="#4566E8"/>
</g>
<g filter="url(#filter10_f_77_2448)">
<ellipse cx="27.9999" cy="65.6307" rx="6.98967" ry="0.294274" transform="rotate(135 27.9999 65.6307)" fill="#2D43FF"/>
</g>
<ellipse cx="28.0008" cy="65.6308" rx="5.10589" ry="0.294274" transform="rotate(135 28.0008 65.6308)" fill="#2D43FF"/>
<ellipse cx="28.001" cy="65.6307" rx="5.10589" ry="0.294274" transform="rotate(45 28.001 65.6307)" fill="#2D43FF"/>
<g filter="url(#filter11_f_77_2448)">
<ellipse cx="27.9998" cy="65.6302" rx="3.50034" ry="0.147369" transform="rotate(135 27.9998 65.6302)" fill="white"/>
</g>
<ellipse cx="27.9998" cy="65.6302" rx="3.50034" ry="0.147369" transform="rotate(135 27.9998 65.6302)" fill="white"/>
<ellipse cx="27.9998" cy="65.6296" rx="3.51002" ry="0.147369" transform="rotate(45 27.9998 65.6296)" fill="white"/>
<path d="M28.9035 64.918C28.8555 64.8378 28.8856 64.8802 28.8165 64.8111C28.7561 64.7507 28.7889 64.7746 28.7199 64.7303L28.712 64.7363C28.2897 65.0567 27.7051 65.0542 27.2855 64.7303C27.2178 64.7739 27.2396 64.7495 27.1803 64.8088C27.1137 64.8755 27.1221 64.8409 27.0752 64.918L27.0875 64.9342C27.4067 65.3528 27.4017 65.9345 27.0752 66.3475C27.1195 66.4166 27.1222 66.3846 27.1826 66.445C27.1297 66.4414 27.2054 66.4999 27.2855 66.548C27.7117 66.2369 28.2952 66.2348 28.7199 66.548C28.797 66.501 28.7521 66.5139 28.8188 66.4473C28.8781 66.388 28.8598 66.4153 28.9035 66.3475C28.5884 65.9367 28.5797 65.3679 28.8821 64.9476L28.9035 64.918Z" fill="white"/>
<ellipse cx="1.41559" cy="19.4124" rx="1.41559" ry="19.4124" transform="matrix(0.703575 -0.71062 -0.707107 -0.707107 124.194 153.285)" fill="url(#paint4_radial_77_2448)"/>
<g filter="url(#filter12_f_77_2448)">
<ellipse cx="111.464" cy="138.552" rx="9.14104" ry="0.383095" transform="rotate(45 111.464 138.552)" fill="#4566E8"/>
</g>
<g filter="url(#filter13_f_77_2448)">
<ellipse cx="111.464" cy="138.552" rx="7.00899" ry="0.293743" transform="rotate(45 111.464 138.552)" fill="#2D43FF"/>
</g>
<g filter="url(#filter14_f_77_2448)">
<ellipse cx="111.464" cy="138.553" rx="3.51002" ry="0.147369" transform="rotate(45 111.464 138.553)" fill="white"/>
</g>
<ellipse cx="1.4195" cy="19.3588" rx="1.4195" ry="19.3588" transform="matrix(0.710601 0.703595 0.707107 -0.707107 96.7666 151.242)" fill="url(#paint5_radial_77_2448)"/>
<g filter="url(#filter15_f_77_2448)">
<ellipse cx="111.464" cy="138.553" rx="9.11584" ry="0.384154" transform="rotate(135 111.464 138.553)" fill="#4566E8"/>
</g>
<g filter="url(#filter16_f_77_2448)">
<ellipse cx="111.465" cy="138.554" rx="6.98967" ry="0.294274" transform="rotate(135 111.465 138.554)" fill="#2D43FF"/>
</g>
<ellipse cx="111.466" cy="138.554" rx="5.10589" ry="0.294274" transform="rotate(135 111.466 138.554)" fill="#2D43FF"/>
<ellipse cx="111.466" cy="138.554" rx="5.10589" ry="0.294274" transform="rotate(45 111.466 138.554)" fill="#2D43FF"/>
<g filter="url(#filter17_f_77_2448)">
<ellipse cx="111.465" cy="138.553" rx="3.50034" ry="0.147369" transform="rotate(135 111.465 138.553)" fill="white"/>
</g>
<ellipse cx="111.465" cy="138.553" rx="3.50034" ry="0.147369" transform="rotate(135 111.465 138.553)" fill="white"/>
<ellipse cx="111.465" cy="138.552" rx="3.51002" ry="0.147369" transform="rotate(45 111.465 138.552)" fill="white"/>
<path d="M112.368 137.841C112.32 137.761 112.35 137.803 112.281 137.734C112.221 137.674 112.254 137.697 112.185 137.653L112.177 137.659C111.755 137.98 111.17 137.977 110.75 137.653C110.683 137.697 110.704 137.672 110.645 137.732C110.579 137.798 110.587 137.764 110.54 137.841L110.552 137.857C110.872 138.276 110.867 138.857 110.54 139.27C110.584 139.339 110.587 139.307 110.647 139.368C110.595 139.364 110.67 139.423 110.75 139.471C111.177 139.16 111.76 139.158 112.185 139.471C112.262 139.424 112.217 139.437 112.284 139.37C112.343 139.311 112.325 139.338 112.368 139.27C112.053 138.86 112.045 138.291 112.347 137.87L112.368 137.841Z" fill="white"/>
<defs>
<filter id="filter0_f_77_2448" x="118.083" y="19.4934" width="16.9385" height="16.9389" filterUnits="userSpaceOnUse" color-interpolation-filters="sRGB">
<feFlood flood-opacity="0" result="BackgroundImageFix"/>
<feBlend mode="normal" in="SourceGraphic" in2="BackgroundImageFix" result="shape"/>
<feGaussianBlur stdDeviation="1" result="effect1_foregroundBlur_77_2448"/>
</filter>
<filter id="filter1_f_77_2448" x="120.592" y="22.0018" width="11.9209" height="11.9211" filterUnits="userSpaceOnUse" color-interpolation-filters="sRGB">
<feFlood flood-opacity="0" result="BackgroundImageFix"/>
<feBlend mode="normal" in="SourceGraphic" in2="BackgroundImageFix" result="shape"/>
<feGaussianBlur stdDeviation="0.5" result="effect1_foregroundBlur_77_2448"/>
</filter>
<filter id="filter2_f_77_2448" x="123.267" y="24.6789" width="6.56875" height="6.56835" filterUnits="userSpaceOnUse" color-interpolation-filters="sRGB">
<feFlood flood-opacity="0" result="BackgroundImageFix"/>
<feBlend mode="normal" in="SourceGraphic" in2="BackgroundImageFix" result="shape"/>
<feGaussianBlur stdDeviation="0.4" result="effect1_foregroundBlur_77_2448"/>
</filter>
<filter id="filter3_f_77_2448" x="118.101" y="19.5115" width="16.9033" height="16.9034" filterUnits="userSpaceOnUse" color-interpolation-filters="sRGB">
<feFlood flood-opacity="0" result="BackgroundImageFix"/>
<feBlend mode="normal" in="SourceGraphic" in2="BackgroundImageFix" result="shape"/>
<feGaussianBlur stdDeviation="1" result="effect1_foregroundBlur_77_2448"/>
</filter>
<filter id="filter4_f_77_2448" x="120.605" y="22.017" width="11.8936" height="11.8938" filterUnits="userSpaceOnUse" color-interpolation-filters="sRGB">
<feFlood flood-opacity="0" result="BackgroundImageFix"/>
<feBlend mode="normal" in="SourceGraphic" in2="BackgroundImageFix" result="shape"/>
<feGaussianBlur stdDeviation="0.5" result="effect1_foregroundBlur_77_2448"/>
</filter>
<filter id="filter5_f_77_2448" x="123.275" y="24.6861" width="6.55508" height="6.55471" filterUnits="userSpaceOnUse" color-interpolation-filters="sRGB">
<feFlood flood-opacity="0" result="BackgroundImageFix"/>
<feBlend mode="normal" in="SourceGraphic" in2="BackgroundImageFix" result="shape"/>
<feGaussianBlur stdDeviation="0.4" result="effect1_foregroundBlur_77_2448"/>
</filter>
<filter id="filter6_f_77_2448" x="19.5303" y="57.1601" width="16.9385" height="16.9389" filterUnits="userSpaceOnUse" color-interpolation-filters="sRGB">
<feFlood flood-opacity="0" result="BackgroundImageFix"/>
<feBlend mode="normal" in="SourceGraphic" in2="BackgroundImageFix" result="shape"/>
<feGaussianBlur stdDeviation="1" result="effect1_foregroundBlur_77_2448"/>
</filter>
<filter id="filter7_f_77_2448" x="22.0391" y="59.6685" width="11.9209" height="11.9211" filterUnits="userSpaceOnUse" color-interpolation-filters="sRGB">
<feFlood flood-opacity="0" result="BackgroundImageFix"/>
<feBlend mode="normal" in="SourceGraphic" in2="BackgroundImageFix" result="shape"/>
<feGaussianBlur stdDeviation="0.5" result="effect1_foregroundBlur_77_2448"/>
</filter>
<filter id="filter8_f_77_2448" x="24.7146" y="62.3457" width="6.56875" height="6.56835" filterUnits="userSpaceOnUse" color-interpolation-filters="sRGB">
<feFlood flood-opacity="0" result="BackgroundImageFix"/>
<feBlend mode="normal" in="SourceGraphic" in2="BackgroundImageFix" result="shape"/>
<feGaussianBlur stdDeviation="0.4" result="effect1_foregroundBlur_77_2448"/>
</filter>
<filter id="filter9_f_77_2448" x="19.5479" y="57.1783" width="16.9033" height="16.9034" filterUnits="userSpaceOnUse" color-interpolation-filters="sRGB">
<feFlood flood-opacity="0" result="BackgroundImageFix"/>
<feBlend mode="normal" in="SourceGraphic" in2="BackgroundImageFix" result="shape"/>
<feGaussianBlur stdDeviation="1" result="effect1_foregroundBlur_77_2448"/>
</filter>
<filter id="filter10_f_77_2448" x="22.0527" y="59.6837" width="11.8936" height="11.8938" filterUnits="userSpaceOnUse" color-interpolation-filters="sRGB">
<feFlood flood-opacity="0" result="BackgroundImageFix"/>
<feBlend mode="normal" in="SourceGraphic" in2="BackgroundImageFix" result="shape"/>
<feGaussianBlur stdDeviation="0.5" result="effect1_foregroundBlur_77_2448"/>
</filter>
<filter id="filter11_f_77_2448" x="24.7225" y="62.3528" width="6.55508" height="6.55471" filterUnits="userSpaceOnUse" color-interpolation-filters="sRGB">
<feFlood flood-opacity="0" result="BackgroundImageFix"/>
<feBlend mode="normal" in="SourceGraphic" in2="BackgroundImageFix" result="shape"/>
<feGaussianBlur stdDeviation="0.4" result="effect1_foregroundBlur_77_2448"/>
</filter>
<filter id="filter12_f_77_2448" x="102.995" y="130.083" width="16.9385" height="16.9389" filterUnits="userSpaceOnUse" color-interpolation-filters="sRGB">
<feFlood flood-opacity="0" result="BackgroundImageFix"/>
<feBlend mode="normal" in="SourceGraphic" in2="BackgroundImageFix" result="shape"/>
<feGaussianBlur stdDeviation="1" result="effect1_foregroundBlur_77_2448"/>
</filter>
<filter id="filter13_f_77_2448" x="105.504" y="132.591" width="11.9209" height="11.9211" filterUnits="userSpaceOnUse" color-interpolation-filters="sRGB">
<feFlood flood-opacity="0" result="BackgroundImageFix"/>
<feBlend mode="normal" in="SourceGraphic" in2="BackgroundImageFix" result="shape"/>
<feGaussianBlur stdDeviation="0.5" result="effect1_foregroundBlur_77_2448"/>
</filter>
<filter id="filter14_f_77_2448" x="108.179" y="135.269" width="6.56875" height="6.56838" filterUnits="userSpaceOnUse" color-interpolation-filters="sRGB">
<feFlood flood-opacity="0" result="BackgroundImageFix"/>
<feBlend mode="normal" in="SourceGraphic" in2="BackgroundImageFix" result="shape"/>
<feGaussianBlur stdDeviation="0.4" result="effect1_foregroundBlur_77_2448"/>
</filter>
<filter id="filter15_f_77_2448" x="103.013" y="130.101" width="16.9033" height="16.9034" filterUnits="userSpaceOnUse" color-interpolation-filters="sRGB">
<feFlood flood-opacity="0" result="BackgroundImageFix"/>
<feBlend mode="normal" in="SourceGraphic" in2="BackgroundImageFix" result="shape"/>
<feGaussianBlur stdDeviation="1" result="effect1_foregroundBlur_77_2448"/>
</filter>
<filter id="filter16_f_77_2448" x="105.518" y="132.607" width="11.8936" height="11.8938" filterUnits="userSpaceOnUse" color-interpolation-filters="sRGB">
<feFlood flood-opacity="0" result="BackgroundImageFix"/>
<feBlend mode="normal" in="SourceGraphic" in2="BackgroundImageFix" result="shape"/>
<feGaussianBlur stdDeviation="0.5" result="effect1_foregroundBlur_77_2448"/>
</filter>
<filter id="filter17_f_77_2448" x="108.187" y="135.276" width="6.55508" height="6.55471" filterUnits="userSpaceOnUse" color-interpolation-filters="sRGB">
<feFlood flood-opacity="0" result="BackgroundImageFix"/>
<feBlend mode="normal" in="SourceGraphic" in2="BackgroundImageFix" result="shape"/>
<feGaussianBlur stdDeviation="0.4" result="effect1_foregroundBlur_77_2448"/>
</filter>
<radialGradient id="paint0_radial_77_2448" cx="0" cy="0" r="1" gradientUnits="userSpaceOnUse" gradientTransform="translate(1.41559 19.4124) rotate(90) scale(19.4124 1.41559)">
<stop offset="0.0364583" stop-color="#0071FF"/>
<stop offset="1" stop-color="#0071FF" stop-opacity="0"/>
</radialGradient>
<radialGradient id="paint1_radial_77_2448" cx="0" cy="0" r="1" gradientUnits="userSpaceOnUse" gradientTransform="translate(1.4195 19.3588) rotate(90) scale(19.3588 1.4195)">
<stop offset="0.0364583" stop-color="#0071FF"/>
<stop offset="1" stop-color="#0071FF" stop-opacity="0"/>
</radialGradient>
<radialGradient id="paint2_radial_77_2448" cx="0" cy="0" r="1" gradientUnits="userSpaceOnUse" gradientTransform="translate(1.41559 19.4124) rotate(90) scale(19.4124 1.41559)">
<stop offset="0.0364583" stop-color="#0071FF"/>
<stop offset="1" stop-color="#0071FF" stop-opacity="0"/>
</radialGradient>
<radialGradient id="paint3_radial_77_2448" cx="0" cy="0" r="1" gradientUnits="userSpaceOnUse" gradientTransform="translate(1.4195 19.3588) rotate(90) scale(19.3588 1.4195)">
<stop offset="0.0364583" stop-color="#0071FF"/>
<stop offset="1" stop-color="#0071FF" stop-opacity="0"/>
</radialGradient>
<radialGradient id="paint4_radial_77_2448" cx="0" cy="0" r="1" gradientUnits="userSpaceOnUse" gradientTransform="translate(1.41559 19.4124) rotate(90) scale(19.4124 1.41559)">
<stop offset="0.0364583" stop-color="#0071FF"/>
<stop offset="1" stop-color="#0071FF" stop-opacity="0"/>
</radialGradient>
<radialGradient id="paint5_radial_77_2448" cx="0" cy="0" r="1" gradientUnits="userSpaceOnUse" gradientTransform="translate(1.4195 19.3588) rotate(90) scale(19.3588 1.4195)">
<stop offset="0.0364583" stop-color="#0071FF"/>
<stop offset="1" stop-color="#0071FF" stop-opacity="0"/>
</radialGradient>
</defs>
</svg>
