<svg width="78" height="78" viewBox="0 0 78 78" fill="none" xmlns="http://www.w3.org/2000/svg">
<path d="M64.233 57.8346L65.754 70.1581C66.144 73.395 62.673 75.6569 59.904 73.98L46.41 65.9463C45.474 65.4003 45.24 64.2304 45.747 63.2944C47.697 59.7065 48.75 55.6507 48.75 51.5949C48.75 37.3215 36.504 25.6999 21.45 25.6999C18.369 25.6999 15.366 26.1679 12.558 27.1039C11.115 27.5719 9.711 26.2459 10.062 24.764C13.611 10.5686 27.261 0 43.563 0C62.595 0 78 14.3904 78 32.1347C78 42.6642 72.579 51.9849 64.233 57.8346Z" fill="#182456"/>
<path d="M42.9 51.5949C42.9 56.2357 41.184 60.5255 38.298 63.9184C34.437 68.5982 28.314 71.6011 21.45 71.6011L11.271 77.6458C9.555 78.6988 7.371 77.2558 7.605 75.2669L8.58 67.5842C3.354 63.9574 0 58.1466 0 51.5949C0 44.7312 3.666 38.6864 9.282 35.0986C12.753 32.8366 16.926 31.5497 21.45 31.5497C33.306 31.5497 42.9 40.5193 42.9 51.5949Z" fill="#182456"/>
<path d="M45.9852 63.4239C47.9563 59.7973 49.0212 55.6971 49.0212 51.5949C49.0212 37.1584 36.6401 25.4288 21.45 25.4288C18.342 25.4288 15.3103 25.9008 12.4733 26.8463C11.239 27.2457 10.023 26.1101 10.3255 24.828C13.8428 10.7629 27.3769 0.271158 43.563 0.271158C62.4631 0.271158 77.7288 14.5574 77.7288 32.1347C77.7288 42.5672 72.3583 51.8084 64.0774 57.6126L63.9439 57.7061L63.9639 57.8678L65.4848 70.1906M45.9852 63.4239L45.747 63.2944L45.9854 63.4235C45.9854 63.4237 45.9853 63.4238 45.9852 63.4239ZM45.9852 63.4239C45.5378 64.2503 45.7553 65.2505 46.5466 65.7121L46.5487 65.7133L60.0427 73.747L60.0445 73.748C62.6162 75.3055 65.8477 73.2076 65.4849 70.1913M65.4849 70.1913L65.7538 70.1581L65.4848 70.1906M65.4849 70.1913C65.4849 70.1911 65.4848 70.1908 65.4848 70.1906M65.4849 70.1913L65.4848 70.1906M38.0915 63.7427L38.0914 63.7427L38.0888 63.7458C34.2806 68.3616 28.2351 71.3299 21.45 71.3299H21.3756L21.3115 71.3679L11.1325 77.4126L11.1292 77.4147C9.61354 78.3447 7.66671 77.0714 7.87416 75.2998C7.8742 75.2994 7.87425 75.299 7.8743 75.2986L8.849 67.6184L8.8697 67.4552L8.7346 67.3615C3.57519 63.7808 0.271158 58.0502 0.271158 51.5949C0.271158 44.8319 3.8828 38.8697 9.42799 35.3271L9.43004 35.3257C12.8567 33.0927 16.9782 31.8209 21.45 31.8209C33.1738 31.8209 42.6288 40.6861 42.6288 51.5949C42.6288 56.1671 40.9385 60.3956 38.0915 63.7427Z" stroke="url(#paint0_linear_2006_43036)" stroke-opacity="0.65" stroke-width="0.542316"/>
<defs>
<linearGradient id="paint0_linear_2006_43036" x1="-2.35887" y1="-2.77874" x2="92.8398" y2="41.568" gradientUnits="userSpaceOnUse">
<stop stop-color="white" stop-opacity="0.9"/>
<stop offset="1" stop-color="white" stop-opacity="0"/>
</linearGradient>
</defs>
</svg>
