<svg width="34" height="34" viewBox="0 0 34 34" fill="none" xmlns="http://www.w3.org/2000/svg">
<g filter="url(#filter0_b_24_2148)">
<circle cx="16.6641" cy="17" r="16" fill="#020514"/>
</g>
<path d="M16.6667 0.335938C13.3703 0.335938 10.148 1.31342 7.40717 3.14477C4.66635 4.97614 2.53015 7.5791 1.26868 10.6246C0.00721792 13.6699 -0.322832 17.0211 0.320252 20.2541C0.963335 23.4871 2.55068 26.4568 4.88157 28.7878C7.21243 31.1186 10.1822 32.7059 13.4152 33.3491C16.6482 33.9921 19.9993 33.6621 23.0447 32.4006C26.0902 31.1391 28.6932 29.0029 30.5245 26.2621C32.3558 23.5213 33.3333 20.2989 33.3333 17.0026C33.3333 14.8139 32.9022 12.6466 32.0647 10.6246C31.2272 8.60245 29.9995 6.76514 28.4518 5.21749C26.9042 3.66985 25.0668 2.44219 23.0447 1.6046C21.0227 0.767037 18.8553 0.335938 16.6667 0.335938ZM16.6667 32.0026C13.7 32.0026 10.7999 31.1229 8.33312 29.4746C5.86638 27.8264 3.9438 25.4838 2.80848 22.7429C1.67317 20.0019 1.37612 16.9859 1.9549 14.0763C2.53367 11.1665 3.96229 8.49379 6.06007 6.396C8.15787 4.29822 10.8306 2.8696 13.7403 2.29082C16.65 1.71205 19.666 2.0091 22.407 3.1444C25.1478 4.27972 27.4905 6.20232 29.1387 8.66905C30.787 11.1358 31.6667 14.0359 31.6667 17.0026C31.6623 20.9794 30.0805 24.7923 27.2683 27.6043C24.4563 30.4164 20.6435 31.9983 16.6667 32.0026ZM15.6625 18.7483L11.6977 14.7834L10.5192 15.9618L15.6625 21.1049L23.1267 13.6424L21.9482 12.4641L15.6625 18.7483Z" fill="#E9EDF0"/>
<defs>
<filter id="filter0_b_24_2148" x="-7.52484" y="-7.1889" width="48.3778" height="48.3778" filterUnits="userSpaceOnUse" color-interpolation-filters="sRGB">
<feFlood flood-opacity="0" result="BackgroundImageFix"/>
<feGaussianBlur in="BackgroundImageFix" stdDeviation="4.09445"/>
<feComposite in2="SourceAlpha" operator="in" result="effect1_backgroundBlur_24_2148"/>
<feBlend mode="normal" in="SourceGraphic" in2="effect1_backgroundBlur_24_2148" result="shape"/>
</filter>
</defs>
</svg>
