<svg width="86" height="86" viewBox="0 0 86 86" fill="none" xmlns="http://www.w3.org/2000/svg">
<path d="M43.0013 81.5209C21.7521 81.5209 4.48047 64.2493 4.48047 43.0001C4.48047 21.7509 21.7521 4.47925 43.0013 4.47925C64.2505 4.47925 81.5221 21.7509 81.5221 43.0001C81.5221 64.2493 64.2505 81.5209 43.0013 81.5209ZM43.0013 9.85425C24.7263 9.85425 9.85547 24.7251 9.85547 43.0001C9.85547 61.2751 24.7263 76.1459 43.0013 76.1459C61.2763 76.1459 76.1471 61.2751 76.1471 43.0001C76.1471 24.7251 61.2763 9.85425 43.0013 9.85425Z" fill="#2556BC"/>
<path d="M37.9131 55.8283C37.1965 55.8283 36.5156 55.5416 36.014 55.04L25.8731 44.8991C24.834 43.86 24.834 42.14 25.8731 41.1008C26.9123 40.0617 28.6323 40.0617 29.6715 41.1008L37.9131 49.3425L56.3315 30.9242C57.3706 29.885 59.0906 29.885 60.1298 30.9242C61.169 31.9633 61.169 33.6833 60.1298 34.7225L39.8123 55.04C39.3106 55.5416 38.6298 55.8283 37.9131 55.8283Z" fill="#2556BC"/>
</svg>
