<svg width="70" height="68" viewBox="0 0 70 68" fill="none" xmlns="http://www.w3.org/2000/svg">
<path fill-rule="evenodd" clip-rule="evenodd" d="M27.2746 5.00774L25.483 3.21619C25.2878 3.02093 25.2878 2.70435 25.483 2.50908L26.7558 1.23629C26.9511 1.04103 27.2677 1.04103 27.4629 1.23629L31.5007 5.27409C32.1256 5.89893 32.1256 6.91199 31.5007 7.53683L27.4622 11.5754C27.2669 11.7706 26.9503 11.7706 26.7551 11.5754L25.4823 10.3026C25.287 10.1073 25.287 9.79075 25.4823 9.59549L27.27 7.80774L13.625 7.80774V5.00774L27.2746 5.00774Z" fill="url(#paint0_linear_100_21419)"/>
<path fill-rule="evenodd" clip-rule="evenodd" d="M46.1646 7.65937H54.437C61.1307 7.65937 66.5569 13.0857 66.5569 19.7793C66.5569 26.473 61.1307 31.8993 54.437 31.8993L37.7461 31.8993L39.534 30.1115C39.7292 29.9162 39.7292 29.5996 39.534 29.4044L38.2612 28.1316C38.0659 27.9363 37.7493 27.9363 37.5541 28.1316L33.5155 32.1701C32.8907 32.795 32.8907 33.808 33.5155 34.4329L37.5533 38.4707C37.7486 38.6659 38.0651 38.6659 38.2604 38.4707L39.5332 37.1979C39.7285 37.0026 39.7285 36.686 39.5332 36.4908L37.7417 34.6993L54.437 34.6993C62.6771 34.6993 69.357 28.0194 69.357 19.7793C69.357 11.5393 62.6771 4.85938 54.437 4.85938H46.1646V7.65937Z" fill="url(#paint1_linear_100_21419)"/>
<path fill-rule="evenodd" clip-rule="evenodd" d="M21.858 34.7023H14.92C8.2263 34.7023 2.8 40.1286 2.8 46.8223C2.8 53.516 8.22629 58.9423 14.92 58.9423H15.1256L13.3332 57.1499C13.1379 56.9546 13.1379 56.638 13.3332 56.4428L14.606 55.17C14.8012 54.9747 15.1178 54.9747 15.3131 55.17L19.3509 59.2078C19.9757 59.8326 19.9757 60.8457 19.3509 61.4705L15.3123 65.5091C15.1171 65.7043 14.8005 65.7043 14.6052 65.5091L13.3324 64.2363C13.1372 64.041 13.1372 63.7244 13.3324 63.5292L15.1193 61.7423H14.92C6.67989 61.7423 0 55.0624 0 46.8223C0 38.5822 6.6799 31.9023 14.92 31.9023H21.858V34.7023Z" fill="url(#paint2_linear_100_21419)"/>
<path fill-rule="evenodd" clip-rule="evenodd" d="M47.9659 59.0038L46.1119 57.1498C45.9167 56.9545 45.9167 56.6379 46.1119 56.4427L47.3847 55.1699C47.58 54.9746 47.8966 54.9746 48.0918 55.1699L52.1296 59.2077C52.7545 59.8325 52.7545 60.8456 52.1296 61.4704L48.0911 65.509C47.8958 65.7042 47.5792 65.7042 47.384 65.509L46.1112 64.2362C45.9159 64.0409 45.9159 63.7243 46.1112 63.5291L47.8365 61.8038L34.875 61.8038V59.0038L47.9659 59.0038Z" fill="url(#paint3_linear_100_21419)"/>
<g filter="url(#filter0_bi_100_21419)">
<circle cx="8.07164" cy="6.68102" r="6.68102" fill="#0B2268"/>
<circle cx="8.07164" cy="6.68102" r="6.46189" stroke="url(#paint4_linear_100_21419)" stroke-width="0.438249"/>
</g>
<g filter="url(#filter1_bi_100_21419)">
<circle cx="29.0404" cy="60.4037" r="6.68102" fill="#0B2268"/>
<circle cx="29.0404" cy="60.4037" r="6.46189" stroke="url(#paint5_linear_100_21419)" stroke-width="0.438249"/>
</g>
<g filter="url(#filter2_bi_100_21419)">
<circle cx="24.3763" cy="33.5404" r="6.68102" fill="#0B2268"/>
<circle cx="24.3763" cy="33.5404" r="6.46189" stroke="url(#paint6_linear_100_21419)" stroke-width="0.438249"/>
</g>
<g filter="url(#filter3_bi_100_21419)">
<circle cx="40.7201" cy="6.68102" r="6.68102" fill="#0B2268"/>
<circle cx="40.7201" cy="6.68102" r="6.46189" stroke="url(#paint7_linear_100_21419)" stroke-width="0.438249"/>
</g>
<g filter="url(#filter4_bi_100_21419)">
<circle cx="61.681" cy="60.4037" r="6.68102" fill="#0B2268"/>
<circle cx="61.681" cy="60.4037" r="6.46189" stroke="url(#paint8_linear_100_21419)" stroke-width="0.438249"/>
</g>
<defs>
<filter id="filter0_bi_100_21419" x="-6.8877" y="-8.27832" width="29.9187" height="29.9187" filterUnits="userSpaceOnUse" color-interpolation-filters="sRGB">
<feFlood flood-opacity="0" result="BackgroundImageFix"/>
<feGaussianBlur in="BackgroundImageFix" stdDeviation="4.13916"/>
<feComposite in2="SourceAlpha" operator="in" result="effect1_backgroundBlur_100_21419"/>
<feBlend mode="normal" in="SourceGraphic" in2="effect1_backgroundBlur_100_21419" result="shape"/>
<feColorMatrix in="SourceAlpha" type="matrix" values="0 0 0 0 0 0 0 0 0 0 0 0 0 0 0 0 0 0 127 0" result="hardAlpha"/>
<feOffset dy="1.37972"/>
<feGaussianBlur stdDeviation="2.75944"/>
<feComposite in2="hardAlpha" operator="arithmetic" k2="-1" k3="1"/>
<feColorMatrix type="matrix" values="0 0 0 0 1 0 0 0 0 1 0 0 0 0 1 0 0 0 0.4 0"/>
<feBlend mode="normal" in2="shape" result="effect2_innerShadow_100_21419"/>
</filter>
<filter id="filter1_bi_100_21419" x="14.0811" y="45.4443" width="29.9187" height="29.9187" filterUnits="userSpaceOnUse" color-interpolation-filters="sRGB">
<feFlood flood-opacity="0" result="BackgroundImageFix"/>
<feGaussianBlur in="BackgroundImageFix" stdDeviation="4.13916"/>
<feComposite in2="SourceAlpha" operator="in" result="effect1_backgroundBlur_100_21419"/>
<feBlend mode="normal" in="SourceGraphic" in2="effect1_backgroundBlur_100_21419" result="shape"/>
<feColorMatrix in="SourceAlpha" type="matrix" values="0 0 0 0 0 0 0 0 0 0 0 0 0 0 0 0 0 0 127 0" result="hardAlpha"/>
<feOffset dy="1.37972"/>
<feGaussianBlur stdDeviation="2.75944"/>
<feComposite in2="hardAlpha" operator="arithmetic" k2="-1" k3="1"/>
<feColorMatrix type="matrix" values="0 0 0 0 1 0 0 0 0 1 0 0 0 0 1 0 0 0 0.4 0"/>
<feBlend mode="normal" in2="shape" result="effect2_innerShadow_100_21419"/>
</filter>
<filter id="filter2_bi_100_21419" x="9.41699" y="18.5811" width="29.9187" height="29.9187" filterUnits="userSpaceOnUse" color-interpolation-filters="sRGB">
<feFlood flood-opacity="0" result="BackgroundImageFix"/>
<feGaussianBlur in="BackgroundImageFix" stdDeviation="4.13916"/>
<feComposite in2="SourceAlpha" operator="in" result="effect1_backgroundBlur_100_21419"/>
<feBlend mode="normal" in="SourceGraphic" in2="effect1_backgroundBlur_100_21419" result="shape"/>
<feColorMatrix in="SourceAlpha" type="matrix" values="0 0 0 0 0 0 0 0 0 0 0 0 0 0 0 0 0 0 127 0" result="hardAlpha"/>
<feOffset dy="1.37972"/>
<feGaussianBlur stdDeviation="2.75944"/>
<feComposite in2="hardAlpha" operator="arithmetic" k2="-1" k3="1"/>
<feColorMatrix type="matrix" values="0 0 0 0 1 0 0 0 0 1 0 0 0 0 1 0 0 0 0.4 0"/>
<feBlend mode="normal" in2="shape" result="effect2_innerShadow_100_21419"/>
</filter>
<filter id="filter3_bi_100_21419" x="25.7607" y="-8.27832" width="29.9187" height="29.9187" filterUnits="userSpaceOnUse" color-interpolation-filters="sRGB">
<feFlood flood-opacity="0" result="BackgroundImageFix"/>
<feGaussianBlur in="BackgroundImageFix" stdDeviation="4.13916"/>
<feComposite in2="SourceAlpha" operator="in" result="effect1_backgroundBlur_100_21419"/>
<feBlend mode="normal" in="SourceGraphic" in2="effect1_backgroundBlur_100_21419" result="shape"/>
<feColorMatrix in="SourceAlpha" type="matrix" values="0 0 0 0 0 0 0 0 0 0 0 0 0 0 0 0 0 0 127 0" result="hardAlpha"/>
<feOffset dy="1.37972"/>
<feGaussianBlur stdDeviation="2.75944"/>
<feComposite in2="hardAlpha" operator="arithmetic" k2="-1" k3="1"/>
<feColorMatrix type="matrix" values="0 0 0 0 1 0 0 0 0 1 0 0 0 0 1 0 0 0 0.4 0"/>
<feBlend mode="normal" in2="shape" result="effect2_innerShadow_100_21419"/>
</filter>
<filter id="filter4_bi_100_21419" x="46.7217" y="45.4443" width="29.9187" height="29.9187" filterUnits="userSpaceOnUse" color-interpolation-filters="sRGB">
<feFlood flood-opacity="0" result="BackgroundImageFix"/>
<feGaussianBlur in="BackgroundImageFix" stdDeviation="4.13916"/>
<feComposite in2="SourceAlpha" operator="in" result="effect1_backgroundBlur_100_21419"/>
<feBlend mode="normal" in="SourceGraphic" in2="effect1_backgroundBlur_100_21419" result="shape"/>
<feColorMatrix in="SourceAlpha" type="matrix" values="0 0 0 0 0 0 0 0 0 0 0 0 0 0 0 0 0 0 127 0" result="hardAlpha"/>
<feOffset dy="1.37972"/>
<feGaussianBlur stdDeviation="2.75944"/>
<feComposite in2="hardAlpha" operator="arithmetic" k2="-1" k3="1"/>
<feColorMatrix type="matrix" values="0 0 0 0 1 0 0 0 0 1 0 0 0 0 1 0 0 0 0.4 0"/>
<feBlend mode="normal" in2="shape" result="effect2_innerShadow_100_21419"/>
</filter>
<linearGradient id="paint0_linear_100_21419" x1="9.02601" y1="6.40625" x2="33.3595" y2="5.31607" gradientUnits="userSpaceOnUse">
<stop offset="0.0378115" stop-color="#3F70D8"/>
<stop offset="1" stop-color="#E2EEFE"/>
</linearGradient>
<linearGradient id="paint1_linear_100_21419" x1="52.2994" y1="-1.46902" x2="26.3772" y2="25.3207" gradientUnits="userSpaceOnUse">
<stop stop-color="#3F70D8"/>
<stop offset="1" stop-color="#E2EEFE"/>
</linearGradient>
<linearGradient id="paint2_linear_100_21419" x1="16.3684" y1="31.9023" x2="-3.35302" y2="50.978" gradientUnits="userSpaceOnUse">
<stop stop-color="#3F70D8"/>
<stop offset="1" stop-color="#E2EEFE"/>
</linearGradient>
<linearGradient id="paint3_linear_100_21419" x1="34.875" y1="60.3398" x2="53.0502" y2="59.5905" gradientUnits="userSpaceOnUse">
<stop offset="0.0378115" stop-color="#3F70D8"/>
<stop offset="1" stop-color="#E2EEFE"/>
</linearGradient>
<linearGradient id="paint4_linear_100_21419" x1="8.07164" y1="0" x2="8.07164" y2="13.362" gradientUnits="userSpaceOnUse">
<stop stop-color="#D3E3FF"/>
<stop offset="1" stop-color="#B1CAF1" stop-opacity="0.15"/>
</linearGradient>
<linearGradient id="paint5_linear_100_21419" x1="29.0404" y1="53.7227" x2="29.0404" y2="67.0847" gradientUnits="userSpaceOnUse">
<stop stop-color="#D3E3FF"/>
<stop offset="1" stop-color="#B1CAF1" stop-opacity="0.15"/>
</linearGradient>
<linearGradient id="paint6_linear_100_21419" x1="24.3763" y1="26.8594" x2="24.3763" y2="40.2214" gradientUnits="userSpaceOnUse">
<stop stop-color="#D3E3FF"/>
<stop offset="1" stop-color="#B1CAF1" stop-opacity="0.15"/>
</linearGradient>
<linearGradient id="paint7_linear_100_21419" x1="40.7201" y1="0" x2="40.7201" y2="13.362" gradientUnits="userSpaceOnUse">
<stop stop-color="#D3E3FF"/>
<stop offset="1" stop-color="#B1CAF1" stop-opacity="0.15"/>
</linearGradient>
<linearGradient id="paint8_linear_100_21419" x1="61.681" y1="53.7227" x2="61.681" y2="67.0847" gradientUnits="userSpaceOnUse">
<stop stop-color="#D3E3FF"/>
<stop offset="1" stop-color="#B1CAF1" stop-opacity="0.15"/>
</linearGradient>
</defs>
</svg>
