<svg width="16" height="14" viewBox="0 0 16 14" fill="none" xmlns="http://www.w3.org/2000/svg">
<path fill-rule="evenodd" clip-rule="evenodd" d="M12.2563 13.1861C12.4709 13.3381 12.7476 13.3761 12.9943 13.2828C13.2409 13.1888 13.4223 12.9781 13.4769 12.7228C14.0563 10.0001 15.4616 3.10877 15.9889 0.632099C16.0289 0.445432 15.9623 0.251432 15.8156 0.126766C15.6689 0.00209886 15.4656 -0.0339012 15.2843 0.0334321C12.4889 1.0681 3.88027 4.2981 0.361599 5.6001C0.138265 5.68276 -0.0070681 5.89743 0.000265236 6.13277C0.00826524 6.36876 0.166932 6.57343 0.395599 6.6421C1.9736 7.1141 4.04493 7.77076 4.04493 7.77076C4.04493 7.77076 5.01293 10.6941 5.5176 12.1808C5.58093 12.3674 5.72693 12.5141 5.9196 12.5648C6.1116 12.6148 6.31693 12.5621 6.46027 12.4268C7.27093 11.6614 8.52427 10.4781 8.52427 10.4781C8.52427 10.4781 10.9056 12.2241 12.2563 13.1861ZM4.91627 7.40143L6.0356 11.0934L6.28427 8.75543C6.28427 8.75543 10.6089 4.85477 13.0743 2.63143C13.1463 2.5661 13.1563 2.45677 13.0963 2.3801C13.0369 2.30343 12.9276 2.28543 12.8456 2.33743C9.98827 4.1621 4.91627 7.40143 4.91627 7.40143Z" fill="#B6B9CE"/>
</svg>
