<svg width="27" height="27" viewBox="0 0 27 27" fill="none" xmlns="http://www.w3.org/2000/svg">
<g clip-path="url(#clip0_9_633)">
<path fill-rule="evenodd" clip-rule="evenodd" d="M21.375 27H5.625C2.51888 27 0 24.4811 0 21.375V5.625C0 2.51888 2.51888 0 5.625 0H21.375C24.4823 0 27 2.51888 27 5.625V21.375C27 24.4811 24.4823 27 21.375 27ZM17.676 21.501L17.199 19.836L18.351 20.907L19.44 21.915L21.375 23.625V7.479C21.375 6.453 20.547 5.625 19.53 5.625H7.47C6.453 5.625 5.625 6.453 5.625 7.479V19.647C5.625 20.673 6.453 21.501 7.47 21.501H17.676ZM16.056 17.379C18.045 17.316 18.81 16.011 18.81 16.011C18.81 13.113 17.514 10.764 17.514 10.764C16.218 9.792 14.985 9.819 14.985 9.819L14.859 9.963C16.389 10.431 17.1 11.106 17.1 11.106C16.164 10.593 15.246 10.341 14.391 10.242C13.743 10.17 13.122 10.188 12.573 10.26L12.42 10.278C12.105 10.305 11.34 10.422 10.377 10.845L9.846 11.106C9.846 11.106 10.593 10.395 12.213 9.927L12.123 9.819C12.123 9.819 10.89 9.792 9.594 10.764C9.594 10.764 8.298 13.113 8.298 16.011C8.298 16.011 9.054 17.316 11.043 17.379L11.646 16.632C10.503 16.29 10.071 15.57 10.071 15.57L10.323 15.723L10.359 15.75L10.395 15.7702L10.4051 15.7748L10.44 15.795C10.665 15.921 10.89 16.02 11.097 16.101C11.466 16.245 11.907 16.389 12.42 16.488C13.095 16.614 13.887 16.659 14.751 16.497C15.174 16.425 15.606 16.299 16.056 16.11C16.371 15.993 16.722 15.822 17.091 15.579C17.091 15.579 16.641 16.317 15.462 16.65L16.056 17.379ZM11.871 13.176C11.358 13.176 10.953 13.626 10.953 14.175C10.953 14.724 11.367 15.174 11.871 15.174C12.384 15.174 12.789 14.724 12.789 14.175C12.798 13.626 12.384 13.176 11.871 13.176ZM15.156 13.176C14.643 13.176 14.238 13.626 14.238 14.175C14.238 14.724 14.652 15.174 15.156 15.174C15.669 15.174 16.074 14.724 16.074 14.175C16.074 13.626 15.669 13.176 15.156 13.176Z" fill="white"/>
</g>
<defs>
<clipPath id="clip0_9_633">
<rect width="27" height="27" fill="white"/>
</clipPath>
</defs>
</svg>
