<svg width="65" height="57" viewBox="0 0 65 57" fill="none" xmlns="http://www.w3.org/2000/svg">
<mask id="mask0_0_11" style="mask-type:luminance" maskUnits="userSpaceOnUse" x="0" y="0" width="65" height="57">
<path d="M49.4037 0.220394L0.208984 29.2102L15.365 56.0039L64.5597 27.0141L49.4037 0.220394Z" fill="white"/>
</mask>
<g mask="url(#mask0_0_11)">
<path d="M45.6981 19.0225L55.2979 10.6428L38.2957 17.7663L39.7554 9.93414L31.9001 16.1369L31.0729 11.0217L27.4119 18.4514L36.9394 35.2948L42.3676 35.4325L38.5264 32.6757L46.5973 31.87L40.3634 27.8003L50.4735 19.4505L45.6981 19.0225Z" fill="#0071FF"/>
<path d="M43.7949 27.242L49.0376 27.3788L50.0191 26.0608L48.4992 25.4456L43.7949 27.242Z" fill="#0071FF"/>
<path d="M41.6465 14.3124L44.5005 12.0797L44.3813 10.5605L42.8723 10.946L41.6465 14.3124Z" fill="#0071FF"/>
<path d="M30.1288 23.2554L32.995 20.4174L32.6572 23.1188L42.0026 19.0596L34.694 24.8931L37.1625 26.1768L32.7526 27.894L30.1288 23.2554Z" fill="white"/>
<path d="M25.0528 14.9627C24.7542 14.8711 24.4466 14.9266 24.1457 15.1038C23.8451 15.281 23.6441 15.5253 23.5611 15.8418C23.5414 15.9163 23.5335 15.984 23.5255 16.0516C23.4662 16.8735 23.2495 17.6623 22.8367 18.3776C22.4735 19.0165 22.0738 19.6455 21.6442 20.2764C20.8509 21.4363 19.9945 22.5391 19.0699 23.6031C18.1454 24.6674 17.199 25.6657 16.2242 26.5864C15.2493 27.5071 14.2807 28.3297 13.3182 29.0542L8.88908 31.6643C7.11974 32.7069 6.02711 33.9646 5.61786 35.449C5.20193 36.9217 5.48225 38.535 6.46373 40.27L7.52532 42.1468C8.51345 43.8938 9.74207 44.9481 11.1995 45.3168C12.3171 45.6024 13.5356 45.4667 14.8317 44.9233L21.0146 49.4479C21.8337 50.0509 22.6253 50.3871 23.3612 50.4887C24.1086 50.5833 24.8465 50.416 25.5866 49.9798C26.2342 49.5982 26.714 49.1108 27.0378 48.511C27.3614 47.9111 27.4795 47.2749 27.397 46.5838C27.3145 45.8927 27.0002 45.2281 26.4408 44.5661L23.1311 40.6778C23.4421 40.5732 23.7529 40.4687 24.0524 40.371C25.3209 39.9695 26.6114 39.6341 27.9352 39.3577C29.259 39.0812 30.5999 38.889 31.9691 38.7746C32.7077 38.7172 33.4526 38.6716 34.1996 38.6563C35.0543 38.6407 35.87 38.8836 36.6433 39.2148C36.6865 39.2367 36.7413 39.2516 36.796 39.2667C37.1061 39.3514 37.4025 39.3029 37.7146 39.1189C38.0154 38.9416 38.2162 38.6971 38.2879 38.3876C38.3708 38.0711 38.3233 37.7686 38.143 37.45L25.7578 15.5546C25.5956 15.2409 25.363 15.0476 25.0528 14.9627ZM11.9229 42.5613C11.1951 42.3922 10.5365 41.773 9.94893 40.7342L8.88065 38.8457C8.28644 37.7952 8.0971 36.9154 8.31752 36.1875C8.53794 35.4594 9.1859 34.7787 10.2845 34.1312L12.7593 32.6728L17.1325 40.4041L14.6577 41.8626C13.564 42.4914 12.6508 42.7304 11.9229 42.5613ZM24.6848 46.75C24.7138 46.9374 24.6996 47.1031 24.6191 47.2607C24.5386 47.4182 24.4083 47.5424 24.2349 47.6445C24.015 47.7741 23.7967 47.8239 23.5912 47.7878C23.3855 47.7515 23.1632 47.6309 22.9006 47.4392L17.3995 43.5202L20.3947 41.7554C20.4409 41.728 20.4939 41.7125 20.5468 41.6971L24.3941 46.1815C24.549 46.3736 24.6558 46.5624 24.6848 46.75ZM34.5356 35.9245C33.2102 35.8715 31.897 35.9213 30.5709 36.0575C29.2449 36.1938 27.9471 36.4076 26.6368 36.7077C25.3377 37.001 24.0376 37.3737 22.7593 37.8124C21.6859 38.1772 20.6277 38.5962 19.5895 39.0507L15.1295 31.166C16.0226 30.4824 16.8725 29.7769 17.7023 29.0362C18.7368 28.1117 19.6965 27.137 20.618 26.1218C21.5394 25.1067 22.3746 24.0481 23.1532 22.9439C23.9318 21.8399 24.6308 20.704 25.2433 19.5246L34.5239 35.9315L34.5356 35.9245Z" fill="white"/>
</g>
</svg>
