<svg width="38" height="38" viewBox="0 0 38 38" fill="none" xmlns="http://www.w3.org/2000/svg">
<path d="M25.0155 3.49895C24.3664 2.84979 23.2422 3.29312 23.2422 4.19562V9.72145C23.2422 12.0331 25.2055 13.949 27.5964 13.949C29.1005 13.9648 31.1905 13.9648 32.9797 13.9648C33.8822 13.9648 34.3572 12.904 33.7239 12.2706C31.4439 9.97479 27.3589 5.84229 25.0155 3.49895Z" fill="white"/>
<path d="M32.457 16.1345H27.8812C24.1287 16.1345 21.0729 13.0787 21.0729 9.32616V4.75033C21.0729 3.87949 20.3604 3.16699 19.4895 3.16699H12.7762C7.89953 3.16699 3.95703 6.33366 3.95703 11.9862V26.0145C3.95703 31.667 7.89953 34.8337 12.7762 34.8337H25.2212C30.0979 34.8337 34.0404 31.667 34.0404 26.0145V17.7178C34.0404 16.847 33.3279 16.1345 32.457 16.1345ZM18.207 28.1045H11.8737C11.2245 28.1045 10.6862 27.5662 10.6862 26.917C10.6862 26.2678 11.2245 25.7295 11.8737 25.7295H18.207C18.8562 25.7295 19.3945 26.2678 19.3945 26.917C19.3945 27.5662 18.8562 28.1045 18.207 28.1045ZM21.3737 21.7712H11.8737C11.2245 21.7712 10.6862 21.2328 10.6862 20.5837C10.6862 19.9345 11.2245 19.3962 11.8737 19.3962H21.3737C22.0229 19.3962 22.5612 19.9345 22.5612 20.5837C22.5612 21.2328 22.0229 21.7712 21.3737 21.7712Z" fill="white"/>
</svg>
