<svg width="512" height="512" viewBox="0 0 512 512" fill="none" xmlns="http://www.w3.org/2000/svg">
<rect width="512" height="512" rx="256" fill="#023898"/>
<rect width="512" height="512" rx="256" fill="url(#paint0_radial_102_11)" fill-opacity="0.7"/>
<rect width="512" height="512" rx="256" fill="url(#paint1_radial_102_11)"/>
<g filter="url(#filter0_d_102_11)">
<path fill-rule="evenodd" clip-rule="evenodd" d="M323.607 125.647C300.073 139.085 256.494 164.185 245.338 170.729C234.123 177.308 228.63 185.205 227.441 196.46C227.188 198.858 226.977 209.367 226.972 219.813C226.964 238.542 226.949 238.837 225.89 240.977C225.299 242.17 224.117 243.848 223.262 244.707C221.329 246.647 217.231 247.943 214.379 247.517C213.022 247.313 207.134 244.245 195.932 237.902C177.276 227.338 173.215 225.224 170.171 224.493C164.281 223.078 157.819 223.331 151.996 225.205C149.55 225.992 135.624 233.738 115.596 245.453C105.766 251.203 104.793 252.13 104.79 255.75C104.786 260.416 101.415 258.217 161.099 292.479C203.178 316.635 216.11 323.847 218.452 324.468C220.366 324.974 223.426 325.281 226.791 325.301C235.426 325.354 236.662 324.854 258.369 312.531C275.73 302.674 277.278 301.893 279.922 301.654C282.405 301.43 283.117 301.571 285.469 302.758C288.211 304.142 289.882 305.862 290.984 308.432C291.439 309.491 291.668 315.679 291.877 332.476C292.15 354.387 292.193 355.197 293.255 358.426C294.931 363.524 297.335 367.712 300.599 371.22C303.324 374.149 305.079 375.286 322.414 385.353C346.726 399.472 348.403 400.334 350.717 399.901C353.039 399.466 355.676 397.125 356.32 394.927C356.674 393.719 356.785 374.083 356.684 330.809L356.547 272.474C356.541 269.799 356.082 267.145 355.19 264.624V264.624C353.215 259.039 351.312 256.009 347.264 251.999C343.47 248.24 342.403 247.566 318.608 233.862C312.917 230.585 307.492 227.106 306.41 226.04C302.978 222.659 302.37 217.149 304.946 212.763C306.395 210.296 306.363 210.318 318.596 203.212C340.439 190.523 344.421 188.046 346.921 185.591C350.264 182.309 353.714 176.725 355.24 172.127V172.127C356.051 169.685 356.466 167.13 356.469 164.557L356.5 142.967C356.521 128.956 356.372 116.901 356.17 116.179C355.591 114.114 352.31 112.016 349.665 112.02C347.666 112.022 345.344 113.236 323.607 125.647ZM292.075 218.947C292.727 219.598 292.825 221.802 292.825 235.882C292.825 252.347 292.667 253.921 291.018 253.899C290.568 253.893 283.757 250.168 275.882 245.62C262.643 237.975 261.565 237.254 261.565 236.055C261.565 234.855 262.643 234.135 275.882 226.489C283.757 221.941 290.453 218.216 290.762 218.21C291.072 218.204 291.662 218.536 292.075 218.947ZM259.322 238.293C260.143 239.112 260.143 271.566 259.322 272.385C259.007 272.699 258.308 272.951 257.771 272.945C256.52 272.931 229.388 257.283 228.688 256.172C228.315 255.582 228.309 255.106 228.668 254.539C229.355 253.452 256.542 237.755 257.771 237.736C258.309 237.728 259.007 237.978 259.322 238.293ZM292.252 257.339C292.675 257.761 292.825 262.22 292.825 274.446C292.825 288.844 292.728 291.079 292.075 291.731C291.662 292.142 291.16 292.479 290.959 292.479C290.758 292.479 286.639 290.206 281.806 287.427C276.973 284.649 270.494 280.953 267.409 279.214C261.793 276.049 260.418 274.624 261.722 273.324C262.854 272.194 289.787 256.843 290.701 256.806C291.239 256.785 291.937 257.024 292.252 257.339Z" fill="white"/>
</g>
<defs>
<filter id="filter0_d_102_11" x="79.8287" y="112.02" width="301.816" height="337.811" filterUnits="userSpaceOnUse" color-interpolation-filters="sRGB">
<feFlood flood-opacity="0" result="BackgroundImageFix"/>
<feColorMatrix in="SourceAlpha" type="matrix" values="0 0 0 0 0 0 0 0 0 0 0 0 0 0 0 0 0 0 127 0" result="hardAlpha"/>
<feOffset dy="24.9252"/>
<feGaussianBlur stdDeviation="12.4626"/>
<feComposite in2="hardAlpha" operator="out"/>
<feColorMatrix type="matrix" values="0 0 0 0 0.00197917 0 0 0 0 0.172267 0 0 0 0 0.475 0 0 0 0.35 0"/>
<feBlend mode="normal" in2="BackgroundImageFix" result="effect1_dropShadow_102_11"/>
<feBlend mode="normal" in="SourceGraphic" in2="effect1_dropShadow_102_11" result="shape"/>
</filter>
<radialGradient id="paint0_radial_102_11" cx="0" cy="0" r="1" gradientUnits="userSpaceOnUse" gradientTransform="translate(135.111 106.667) rotate(51.0441) scale(429.796 429.796)">
<stop stop-color="white" stop-opacity="0.59"/>
<stop offset="0.697917" stop-color="white" stop-opacity="0"/>
<stop offset="1" stop-color="white" stop-opacity="0"/>
</radialGradient>
<radialGradient id="paint1_radial_102_11" cx="0" cy="0" r="1" gradientUnits="userSpaceOnUse" gradientTransform="translate(441.863 448) rotate(-93.6705) scale(438.232 488.428)">
<stop stop-opacity="0.23"/>
<stop offset="0.861815" stop-opacity="0"/>
</radialGradient>
</defs>
</svg>
